<?xml version="1.0" standalone="no"?>
<!DOCTYPE svg PUBLIC "-//W3C//DTD SVG 1.1//EN" "http://www.w3.org/Graphics/SVG/1.1/DTD/svg11.dtd" >
<svg xmlns="http://www.w3.org/2000/svg">
<metadata></metadata>
<defs>
<font id="gfs_artemisiaitalic" horiz-adv-x="573" >
<font-face units-per-em="1000" ascent="800" descent="-200" />
<missing-glyph horiz-adv-x="320" />
<glyph unicode="ff" horiz-adv-x="649" d="M688 693q24 -15 24 -47t-29 -49q-8 -5 -16 -7.5t-15.5 -2.5h-12t-11.5 2l-7 2q6 17 8.5 35.5t-7.5 35t-36 12.5q-29 -4 -48 -21t-26 -34t-12 -42l-28 -129l131 1l-8 -38l-128 2q-7 -31 -44.5 -204t-49.5 -224q-25 -112 -66.5 -163t-113.5 -51q-86 -2 -94 43 q-4 16 5.5 34.5t37.5 25.5q18 3 34 -4.5t16 -25.5q-2 -2 -5.5 -6t-5 -6t-3 -5.5t-1 -8t2.5 -10.5q2 -12 22 -12q23 0 41 19.5t28.5 49.5t18 62t13.5 62q1 9 2 13q13 63 42.5 211.5t40.5 199.5h-158q-7 -31 -44.5 -204t-49.5 -224q-25 -112 -67 -163t-114 -51q-85 -2 -94 43 q-4 16 5.5 34.5t37.5 25.5q19 3 34.5 -4.5t15.5 -25.5q-2 -2 -6.5 -7.5t-5.5 -7t-2.5 -8.5t2.5 -13q4 -12 23 -12q22 0 40 19.5t28.5 49.5t18 62t13.5 62q1 9 2 13q16 78 45 223t38 188h-90l7 35h91q19 92 41 135q61 123 198 123q58 0 101 -43q55 43 137 43q33 0 53 -13z M446 610q-9 33 -35.5 51t-61.5 13q-22 -3 -38 -12.5t-25.5 -24.5t-14.5 -28.5t-9 -31.5l-27 -129h158q5 22 24 80t29 82z" />
<glyph unicode="fi" horiz-adv-x="552" d="M536 143q-81 -159 -162 -159q-62 0 -68 55q-5 59 31 208q6 27 16 69.5t16 67.5t8 33q-90 -12 -148 -4q-7 -31 -44.5 -204t-49.5 -224q-25 -112 -66.5 -163t-113.5 -51q-86 -2 -94 43q-4 16 5.5 34.5t37.5 25.5q18 3 34 -4.5t16 -25.5q-2 -2 -5.5 -6t-5 -6t-3 -5.5t-1 -8 t2.5 -10.5q2 -12 22 -12q23 0 41 19.5t28.5 49.5t18 62t13.5 62q1 9 2 13q9 43 40.5 200t43.5 211h-91l8 35h90q18 85 35 123q65 139 228 134q35 -2 53 -12q25 -15 25 -47.5t-29 -49.5q-25 -14 -62 -6q9 26 -6 57.5t-52 26.5q-70 -9 -87 -98l-28 -128q4 -1 20 -1t44.5 2 t51.5 4q54 6 132 31q-60 -194 -81 -293q-2 -11 -6.5 -30t-7 -29.5t-4.5 -25t-1.5 -22.5t3 -16.5t9.5 -13t17 -5.5q24 -1 48.5 26.5t51.5 76.5z" />
<glyph unicode="fl" horiz-adv-x="582" d="M570 710q-16 -46 -75.5 -308t-63.5 -291q-8 -38 -6.5 -57t20.5 -19q13 0 27 11t26 26.5t39 52.5q5 7 8 11l14 -11q-44 -72 -78 -104.5t-82 -32.5q-33 0 -46 20.5t-10 47.5q7 53 55.5 264.5t58.5 282.5q-24 -23 -73 -13q5 12 7 25.5t1 28.5t-11.5 23.5t-30.5 6.5 q-70 -10 -87 -98l-28 -129h105l-7 -34h-103q-7 -31 -45 -204t-50 -224q-25 -112 -66.5 -163t-113.5 -51q-86 -2 -94 43q-4 16 5.5 34.5t37.5 25.5q18 3 34 -4.5t16 -25.5q-2 -2 -5.5 -6t-5 -6t-3 -5.5t-1 -8t2.5 -10.5q2 -12 22 -12q23 0 41 19.5t28.5 49.5t18 62t13.5 62 q1 9 2 13q7 34 20 97.5t23 112t20 97.5t16 77l5 27h-91l8 35h90q19 92 42 136q62 120 198 121q46 0 76 -21q0 -1 17 4t41.5 12t37.5 10z" />
<glyph unicode="ffi" horiz-adv-x="649" d="M698 143q-81 -159 -162 -159q-62 0 -68 55q-5 59 31 208q6 27 16 69.5t16 67.5t8 33q-90 -12 -148 -4q-10 -41 -49 -220t-46 -212q-25 -112 -66 -161t-113 -49q-86 -2 -94 43q-4 16 5.5 34.5t37.5 25.5q18 3 34 -4.5t16 -25.5q-2 -2 -5.5 -6t-5 -6t-3 -5.5t-1 -8 t2.5 -10.5q2 -12 22 -12q23 0 41 19.5t28.5 49.5t18 62t13.5 62q1 9 2 13q13 63 42.5 211.5t40.5 199.5q-5 0 -70 -0.5t-88 0.5q-7 -31 -44.5 -204t-49.5 -224q-25 -112 -67 -163t-114 -51q-85 -2 -94 43q-4 16 5.5 34.5t37.5 25.5q19 3 34.5 -4.5t15.5 -25.5 q-2 -2 -6.5 -7.5t-5.5 -7t-2.5 -8.5t2.5 -13q4 -12 23 -12q22 0 40 19.5t28.5 49.5t18 62t13.5 62q1 9 2 13q16 78 45 223t38 188h-90l7 35h91q19 92 41 135q61 123 198 123q58 0 101 -43q55 43 137 43q36 0 77 -13q28 -13 27 -47t-31 -50q-25 -14 -62 -6q9 26 -6 57.5 t-52 26.5q-70 -9 -87 -98l-28 -128q4 -1 20 -1t44.5 2t51.5 4q54 6 132 31q-60 -194 -81 -293q-2 -11 -6.5 -30t-7 -29.5t-4.5 -25t-1.5 -22.5t3 -16.5t9.5 -13t17 -5.5q24 -1 48.5 26.5t51.5 76.5zM370 610q-9 33 -35.5 51t-61.5 13q-22 -3 -38 -12.5t-25.5 -24.5 t-14.5 -28.5t-9 -31.5l-27 -129h51h59h48q5 22 24 80t29 82z" />
<glyph unicode="ffl" horiz-adv-x="737" d="M751 710q-16 -46 -75.5 -308t-63.5 -291q-8 -38 -6.5 -57t20.5 -19q13 0 27 11t26 26.5t39 52.5q5 7 8 11l14 -11q-44 -72 -78 -104.5t-82 -32.5q-33 0 -46 20.5t-10 47.5q7 53 55.5 264.5t58.5 282.5q-24 -23 -73 -13q5 12 7 25.5t1 28.5t-11.5 23.5t-30.5 6.5 q-70 -10 -87 -98l-28 -129h105l-7 -34h-103q-7 -31 -45 -204t-50 -224q-25 -112 -66.5 -163t-113.5 -51q-86 -2 -94 43q-4 16 5.5 34.5t37.5 25.5q18 3 34 -4.5t16 -25.5q-2 -2 -5.5 -6t-5 -6t-3 -5.5t-1 -8t2.5 -10.5q2 -12 22 -12q23 0 41 19.5t28.5 49.5t18 62t13.5 62 q1 9 2 13q7 34 20 97.5t23 112t20 97.5t15 77l6 27h-171q-9 -38 -47 -211t-48 -217q-25 -112 -66.5 -163t-113.5 -51q-85 -2 -94 43q-4 16 5.5 34.5t37.5 25.5q19 3 34.5 -4.5t15.5 -25.5q-2 -2 -6.5 -7.5t-5.5 -7t-2.5 -8.5t2.5 -13q4 -12 22 -12q23 0 41 19.5t28.5 49.5 t18 62t13.5 62q1 9 2 13q13 63 42.5 211.5t40.5 199.5h-91l8 35h90q0 1 4.5 22t6.5 29t9 31.5t13 35.5t17.5 33.5t23 34t29.5 28t37 24t45 14.5t55 6q67 0 107 -51q57 49 144 50q46 0 76 -21q0 -1 17 4t41.5 12t37.5 10zM386 598q-6 34 -32.5 58.5t-74.5 17.5 q-41 -5 -60.5 -31t-32.5 -67q-3 -12 -7 -36t-8 -53.5t-6 -38.5l174 1q36 124 47 149z" />
<glyph unicode=" "  horiz-adv-x="320" />
<glyph unicode="&#x09;" horiz-adv-x="320" />
<glyph unicode="&#xa0;" horiz-adv-x="320" />
<glyph unicode="!" horiz-adv-x="279" d="M294 584l-132 -400h-13l14 112q4 32 14.5 164.5t15.5 157.5q20 89 73 89q68 0 28 -123zM184 44q-6 -26 -26.5 -40t-42.5 -14q-20 0 -34.5 13.5t-9.5 40.5q5 24 25 40.5t43 16.5q24 0 37 -17t8 -40z" />
<glyph unicode="&#x22;" horiz-adv-x="419" d="M364 664q-6 -31 -79 -214h-22q6 187 12 214q4 20 21 31.5t34 11.5q16 0 27 -11.5t7 -31.5zM187 664q-6 -31 -79 -214h-22q6 187 13 214q4 20 20.5 31.5t33.5 11.5t28 -11.5t6 -31.5z" />
<glyph unicode="#" horiz-adv-x="545" d="M547 481l-12 -57h-110l-51 -141h105l-13 -57h-114l-79 -226h-61l81 226h-141l-83 -226h-60l82 226h-111l11 57h122l52 141h-115l12 57h123l77 211h61l-77 -211h139l76 211h61l-76 -211h101zM365 424h-140l-51 -141h139z" />
<glyph unicode="$" horiz-adv-x="615" d="M644 707q-12 -61 -17 -99q-3 -21 -5 -52t-2 -52l-1 -20h-25q0 60 -28.5 109t-83.5 64l-54 -251q20 -13 28.5 -19t26.5 -19t26.5 -20.5t22.5 -21.5t20.5 -25t15 -26.5t11 -30t2.5 -32.5t-4 -37q-14 -70 -78 -126t-160 -63l-7 -32h-32l7 32q-41 2 -87.5 18.5t-57.5 16.5 q-16 0 -26.5 -10.5t-12.5 -23.5h-24q12 64 15 104q2 21 2 50v48l-1 19h24q34 -185 174 -185h1l59 273q-16 12 -40 28q-21 14 -34.5 24t-29.5 23t-25.5 24.5t-18 27t-12 31t-4 34.5t4.5 41q17 84 83.5 131t143.5 47q5 0 19 -2l6 29h33l-8 -35q16 -4 47 -16t41 -12q28 0 43 36 h22zM451 663q-3 0 -7 0.5t-6 0.5q-42 0 -79.5 -26t-46.5 -72q-10 -42 13.5 -73.5t74.5 -67.5zM464 139q8 39 -3.5 67.5t-59.5 68.5l-53 -248q46 9 77 41t39 71z" />
<glyph unicode="%" horiz-adv-x="782" d="M446 527q-19 -88 -69.5 -132t-98.5 -44q-47 0 -79 45t-14 131q20 89 71.5 133.5t97.5 44.5q50 0 80 -46.5t12 -131.5zM812 694l-601 -694h-43l601 694h43zM791 161q-13 -61 -44 -103t-62.5 -57.5t-60.5 -15.5q-48 0 -79.5 44.5t-13.5 131.5q19 88 70.5 133t97.5 45 q50 0 80.5 -46.5t11.5 -131.5zM388 527q34 162 -37 162q-72 0 -108 -162q-34 -160 39 -160q72 0 106 160zM733 161q36 162 -37 162t-107 -162q-34 -160 39 -160q72 0 105 160z" />
<glyph unicode="&#x26;" horiz-adv-x="785" d="M861 447l-5 -25q-41 -3 -91 -32t-77 -69q-61 -90 -142 -164q4 -8 14 -21.5t27 -31.5t42 -30.5t52 -12.5q67 0 118 49l7 -6q-1 -2 -8.5 -13t-24.5 -29t-37.5 -34.5t-51 -28.5t-61.5 -12q-88 0 -158 96q-36 -27 -61 -43t-79.5 -35t-111.5 -19q-28 0 -53 7t-49.5 23.5 t-34.5 51t0 83.5q27 128 211 220l44 23q-16 100 -5 148q13 63 67 114t129 50q60 0 93.5 -34t20.5 -92q-7 -36 -28 -65.5t-54 -51.5t-57 -34t-61 -28q36 -123 92 -214q40 40 84 102t51 100q7 34 -60 32q6 12 6 27q106 -6 133 -6q72 0 119 5zM582 585q9 38 -10 63t-53 26 q-35 0 -63.5 -23t-38.5 -69q-12 -61 10 -147q18 8 36.5 18t45.5 29t47 46t26 57zM445 108q-57 92 -106 251q-29 -16 -46 -27.5t-44.5 -33.5t-44.5 -50t-24 -60q-13 -61 17.5 -104t86.5 -43q67 0 161 67z" />
<glyph unicode="'" horiz-adv-x="207" d="M157 664q-6 -31 -79 -214h-22q6 187 12 214q4 20 21 31.5t34 11.5q16 0 27 -11.5t7 -31.5z" />
<glyph unicode="(" horiz-adv-x="286" d="M408 690q-37 -25 -58 -41t-57 -52.5t-59 -75t-48.5 -101.5t-41.5 -139q-10 -49 -15 -78.5t-9 -91t4 -104.5t33 -93t69 -82l-16 -17q-38 23 -74.5 69.5t-59.5 94.5q-20 42 -29 78.5t-9 92t15 124.5q28 134 120 247t230 186z" />
<glyph unicode=")" horiz-adv-x="354" d="M295 248q-29 -134 -121 -247.5t-229 -185.5l-6 17q37 26 57.5 41.5t57 52t59.5 74.5t48.5 101t41.5 139q10 47 15.5 78.5t9.5 92t-4 104.5t-33 93.5t-69 81.5l16 17q38 -23 75 -70.5t59 -94.5q20 -42 29 -78.5t9 -91.5t-15 -124z" />
<glyph unicode="*" horiz-adv-x="431" d="M469 582q-5 -23 -19.5 -33t-33.5 -11.5t-57.5 -13t-78.5 -33.5l7 -5q24 -17 55 -26.5t51 -12t32 -12.5t7 -31q-4 -19 -16.5 -28.5t-28.5 -9.5q-15 0 -28.5 13t-22.5 30t-25.5 36t-35.5 28l-6 4l-2 -8q-13 -61 -6.5 -101t4.5 -47q-4 -17 -18 -30.5t-32 -13.5 q-14 0 -23.5 11t-5.5 29q2 9 30 62.5t31 89.5l1 8q-46 -27 -57.5 -35.5t-35.5 -30.5q-34 -30 -45.5 -37t-28.5 -7q-18 0 -24.5 11t-4.5 22q5 23 22.5 34t40.5 13.5t60 13.5t70 31l-10 8q-24 17 -65.5 26t-62.5 19.5t-16 36.5q2 6 5.5 12.5t13.5 14.5t23 8q20 0 31 -15 t33 -43.5t59 -50.5l2 14q10 47 5.5 86t-0.5 58q9 41 47 41q18 0 24 -14t3 -27q-2 -12 -26 -57.5t-31 -75.5l-5 -28l8 5q36 19 86.5 64t70.5 45q13 0 23.5 -8.5t5.5 -28.5z" />
<glyph unicode="+" horiz-adv-x="583" d="M565 299l-14 -69h-229l-49 -230h-69l49 230h-229l15 69h229l48 230h70l-50 -230h229z" />
<glyph unicode="," horiz-adv-x="275" d="M209 7q-10 -49 -63 -96.5t-86 -57.5l-6 20q53 29 79.5 59.5t29.5 50.5q2 6 -1.5 10.5t-9.5 4.5l-10 -2q-9 -3 -16 -3q-25 0 -42 12.5t-12 40.5q8 31 29.5 45.5t44.5 14.5q11 0 22.5 -3.5t25 -14t17 -30t-1.5 -51.5z" />
<glyph unicode="-" horiz-adv-x="369" d="M305 269l-14 -67h-257l13 67h258z" />
<glyph unicode="." horiz-adv-x="253" d="M189 45q-6 -26 -28 -41t-42 -15q-21 0 -36 14.5t-10 41.5q5 25 25.5 42t43.5 17q24 0 38 -17.5t9 -41.5z" />
<glyph unicode="/" horiz-adv-x="433" d="M474 707l-391 -721h-71l393 721h69z" />
<glyph unicode="0" horiz-adv-x="598" d="M545 346q-9 -45 -22.5 -86.5t-40.5 -93t-60.5 -89t-85.5 -64t-114 -27.5q-55 -1 -93.5 24t-56.5 64t-25 89.5t-4.5 95.5t11.5 87q9 43 23 85.5t41 94.5t60.5 90.5t85.5 64.5t112 26q70 0 113.5 -38t56 -98t11.5 -116t-12 -109zM436 346q71 333 -66 333q-29 0 -55 -15.5 t-45 -37.5t-36.5 -56t-28.5 -62.5t-22 -65t-15 -55t-9 -41.5q-6 -29 -10.5 -55t-9.5 -68.5t-2.5 -76.5t10.5 -66t29 -50t53 -18q26 0 50.5 15t43 37t36 54.5t29 61.5t22 64t16 57t10.5 45z" />
<glyph unicode="1" horiz-adv-x="598" d="M432 720q-49 -201 -77 -328q-4 -20 -12.5 -57.5t-14 -61t-12.5 -56t-10.5 -54t-6.5 -43.5t-3 -35.5t3 -18.5q23 -35 87 -37l-7 -30q-8 4 -71.5 7t-86.5 3q-130 0 -152 -8l6 28q62 2 101 37q5 5 10.5 16.5t11.5 30.5t10.5 36.5t10.5 45t10 46t10.5 50t9.5 46.5l55 268 l-116 -33l7 30q30 11 117 54t120 64z" />
<glyph unicode="2" horiz-adv-x="598" d="M560 518q-10 -46 -54 -101.5t-82 -88.5t-78 -64l-245 -184q181 1 250 6q20 2 37 12.5t29.5 28t19 28.5t14.5 29h32q-63 -159 -64 -184h-404l17 67q0 -1 41 34t90 77t66 58q195 174 224 294q13 58 -9.5 102t-87.5 42q-53 -2 -88 -25t-44.5 -52.5t-5 -58.5t21.5 -44 q-11 -9 -34.5 -11t-46.5 5t-35.5 31.5t-3.5 62.5q15 61 77 95t169 30q20 -1 36.5 -2.5t38 -5.5t37.5 -10.5t34 -16.5t27.5 -23.5t19 -32.5t8 -43t-6.5 -55z" />
<glyph unicode="3" horiz-adv-x="598" d="M550 528q-15 -71 -91.5 -113t-157.5 -43q16 -1 32 -3.5t37 -7t37.5 -12t35.5 -18t30.5 -25t21.5 -34t9 -43.5t-7 -55q-13 -52 -45.5 -90.5t-75 -58.5t-84.5 -29.5t-85 -9.5q-99 0 -149 35t-42 94q6 43 33.5 65t57 20t43.5 -22q-29 -28 -31 -66t24 -66.5t73 -28.5 q38 0 69 16t51 41.5t32 48t19 45.5q14 38 8.5 85t-33.5 68q-51 38 -163 19q15 18 17 56q93 -8 154.5 29.5t76.5 109.5q4 29 2.5 59t-26 54.5t-69.5 25.5q-74 4 -112 -51t-9 -102q-14 -7 -34 -9t-40 3t-30.5 26.5t-2.5 55.5q14 54 81 82t153 28q39 0 75 -10t66.5 -30 t44.5 -56t4 -83z" />
<glyph unicode="4" horiz-adv-x="598" d="M531 201l-10 -44h-121q-1 -3 -2 -7.5t-3.5 -17t-3.5 -23.5t0 -23.5t6 -19.5q23 -35 86 -37l-6 -30q-8 4 -72 7t-87 3q-130 0 -152 -8l7 28q63 2 101 36q11 11 20 34t12 41l3 18h-314l8 36l453 513h61l-106 -506h120zM397 584l-337 -383h257z" />
<glyph unicode="5" horiz-adv-x="598" d="M573 708q-17 -30 -25 -48l-20 -47h-298l-38 -179q54 32 113 44t114.5 -3.5t86.5 -60.5q56 -81 25 -201q-17 -66 -52.5 -113.5t-81.5 -70.5t-89 -33t-87 -10q-91 0 -142.5 31t-47.5 98q2 29 16 48.5t33 26t37.5 7t32 -4.5t15.5 -12q-28 -28 -32.5 -67.5t21 -69t74.5 -29.5 q75 1 128 65t66 138q12 74 -2.5 127.5t-55.5 72.5q-53 18 -119 3t-115 -48q24 65 41 149t23 135l5 51q74 -9 188 -9q32 0 78.5 2.5t76.5 5.5z" />
<glyph unicode="6" horiz-adv-x="598" d="M580 577q-9 -48 -41.5 -63.5t-60.5 -7.5l-29 8q28 31 36.5 68.5t-15.5 64.5t-81 22q-60 -6 -113.5 -71t-81.5 -138.5t-33 -128.5q26 41 81.5 71t121.5 27q95 -4 134 -76.5t15 -158.5q-28 -106 -108.5 -160t-191.5 -52q-95 2 -143.5 94.5t-20.5 236.5q20 103 58 179 t86.5 119t98 64.5t104.5 25.5q95 8 145 -30t39 -94zM402 186q11 34 15 65t0.5 63t-27 52.5t-64.5 22.5q-45 3 -98.5 -30t-75.5 -69q-16 -81 -15.5 -134.5t14 -83.5t29 -44.5t28.5 -17.5l13 -4q60 -3 107.5 50.5t73.5 129.5z" />
<glyph unicode="7" horiz-adv-x="552" d="M556 704q-130 -223 -205 -370q-15 -29 -96 -211l-52 -123h-121q68 141 119 230q40 69 105 165.5t110 158.5l45 61h-211q-27 0 -35.5 -1t-22.5 -4t-21.5 -13.5t-17.5 -26t-26 -45.5h-26l56 182q132 -5 217 -5z" />
<glyph unicode="8" horiz-adv-x="602" d="M575 533q-21 -87 -183 -143q72 -39 100 -70q58 -65 38 -160q-19 -95 -100 -136t-199 -38q-104 2 -153.5 56.5t-46.5 126.5t54 123t153 69q-54 26 -87.5 73t-17.5 112q20 84 92 124.5t167 36.5q92 -4 147 -49.5t36 -124.5zM486 542q16 53 -12.5 94.5t-87.5 41.5 q-56 0 -102.5 -34.5t-54.5 -75.5q-14 -61 18.5 -94.5t104.5 -65.5q5 3 28 15t33 19.5t27 22t28 33.5t18 44zM426 164q2 36 -6.5 62.5t-32 48t-46.5 35t-65 33.5q-142 -61 -149 -181q-3 -61 26.5 -100.5t86.5 -42.5q61 -4 121.5 35t64.5 110z" />
<glyph unicode="9" horiz-adv-x="598" d="M556 380q-21 -90 -51.5 -158t-63 -109.5t-73 -68.5t-78 -38.5t-81.5 -15.5q-94 -8 -144 30t-40 95q6 30 21.5 47.5t33.5 21t35.5 3t28.5 -4.5l12 -4q-28 -31 -36 -69t15.5 -64.5t80.5 -21.5q60 5 113 69t80.5 136.5t33.5 128.5q-27 -41 -81 -69.5t-120 -25.5 q-49 2 -84.5 24.5t-51.5 56t-21.5 74.5t7.5 81q28 106 108 159.5t192 52.5q110 -1 156 -85t8 -245zM451 398q21 80 23.5 138t-6 85t-29 41.5t-31 16t-24.5 1.5q-67 0 -112 -50.5t-69 -124.5q-10 -32 -14 -62.5t-0.5 -63t26.5 -53.5t64 -24q49 -4 105.5 27.5t66.5 68.5z" />
<glyph unicode=":" horiz-adv-x="230" d="M240 420q-5 -26 -27.5 -41t-42.5 -15q-21 0 -36 14.5t-10 41.5q5 25 26 42.5t45 17.5q23 0 36.5 -18t8.5 -42zM161 45q-6 -26 -28.5 -41t-42.5 -15t-35.5 14.5t-9.5 41.5q4 24 25 41.5t45 17.5q23 0 37 -17.5t9 -41.5z" />
<glyph unicode=";" horiz-adv-x="245" d="M255 420q-6 -26 -28.5 -41t-42.5 -15t-35.5 14.5t-9.5 41.5q4 24 25 42t45 18q23 0 37 -18t9 -42zM195 7q-10 -50 -61.5 -96t-87.5 -58l-6 20q52 29 78.5 59.5t30.5 50.5q3 15 -11 15q-2 0 -10 -2q-12 -3 -16 -3q-28 0 -44 13t-10 40q12 60 75 60q11 0 21.5 -3 t24.5 -13.5t17.5 -30t-1.5 -52.5z" />
<glyph unicode="&#x3c;" horiz-adv-x="560" d="M616 655l-14 -63l-526 -333l386 -332l-14 -63l-426 370l11 52z" />
<glyph unicode="=" horiz-adv-x="558" d="M559 384l-15 -67h-499l13 67h501zM516 185l-14 -66h-500l13 66h501z" />
<glyph unicode="&#x3e;" horiz-adv-x="560" d="M542 286l-11 -52l-583 -370l13 63l526 332l-385 333l13 63z" />
<glyph unicode="?" horiz-adv-x="422" d="M414 534q-11 -43 -50 -83.5t-79 -67t-75 -60t-41 -64.5q-4 -23 -9.5 -45.5t-8.5 -42.5l-18 1q-18 0 -19 -1l17 87q8 41 34 79.5t54 64t54 60t34 68.5q13 48 5 95t-43 49t-62.5 -17.5t-38.5 -47.5t-9.5 -56.5t18.5 -42.5q-12 -10 -35.5 -13.5t-46.5 3t-34.5 30t0.5 68.5 q14 48 72.5 79t144.5 30q11 0 23 -1.5t30 -6t31.5 -12t28.5 -20.5t21.5 -31t9.5 -43.5t-8 -58.5zM154 46q-6 -26 -26.5 -40.5t-42.5 -14.5h-1q-20 0 -34.5 13.5t-7.5 41.5q5 24 24.5 40t42.5 16q24 0 37 -17t8 -39z" />
<glyph unicode="@" horiz-adv-x="695" d="M688 381q-22 -102 -108 -179.5t-163 -77.5q-33 0 -46.5 23.5t-7.5 54.5q-26 -25 -41.5 -38t-39 -24t-48.5 -11q-54 0 -81 38.5t-15 96.5q17 78 92 144t154 66q33 0 50 -19t15 -52h3l30 62h81l-128 -261q-23 -52 11 -52q46 0 110 68.5t83 158.5t-38.5 155t-168.5 65 q-128 0 -230 -80.5t-128 -205.5q-27 -127 42.5 -206t199.5 -79q73 0 141.5 35t121.5 97h57q-60 -81 -150.5 -129.5t-183.5 -48.5q-146 0 -229 91.5t-53 232.5q31 143 150 241.5t265 98.5q79 0 142.5 -32t95 -93.5t15.5 -139.5zM428 380q5 25 -2.5 47t-32.5 22 q-55 0 -110.5 -76.5t-68.5 -136.5q-6 -32 2 -56.5t38 -24.5q38 0 78 44t64.5 94.5t31.5 86.5z" />
<glyph unicode="A" horiz-adv-x="756" d="M716 22l-5 -22q-93 6 -152 6l-139 -6l4 22q75 0 85 49q3 16 0 51.5t-7 63.5l-5 28h-282q-64 -101 -75 -145q-6 -19 12 -31t52 -16l-5 -22q-73 6 -120 6l-117 -6l5 22q8 0 20.5 1t40 12.5t41.5 31.5q44 62 143.5 218.5t177.5 282.5l78 125h52q0 -2 24.5 -144t52.5 -296 t36 -176q17 -46 83 -55zM494 247l-58 331l-203 -331h261z" />
<glyph unicode="B" horiz-adv-x="711" d="M689 523q-10 -57 -74.5 -100t-174.5 -51q7 -2 37.5 -6.5t52 -9t51 -17t46 -30t25.5 -48.5t1 -71q-11 -58 -52 -100t-96.5 -61.5t-105.5 -27t-94 -5.5q-198 4 -298 2l7 30q60 2 101 38q9 9 22 50.5t23 84t19.5 88.5t10.5 48q0 2 7.5 36.5t14 69.5t14.5 80.5t9.5 70.5 t-1.5 39q-16 29 -85 32l7 28q6 -1 99 -2t183 -2t93 -2q88 -9 129.5 -51t28.5 -113zM585 516q12 56 -17.5 92t-72.5 44q-29 5 -144 8q-5 -11 -15.5 -55.5t-26.5 -124.5t-19 -93q92 0 134 6q69 10 110.5 46t50.5 77zM539 190q10 46 -3 80t-35 49.5t-56 24t-50 9.5t-33 1h-2 h-76l-66 -324q92 -5 154 7q20 4 40.5 11.5t48 23.5t49 46.5t29.5 71.5z" />
<glyph unicode="C" horiz-adv-x="751" d="M763 707l-41 -236h-23q-2 87 -49.5 140.5t-139.5 53.5q-91 0 -170 -64q-105 -84 -142 -257q-33 -156 24.5 -234.5t165.5 -78.5q132 0 258 106l15 -19q-1 -2 -14 -14.5t-41 -33t-63.5 -39t-87 -32t-105.5 -13.5q-66 0 -120.5 19.5t-97 62.5t-56.5 111.5t1 166.5 q17 91 61.5 162.5t105 113.5t128 63.5t137.5 21.5q55 0 114.5 -17.5t61.5 -17.5q40 0 56 35h22z" />
<glyph unicode="D" horiz-adv-x="806" d="M778 344q-11 -51 -31 -97t-58.5 -92.5t-89.5 -79.5t-127.5 -54t-168.5 -21h-296l7 28q59 2 101 38q9 9 21.5 50.5t22.5 84.5t19.5 88t10.5 48q0 2 7.5 36.5t14 69.5t14.5 80.5t9.5 70.5t-1.5 39q-16 29 -86 32l3 26l285 1q193 1 285.5 -87.5t57.5 -260.5zM664 343 q33 149 -47 237q-34 37 -83 55.5t-142 18.5q-47 0 -48 -1l-33 -153q-33 -154 -65 -307l-33 -153h3h9.5t14 -0.5t17.5 -0.5h18q23 0 40 0.5t55 6.5t67 16.5t67.5 33t66.5 54t54 81.5t39 112z" />
<glyph unicode="E" horiz-adv-x="719" d="M711 698q-15 -61 -26 -169h-26q-3 22 -7 38.5t-9.5 28.5t-9 19.5t-11 13.5t-10 8.5t-11.5 6.5t-10 5q-72 12 -242 12q-9 -18 -61 -269q181 -6 203 15q47 38 64 88q1 3 2 5q21 2 25 -1q1 0 -3.5 -16.5t-13 -49.5t-14.5 -58q-7 -28 -13 -61t-8 -51t-3 -19l-26 -1 q0 14 0.5 26.5t-6 30t-20.5 36.5q-14 18 -197 15q-61 -290 -57 -310q171 0 263 19q1 1 10.5 5t13 6t13.5 7t15.5 10t14.5 12.5t16 16t15 19.5t15.5 25t14.5 30l26 1q-48 -145 -58 -191q-215 8 -576 0l7 29q61 3 100 39q26 24 75 271q7 30 18 82.5t22 126.5t5 86 q-16 29 -86 32l7 28q205 -7 559 3z" />
<glyph unicode="F" horiz-adv-x="697" d="M711 696q-11 -49 -26 -170h-25q-3 19 -7 34.5t-7 26t-8.5 20t-8.5 14t-10 9.5t-9 6.5t-10 5.5t-9 4q-72 12 -241 12q-7 -15 -62 -269q47 -3 113 -0.5t83 16.5q22 19 36 37.5t18.5 28.5t9.5 27q21 1 26 -1q1 0 -31 -124q-7 -29 -12.5 -62t-8 -51t-3.5 -19l-27 -1 q5 17 2.5 43.5t-26.5 49.5q-20 19 -191 16q-60 -259 -45 -283q25 -36 85 -38l-6 -30q-8 4 -70 7t-84 3q-97 0 -153 -10l7 30q60 2 101 38q22 21 74 271q60 266 45 296q-16 29 -85 32l6 28q206 -7 559 3z" />
<glyph unicode="G" horiz-adv-x="797" d="M793 372l-6 -28q-16 -1 -24 -2t-22 -8t-29 -22q-19 -19 -73 -259q-2 -1 -20.5 -9t-42 -17t-54 -18.5t-66.5 -16t-68 -6.5q-85 0 -157.5 27t-112.5 84q-23 34 -34.5 64.5t-15 81.5t10.5 115q29 150 152 249.5t287 99.5q62 0 117.5 -17.5t62.5 -17.5q12 0 30.5 8t26.5 27 h23q-16 -57 -26 -110l-13 -111h-24q-5 34 -15 60.5t-30 56t-57 46t-89 16.5q-42 0 -85.5 -15.5t-91 -50t-87 -103t-59.5 -162.5q-30 -141 26.5 -223.5t178.5 -82.5q15 0 30.5 2.5t29.5 7.5t26 10t24 12t19.5 11.5t16 10t9.5 6.5q46 200 31 224q-16 30 -76 32l7 28 q21 -7 139 -7q108 0 131 7z" />
<glyph unicode="H" horiz-adv-x="827" d="M885 693l-6 -28q-70 -3 -99 -32q-6 -6 -14.5 -30t-16.5 -53.5t-17 -67t-15 -64.5l-12 -54l-6 -27q0 -1 -4.5 -21t-8.5 -38.5t-10 -49t-9.5 -53t-7.5 -49.5t-3 -38.5t3 -21.5q24 -36 84 -38l-6 -30q-8 4 -71.5 7t-86.5 3q-18 0 -81 -2.5t-71 -5.5l6 28q61 2 100 38 q6 5 12 19t12.5 35.5t12 42t12 50t10.5 48.5t9.5 48t7.5 38h-328q-55 -254 -42 -281q18 -36 84 -38l-6 -30q-8 4 -72 7t-86 3q-18 0 -81 -2.5t-71 -5.5l6 28q59 2 100 38q22 21 74 271q60 266 45 296q-16 29 -84 32l5 28q17 -7 151 -7q141 0 161 7l-7 -28q-70 -3 -99 -32 q-22 -23 -70 -248h328q48 224 35 248q-17 29 -85 32l6 28q17 -7 151 -7q141 0 161 7z" />
<glyph unicode="I" horiz-adv-x="402" d="M460 693l-7 -28q-70 -3 -98 -32q-16 -17 -43 -128.5t-37 -167.5q-14 -56 -32.5 -155.5t-8.5 -115.5q24 -36 84 -38l-6 -30q-8 4 -70 7t-84 3q-18 0 -80.5 -2.5t-70.5 -5.5l7 28q60 2 99 38q17 16 41.5 119t32.5 152q61 268 45 296q-16 29 -85 32l6 28q17 -7 150 -7 q137 0 157 7z" />
<glyph unicode="J" horiz-adv-x="427" d="M484 693l-5 -28q-71 -3 -99 -32q-6 -6 -14.5 -30t-16.5 -53.5t-17 -67t-15.5 -65t-12 -53.5t-5.5 -27l-31 -146q-12 -57 -36.5 -98.5t-47.5 -61t-52.5 -31t-43.5 -13t-29 -1.5q-59 0 -76 25q-19 29 -12 51q7 23 27 36q10 6 20.5 8.5t17 1.5t14.5 -3t10 -2q-6 -16 -8 -33 t8.5 -31.5t36.5 -12.5q19 1 36.5 17.5t26.5 53.5l54 242q0 2 7.5 36.5t14 68.5t14 80t9 70t-1.5 39q-16 29 -85 32l7 28q15 -7 150 -7q137 0 155 7z" />
<glyph unicode="K" horiz-adv-x="813" d="M866 696l-6 -32q-35 -3 -53.5 -7.5t-60.5 -27.5t-102 -69l-200 -155q33 -56 122 -190.5t104 -148.5q33 -31 93 -38l-7 -30q-7 3 -71 5.5t-83 2.5q-18 0 -82 -2.5t-72 -5.5l7 30q21 1 31 2t25 9t18 24t-62 125.5t-99 159.5l-119 -88q-37 -174 -25 -194q25 -36 85 -38 l-6 -30q-8 4 -69.5 7t-83.5 3q-18 0 -78 -2.5t-68 -5.5l5 28q59 2 98 38q22 21 74 271q61 267 46 296q-8 14 -26 21.5t-28 8.5t-30 2l7 28q15 -7 145 -7q137 0 155 7l-6 -28q-70 -3 -98 -32q-6 -6 -14.5 -30t-16.5 -53.5t-17 -67t-15.5 -65t-12 -53.5t-5.5 -27t-2.5 -14 t-4.5 -20q44 34 105 83t95.5 77.5t107 90t77.5 65.5q24 22 -11 37q-19 8 -42 8l6 29q151 -7 270 3z" />
<glyph unicode="L" horiz-adv-x="667" d="M655 181l-88 -181h-563l6 28q59 2 101 38q9 9 21.5 50.5t22.5 84.5t19.5 88t10.5 48q60 266 45 296q-17 29 -85 32l6 28q15 -7 150 -7q136 0 156 7l-6 -28q-71 -3 -99 -32q-6 -6 -14.5 -30t-16.5 -53.5t-17 -67t-15.5 -65t-12 -53.5t-5.5 -27l-5 -25l-9.5 -47.5 t-12.5 -60t-13.5 -64t-12 -57t-8.5 -41t-3 -14.5h20h44h45q125 0 187 28t126 125h26z" />
<glyph unicode="M" horiz-adv-x="944" d="M1002 693l-7 -28q-67 0 -95 -28q-8 -8 -18 -32.5t-18 -54t-16.5 -67t-14 -64.5t-10.5 -53.5t-5 -27.5q-53 -252 -40 -272q24 -36 84 -38l-6 -30q-8 4 -70.5 7t-84.5 3q-18 0 -79 -2.5t-69 -5.5l5 28q61 2 100 38q7 4 16 25t16 48t15 61.5t13 60t10 50.5t5 27l59 287 q-30 -44 -197.5 -310t-194.5 -314q-4 27 -25 126.5t-42.5 198.5t-42.5 194l-21 96q-4 -19 -17.5 -81.5t-28.5 -137t-19 -91.5q-7 -29 -30 -159q-14 -75 1 -97q13 -21 79 -21q0 -3 -2 -10.5t-4 -12.5l-1 -6h-4q-4 1 -12 2t-18.5 1.5t-22.5 1.5t-23.5 2t-23 1h-20.5 q-103 -5 -127 -8q6 29 7 29q56 0 91 27q13 10 36 100.5t34 147.5q60 280 63 309q1 15 -7 27.5t-19 16.5q-22 9 -49 9l6 29q6 -1 14.5 -1.5l17 -1t16.5 -0.5t16 -0.5t13.5 -0.5h10.5h5q71 0 99 6q81 -409 113 -523q35 57 118.5 188t142.5 225t68 111q15 -3 62 -7q15 -1 77 -1 t71 3z" />
<glyph unicode="N" horiz-adv-x="802" d="M859 695l-8 -30q-49 1 -71 -16q-7 -6 -12 -13t-9.5 -18.5t-6.5 -18.5t-6.5 -26t-6.5 -27q-20 -79 -36 -157q-3 -16 -24 -111t-38.5 -177.5t-20.5 -101.5q-17 4 -31 0q-108 204 -325 569q-4 -20 -26.5 -126t-28.5 -136q-19 -78 -29 -158q-1 -5 -2.5 -15.5t-2 -14.5 t-2 -12.5t-1.5 -11.5t-0.5 -9.5t0.5 -9.5t1.5 -8t2.5 -8.5t4 -6.5q7 -10 20.5 -15.5t23 -6t32.5 -1.5l-7 -29q-9 1 -23 2.5t-47 3.5t-52 2q-109 -5 -131 -8l7 29q69 0 97 30q10 11 35 107t33 138q7 26 34 157.5t29 151.5q-4 32 -27 42q-14 10 -48 10l6 30q6 -1 14.5 -1.5 l17 -1t16.5 -0.5t16 -0.5t13.5 -0.5h10.5h5q41 0 68 5q50 -98 143 -266t147 -253q27 105 48 213q50 227 40 247q-6 14 -25.5 21t-35.5 7h-16q5 22 7 30q38 -5 117 -7h19.5t21 1t21 1.5t19.5 1.5t16 1.5t11 0.5z" />
<glyph unicode="O" horiz-adv-x="797" d="M770 339q-93 -352 -428 -352q-152 0 -224.5 101t-39.5 261q37 180 148 270.5t275 88.5q154 -2 232.5 -103.5t36.5 -265.5zM644 345q14 58 11.5 116.5t-17 105.5t-52 77t-93.5 30q-107 0 -185 -95.5t-109 -228.5q-16 -61 -13.5 -119.5t18 -104.5t53.5 -74t94 -28 q108 0 186.5 94t106.5 227z" />
<glyph unicode="P" horiz-adv-x="673" d="M654 495q-24 -95 -93.5 -144t-168.5 -55l-129 -2q-6 -24 -14 -64.5t-16 -99t1 -64.5q24 -36 84 -38l-6 -30q-8 4 -72 7t-86 3q-18 0 -80 -2.5t-70 -5.5l6 28q59 2 100 38q22 21 74 271q60 266 45 296q-16 29 -84 32l5 28q22 -2 75.5 -1t148.5 0t149 -5q74 -6 112 -60.5 t19 -131.5zM555 493q9 53 -11.5 97t-68.5 60q-8 3 -17 4.5t-22.5 2.5t-23.5 1.5t-32 1t-37 0.5q-11 -23 -73 -335h29.5h26t20.5 0.5t24.5 2.5t26.5 5q64 15 106.5 62t51.5 98z" />
<glyph unicode="Q" horiz-adv-x="797" d="M784 436q0 -166 -101.5 -291.5t-266.5 -152.5q2 -3 14.5 -22t20.5 -28.5t24.5 -28t33.5 -29.5t41 -23t54 -18t65 -7l-5 -19q-14 -1 -49 -1q-249 0 -330 127l-36 56q-85 26 -133 94.5t-48 166.5q0 112 52.5 214t151.5 167.5t221 65.5q133 0 212 -72t79 -199zM351 23 q71 0 131 41t97.5 105t58.5 137t21 141q0 98 -41 162t-125 64q-89 0 -162 -71.5t-109.5 -171t-36.5 -195.5q0 -94 41.5 -153t124.5 -59z" />
<glyph unicode="R" horiz-adv-x="700" d="M688 29l-6 -30q-10 5 -72 5t-96 -5l-180 322h-66q0 -1 -7 -33.5t-12.5 -59.5t-13 -68.5t-8 -60t2.5 -33.5q25 -36 86 -38l-7 -30q-8 4 -70 7t-84 3q-18 0 -80 -2.5t-71 -5.5l6 28q59 2 101 38q9 9 21.5 50.5t22.5 84.5t19.5 88t10.5 48q7 31 17.5 83t22 126.5t4.5 86.5 q-16 29 -84 32l5 27h289q35 0 64 -2.5t66 -13.5t60.5 -29.5t36 -54t2.5 -83.5q-28 -140 -231 -177l163 -266q23 -35 88 -37zM554 511q3 26 4 46t-8.5 35t-18 25.5t-24.5 17.5t-28 10.5t-28.5 5.5t-25.5 2.5t-20 0.5l-65 -1q-23 -113 -62 -295q30 0 49.5 1.5t53 5.5t57 14 t49.5 26t43 43t24 63z" />
<glyph unicode="S" horiz-adv-x="576" d="M570 708q-12 -60 -17 -99q-3 -21 -5 -52t-2 -51l-1 -21h-25q0 72 -40 126t-117 54q-43 0 -79.5 -25.5t-46.5 -72.5q-7 -32 6.5 -59.5t39.5 -49.5t58.5 -43.5t65 -45t57.5 -50t36.5 -63.5t2.5 -80q-16 -75 -86 -132t-175 -57q-46 0 -95.5 17.5t-59.5 17.5q-15 0 -26 -10 t-13 -24h-23q11 63 15 105q2 20 2 49v48l-1 19h24q34 -185 174 -185q59 0 100 35t50 82q7 29 2 54t-36 55.5t-97 74.5q-21 14 -34.5 24t-29 23t-25 24.5t-18.5 27t-12.5 31t-3.5 34.5t5 41q17 84 83 131t143 47q36 0 82.5 -18t54.5 -18q30 0 45 36h22z" />
<glyph unicode="T" horiz-adv-x="642" d="M702 699q-3 -15 -9 -38.5t-8 -34.5t-6 -36.5t-8 -60.5h-26q-8 101 -39 118q-28 15 -143 15q-70 -288 -77 -326q0 -2 -4.5 -21.5t-8.5 -38t-10 -49t-9.5 -52.5t-7.5 -48.5t-3.5 -38.5t3.5 -22q24 -36 84 -38l-6 -30q-8 4 -73 7t-87 3q-19 0 -82.5 -2.5t-72.5 -5.5l7 28 q59 2 100 38q16 16 42.5 121.5t33.5 148.5q30 134 66 326h-17q-97 0 -128 -11q-43 -14 -97 -122h-28q32 105 45 171q360 -5 569 -1z" />
<glyph unicode="U" horiz-adv-x="738" d="M820 693l-6 -29q-71 -3 -99 -32q-13 -13 -19 -31t-15 -62l-58 -274q-6 -26 -10 -42.5t-16 -49t-26.5 -54.5t-40 -49t-57 -44t-78 -28.5t-102.5 -11.5q-250 0 -190 257q2 5 2 7q81 357 68 383q-16 29 -85 32l6 28q15 -7 150 -7q138 0 156 7l-6 -28q-70 -3 -99 -32 q-16 -17 -51.5 -170t-48.5 -220l-6 -33t-4 -37t1 -41.5t12 -37t25 -33.5t43.5 -21t65.5 -9q120 0 189 83q32 39 54 142l60 283q16 72 3 97q-5 9 -12 15t-18 8.5t-17 3.5t-19.5 1h-15.5l5 29q16 -8 124 -8q118 0 135 8z" />
<glyph unicode="V" horiz-adv-x="798" d="M884 691l-5 -29q-10 0 -26 -1t-49 -13t-48 -35l-401 -628h-53q0 2 -24 144t-52.5 297t-37.5 178q-12 29 -34 42.5t-69 14.5l5 30q112 -6 171 -6l154 6l-6 -30q-90 0 -96 -52q-3 -18 1 -59t13.5 -101t19 -113t23 -126t19.5 -109q23 39 67.5 113t78.5 131.5t70 118t56.5 99 t22.5 48.5q5 29 -11.5 39.5t-70.5 11.5l7 29q95 -6 142 -6z" />
<glyph unicode="W" horiz-adv-x="1044" d="M1130 691l-6 -29q-10 0 -26 -1t-49 -13t-47 -35q-41 -65 -133.5 -222t-164.5 -281l-71 -125h-23q0 2 -7 69.5t-19.5 177.5t-24.5 192l-261 -439h-24q1 1 -15.5 144t-38 297t-31.5 177q-12 30 -34 43.5t-70 14.5l7 30q111 -6 171 -6l125 6l-6 -30q-62 1 -69 -52 q-6 -47 8 -224t29 -245q35 58 108 191t89 161l-19 109q-9 23 -15 33t-21.5 19t-40.5 9l6 30q81 -7 141 -7l154 6l-7 -30q-90 0 -96 -52q-10 -71 40 -454q75 124 155.5 276.5t85.5 179.5q5 29 -12 39.5t-70 11.5l7 29q95 -6 142 -6z" />
<glyph unicode="X" horiz-adv-x="745" d="M803 691l-6 -26q-42 -4 -79 -23t-92 -69q-126 -118 -191 -187q2 -4 79 -182q16 -38 24 -55t22.5 -39.5t33.5 -43.5q26 -32 99 -37l-6 -30q-87 8 -167 9q-36 0 -164 -9l6 30q75 0 84 39q5 21 -36 116q-24 61 -54 127q-4 -4 -21.5 -23t-49 -53.5t-58.5 -63.5q-7 -8 -25 -27 t-25 -27.5t-17.5 -23.5t-17.5 -29q-8 -17 14.5 -26.5t55.5 -9.5l-7 -29q-95 4 -131 5q-75 4 -141 -5l6 29q51 1 88.5 18t77.5 55q41 38 74.5 72.5t77.5 82t81 85.5q-20 51 -62 145q-1 3 -7.5 17.5t-8 18t-6.5 15.5t-7.5 16t-7 13.5t-7.5 14.5t-8 12.5t-9.5 13t-9.5 11.5 q-10 12 -21 20.5t-23 13t-20 6.5t-21 3.5t-16 2.5l5 28q21 -7 154 -7q137 0 161 7l-6 -27q-35 -1 -51 -6t-25 -23q-11 -22 26 -105q1 -3 2 -5q43 -99 50 -112q175 183 185 217q7 20 -12 27t-48 6l6 27q106 -6 133 -6q73 0 119 6z" />
<glyph unicode="Y" horiz-adv-x="685" d="M755 693l-6 -27q-7 -1 -24 -1.5t-24.5 -3t-24 -11t-36 -27.5t-46.5 -50q-94 -107 -198 -236q-53 -254 -37 -269q24 -37 84 -39l-7 -30q-16 10 -156 10q-131 0 -153 -8l5 28q61 2 101 39q7 7 16.5 34t18.5 65.5t15.5 70.5t12.5 66l7 33q-68 180 -119 288q-6 14 -13.5 22.5 t-18.5 12.5t-15.5 5t-20 1h-16.5l6 27q8 -3 66.5 -6.5t71.5 -2.5q18 0 76.5 2.5t66.5 5.5l-6 -27h-18t-19 -0.5t-18.5 -6.5t-16.5 -18q-2 -4 -2.5 -11t2 -18t5.5 -23t8.5 -29t10.5 -31.5t12.5 -35t13.5 -36t14.5 -38t13.5 -37.5q105 118 190 242q9 14 -7 28t-43 14l5 26 q89 -4 115 -4q36 0 108 6z" />
<glyph unicode="Z" horiz-adv-x="682" d="M714 696q-193 -221 -303 -354l-248 -305q209 0 298 19q20 9 29 14t29.5 19.5t37.5 39.5t32 59h23q-8 -26 -19 -59.5t-15.5 -48t-10.5 -36.5t-11 -46q-161 7 -552 0q96 101 299 346l258 316q-207 -1 -276 -19q-23 -8 -37 -16t-38 -34t-46 -69h-22q29 98 47 174 q179 -8 525 0z" />
<glyph unicode="[" horiz-adv-x="281" d="M404 692l-6 -26h-94q-22 0 -35.5 -9.5t-16.5 -17.5t-5 -20l-149 -702q-14 -54 40 -54h89l-6 -26h-220l181 855h222z" />
<glyph unicode="\" horiz-adv-x="559" d="M401 0h-55l-200 669h54z" />
<glyph unicode="]" horiz-adv-x="345" d="M347 692l-182 -855h-220l6 26h94q46 0 56 46l150 703q9 54 -40 54h-90l5 26h221z" />
<glyph unicode="^" horiz-adv-x="475" d="M427 232h-58l-132 295l-131 -295h-59l168 363h45z" />
<glyph unicode="_" horiz-adv-x="334" d="M376 -64l-7 -36h-373l8 36h372z" />
<glyph unicode="`" horiz-adv-x="204" d="M130 738l-21 -4l-153 130q-12 11 -17.5 28t1.5 28q13 13 31.5 8t29.5 -17z" />
<glyph unicode="a" horiz-adv-x="536" d="M520 109q-48 -119 -123 -124q-45 -3 -61 17t-8 65q-41 -34 -101.5 -57t-100.5 -20q-118 6 -98 107q16 80 96.5 129.5t253.5 78.5l14 61q9 40 -15.5 60.5t-65.5 20.5q-37 0 -62 -14.5t-33 -39.5q-2 -18 -1.5 -23t8.5 -11t9 -8q-9 -13 -33 -22.5t-48 -8.5q-30 2 -36.5 32.5 t13.5 56.5q19 27 67 48t121 22q101 0 136 -44q15 -19 17.5 -49.5t-2.5 -51.5l-5 -21l-25 -119q-3 -12 -7.5 -30.5t-7 -30.5t-6 -27t-3.5 -24t1 -18t6 -13t13 -4q16 0 31.5 17.5t23.5 35.5l7 17zM373 280q-216 -54 -243 -147v-2q-12 -39 3.5 -59.5t47.5 -22.5 q27 -2 79.5 13.5t73.5 36.5q24 116 39 181z" />
<glyph unicode="b" horiz-adv-x="505" d="M465 249q-8 -39 -30.5 -81t-59 -83.5t-94.5 -68t-127 -26.5q-23 0 -50 10.5t-57 27.5t-35 19q31 106 51 197q16 72 46.5 235t27.5 176q-4 19 -40 19l6 28q7 -4 59.5 -2t81.5 11q-8 -19 -27 -97t-34 -147l-15 -69q21 29 64 56t96 27q60 0 97 -35.5t43.5 -87t-3.5 -109.5z M364 210q9 51 7.5 96.5t-26 77t-69.5 31.5q-35 0 -74.5 -19.5t-47.5 -59.5l-56 -263q-5 -24 28 -37t61 -13q43 0 76.5 19t53 50t30.5 59t17 59z" />
<glyph unicode="c" horiz-adv-x="483" d="M467 419q8 -28 -8.5 -59.5t-46.5 -32.5q-8 0 -15.5 1.5t-13 5.5t-9 6.5t-7.5 7.5l-4 4q26 32 25 55q-1 22 -21.5 34t-50.5 9q-19 -2 -40 -9.5t-49 -26t-51 -57t-35 -92.5q-18 -89 16.5 -144t101.5 -55q51 0 90 25t80 72l12 -9q-112 -164 -243 -164q-73 0 -122.5 60.5 t-25.5 173.5q18 81 67 142t107.5 89t116.5 27q108 -1 126 -63z" />
<glyph unicode="d" horiz-adv-x="553" d="M571 710q-50 -172 -93.5 -360t-55.5 -284q-2 -11 3.5 -18.5t17.5 -5.5q27 4 87 78l13 -11q-32 -55 -73.5 -90t-74.5 -36q-24 0 -36.5 9t-13 27t1.5 30t7 31q-61 -90 -163 -90q-11 0 -23 1.5t-30.5 7t-33 16t-30.5 27.5t-22.5 41.5t-9.5 59.5t9 80q22 103 103 180.5 t168 77.5q70 0 103 -61q14 52 27 137t10 101q-3 18 -40 18l6 29q7 -4 60.5 -4t82.5 9zM403 351q8 53 -17 76.5t-67 23.5q-51 0 -100.5 -48t-70.5 -145q-23 -109 9 -164.5t90 -49.5q20 2 34.5 7.5t33 24t33 50t29.5 89t26 136.5z" />
<glyph unicode="e" horiz-adv-x="495" d="M466 290h-325q-12 -56 -8 -95.5t14 -65.5t30 -40.5t39.5 -20.5t42.5 -6q33 0 62.5 10.5t54 31t37.5 33.5t31 34l15 -7q-8 -14 -19.5 -30.5t-36 -44t-52 -48t-68 -36t-83.5 -15.5q-89 0 -131 63.5t-18 173.5q15 68 48 120t73 80t78.5 41t72.5 13q77 0 116 -46.5t27 -144.5 zM366 323q3 19 1.5 40t-6.5 39t-23 29.5t-47 11.5q-45 0 -79 -27t-60 -93h214z" />
<glyph unicode="f" horiz-adv-x="359" d="M450 693q24 -15 24.5 -47t-28.5 -49q-7 -4 -14.5 -6.5t-13 -3.5t-11.5 -0.5t-9.5 1t-8 2t-5.5 1.5q4 12 6 25.5t1 28.5t-11.5 23.5t-30.5 5.5q-22 -3 -38 -12.5t-25.5 -24.5t-14.5 -28.5t-9 -31.5l-27 -129l131 1l-9 -38l-127 2q-7 -31 -44.5 -204t-49.5 -224 q-25 -112 -67 -163t-114 -51q-85 -2 -94 43q-4 16 5.5 34.5t37.5 25.5q19 3 34.5 -4.5t15.5 -25.5q-2 -2 -6.5 -7.5t-5.5 -7t-2.5 -8.5t2.5 -13q4 -12 23 -12q22 0 40 19.5t28.5 49.5t18 62t13.5 62q1 9 2 13q16 78 45 223t38 188h-90l7 35h91q19 92 41 135q61 123 198 123 q33 0 53 -13z" />
<glyph unicode="g" horiz-adv-x="501" d="M543 456q-9 -65 -49 -65q-30 0 -63 15q4 -24 4 -43q0 -60 -20.5 -103.5t-53.5 -64.5t-65 -30t-65 -9q-7 0 -29.5 2.5t-25.5 2.5q-17 -2 -47 -28.5t-30 -40.5q0 -23 76 -26l133 -5q60 -3 83 -30t23 -62q0 -46 -34 -85t-83.5 -62.5t-100 -36.5t-88.5 -13q-78 0 -122.5 25.5 t-44.5 63.5q0 59 131 140q-44 22 -44 46q0 12 5.5 23t33 36.5t79.5 63.5q-78 39 -78 113q0 82 66 140t151 58q29 0 67.5 -11t59.5 -27q18 -8 58 -8q56 0 73 21zM246 181q51 0 76.5 46.5t25.5 105.5q0 118 -74 118q-44 0 -75.5 -39t-31.5 -123q0 -108 79 -108zM378 -67 q1 4 1 11q0 13 -7.5 21.5t-27 12t-34.5 4.5t-49 2q-118 4 -168 14q-27 -25 -39 -38t-22 -30.5t-10 -33.5q0 -26 34 -45t108 -19q89 0 147 29t67 72z" />
<glyph unicode="h" horiz-adv-x="589" d="M571 142q-13 -24 -25.5 -44.5t-23.5 -35t-22 -26.5t-19.5 -20t-18 -14t-15 -9t-13.5 -5t-11 -2.5l-9 -1.5h-7q-18 -1 -37.5 6.5t-27.5 24.5q-4 22 -5 35t6.5 46t13.5 54.5t17 59t17 60.5q37 147 7 157q-22 7 -51.5 -2.5t-55.5 -27.5t-48.5 -37t-36.5 -33l-13 -14 q-42 -195 -62 -313q-10 3 -40.5 4t-48.5 -4q10 24 79 315q19 84 42.5 206t20.5 136q-1 20 -45 18l6 28q18 -4 60 -4t83 10q-12 -29 -46.5 -179.5t-39.5 -178.5q33 37 103 87t114 54q42 3 62.5 -7.5t20.5 -50t-9 -81t-34 -133.5q-35 -128 -36 -141q-3 -25 17 -27q4 -1 8 -1 q22 0 46 24t35.5 44t18.5 35z" />
<glyph unicode="i" horiz-adv-x="292" d="M264 646q-4 -24 -25.5 -41.5t-46.5 -17.5q-24 0 -37.5 17.5t-8.5 41.5q4 25 25.5 42.5t46.5 17.5t38.5 -17.5t7.5 -42.5zM276 143q-81 -159 -163 -159q-62 0 -68 55q-5 59 31 208q5 22 18 70.5t18.5 75.5t4.5 36q-3 20 -44 20l6 29q4 -4 59 -3.5t85 9.5 q-60 -194 -81 -293q-2 -12 -6.5 -30t-7 -29t-5 -25.5t-2 -22.5t3 -16.5t9 -13t16.5 -5.5q24 -1 49 26.5t52 76.5z" />
<glyph unicode="j" horiz-adv-x="324" d="M310 647q-6 -25 -27 -42.5t-46 -17.5t-38.5 17.5t-8.5 42.5q5 24 26.5 41.5t45.5 17.5q25 0 39 -17.5t9 -41.5zM265 484q-8 -29 -27 -116.5t-41 -194.5t-30 -145q-29 -137 -71.5 -197t-120.5 -60q-84 -2 -94 43q-2 9 0 20t12.5 23t30.5 17q19 3 35 -4.5t15 -25.5 q-2 -3 -5 -6.5t-5 -5.5t-3.5 -5.5t-1 -8t2.5 -10.5q5 -12 23 -12t34 17.5t27 50t18 58t15 61.5q2 9 3 14q16 69 51.5 244.5t33.5 188.5q-4 20 -45 20l7 29q13 -4 55.5 -4t80.5 9z" />
<glyph unicode="k" horiz-adv-x="507" d="M497 434q-4 -22 -32 -44.5t-56 -35.5t-75.5 -33t-62.5 -27q46 -115 73 -158q9 -15 17.5 -31.5t11.5 -22t8.5 -9.5t15.5 -5q25 -2 43.5 24.5t28.5 56.5l23 -8q-19 -70 -53 -113t-67 -43q-55 0 -107 108l-78 165l-34 -15q-6 -33 -16.5 -85t-17.5 -90t-11 -67q-51 11 -90 0 q34 106 66 249q16 71 46 233t27 176q-3 18 -40 18l6 28q16 -3 63 -3t76 8q-16 -46 -56 -226t-45 -211q17 6 41 18q158 74 175 112q9 20 9 33t-5 18l-5 6q21 19 70 23q9 1 21 -1.5t23 -14.5t7 -33z" />
<glyph unicode="l" horiz-adv-x="271" d="M259 710q-16 -46 -76 -307t-64 -292q-4 -22 -5.5 -34t-0.5 -23t5.5 -15t14.5 -4q19 0 38 20.5t62 80.5l14 -11q-44 -72 -78 -104.5t-81 -32.5q-34 0 -47.5 20.5t-9.5 47.5q6 44 64.5 301.5t53.5 300.5q-1 18 -40 18l6 29q7 -4 60.5 -4t83.5 9z" />
<glyph unicode="m" horiz-adv-x="823" d="M805 142q-13 -24 -25.5 -44.5t-23.5 -35t-22 -26.5t-19.5 -20t-18 -14t-15 -9t-13.5 -5t-11 -2.5l-9 -1.5h-7q-18 -1 -37.5 6.5t-27.5 24.5q-4 21 -4.5 35t6.5 46t13.5 54.5t17 59t16.5 60.5q37 147 7 157q-22 7 -49.5 -2.5t-50.5 -27.5t-42.5 -37t-31.5 -33l-11 -14 q-15 -55 -27 -109.5t-24 -117.5t-17 -87q-12 4 -40 4t-46 -5q4 9 13.5 50t23.5 107t18 84q11 49 17 78.5t9.5 55.5t1 38.5t-9.5 15.5q-22 7 -50 -2.5t-52 -27.5t-44.5 -37t-32.5 -33l-12 -14q-63 -284 -68 -314q-12 4 -40 4.5t-47 -4.5q12 22 60 240q4 16 10.5 45t11 48.5 t9 42t6 36.5t0.5 20q-4 20 -45 18l6 29q15 -4 60.5 -4.5t84.5 9.5q-26 -60 -38 -132q35 40 96.5 88.5t105.5 52.5q60 4 75 -28.5t-6 -112.5q38 43 96 90t102 51q79 6 82.5 -55t-43.5 -217q-36 -132 -37 -135q-4 -30 14 -33q4 -1 12 -1q22 0 46.5 24.5t35.5 44t18 34.5z" />
<glyph unicode="n" horiz-adv-x="572" d="M554 142q-13 -24 -25.5 -44.5t-23.5 -35t-22 -26.5t-19.5 -20t-18 -14t-15 -9t-13.5 -5t-11 -2.5t-10 -1.5h-6q-18 -1 -37.5 6.5t-26.5 24.5q-4 21 -5 35t6 46t13.5 54.5t17 59t16.5 60.5q38 146 8 157q-22 7 -51.5 -2.5t-55.5 -27.5t-48.5 -37t-36.5 -33l-13 -14 q-27 -101 -63 -313q-11 4 -43.5 4t-50.5 -5q7 16 31.5 105.5t36.5 141.5q34 152 28 185q-3 20 -45 18l6 29q15 -4 62 -4.5t84 9.5q-18 -41 -38 -132q35 38 104 87.5t114 53.5q42 3 62.5 -7.5t20.5 -50t-9.5 -81.5t-34.5 -133q-36 -131 -37 -139q-4 -27 16 -30h9 q51 1 102 103z" />
<glyph unicode="o" horiz-adv-x="550" d="M513 228q-12 -72 -45.5 -124t-78.5 -77.5t-89 -36t-86 -6.5q-88 8 -136 83.5t-32 172.5q21 125 96 183.5t188 53.5h1q22 2 49 -5.5t55 -25t48.5 -47.5t30 -72t-0.5 -99zM410 201q12 65 11 120.5t-27.5 92t-74.5 36.5q-60 -1 -103 -46t-63 -124q-21 -88 -12.5 -147.5 t32.5 -90t55 -33.5q61 -4 109.5 43.5t72.5 148.5z" />
<glyph unicode="p" horiz-adv-x="527" d="M488 257q-23 -115 -99.5 -191t-182.5 -76q-60 0 -99 47l-35 -165q-1 -3 -1 -5q-1 -2 -1 -3q-2 -13 -11 -69q-10 3 -40.5 3.5t-48.5 -4.5q7 15 28 97t33 140q3 13 20.5 91.5t27 123t18 102.5t6.5 84q-1 6 -6 8.5t-17.5 3t-16.5 1.5l5 28q7 -4 54.5 -3t78.5 11l-16 -76 l2 -2q78 78 170 78q73 0 112.5 -61.5t18.5 -162.5zM386 225q4 19 5.5 42t-1.5 62t-27.5 64t-68.5 25q-31 0 -70.5 -19.5t-49.5 -47.5l-54 -257q-5 -20 24.5 -45.5t69.5 -25.5q13 0 27.5 3t36.5 15.5t41 33t37.5 59.5t29.5 91z" />
<glyph unicode="q" horiz-adv-x="529" d="M525 489q-20 -52 -54.5 -202.5t-54.5 -252.5q-5 -25 -17.5 -85t-21 -102t-8.5 -51q-14 4 -45.5 3.5t-42.5 -4.5q12 47 18 74l49 198q-47 -43 -87 -60t-87 -17q-76 0 -115 59.5t-12 169.5q29 125 110 193.5t183 68.5q25 0 45.5 -5.5t30.5 -11t34 -19.5q46 19 75 44z M408 350q24 101 -76 101q-65 0 -118 -55.5t-72 -148.5q-40 -184 92 -195q33 -4 76.5 18.5t51.5 58.5z" />
<glyph unicode="r" horiz-adv-x="393" d="M394 395q-6 -9 -15.5 -15.5t-16 -8.5t-17 -4t-11.5 -2q-1 14 -7.5 23.5t-25 7.5t-45.5 -24q-28 -22 -48 -40t-26 -26l-7 -7q-40 -188 -60 -299q-10 4 -41.5 4.5t-50.5 -4.5q6 15 30 102t37 144q34 152 28 185q-3 20 -46 18l7 29q15 -5 57 -6t81 9q-3 -8 -11.5 -43.5 t-15.5 -66t-8 -30.5q38 46 64 70q32 32 57 49t56 21q35 5 46 -22.5t-11 -63.5z" />
<glyph unicode="s" horiz-adv-x="461" d="M437 478l-28 -152h-25q6 57 -19 89.5t-63 34.5q-55 4 -87.5 -16.5t-37.5 -58.5q-3 -18 5.5 -34.5t28.5 -30.5t37 -23.5t43.5 -21.5t36.5 -17q79 -44 61 -124q-13 -64 -65.5 -99.5t-113.5 -34.5q-21 0 -46.5 3t-52 8t-34.5 6q-11 2 -24 -13l-20 1l25 163h23q-4 -51 28 -96 t102 -45q82 0 98 72q11 55 -36 77l-71 36q-31 16 -48.5 27.5t-37 29.5t-25 41t0.5 52q14 63 73 98t145 31q26 -1 56 -11t36 -10q4 0 7.5 4.5t5.5 9t1 4.5h21z" />
<glyph unicode="t" horiz-adv-x="319" d="M317 472l-6 -33h-109l-10 -44q-10 -44 -25 -107.5t-22 -99.5q-3 -12 -7 -30t-6.5 -28.5t-5 -24.5t-2 -22t3 -16.5t9 -12.5t16.5 -5q24 -1 48 26t53 77l23 -9q-81 -159 -161 -159q-63 0 -69 55q-5 54 31 208q4 17 18 71.5t19.5 82.5t4.5 37h-62q49 30 105 85q32 31 77 82 q-19 -89 -28 -133h105z" />
<glyph unicode="u" horiz-adv-x="571" d="M553 142q-86 -158 -165 -158h-6t-7 0.5t-6.5 1t-7 1t-7 1.5t-7 2.5t-6 3.5t-5.5 4.5t-4 6t-3 7.5q-11 39 11 114q-40 -52 -104.5 -93.5t-112.5 -45.5q-26 -3 -42.5 1t-25 18t-10.5 32.5t3 52.5t13.5 70.5t24.5 93.5q8 24 21 89t10 80q-2 20 -45 18l6 27q17 -4 59 -5t82 7 q-32 -115 -66 -271q-23 -109 -21 -127q2 -16 15 -19q23 -5 52.5 5t55 27.5t47 35.5t34.5 31l13 13q16 65 36 167.5t27 137.5q12 -4 44 -5.5t51 2.5q-24 -72 -70 -249q-32 -120 -33 -133q-4 -33 20 -35h5q50 1 101 103z" />
<glyph unicode="v" horiz-adv-x="476" d="M486 419q-1 -15 -9 -32.5t-24.5 -41t-29.5 -41t-39.5 -51t-40.5 -51.5q-107 -141 -139 -202q-11 4 -33 3.5t-31 -2.5q-41 351 -64 406q-7 17 -19 25t-19.5 8.5t-25.5 0.5l5 28q7 -4 65.5 -2t88.5 10q0 -62 38 -422q46 68 98 161t74 164q5 15 5 29.5t-3 23.5t-7 16t-6 10 l-3 3l3 2q4 2 9.5 4.5t12.5 6t16.5 6t18.5 3.5q7 2 20 0.5t27.5 -18t11.5 -47.5z" />
<glyph unicode="w" horiz-adv-x="730" d="M738 418q-5 -24 -22.5 -53.5t-50.5 -78.5t-53 -82q-35 -57 -65.5 -105.5t-43.5 -69t-18 -30.5q-10 3 -32 3t-32 -2q-28 165 -47 289q0 -1 -19 -33.5t-42 -71t-33 -53.5q-49 -77 -77 -131q-11 4 -33 3.5t-31 -2.5q-41 353 -63 407q-7 17 -19.5 25.5t-20 9t-24.5 0.5l5 26 q5 -3 64.5 -1t88.5 10q0 -74 37 -422q106 192 201 414h33q19 -140 49 -416q7 13 36 68t41.5 80.5t32.5 76t34 100.5q4 15 4 29t-3 23.5t-6.5 16.5t-6.5 10l-2 3l4 2q3 2 8.5 5t12.5 6t16 6t18 4h1q9 0 17 -1t21.5 -6.5t19 -20.5t0.5 -38z" />
<glyph unicode="x" horiz-adv-x="532" d="M534 471l-7 -30q-30 0 -73 -34l-150 -135l16 -38q17 -37 39 -86t31 -70q10 -25 32 -37.5t43 -12.5l-6 -28q-92 13 -153 1q0 3 -22 67l-49 133l-128 -137l-59 -64q-46 9 -84 0l6 29q41 0 74 34q12 12 82.5 77.5t95.5 92.5l-78 174q-7 17 -20.5 25t-21.5 8.5t-26 0.5l6 30 q6 -3 59 -1.5t86 7.5l5 -13q4 -12 10 -28.5t8 -22.5q3 -9 13.5 -38.5t18.5 -51t9 -22.5q0 -1 23 23t51 52.5t36 36.5t22.5 23.5t25.5 27.5l11 13q36 -15 74 -6z" />
<glyph unicode="y" horiz-adv-x="505" d="M515 419q-2 -23 -31.5 -66.5t-86 -119t-90.5 -126.5q-75 -114 -142 -192q-65 -78 -106.5 -110.5t-86.5 -29.5q-49 3 -58 59q-4 25 14.5 48t38.5 34l20 10q-3 -39 11 -63q12 -19 46 -13q23 4 55 38q65 73 73 88q-48 377 -70 431q-15 33 -65 33l6 29q5 -3 64 -1.5t89 10.5 q0 -31 6.5 -100.5t18.5 -173.5t16 -149q46 66 98.5 160t74.5 165q5 15 5 29.5t-3 23.5t-7 16t-7 10l-2 3l4 2q3 2 9 4.5t13 6t16 6t18 3.5q3 3 13.5 0.5t21.5 -6t18.5 -19.5t5.5 -40z" />
<glyph unicode="z" horiz-adv-x="508" d="M497 470l-4 -15l-370 -424h143q33 0 56.5 5t37.5 11t27 23.5t19 30.5t19 44l18 -3l-45 -142h-394l3 15l369 424h-145q-52 0 -71 -20.5t-36 -71.5h-19l29 123h363z" />
<glyph unicode="{" horiz-adv-x="252" d="M382 711l-3 -12q-57 -12 -84 -42t-39 -86l-37 -176q-13 -60 -38 -90.5t-85 -43.5l-1 -2q55 -13 68.5 -45.5t-1.5 -87.5l-37 -175q-12 -57 2 -87t66 -42l-3 -11q-89 0 -124 29t-17 117l39 185q11 53 -1.5 79t-62.5 40q55 14 79 40t35 78l40 186q18 88 66 117t138 29z" />
<glyph unicode="|" horiz-adv-x="228" d="M216 707l-153 -721h-70l153 721h70z" />
<glyph unicode="}" horiz-adv-x="376" d="M397 261q-55 -15 -79 -41t-35 -78l-40 -186q-18 -87 -65.5 -116t-137.5 -29l3 11q57 12 83.5 42t38.5 87l37 175q13 60 38 90.5t86 43.5l1 2q-55 13 -69 45.5t1 87.5l37 176q13 56 -1.5 86t-65.5 42l3 12q89 0 124 -29.5t16 -117.5l-39 -185q-11 -52 2 -78t62 -40z" />
<glyph unicode="~" horiz-adv-x="584" d="M529 285q-26 -28 -43.5 -44t-47 -30.5t-59.5 -14.5q-44 0 -99 34q-56 37 -113 37q-54 0 -103 -76l-27 52q64 90 150 90q39 0 109 -33q6 -3 20.5 -10.5t22 -10.5t19 -8t20 -7t16.5 -2q20 0 41.5 13.5t32.5 24.5t35 37z" />
<glyph unicode="&#xa1;" horiz-adv-x="279" d="M311 427q-5 -25 -25 -41t-43 -16q-24 0 -37 17t-8 40q6 26 26 39.5t43 13.5q20 0 34.5 -13.5t9.5 -39.5zM233 287l-15 -113q-4 -32 -11 -148.5t-12 -142.5q-19 -88 -73 -88q-70 0 -28 122l125 370h14z" />
<glyph unicode="&#xa2;" horiz-adv-x="397" d="M262 454q-16 -2 -32.5 -9t-37.5 -22t-38 -45t-26 -71q-21 -99 37 -143q17 48 97 290zM389 430q6 -22 -7 -47.5t-37 -26.5q-22 -1 -40 21q22 25 21 43q-1 25 -32 33q-55 -166 -101 -302q12 -4 29 -4q41 0 72 20.5t64 58.5l11 -8q-92 -133 -195 -131h-3l-29 -87 q-31 -1 -32 0l32 91q-49 13 -76.5 59.5t-10.5 124.5q20 90 82 143.5t133 60.5l33 99h31q0 -5 -31 -98q72 -6 86 -50z" />
<glyph unicode="&#xa3;" horiz-adv-x="586" d="M581 612q-7 -24 -43 -33t-71 -5q27 29 17 65q-3 15 -17 26.5t-41 11.5q-78 -1 -109.5 -56t7.5 -128q11 -21 19 -53t8 -50q116 2 116 0l-9 -45h-111q-9 -72 -72 -157.5t-111 -118.5l15 7q15 7 48.5 13t69.5 2q41 -4 86.5 -21.5t83.5 -11.5q53 9 86 98l23 1 q-6 -31 -32.5 -89t-59.5 -78q-20 -12 -43.5 -14.5t-54.5 6.5t-44.5 14t-47.5 19q-84 37 -157 23q0 -1 -9.5 -16t-20 -25t-22.5 -10q-20 0 -24 14.5t12 34.5q8 10 16 15.5t13 7.5t14 4.5t13 4.5q11 6 32 30t48.5 74.5t39.5 106.5q4 20 5.5 36.5t0.5 22.5l-1 7h-109l9 43 q105 1 105 0l-1 4q0 3 -2 11t-5 17.5t-8.5 23t-11.5 25.5q-27 54 -2.5 111.5t66.5 87.5q59 41 135 41q90 -1 126.5 -28t24.5 -69z" />
<glyph unicode="&#xa4;" horiz-adv-x="475" d="M443 310q0 -73 -44 -126l43 -42q0 -1 -7 -8.5t-15.5 -15t-16.5 -14.5l-8 -8l-39 48q-54 -38 -119 -38q-64 0 -118 38l-39 -48l-41 37q-7 8 -6 9l43 42q-44 53 -44 126t44 125l-43 43l5 4q4 5 11 11.5t14.5 13t12.5 11.5l4 5l39 -48q50 36 118 38q66 1 119 -38l39 48 l12 -12q12 -12 23.5 -23t11.5 -10l-43 -43q44 -52 44 -125zM389 309q0 65 -45.5 112t-105.5 47q-61 0 -106 -47t-45 -112q0 -67 45.5 -113.5t105.5 -46.5t105.5 46.5t45.5 113.5z" />
<glyph unicode="&#xa5;" horiz-adv-x="604" d="M645 693l-6 -27q-7 -1 -23.5 -1.5t-24 -3t-24 -11t-36.5 -27.5t-47 -50q-58 -65 -164 -195h134l-9 -45h-159l-15 -71h158l-9 -44h-157q-24 -140 -14 -150q24 -37 85 -39l-6 -30q-19 10 -158 10q-131 0 -153 -8l7 28q59 2 99 39q18 18 46 150h-142l9 44h143l15 71h-143 l10 45h118q-49 125 -104 247q-6 14 -13.5 22.5t-18.5 12.5t-15.5 5t-20.5 1h-17l6 27q8 -3 65 -6t73 -3q3 0 38 1.5t67.5 3t38.5 3.5l-5 -27h-18.5t-19.5 -0.5t-19 -6.5t-17 -18q-1 -10 -2 -15.5t4.5 -26t10 -35t14 -41t16.5 -45.5t17.5 -48t17.5 -48q103 115 191 242 q10 14 -6.5 28t-43.5 14l6 26q88 -4 115 -4q34 0 106 6z" />
<glyph unicode="&#xa6;" horiz-adv-x="227" d="M142 372h-57v280h57v-280zM142 -15h-57v279h57v-279z" />
<glyph unicode="&#xa7;" horiz-adv-x="528" d="M577 641q-8 -24 -43.5 -33t-69.5 -5q24 31 16 66q-9 37 -59 38q-40 1 -69 -16.5t-37 -54.5q-8 -46 30 -84l108 -107q90 -88 70 -175q-14 -65 -62 -102.5t-112 -31.5q28 -30 41.5 -47.5t22.5 -49.5t2 -68q-14 -72 -95 -114q-49 -19 -93 -19q-89 1 -123.5 27t-20.5 68 q16 46 114 38q-26 -33 -17 -66q3 -14 17.5 -25.5t41.5 -12.5q39 -2 70.5 18t40.5 58q7 32 -8 61.5t-41.5 51.5t-57.5 49.5t-57 54t-39 65.5t-4 84q14 66 63.5 102t113.5 30q-46 48 -63.5 82.5t-7.5 81.5q14 64 66.5 99t117.5 34q91 -1 124.5 -27t19.5 -70zM461 240 q7 41 -53 109q-21 22 -31.5 32t-34 24.5t-44.5 14.5q-34 1 -59.5 -21.5t-33.5 -55.5q-11 -47 50 -112q61 -71 107 -71q37 0 64 21.5t35 58.5z" />
<glyph unicode="&#xa8;" horiz-adv-x="307" d="M305 779q-5 -21 -21 -33.5t-36 -12.5q-21 0 -30.5 12.5t-4.5 33.5q4 21 19 34t36 13q20 0 30.5 -13t6.5 -34zM121 779q-5 -21 -20.5 -33.5t-35.5 -12.5q-21 0 -31 12.5t-6 33.5q5 21 20.5 34t36.5 13q20 0 30 -13t6 -34z" />
<glyph unicode="&#xa9;" horiz-adv-x="695" d="M685 320q-24 -154 -130 -245t-261 -91q-138 0 -221.5 98.5t-62.5 236.5q21 139 135 238.5t252 99.5q140 0 224.5 -98.5t63.5 -238.5zM644 320q19 123 -55.5 211t-197.5 88q-121 0 -221 -88.5t-119 -211.5q-19 -121 54.5 -210t194.5 -89q138 0 230 81t114 219zM525 485 l-21 -98h-23q9 47 -11.5 72.5t-68.5 25.5q-66 0 -111.5 -46.5t-59.5 -113.5q-14 -66 11.5 -118t89.5 -52q81 0 130 71l17 -8q-25 -43 -73.5 -68t-97.5 -25q-83 0 -121.5 54t-20.5 137q19 87 83 140.5t151 53.5q64 0 126 -25z" />
<glyph unicode="&#xaa;" horiz-adv-x="315" d="M292 295q-18 -45 -55 -46q-24 -1 -38 9.5t-15 21.5l-2 10q-20 -23 -52.5 -35t-63.5 -4q-44 11 -41 60q1 33 31 55.5t61.5 29.5t66.5 10q1 24 0 43.5t-11.5 38.5t-29.5 18q-19 0 -31 -7t-21 -31q-4 -12 -16 -16t-20 3q-15 13 1 36q27 38 86 38q46 0 69.5 -19.5t22.5 -85.5 q0 -12 -1.5 -46t-1.5 -70q0 -27 20 -27t28 25q4 12 11 6q5 -5 2 -17zM184 328v53q-60 1 -92 -26q-18 -15 -21.5 -36t11.5 -34.5t45 -6.5t57 50z" />
<glyph unicode="&#xab;" horiz-adv-x="489" d="M462 295l-164 -139l105 -139l-20 -15l-168 154l237 157zM275 295l-161 -139l102 -139l-19 -15l-167 154l237 157z" />
<glyph unicode="&#xac;" horiz-adv-x="475" d="M444 47h-56v196h-357v47h413v-243z" />
<glyph unicode="&#xad;" horiz-adv-x="369" d="M305 269l-14 -67h-257l13 67h258z" />
<glyph unicode="&#xae;" horiz-adv-x="750" d="M714 320q-24 -154 -130 -245t-260 -91q-125 0 -206.5 81.5t-81.5 202.5q0 101 55.5 191.5t146 144t189.5 53.5q127 0 209 -81.5t82 -204.5q0 -28 -4 -51zM674 320q3 45 3 46q0 107 -73 180t-183 73q-134 0 -239 -105t-105 -240q0 -108 71.5 -181t181.5 -73 q138 0 229.5 81t114.5 219zM556 158l-3 -20q-10 5 -44 5q-31 0 -56 -3l-99 178h-28q-7 -25 -17 -77.5t-5 -62.5q12 -19 47 -21l-3 -18q-18 6 -89 6q-50 0 -86 -4l3 16q36 2 57 21q42 112 63 311q-8 16 -46 18l3 15h163q19 0 35 -1.5t37 -7.5t34.5 -16t20.5 -29.5t2 -46.5 q-16 -76 -128 -97l89 -146q12 -18 50 -20zM475 423q16 78 -78 78q-11 0 -21 -0.5t-11 -0.5l-10 -44l-24 -118q20 0 32 1t33.5 6t35 13t26 25t17.5 40z" />
<glyph unicode="&#xaf;" horiz-adv-x="326" d="M304 544h-292l11 50h291z" />
<glyph unicode="&#xb0;" horiz-adv-x="331" d="M293 485q0 -56 -37 -89t-91 -33t-90.5 33t-36.5 89q0 55 37 89t90 34q54 0 91 -34t37 -89zM239 485q0 41 -21 65.5t-53 24.5t-53 -24.5t-21 -65.5q0 -40 21 -64.5t53 -24.5t53 24.5t21 64.5z" />
<glyph unicode="&#xb1;" horiz-adv-x="475" d="M421 227h-155v-147h-56v147h-155v47h155v140h56v-140h155v-47zM421 0h-366v47h366v-47z" />
<glyph unicode="&#xb2;" horiz-adv-x="284" d="M257 719q-6 -26 -35 -55.5t-53 -46.5q-64 -47 -92 -67q67 0 90 3q12 1 25 12t18 23h19q-3 -4 -14 -35t-13 -42h-175l7 31l79 69q72 65 90 123q5 19 -2 31t-26 12t-32.5 -13t-16.5 -29q-4 -19 7 -27q-12 -10 -32 -10q-16 0 -25.5 8.5t-5.5 27.5q13 64 105 64q99 0 82 -79z " />
<glyph unicode="&#xb3;" horiz-adv-x="272" d="M238 583q-6 -32 -40.5 -55.5t-81.5 -23.5q-42 0 -65 16t-18 39q8 38 43 38q18 0 27 -12q-9 -8 -13 -21q-3 -15 5.5 -27.5t24.5 -12.5q43 0 60 56q14 66 -41 66q-13 0 -33 -4q7 18 8 31h19q59 0 69 50q10 52 -29 52q-36 0 -43 -33q-2 -13 5 -24q-16 -10 -33 -10 q-32 0 -24 31q5 26 32.5 42t67.5 16q37 0 62.5 -18t17.5 -56q-4 -20 -26.5 -36.5t-51.5 -24.5q72 -15 58 -79z" />
<glyph unicode="&#xb4;" horiz-adv-x="307" d="M321 915q8 -10 2.5 -27.5t-18.5 -28.5l-153 -129l-21 3l129 173q12 13 30 17.5t31 -8.5z" />
<glyph unicode="&#xb5;" horiz-adv-x="576" d="M560 142q-87 -159 -162 -159q-65 0 -70 57q-5 47 4 56q-115 -124 -190 -110q-72 12 -62 151q-30 -124 -22 -182t49 -89q22 -14 67 -11q-1 -3 -3.5 -8t-10.5 -18t-17.5 -23t-25 -18t-32.5 -8q-29 0 -48.5 14.5t-25.5 35.5t-9 44t0 39q2 18 16.5 78.5t36 143t27.5 109.5 q37 155 41 229q49 -9 108 3q-45 -109 -81 -277q-13 -50 -11 -82.5t9.5 -46t22.5 -23.5q11 -11 29 -7.5t30 10.5t32 21q22 16 41 34.5t27.5 29t7.5 10.5q67 275 67 327q55 -10 107 1q-39 -102 -82 -273q-6 -23 -9 -35t-6.5 -31.5t-3.5 -30t1 -22.5t7 -18t16 -8q22 -4 49 23 t49 72z" />
<glyph unicode="&#xb6;" horiz-adv-x="584" d="M619 645l-6 -30h-73q-8 -14 -22 -80l-122 -561l-9 -70h73l-6 -25h-353l5 25h74q14 46 19 70l75 347q-49 0 -95 20t-75 63.5t-17 99.5q14 63 71.5 105t147.5 37q88 -5 162 -5q80 0 151 4zM334 609q-41 6 -87.5 -24.5t-60.5 -99.5q-11 -49 17.5 -84.5t77.5 -44.5zM465 609 h-64l-136 -635l-9 -70h55q14 46 19 70z" />
<glyph unicode="&#xb7;" horiz-adv-x="237" d="M119 340q20 0 39 -16q16 -18 16 -40q0 -21 -16 -39q-18 -16 -39 -16q-22 0 -40 16q-16 16 -16 39q0 24 17 40q16 16 39 16z" />
<glyph unicode="&#xb8;" horiz-adv-x="231" d="M217 -130q-8 -41 -45.5 -59t-82.5 -18q-27 0 -77 14l19 29q30 -10 54 -10q55 0 63 42q4 15 -5.5 24t-24.5 9q-14 0 -38 -6l-6 5l58 90h30l-35 -59q13 3 28 3q33 0 51 -16.5t11 -47.5z" />
<glyph unicode="&#xb9;" horiz-adv-x="220" d="M175 518l-5 -20q-33 3 -69 3q-44 0 -69 -3l5 21q27 0 37 12.5t20 60.5l31 143q-8 -2 -24 -7t-21 -6l4 20q50 20 111 56q-18 -66 -49 -210q-10 -43 -5 -56t34 -14z" />
<glyph unicode="&#xba;" horiz-adv-x="352" d="M390 338q-13 -62 -59 -107t-121 -43q-62 1 -92 45t-16 112q13 64 59 104.5t115 39.5q66 -1 97.5 -39t16.5 -112zM325 320q15 60 0 105t-57 46q-31 1 -57.5 -24.5t-41.5 -74.5q-7 -22 -9.5 -48.5t0 -54.5t18.5 -46t44 -18q31 0 59.5 26t43.5 89z" />
<glyph unicode="&#xbb;" horiz-adv-x="543" d="M492 156l-235 -154l-12 15l163 139l-104 139l16 18zM306 156l-235 -154l-11 15l161 139l-101 139l16 18z" />
<glyph unicode="&#xbc;" horiz-adv-x="590" d="M555 696l-451 -710l-41 -2l451 713zM175 417l-5 -20q-33 3 -69 3q-44 0 -69 -3l5 21q27 0 37 12.5t20 60.5l31 143q-8 -2 -24 -7t-21 -6l4 20q50 20 111 56q-18 -66 -49 -210q-10 -43 -5 -56t34 -14zM536 61h-47l-1 -6q-5 -21 4.5 -28.5t30.5 -7.5l-4 -22q-17 6 -71 6 q-50 0 -68 -6l4 22q23 0 35 7.5t18 31.5v3h-124l3 20l182 206h39l-43 -202h47zM441 85l27 125q-23 -25 -111 -125h84z" />
<glyph unicode="&#xbd;" horiz-adv-x="624" d="M540 696l-451 -710l-41 -2l451 713zM175 417l-5 -20q-33 3 -69 3q-44 0 -69 -3l5 21q27 0 37 12.5t20 60.5l31 143q-8 -2 -24 -7t-21 -6l4 20q50 20 111 56q-18 -66 -49 -210q-10 -43 -5 -56t34 -14zM586 207q-6 -26 -35 -55.5t-53 -46.5q-69 -51 -91 -67q67 0 89 3 q12 1 25.5 11.5t18.5 23.5h19q-3 -4 -14.5 -35t-13.5 -42h-175l7 31l80 69q32 30 57 64.5t32 58.5q5 19 -2 31t-26 12t-32.5 -13t-16.5 -29q-4 -19 7 -27q-12 -10 -32 -10q-16 0 -25.5 8.5t-5.5 27.5q13 64 105 64q99 0 82 -79z" />
<glyph unicode="&#xbe;" horiz-adv-x="632" d="M597 696l-451 -710l-42 -1l452 712zM238 479q-6 -32 -40.5 -55.5t-81.5 -23.5q-42 0 -65 16t-18 39q8 38 43 38q18 0 27 -12q-9 -8 -13 -21q-3 -15 5.5 -27.5t24.5 -12.5q43 0 60 56q14 66 -41 66q-13 0 -33 -4q7 18 8 31h19q59 0 69 50q10 52 -29 52q-36 0 -43 -33 q-2 -13 5 -24q-16 -10 -33 -10q-32 0 -24 31q5 26 32.5 42t67.5 16q37 0 62.5 -18t17.5 -56q-4 -20 -26.5 -36.5t-51.5 -24.5q72 -15 58 -79zM579 65h-47l-1 -6q-5 -21 4.5 -28.5t30.5 -7.5l-4 -22q-16 6 -71 6q-50 0 -68 -6l4 22q23 0 35 7.5t18 31.5v3h-124l3 20l182 206 h39l-43 -202h47zM484 89l27 125q-23 -25 -111 -125h84z" />
<glyph unicode="&#xbf;" horiz-adv-x="528" d="M70 160q11 43 50 83.5t79 66.5t75 59.5t41 64.5q4 25 9.5 47t8.5 41h19h18l-18 -87q-7 -41 -33 -79.5t-53.5 -63.5t-54 -60t-33.5 -69q-14 -47 -6 -94t43 -49t62 17.5t38 47t9.5 56t-17.5 42.5q11 10 34.5 13.5t46.5 -3t35 -30t0 -68.5q-13 -48 -72 -78.5t-145 -29.5 q-12 0 -23.5 1.5t-29.5 6t-32 12t-29 20.5t-21 31t-9 43.5t8 58.5zM331 648q5 26 25.5 40t42.5 14h1q20 0 34 -13t9 -41q-6 -24 -25.5 -40t-42.5 -16q-24 0 -36.5 16.5t-7.5 39.5z" />
<glyph unicode="&#xc0;" horiz-adv-x="770" d="M730 22l-5 -22q-94 6 -154 6l-143 -6l5 22q77 0 87 51q3 16 -0.5 52t-7.5 65l-5 28h-287q-65 -103 -77 -147q-5 -20 13 -32.5t52 -16.5l-5 -22q-74 6 -122 6l-119 -6l5 22q8 0 21 1t41.5 12.5t42.5 32.5q44 63 145.5 222.5t180.5 287.5l80 128h53q0 -2 25 -146.5 t53.5 -301t36.5 -179.5q16 -47 84 -57zM504 252l-59 337l-207 -337h266zM511 736l-21 -4l-153 130q-12 11 -17.5 28t1.5 28q14 13 31.5 8t29.5 -17z" />
<glyph unicode="&#xc1;" horiz-adv-x="770" d="M730 22l-5 -22q-94 6 -154 6l-143 -6l5 22q77 0 87 51q3 16 -0.5 52t-7.5 65l-5 28h-287q-65 -103 -77 -147q-5 -20 13 -32.5t52 -16.5l-5 -22q-74 6 -122 6l-119 -6l5 22q8 0 21 1t41.5 12.5t42.5 32.5q44 63 145.5 222.5t180.5 287.5l80 128h53q0 -2 25 -146.5 t53.5 -301t36.5 -179.5q16 -47 84 -57zM504 252l-59 337l-207 -337h266zM681 915q8 -10 2.5 -27.5t-18.5 -28.5l-153 -129l-21 3l129 173q12 13 30 17.5t31 -8.5z" />
<glyph unicode="&#xc2;" horiz-adv-x="770" d="M730 22l-5 -22q-94 6 -154 6l-143 -6l5 22q77 0 87 51q3 16 -0.5 52t-7.5 65l-5 28h-287q-65 -103 -77 -147q-5 -20 13 -32.5t52 -16.5l-5 -22q-74 6 -122 6l-119 -6l5 22q8 0 21 1t41.5 12.5t42.5 32.5q44 63 145.5 222.5t180.5 287.5l80 128h53q0 -2 25 -146.5 t53.5 -301t36.5 -179.5q16 -47 84 -57zM504 252l-59 337l-207 -337h266zM615 731h-31l-72 91l-120 -91h-35l139 147h42z" />
<glyph unicode="&#xc3;" horiz-adv-x="770" d="M730 22l-5 -22q-94 6 -154 6l-143 -6l5 22q77 0 87 51q3 16 -0.5 52t-7.5 65l-5 28h-287q-65 -103 -77 -147q-5 -20 13 -32.5t52 -16.5l-5 -22q-74 6 -122 6l-119 -6l5 22q8 0 21 1t41.5 12.5t42.5 32.5q44 63 145.5 222.5t180.5 287.5l80 128h53q0 -2 25 -146.5 t53.5 -301t36.5 -179.5q16 -47 84 -57zM504 252l-59 337l-207 -337h266zM662 821q-7 -41 -27 -62q-25 -28 -60 -28q-23 0 -54 14l-33 13q-26 11 -41 11q-18 0 -27.5 -9t-18.5 -29h-25q24 90 86 90q27 0 55 -13l52 -20q19 -6 31 -3q20 2 37 36h25z" />
<glyph unicode="&#xc4;" horiz-adv-x="770" d="M730 22l-5 -22q-94 6 -154 6l-143 -6l5 22q77 0 87 51q3 16 -0.5 52t-7.5 65l-5 28h-287q-65 -103 -77 -147q-5 -20 13 -32.5t52 -16.5l-5 -22q-74 6 -122 6l-119 -6l5 22q8 0 21 1t41.5 12.5t42.5 32.5q44 63 145.5 222.5t180.5 287.5l80 128h53q0 -2 25 -146.5 t53.5 -301t36.5 -179.5q16 -47 84 -57zM504 252l-59 337l-207 -337h266zM655 779q-4 -21 -20 -33.5t-37 -12.5q-20 0 -29.5 12.5t-5.5 33.5q5 21 20 34t35 13q21 0 31 -13t6 -34zM471 779q-5 -21 -20 -33.5t-36 -12.5t-31 12.5t-5 33.5t20 34t36 13t31 -13t5 -34z" />
<glyph unicode="&#xc5;" horiz-adv-x="770" d="M730 22l-5 -22q-94 6 -154 6l-143 -6l5 22q77 0 87 51q3 16 -0.5 52t-7.5 65l-5 28h-287q-65 -103 -77 -147q-5 -20 13 -32.5t52 -16.5l-5 -22q-74 6 -122 6l-119 -6l5 22q8 0 21 1t41.5 12.5t42.5 32.5q44 63 145.5 222.5t180.5 287.5l80 128h53q0 -2 25 -146.5 t53.5 -301t36.5 -179.5q16 -47 84 -57zM504 252l-59 337l-207 -337h266zM620 818q-7 -36 -38.5 -61.5t-67.5 -25.5t-56 25t-13 62q8 35 39 61t67 26t56.5 -26t12.5 -61zM586 818q6 25 -5.5 40.5t-36.5 15.5q-24 0 -42.5 -15.5t-23.5 -40.5t6.5 -40.5t36.5 -15.5 q24 0 42 15.5t23 40.5z" />
<glyph unicode="&#xc6;" horiz-adv-x="1035" d="M1047 696q-11 -49 -26 -170h-24q-3 19 -7 34.5t-7.5 26t-9 20t-8.5 14t-10 9.5t-9 6.5t-10 5.5t-9 4q-72 12 -241 12q-6 -10 -62 -269q47 -3 117.5 -0.5t86.5 16.5q23 19 37 38t17.5 27.5t10.5 27.5q21 1 26 -1q1 0 -3.5 -17t-13.5 -49.5t-15 -57.5q-8 -29 -13 -61.5 t-8 -51.5l-2 -19l-27 -1q0 15 1 27.5t-5.5 30t-20.5 35.5q-18 24 -197 15q-62 -289 -57 -309q183 0 262 19q50 22 76 48q30 31 52 82l26 1q-48 -145 -58 -191q-197 9 -576 0l7 30q60 2 101 38q17 17 49 152h-287q-104 -103 -130 -147q-12 -20 1 -32.5t45 -16.5l-12 -22 q-72 6 -121 6l-120 -6l12 22q74 6 124 53q108 104 556 561q-18 26 -83 29l6 28q206 -7 559 3zM567 579l-327 -327h264q18 83 18 85q0 1 10 48.5t20.5 103t14.5 90.5z" />
<glyph unicode="&#xc7;" horiz-adv-x="751" d="M409 -130q-8 -41 -46 -59t-82 -18q-29 0 -77 14l19 29q30 -10 54 -10q53 0 63 42q3 16 -6.5 24.5t-24.5 8.5q-12 0 -38 -6l-5 5l55 88q-61 4 -110.5 25.5t-87 65t-49 109.5t2.5 158q17 91 61.5 162.5t105 113.5t128 63.5t137.5 21.5q55 0 114.5 -17.5t61.5 -17.5 q40 0 56 35h22l-41 -236h-23q-2 87 -49.5 140.5t-139.5 53.5q-91 0 -170 -64q-105 -84 -142 -257q-33 -156 24.5 -234.5t165.5 -78.5q132 0 258 106l15 -19q-1 -2 -14 -14.5t-41 -32.5t-63 -38.5t-86.5 -32.5t-105.5 -14l-32 -55q12 3 27 3q33 0 51 -16.5t12 -47.5z" />
<glyph unicode="&#xc8;" horiz-adv-x="719" d="M711 698q-15 -61 -26 -169h-26q-3 22 -7 38.5t-9.5 28.5t-9 19.5t-11 13.5t-10 8.5t-11.5 6.5t-10 5q-72 12 -242 12q-9 -18 -61 -269q181 -6 203 15q47 38 64 88q1 3 2 5q21 2 25 -1q1 0 -3.5 -16.5t-13 -49.5t-14.5 -58q-7 -28 -13 -61t-8 -51t-3 -19l-26 -1 q0 14 0.5 26.5t-6 30t-20.5 36.5q-14 18 -197 15q-61 -290 -57 -310q171 0 263 19q1 1 10.5 5t13 6t13.5 7t15.5 10t14.5 12.5t16 16t15 19.5t15.5 25t14.5 30l26 1q-48 -145 -58 -191q-215 8 -576 0l7 29q61 3 100 39q26 24 75 271q7 30 18 82.5t22 126.5t5 86 q-16 29 -86 32l7 28q205 -7 559 3zM477 734l-21 -3l-153 129q-12 11 -17.5 28t1.5 28q13 13 31 8.5t30 -17.5z" />
<glyph unicode="&#xc9;" horiz-adv-x="719" d="M711 698q-13 -60 -26 -169h-25q-3 22 -7 38.5t-9.5 28.5t-9 19.5t-11 13.5t-10.5 8.5t-11.5 6.5t-10.5 5q-69 12 -242 12q-6 -11 -61 -269q47 -4 117.5 -1.5t86.5 16.5q23 19 37 37.5t18 28.5t10 27q21 2 26 -1l-32 -124q-7 -28 -12.5 -61t-7.5 -51t-3 -19l-27 -1 q0 14 1 26.5t-5.5 30t-21.5 36.5q-13 18 -196 15q-62 -288 -57 -310q173 0 262 19q1 1 10.5 5t13 6t13.5 7t15.5 10t14.5 12.5t16 16t15 19.5t15.5 25t14.5 30l26 1q-9 -28 -19.5 -60t-15.5 -47.5t-11.5 -37.5t-11.5 -46q-214 8 -576 0l7 29q61 3 101 39q9 9 22 51t22.5 83 t19.5 89l11 48q0 2 7.5 36.5t14 69.5t14.5 80.5t9.5 70t-1.5 38.5q-16 29 -85 32l6 28q206 -7 559 3zM580 915q7 -10 1.5 -27.5t-17.5 -28.5l-153 -129l-21 3l129 173q12 13 30 17.5t31 -8.5z" />
<glyph unicode="&#xca;" horiz-adv-x="719" d="M711 698q-15 -61 -26 -169h-26q-3 22 -7 38.5t-9.5 28.5t-9 19.5t-11 13.5t-10 8.5t-11.5 6.5t-10 5q-72 12 -242 12q-9 -18 -61 -269q181 -6 203 15q47 38 64 88q1 3 2 5q21 2 25 -1q1 0 -3.5 -16.5t-13 -49.5t-14.5 -58q-7 -28 -13 -61t-8 -51t-3 -19l-26 -1 q0 14 0.5 26.5t-6 30t-20.5 36.5q-14 18 -197 15q-61 -290 -57 -310q171 0 263 19q1 1 10.5 5t13 6t13.5 7t15.5 10t14.5 12.5t16 16t15 19.5t15.5 25t14.5 30l26 1q-48 -145 -58 -191q-215 8 -576 0l7 29q61 3 100 39q26 24 75 271q7 30 18 82.5t22 126.5t5 86 q-16 29 -86 32l7 28q205 -7 559 3zM568 731h-30l-72 91l-120 -91h-35l138 147h42z" />
<glyph unicode="&#xcb;" horiz-adv-x="719" d="M711 698q-15 -61 -26 -169h-26q-3 22 -7 38.5t-9.5 28.5t-9 19.5t-11 13.5t-10 8.5t-11.5 6.5t-10 5q-72 12 -242 12q-9 -18 -61 -269q181 -6 203 15q47 38 64 88q1 3 2 5q21 2 25 -1q1 0 -3.5 -16.5t-13 -49.5t-14.5 -58q-7 -28 -13 -61t-8 -51t-3 -19l-26 -1 q0 14 0.5 26.5t-6 30t-20.5 36.5q-14 18 -197 15q-61 -290 -57 -310q171 0 263 19q1 1 10.5 5t13 6t13.5 7t15.5 10t14.5 12.5t16 16t15 19.5t15.5 25t14.5 30l26 1q-48 -145 -58 -191q-215 8 -576 0l7 29q61 3 100 39q26 24 75 271q7 30 18 82.5t22 126.5t5 86 q-16 29 -86 32l7 28q205 -7 559 3zM589 773q-12 -45 -57 -45q-20 0 -30 12.5t-5 32.5q5 21 19.5 34t35.5 13t31 -13t6 -34zM405 773q-5 -20 -20.5 -32.5t-35.5 -12.5q-21 0 -31 12.5t-5 32.5q4 21 19.5 34t36.5 13q20 0 30 -13t6 -34z" />
<glyph unicode="&#xcc;" horiz-adv-x="402" d="M460 693l-7 -28q-70 -3 -98 -32q-16 -17 -43 -128.5t-37 -167.5q-14 -56 -32.5 -155.5t-8.5 -115.5q24 -36 84 -38l-6 -30q-8 4 -70 7t-84 3q-18 0 -80.5 -2.5t-70.5 -5.5l7 28q60 2 99 38q17 16 41.5 119t32.5 152q61 268 45 296q-16 29 -85 32l6 28q17 -7 150 -7 q137 0 157 7zM315 738l-21 -4l-153 130q-13 11 -18.5 28t2.5 28q13 13 31 8t29 -17z" />
<glyph unicode="&#xcd;" horiz-adv-x="434" d="M460 693l-7 -28q-70 -3 -98 -32q-16 -17 -43 -128.5t-37 -167.5q-14 -56 -32.5 -155.5t-8.5 -115.5q24 -36 84 -38l-6 -30q-8 4 -70 7t-84 3q-18 0 -80.5 -2.5t-70.5 -5.5l7 28q60 2 99 38q17 16 41.5 119t32.5 152q61 268 45 296q-16 29 -85 32l6 28q17 -7 150 -7 q137 0 157 7zM488 915q7 -10 1.5 -27.5t-18.5 -28.5l-153 -129l-20 3l129 173q11 13 29 17.5t32 -8.5z" />
<glyph unicode="&#xce;" horiz-adv-x="402" d="M460 693l-7 -28q-70 -3 -98 -32q-16 -17 -43 -128.5t-37 -167.5q-14 -56 -32.5 -155.5t-8.5 -115.5q24 -36 84 -38l-6 -30q-8 4 -70 7t-84 3q-18 0 -80.5 -2.5t-70.5 -5.5l7 28q60 2 99 38q17 16 41.5 119t32.5 152q61 268 45 296q-16 29 -85 32l6 28q17 -7 150 -7 q137 0 157 7zM433 731h-30l-72 91l-120 -91h-35l139 147h41z" />
<glyph unicode="&#xcf;" horiz-adv-x="402" d="M460 693l-7 -28q-70 -3 -98 -32q-16 -17 -43 -128.5t-37 -167.5q-14 -56 -32.5 -155.5t-8.5 -115.5q24 -36 84 -38l-6 -30q-8 4 -70 7t-84 3q-18 0 -80.5 -2.5t-70.5 -5.5l7 28q60 2 99 38q17 16 41.5 119t32.5 152q61 268 45 296q-16 29 -85 32l6 28q17 -7 150 -7 q137 0 157 7zM456 776q-4 -20 -20 -32.5t-37 -12.5q-20 0 -30 12.5t-5 32.5q5 21 20 34t35 13q21 0 31 -13t6 -34zM272 776q-5 -20 -20.5 -32.5t-35.5 -12.5q-21 0 -31 12.5t-5 32.5q4 21 19.5 34t36.5 13q20 0 30 -13t6 -34z" />
<glyph unicode="&#xd0;" horiz-adv-x="757" d="M145 363q54 244 39 270q-16 29 -86 32l3 26l285 1q193 1 285.5 -87.5t57.5 -260.5q-11 -51 -31 -97t-58.5 -92.5t-89.5 -79.5t-127.5 -54t-168.5 -21h-296l7 28q59 2 101 38q21 21 72 262h-142l8 35h141zM452 363l-7 -35h-221q-13 -61 -28 -134t-23.5 -112.5t-8.5 -41.5 h10t23 -0.5t29 -0.5q23 0 40 0.5t55 6.5t67 16.5t67.5 33t66.5 54t54 81.5t39 112q33 149 -47 237q-34 37 -83 55.5t-142 18.5q-47 0 -48 -1q-2 0 -63 -290h220z" />
<glyph unicode="&#xd1;" horiz-adv-x="802" d="M859 695l-8 -30q-49 1 -71 -16q-7 -6 -12 -13t-9.5 -18.5t-6.5 -18.5t-6.5 -26t-6.5 -27q-20 -79 -36 -157q-3 -16 -24 -111t-38.5 -177.5t-20.5 -101.5q-17 4 -31 0q-108 204 -325 569q-4 -20 -26.5 -126t-28.5 -136q-19 -78 -29 -158q-1 -5 -2.5 -15.5t-2 -14.5 t-2 -12.5t-1.5 -11.5t-0.5 -9.5t0.5 -9.5t1.5 -8t2.5 -8.5t4 -6.5q7 -10 20.5 -15.5t23 -6t32.5 -1.5l-7 -29q-9 1 -23 2.5t-47 3.5t-52 2q-109 -5 -131 -8l7 29q69 0 97 30q10 11 35 107t33 138q7 26 34 157.5t29 151.5q-4 32 -27 42q-14 10 -48 10l6 30q6 -1 14.5 -1.5 l17 -1t16.5 -0.5t16 -0.5t13.5 -0.5h10.5h5q41 0 68 5q50 -98 143 -266t147 -253q27 105 48 213q50 227 40 247q-6 14 -25.5 21t-35.5 7h-16q5 22 7 30q38 -5 117 -7h19.5t21 1t21 1.5t19.5 1.5t16 1.5t11 0.5zM659 821q-5 -38 -26 -62q-25 -28 -61 -28q-23 0 -53 14l-33 13 q-27 11 -41 11q-13 0 -22.5 -6t-13.5 -12t-11 -20h-25q24 90 86 90q27 0 55 -13l52 -20q20 -5 32 -3q18 2 37 36h24z" />
<glyph unicode="&#xd2;" horiz-adv-x="797" d="M770 339q-93 -352 -428 -352q-152 0 -224.5 101t-39.5 261q37 180 148 270.5t275 88.5q154 -2 232.5 -103.5t36.5 -265.5zM644 345q14 58 11.5 116.5t-17 105.5t-52 77t-93.5 30q-107 0 -185 -95.5t-109 -228.5q-16 -61 -13.5 -119.5t18 -104.5t53.5 -74t94 -28 q108 0 186.5 94t106.5 227zM512 738l-21 -4l-153 130q-12 11 -17.5 28t1.5 28q13 13 31.5 8t29.5 -17z" />
<glyph unicode="&#xd3;" horiz-adv-x="797" d="M770 339q-93 -352 -428 -352q-152 0 -224.5 101t-39.5 261q37 180 148 270.5t275 88.5q154 -2 232.5 -103.5t36.5 -265.5zM644 345q14 58 11.5 116.5t-17 105.5t-52 77t-93.5 30q-107 0 -185 -95.5t-109 -228.5q-16 -61 -13.5 -119.5t18 -104.5t53.5 -74t94 -28 q108 0 186.5 94t106.5 227zM656 915q7 -10 1.5 -27.5t-18.5 -28.5l-153 -129l-20 3l129 173q11 13 29 17.5t32 -8.5z" />
<glyph unicode="&#xd4;" horiz-adv-x="797" d="M770 339q-93 -352 -428 -352q-152 0 -224.5 101t-39.5 261q37 180 148 270.5t275 88.5q154 -2 232.5 -103.5t36.5 -265.5zM644 345q14 58 11.5 116.5t-17 105.5t-52 77t-93.5 30q-107 0 -185 -95.5t-109 -228.5q-16 -61 -13.5 -119.5t18 -104.5t53.5 -74t94 -28 q108 0 186.5 94t106.5 227zM630 731h-30l-73 91l-119 -91h-36l139 147h42z" />
<glyph unicode="&#xd5;" horiz-adv-x="797" d="M770 339q-93 -352 -428 -352q-152 0 -224.5 101t-39.5 261q37 180 148 270.5t275 88.5q154 -2 232.5 -103.5t36.5 -265.5zM644 345q14 58 11.5 116.5t-17 105.5t-52 77t-93.5 30q-107 0 -185 -95.5t-109 -228.5q-16 -61 -13.5 -119.5t18 -104.5t53.5 -74t94 -28 q108 0 186.5 94t106.5 227zM661 821q-7 -41 -26 -62q-26 -28 -61 -28q-23 0 -53 14l-34 13q-26 11 -40 11q-19 0 -28.5 -9t-18.5 -29h-25q24 90 86 90q27 0 55 -13l52 -20q20 -5 32 -3q18 2 37 36h24z" />
<glyph unicode="&#xd6;" horiz-adv-x="797" d="M770 339q-93 -352 -428 -352q-152 0 -224.5 101t-39.5 261q37 180 148 270.5t275 88.5q154 -2 232.5 -103.5t36.5 -265.5zM644 345q14 58 11.5 116.5t-17 105.5t-52 77t-93.5 30q-107 0 -185 -95.5t-109 -228.5q-16 -61 -13.5 -119.5t18 -104.5t53.5 -74t94 -28 q108 0 186.5 94t106.5 227zM649 779q-5 -21 -21 -33.5t-36 -12.5q-21 0 -30.5 12.5t-4.5 33.5q4 21 19 34t36 13q20 0 30.5 -13t6.5 -34zM465 779q-5 -21 -20.5 -33.5t-35.5 -12.5q-21 0 -31 12.5t-6 33.5q5 21 20.5 34t36.5 13q20 0 30 -13t6 -34z" />
<glyph unicode="&#xd7;" horiz-adv-x="475" d="M418 156l-37 -37l-144 137l-142 -137l-38 37l142 138l-142 137l38 36l142 -137l144 137l37 -36l-143 -137z" />
<glyph unicode="&#xd8;" horiz-adv-x="788" d="M265 35l220 638q-4 1 -13 1q-107 0 -185 -95.5t-109 -228.5q-27 -101 -5.5 -193.5t92.5 -121.5zM532 662l-219 -638h17q108 0 186.5 94t106.5 227q12 69 11.5 132t-27 114.5t-75.5 70.5zM576 788l-30 -86q125 -23 182.5 -120t20.5 -243q-93 -352 -428 -352q-14 0 -21 1 l-28 -84l-52 -1l31 90q-118 23 -170.5 119t-23.5 237q37 180 148 270.5t275 88.5h17l27 79z" />
<glyph unicode="&#xd9;" horiz-adv-x="738" d="M820 695l-6 -28q-71 -3 -99 -32q-19 -20 -34 -94l-58 -272q-6 -26 -10 -42.5t-16 -49t-26.5 -54.5t-40 -49.5t-57 -44t-78 -28.5t-102.5 -12q-51 0 -89.5 11t-60 28t-34 42t-16 47.5t-2 49.5t4.5 44t7 34q1 6 2 8q81 357 68 383q-8 14 -26 21.5t-28.5 8.5t-31.5 2l7 27 q17 -6 150 -6q136 0 156 6l-6 -27q-70 -3 -99 -32q-16 -17 -51.5 -170t-48.5 -220l-6 -33t-4 -37t1 -41.5t12 -37t25 -33.5t43.5 -21t65.5 -9q121 0 189 83q32 39 54 142l60 282q15 75 3 97q-5 9 -12 15.5t-18 9t-17 3.5t-20 1h-15l5 28q17 -7 124 -7q117 0 135 7zM501 735 l-21 -4l-153 130q-13 11 -18.5 28t2.5 28q13 13 31 8t29 -17z" />
<glyph unicode="&#xda;" horiz-adv-x="738" d="M820 693l-6 -29q-71 -3 -99 -32q-13 -13 -19 -31t-15 -62l-58 -274q-6 -26 -10 -42.5t-16 -49t-26.5 -54.5t-40 -49t-57 -44t-78 -28.5t-102.5 -11.5q-250 0 -190 257q2 5 2 7q81 357 68 383q-16 29 -85 32l6 28q15 -7 150 -7q138 0 156 7l-6 -28q-70 -3 -99 -32 q-16 -17 -51.5 -170t-48.5 -220l-6 -33t-4 -37t1 -41.5t12 -37t25 -33.5t43.5 -21t65.5 -9q120 0 189 83q32 39 54 142l60 283q16 72 3 97q-5 9 -12 15t-18 8.5t-17 3.5t-19.5 1h-15.5l5 29q16 -8 124 -8q118 0 135 8zM673 915q7 -10 1.5 -27.5t-18.5 -28.5l-153 -129l-20 3 l129 173q11 13 29 17.5t32 -8.5z" />
<glyph unicode="&#xdb;" horiz-adv-x="738" d="M820 693l-6 -29q-71 -3 -99 -32q-13 -13 -19 -31t-15 -62l-58 -274q-6 -26 -10 -42.5t-16 -49t-26.5 -54.5t-40 -49t-57 -44t-78 -28.5t-102.5 -11.5q-250 0 -190 257q2 5 2 7q81 357 68 383q-16 29 -85 32l6 28q15 -7 150 -7q138 0 156 7l-6 -28q-70 -3 -99 -32 q-16 -17 -51.5 -170t-48.5 -220l-6 -33t-4 -37t1 -41.5t12 -37t25 -33.5t43.5 -21t65.5 -9q120 0 189 83q32 39 54 142l60 283q16 72 3 97q-5 9 -12 15t-18 8.5t-17 3.5t-19.5 1h-15.5l5 29q16 -8 124 -8q118 0 135 8zM605 731h-30l-72 91l-120 -91h-35l138 147h42z" />
<glyph unicode="&#xdc;" horiz-adv-x="737" d="M819 693l-5 -29q-71 -3 -99 -32q-13 -13 -19 -31t-15 -62l-58 -274q-6 -26 -10 -42.5t-16 -49t-26.5 -54.5t-40.5 -49t-57 -44t-78 -28.5t-103 -11.5q-248 0 -188 258q1 4 1 6q82 359 68 383q-17 29 -85 32l6 28q15 -7 150 -7q136 0 156 7l-6 -28q-71 -3 -99 -32 q-16 -17 -52 -169.5t-49 -220.5q-14 -85 -5 -123q20 -89 142 -89q121 0 189 83q32 39 54 142l61 283q16 72 3 97q-5 9 -12 15t-18 8.5t-17 3.5t-20 1h-16l7 29q15 -8 123 -8q117 0 134 8zM637 779q-4 -21 -19.5 -33.5t-36.5 -12.5t-31 12.5t-5 33.5t19.5 34t35.5 13t31 -13 t6 -34zM453 779q-4 -21 -19.5 -33.5t-35.5 -12.5q-21 0 -31 12.5t-6 33.5t19.5 34t36.5 13q20 0 30 -13t6 -34z" />
<glyph unicode="&#xdd;" horiz-adv-x="685" d="M755 693l-6 -27q-7 -1 -24 -1.5t-24.5 -3t-24 -11t-36 -27.5t-46.5 -50q-94 -107 -198 -236q-53 -254 -37 -269q24 -37 84 -39l-7 -30q-16 10 -156 10q-131 0 -153 -8l5 28q61 2 101 39q7 7 16.5 34t18.5 65.5t15.5 70.5t12.5 66l7 33q-68 180 -119 288q-6 14 -13.5 22.5 t-18.5 12.5t-15.5 5t-20 1h-16.5l6 27q8 -3 66.5 -6.5t71.5 -2.5q18 0 76.5 2.5t66.5 5.5l-6 -27h-18t-19 -0.5t-18.5 -6.5t-16.5 -18q-2 -4 -2.5 -11t2 -18t5.5 -23t8.5 -29t10.5 -31.5t12.5 -35t13.5 -36t14.5 -38t13.5 -37.5q105 118 190 242q9 14 -7 28t-43 14l5 26 q89 -4 115 -4q36 0 108 6zM634 915q8 -10 2.5 -27.5t-18.5 -28.5l-153 -129l-21 3l129 173q12 13 30 17.5t31 -8.5z" />
<glyph unicode="&#xde;" horiz-adv-x="623" d="M282 -2q-8 4 -70 7t-84 3q-18 0 -80 -2.5t-71 -5.5l7 28q59 2 100 38q22 22 74 271q0 3 7.5 37t14.5 69t15 80.5t9.5 70.5t-1.5 39q-17 29 -85 32l5 28q17 -7 151 -7q136 0 156 7l-6 -28q-70 -3 -99 -32q-8 -9 -19 -43q102 0 168 -5q74 -5 112 -59t19 -133 q-43 -186 -263 -198q-36 -2 -62 -2l-11 29q37 0 79 10q64 15 106.5 61.5t51.5 97.5q10 53 -11 97t-68 60q-9 3 -17.5 5t-22 3t-22 1.5t-31.5 1t-37 0.5v1q-27 -100 -52 -223q-14 -56 -32.5 -155.5t-8.5 -115.5q24 -36 85 -38z" />
<glyph unicode="&#xdf;" horiz-adv-x="537" d="M263 561q-7 -33 -14 -63.5t-11.5 -48.5t-7.5 -36q-7 -31 -44.5 -204t-49.5 -224q-25 -112 -67 -163t-114 -51q-85 -2 -94 43q-4 16 5.5 34.5t37.5 25.5q19 3 34.5 -4.5t15.5 -25.5q-2 -2 -6.5 -7.5t-5.5 -7t-2.5 -8.5t2.5 -13q4 -12 23 -12q22 0 40 19.5t28.5 49.5t18 62 t13.5 62q1 9 2 13q16 78 45 223t38 188h-90l7 35h91q17 93 57 156q20 33 67.5 58.5t102.5 35t106.5 5.5t85 -31t32.5 -73q-2 -71 -117 -142q-11 -7 -31.5 -19t-28 -17t-19 -14t-16.5 -16t-8 -16q-7 -13 -3.5 -28.5t6 -24.5t13 -21t17.5 -18.5t19 -17.5t18 -17 q38 -37 50.5 -78t3 -74.5t-35.5 -60.5q-24 -24 -52 -35t-48.5 -12.5t-64.5 -0.5q-28 1 -56.5 9t-34.5 9q-12 1 -24 -13h-22l59 164l23 -1q-34 -128 62 -141q54 -6 90 30q25 24 27.5 56t-23.5 64q-5 6 -20 21.5t-24 26t-22.5 27.5t-21 31.5t-13.5 31.5t-5 34t8 34 q11 25 29.5 38.5t49.5 30t57 38.5q44 37 61 79t2 70q-10 21 -46.5 34t-74.5 11q-45 -3 -83 -36t-47 -74z" />
<glyph unicode="&#xe0;" horiz-adv-x="536" d="M520 109q-48 -119 -123 -124q-45 -3 -61 17t-8 65q-41 -34 -101.5 -57t-100.5 -20q-118 6 -98 107q16 80 96.5 129.5t253.5 78.5l14 61q9 40 -15.5 60.5t-65.5 20.5q-37 0 -62 -14.5t-33 -39.5q-2 -18 -1.5 -23t8.5 -11t9 -8q-9 -13 -33 -22.5t-48 -8.5q-30 2 -36.5 32.5 t13.5 56.5q19 27 67 48t121 22q101 0 136 -44q15 -19 17.5 -49.5t-2.5 -51.5l-5 -21l-25 -119q-3 -12 -7.5 -30.5t-7 -30.5t-6 -27t-3.5 -24t1 -18t6 -13t13 -4q16 0 31.5 17.5t23.5 35.5l7 17zM373 280q-216 -54 -243 -147v-2q-12 -39 3.5 -59.5t47.5 -22.5 q27 -2 79.5 13.5t73.5 36.5q24 116 39 181zM356 541l-21 -3l-153 129q-13 11 -18.5 28.5t2.5 27.5q13 13 31 8.5t29 -17.5z" />
<glyph unicode="&#xe1;" horiz-adv-x="546" d="M520 109q-48 -119 -123 -124q-45 -3 -61 17t-8 65q-41 -34 -101.5 -57t-100.5 -20q-118 6 -98 107q16 80 96.5 129.5t253.5 78.5l14 61q9 40 -15.5 60.5t-65.5 20.5q-37 0 -62 -14.5t-33 -39.5q-2 -18 -1.5 -23t8.5 -11t9 -8q-9 -13 -33 -22.5t-48 -8.5q-30 2 -36.5 32.5 t13.5 56.5q19 27 67 48t121 22q101 0 136 -44q15 -19 17.5 -49.5t-2.5 -51.5l-5 -21l-25 -119q-3 -12 -7.5 -30.5t-7 -30.5t-6 -27t-3.5 -24t1 -18t6 -13t13 -4q16 0 31.5 17.5t23.5 35.5l7 17zM373 280q-216 -54 -243 -147v-2q-12 -39 3.5 -59.5t47.5 -22.5 q27 -2 79.5 13.5t73.5 36.5q24 116 39 181zM525 722q7 -10 1.5 -27.5t-17.5 -28.5l-153 -129l-21 4l129 172q11 13 29.5 17.5t31.5 -8.5z" />
<glyph unicode="&#xe2;" horiz-adv-x="536" d="M520 109q-48 -119 -123 -124q-45 -3 -61 17t-8 65q-41 -34 -101.5 -57t-100.5 -20q-118 6 -98 107q16 80 96.5 129.5t253.5 78.5l14 61q9 40 -15.5 60.5t-65.5 20.5q-37 0 -62 -14.5t-33 -39.5q-2 -18 -1.5 -23t8.5 -11t9 -8q-9 -13 -33 -22.5t-48 -8.5q-30 2 -36.5 32.5 t13.5 56.5q19 27 67 48t121 22q101 0 136 -44q15 -19 17.5 -49.5t-2.5 -51.5l-5 -21l-25 -119q-3 -12 -7.5 -30.5t-7 -30.5t-6 -27t-3.5 -24t1 -18t6 -13t13 -4q16 0 31.5 17.5t23.5 35.5l7 17zM373 280q-216 -54 -243 -147v-2q-12 -39 3.5 -59.5t47.5 -22.5 q27 -2 79.5 13.5t73.5 36.5q24 116 39 181zM458 541h-30l-72 91l-120 -91h-35l139 147h41z" />
<glyph unicode="&#xe3;" horiz-adv-x="536" d="M520 109q-48 -119 -123 -124q-45 -3 -61 17t-8 65q-41 -34 -101.5 -57t-100.5 -20q-118 6 -98 107q16 80 96.5 129.5t253.5 78.5l14 61q9 40 -15.5 60.5t-65.5 20.5q-37 0 -62 -14.5t-33 -39.5q-2 -18 -1.5 -23t8.5 -11t9 -8q-9 -13 -33 -22.5t-48 -8.5q-30 2 -36.5 32.5 t13.5 56.5q19 27 67 48t121 22q101 0 136 -44q15 -19 17.5 -49.5t-2.5 -51.5l-5 -21l-25 -119q-3 -12 -7.5 -30.5t-7 -30.5t-6 -27t-3.5 -24t1 -18t6 -13t13 -4q16 0 31.5 17.5t23.5 35.5l7 17zM373 280q-216 -54 -243 -147v-2q-12 -39 3.5 -59.5t47.5 -22.5 q27 -2 79.5 13.5t73.5 36.5q24 116 39 181zM475 631q-5 -38 -26 -62q-25 -28 -61 -28q-23 0 -53 14l-33 13q-28 11 -41 11t-22.5 -6t-13.5 -12t-11 -20h-25q24 90 86 90q27 0 55 -13l52 -20q20 -5 32 -3q18 2 37 36h24z" />
<glyph unicode="&#xe4;" horiz-adv-x="536" d="M520 109q-48 -119 -123 -124q-45 -3 -61 17t-8 65q-41 -34 -101.5 -57t-100.5 -20q-118 6 -98 107q16 80 96.5 129.5t253.5 78.5l14 61q9 40 -15.5 60.5t-65.5 20.5q-37 0 -62 -14.5t-33 -39.5q-2 -18 -1.5 -23t8.5 -11t9 -8q-9 -13 -33 -22.5t-48 -8.5q-30 2 -36.5 32.5 t13.5 56.5q19 27 67 48t121 22q101 0 136 -44q15 -19 17.5 -49.5t-2.5 -51.5l-5 -21l-25 -119q-3 -12 -7.5 -30.5t-7 -30.5t-6 -27t-3.5 -24t1 -18t6 -13t13 -4q16 0 31.5 17.5t23.5 35.5l7 17zM373 280q-216 -54 -243 -147v-2q-12 -39 3.5 -59.5t47.5 -22.5 q27 -2 79.5 13.5t73.5 36.5q24 116 39 181zM492 586q-4 -20 -20 -32.5t-37 -12.5q-20 0 -29.5 12.5t-5.5 32.5q5 21 20 34t35 13q21 0 31 -13t6 -34zM308 586q-5 -20 -20 -32.5t-36 -12.5t-31 12.5t-5 32.5q4 21 20 34t36 13q21 0 31 -13t5 -34z" />
<glyph unicode="&#xe5;" horiz-adv-x="536" d="M520 109q-48 -119 -123 -124q-45 -3 -61 17t-8 65q-41 -34 -101.5 -57t-100.5 -20q-118 6 -98 107q16 80 96.5 129.5t253.5 78.5l14 61q9 40 -15.5 60.5t-65.5 20.5q-37 0 -62 -14.5t-33 -39.5q-2 -18 -1.5 -23t8.5 -11t9 -8q-9 -13 -33 -22.5t-48 -8.5q-30 2 -36.5 32.5 t13.5 56.5q19 27 67 48t121 22q101 0 136 -44q15 -19 17.5 -49.5t-2.5 -51.5l-5 -21l-25 -119q-3 -12 -7.5 -30.5t-7 -30.5t-6 -27t-3.5 -24t1 -18t6 -13t13 -4q16 0 31.5 17.5t23.5 35.5l7 17zM373 280q-216 -54 -243 -147v-2q-12 -39 3.5 -59.5t47.5 -22.5 q27 -2 79.5 13.5t73.5 36.5q24 116 39 181zM459 628q-7 -36 -38.5 -61.5t-67.5 -25.5t-56.5 25t-13.5 62q8 35 39.5 61t67.5 26t56.5 -26t12.5 -61zM425 628q6 25 -5.5 40.5t-36.5 15.5q-24 0 -42.5 -15.5t-23.5 -40.5t6.5 -40.5t35.5 -15.5q25 0 43 15.5t23 40.5z" />
<glyph unicode="&#xe6;" horiz-adv-x="800" d="M357 89q-40 -41 -107.5 -70t-123.5 -29q-50 0 -80 24.5t-18 82.5q16 80 96.5 129.5t253.5 78.5l14 61q9 40 -15.5 60.5t-65.5 20.5q-37 0 -62 -14.5t-33 -39.5q-2 -18 -1.5 -23t8.5 -11t9 -8q-9 -13 -33 -22.5t-48 -8.5q-30 2 -36.5 32.5t13.5 56.5q19 27 67 48t121 22 q114 0 146 -64q77 66 165 66q78 0 117 -46.5t27 -144.5h-325q-12 -56 -8 -95.5t14 -65.5t30 -40.5t39.5 -20.5t42.5 -6q33 0 62.5 10.5t54 31t37.5 33.5t31 34l15 -7q-8 -14 -19.5 -30.5t-36 -44t-52 -48t-68 -36t-83.5 -15.5q-54 0 -93 26.5t-55 72.5zM671 323q3 19 1.5 40 t-6.5 39t-23 29.5t-47 11.5q-46 0 -80 -27t-60 -93h215zM373 280q-216 -54 -243 -147q-12 -40 4 -62t47 -22q51 0 97.5 20t71.5 45q-11 64 23 166z" />
<glyph unicode="&#xe7;" horiz-adv-x="483" d="M467 419q8 -28 -8.5 -59.5t-46.5 -32.5q-8 0 -15.5 1.5t-13 5.5t-9 6.5t-7.5 7.5l-4 4q26 32 25 55q-1 22 -21.5 34t-50.5 9q-19 -2 -40 -9.5t-49 -26t-51 -57t-35 -92.5q-18 -89 16.5 -144t101.5 -55q51 0 90 25t80 72l12 -9q-104 -154 -229 -164q-7 -20 -22 -59 q12 3 26 3q33 0 55 -16.5t22 -47.5q0 -41 -33.5 -59t-78.5 -18q-27 0 -80 14l14 29q32 -10 56 -10q26 0 39.5 9t13.5 33q0 16 -11 24.5t-26 8.5q-13 0 -37 -6l-7 5l40 90q-69 8 -112.5 67.5t-20.5 166.5q18 81 67 142t107.5 89t116.5 27q108 -1 126 -63z" />
<glyph unicode="&#xe8;" horiz-adv-x="495" d="M466 290h-325q-12 -56 -8 -95.5t14 -65.5t30 -40.5t39.5 -20.5t42.5 -6q33 0 62.5 10.5t54 31t37.5 33.5t31 34l15 -7q-8 -14 -19.5 -30.5t-36 -44t-52 -48t-68 -36t-83.5 -15.5q-89 0 -131 63.5t-18 173.5q15 68 48 120t73 80t78.5 41t72.5 13q77 0 116 -46.5t27 -144.5 zM366 323q3 19 1.5 40t-6.5 39t-23 29.5t-47 11.5q-45 0 -79 -27t-60 -93h214zM351 543l-21 -3l-153 129q-12 11 -17.5 28.5t1.5 27.5q13 13 31.5 8.5t29.5 -17.5z" />
<glyph unicode="&#xe9;" horiz-adv-x="537" d="M466 290h-325q-12 -56 -8 -95.5t14 -65.5t30 -40.5t39.5 -20.5t42.5 -6q33 0 62.5 10.5t54 31t37.5 33.5t31 34l15 -7q-8 -14 -19.5 -30.5t-36 -44t-52 -48t-68 -36t-83.5 -15.5q-89 0 -131 63.5t-18 173.5q15 68 48 120t73 80t78.5 41t72.5 13q77 0 116 -46.5t27 -144.5 zM366 323q3 19 1.5 40t-6.5 39t-23 29.5t-47 11.5q-45 0 -79 -27t-60 -93h214zM506 730q7 -11 1.5 -28t-17.5 -28l-153 -130l-21 4l129 173q11 12 29.5 17t31.5 -8z" />
<glyph unicode="&#xea;" horiz-adv-x="495" d="M466 290h-325q-12 -56 -8 -95.5t14 -65.5t30 -40.5t39.5 -20.5t42.5 -6q33 0 62.5 10.5t54 31t37.5 33.5t31 34l15 -7q-8 -14 -19.5 -30.5t-36 -44t-52 -48t-68 -36t-83.5 -15.5q-89 0 -131 63.5t-18 173.5q15 68 48 120t73 80t78.5 41t72.5 13q77 0 116 -46.5t27 -144.5 zM366 323q3 19 1.5 40t-6.5 39t-23 29.5t-47 11.5q-45 0 -79 -27t-60 -93h214zM440 541h-30l-72 91l-120 -91h-35l139 147h41z" />
<glyph unicode="&#xeb;" horiz-adv-x="499" d="M466 290h-325q-12 -56 -8 -95.5t14 -65.5t30 -40.5t39.5 -20.5t42.5 -6q33 0 62.5 10.5t54 31t37.5 33.5t31 34l15 -7q-8 -14 -19.5 -30.5t-36 -44t-52 -48t-68 -36t-83.5 -15.5q-89 0 -131 63.5t-18 173.5q15 68 48 120t73 80t78.5 41t72.5 13q77 0 116 -46.5t27 -144.5 zM366 323q3 19 1.5 40t-6.5 39t-23 29.5t-47 11.5q-45 0 -79 -27t-60 -93h214zM472 589q-5 -21 -21 -33.5t-36 -12.5q-21 0 -30.5 12.5t-4.5 33.5q4 21 19 34t36 13q20 0 30.5 -13t6.5 -34zM287 589q-4 -21 -19.5 -33.5t-36.5 -12.5q-20 0 -30 12.5t-6 33.5t20 34t36 13 q21 0 31 -13t5 -34z" />
<glyph unicode="&#xec;" horiz-adv-x="325" d="M276 143q-82 -159 -162 -159q-63 0 -68 55q-6 54 30 208q4 17 11.5 44t12.5 46t9.5 39.5t7 33.5t1.5 19q-4 20 -45 20l7 29q4 -4 59 -3.5t83 9.5q-64 -217 -80 -293q-2 -9 -5.5 -23.5t-5.5 -23.5t-4.5 -21t-3.5 -19.5t-1 -16.5t1.5 -15t4.5 -11.5t9 -8t14 -3.5 q24 -1 48 26t53 77zM180 552l-20 -4l-153 129q-13 12 -18.5 29t1.5 27q14 13 32 8.5t29 -16.5z" />
<glyph unicode="&#xed;" horiz-adv-x="325" d="M269 136q-78 -151 -154 -151q-59 0 -65 52q-5 54 30 198q4 18 16.5 66t17.5 73t4 34q-1 19 -41 19l5 27q5 -4 57 -3.5t79 10.5q-65 -225 -76 -280q-2 -9 -5 -22t-5 -22t-4.5 -20t-3.5 -18.5t-1 -16t1.5 -14t4.5 -10.5t8.5 -7.5t13.5 -3.5q41 -3 94 97zM353 732 q8 -10 2.5 -27t-18.5 -29l-153 -129l-21 4l130 173q11 12 29 16.5t31 -8.5z" />
<glyph unicode="&#xee;" horiz-adv-x="325" d="M283 143q-81 -159 -162 -159q-62 0 -68 55q-6 56 31 208q4 19 17 70t18.5 77t4.5 35q-1 20 -43 20l5 29q6 -4 60.5 -3.5t83.5 9.5q-60 -194 -81 -293q-2 -11 -6.5 -30t-7 -29.5t-4.5 -25t-1.5 -22.5t3 -16.5t9.5 -13t17 -5.5q43 -3 99 103zM300 543h-32l-76 96l-126 -96 h-37l146 156h44z" />
<glyph unicode="&#xef;" horiz-adv-x="325" d="M283 143q-81 -159 -162 -159q-62 0 -68 55q-6 56 31 208q4 19 17 70t18.5 77t4.5 35q-1 20 -43 20l5 29q6 -4 60.5 -3.5t83.5 9.5q-60 -194 -81 -293q-2 -11 -6.5 -30t-7 -29.5t-4.5 -25t-1.5 -22.5t3 -16.5t9.5 -13t17 -5.5q43 -3 99 103zM332 585q-5 -20 -21 -32.5 t-36 -12.5q-21 0 -31 12.5t-5 32.5q5 21 20 34t35 13q21 0 31.5 -13t6.5 -34zM147 585q-5 -20 -20 -32.5t-36 -12.5t-31 12.5t-5 32.5q4 21 20 34t36 13q21 0 31 -13t5 -34z" />
<glyph unicode="&#xf0;" horiz-adv-x="560" d="M528 220q-21 -98 -97.5 -169t-188.5 -67q-98 4 -147.5 77.5t-36.5 178.5q14 111 92 178t195 61q53 -3 89 -22q0 65 -39 124l-139 -62l-10 36l125 57q-49 57 -116 75l1 5q2 6 3.5 11.5t2.5 5.5q103 -11 172 -69l124 56l11 -37l-105 -47q58 -67 73.5 -177.5t-9.5 -214.5z M423 201q25 97 1.5 172.5t-91.5 76.5q-53 1 -98.5 -41t-66.5 -124q-7 -30 -11.5 -62t-3.5 -71.5t10 -70t33 -51t62 -20.5q49 0 95.5 45t69.5 146z" />
<glyph unicode="&#xf1;" horiz-adv-x="572" d="M554 142q-13 -24 -25.5 -44.5t-23.5 -35t-22 -26.5t-19.5 -20t-18 -14t-15 -9t-13.5 -5t-11 -2.5t-10 -1.5h-6q-18 -1 -37.5 6.5t-26.5 24.5q-4 21 -5 35t6 46t13.5 54.5t17 59t16.5 60.5q38 146 8 157q-22 7 -51.5 -2.5t-55.5 -27.5t-48.5 -37t-36.5 -33l-13 -14 q-27 -101 -63 -313q-11 4 -43.5 4t-50.5 -5q7 16 31.5 105.5t36.5 141.5q34 152 28 185q-3 20 -45 18l6 29q15 -4 62 -4.5t84 9.5q-18 -41 -38 -132q35 38 104 87.5t114 53.5q42 3 62.5 -7.5t20.5 -50t-9.5 -81.5t-34.5 -133q-36 -131 -37 -139q-4 -27 16 -30h9 q51 1 102 103zM463 631q-7 -39 -27 -62q-24 -28 -61 -28q-23 0 -53 14l-33 13q-26 11 -41 11q-13 0 -22.5 -6t-13.5 -12t-11 -20h-24q21 90 85 90q27 0 55 -13l53 -20q18 -6 31 -3q18 2 37 36h25z" />
<glyph unicode="&#xf2;" horiz-adv-x="550" d="M513 228q-12 -72 -45.5 -124t-78.5 -77.5t-89 -36t-86 -6.5q-88 8 -136 83.5t-32 172.5q21 125 96 183.5t188 53.5h1q22 2 49 -5.5t55 -25t48.5 -47.5t30 -72t-0.5 -99zM410 201q12 65 11 120.5t-27.5 92t-74.5 36.5q-60 -1 -103 -46t-63 -124q-21 -88 -12.5 -147.5 t32.5 -90t55 -33.5q61 -4 109.5 43.5t72.5 148.5zM342 545l-21 -4l-153 130q-12 11 -17.5 28t1.5 28q14 13 32 8t29 -17z" />
<glyph unicode="&#xf3;" horiz-adv-x="550" d="M513 228q-12 -72 -45.5 -124t-78.5 -77.5t-89 -36t-86 -6.5q-88 8 -136 83.5t-32 172.5q21 125 96 183.5t188 53.5h1q22 2 49 -5.5t55 -25t48.5 -47.5t30 -72t-0.5 -99zM410 201q12 65 11 120.5t-27.5 92t-74.5 36.5q-60 -1 -103 -46t-63 -124q-21 -88 -12.5 -147.5 t32.5 -90t55 -33.5q61 -4 109.5 43.5t72.5 148.5zM504 726q7 -11 1.5 -28t-17.5 -28l-153 -129l-21 3l129 173q11 13 29.5 17.5t31.5 -8.5z" />
<glyph unicode="&#xf4;" horiz-adv-x="550" d="M513 228q-12 -72 -45.5 -124t-78.5 -77.5t-89 -36t-86 -6.5q-88 8 -136 83.5t-32 172.5q21 125 96 183.5t188 53.5h1q22 2 49 -5.5t55 -25t48.5 -47.5t30 -72t-0.5 -99zM410 201q12 65 11 120.5t-27.5 92t-74.5 36.5q-60 -1 -103 -46t-63 -124q-21 -88 -12.5 -147.5 t32.5 -90t55 -33.5q61 -4 109.5 43.5t72.5 148.5zM444 541h-30l-73 91l-119 -91h-35l138 147h42z" />
<glyph unicode="&#xf5;" horiz-adv-x="550" d="M513 228q-12 -72 -45.5 -124t-78.5 -77.5t-89 -36t-86 -6.5q-88 8 -136 83.5t-32 172.5q21 125 96 183.5t188 53.5h1q22 2 49 -5.5t55 -25t48.5 -47.5t30 -72t-0.5 -99zM410 201q12 65 11 120.5t-27.5 92t-74.5 36.5q-60 -1 -103 -46t-63 -124q-21 -88 -12.5 -147.5 t32.5 -90t55 -33.5q61 -4 109.5 43.5t72.5 148.5zM487 631q-7 -39 -27 -62q-24 -28 -61 -28q-23 0 -53 14l-33 13q-26 11 -41 11q-13 0 -22.5 -6t-13.5 -12t-11 -20h-24q21 90 85 90q27 0 55 -13l53 -20q18 -6 31 -3q18 2 37 36h25z" />
<glyph unicode="&#xf6;" horiz-adv-x="550" d="M513 228q-12 -72 -45.5 -124t-78.5 -77.5t-89 -36t-86 -6.5q-88 8 -136 83.5t-32 172.5q21 125 96 183.5t188 53.5h1q22 2 49 -5.5t55 -25t48.5 -47.5t30 -72t-0.5 -99zM410 201q12 65 11 120.5t-27.5 92t-74.5 36.5q-60 -1 -103 -46t-63 -124q-21 -88 -12.5 -147.5 t32.5 -90t55 -33.5q61 -4 109.5 43.5t72.5 148.5zM455 589q-4 -21 -20 -33.5t-37 -12.5q-20 0 -29.5 12.5t-5.5 33.5q5 21 20 34t35 13q21 0 31 -13t6 -34zM271 589q-5 -21 -20 -33.5t-36 -12.5t-31 12.5t-5 33.5t20 34t36 13t31 -13t5 -34z" />
<glyph unicode="&#xf7;" horiz-adv-x="564" d="M375 422q-4 -22 -24 -37.5t-42 -15.5t-34.5 16t-7.5 37t24.5 38t40.5 17t34.5 -17t8.5 -38zM522 269l-12 -52h-469l11 52h470zM299 64q-4 -23 -24 -39t-42 -16t-34.5 16.5t-7.5 38.5q5 20 24.5 36.5t40.5 16.5t34 -16t9 -37z" />
<glyph unicode="&#xf8;" horiz-adv-x="570" d="M190 37l144 413h-3q-60 0 -103 -45.5t-63 -124.5q-19 -95 -11 -153t36 -90zM381 438l-149 -428q2 0 4 -0.5t4 -0.5q61 -4 109.5 43.5t72.5 148.5q19 75 9 143.5t-50 93.5zM420 550l-28 -79q30 -8 55.5 -25t48 -47.5t30 -72t-0.5 -98.5q-12 -72 -45.5 -124t-78 -78 t-89 -36t-86.5 -6l-3 1l-27 -81l-52 -1l33 93q-66 25 -99.5 94t-19.5 150q40 237 284 237h1h1l25 71z" />
<glyph unicode="&#xf9;" horiz-adv-x="571" d="M553 142q-86 -158 -165 -158h-6t-7 0.5t-6.5 1t-7 1t-7 1.5t-7 2.5t-6 3.5t-5.5 4.5t-4 6t-3 7.5q-11 39 11 114q-40 -52 -104.5 -93.5t-112.5 -45.5q-26 -3 -42.5 1t-25 18t-10.5 32.5t3 52.5t13.5 70.5t24.5 93.5q8 24 21 89t10 80q-2 20 -45 18l6 27q17 -4 59 -5t82 7 q-32 -115 -66 -271q-23 -109 -21 -127q2 -16 15 -19q23 -5 52.5 5t55 27.5t47 35.5t34.5 31l13 13q16 65 36 167.5t27 137.5q12 -4 44 -5.5t51 2.5q-24 -72 -70 -249q-32 -120 -33 -133q-4 -33 20 -35h5q50 1 101 103zM345 549l-20 -4l-153 129q-13 12 -18.5 29t1.5 28 q14 12 32 7.5t29 -16.5z" />
<glyph unicode="&#xfa;" horiz-adv-x="571" d="M553 142q-86 -158 -165 -158h-6t-7 0.5t-6.5 1t-7 1t-7 1.5t-7 2.5t-6 3.5t-5.5 4.5t-4 6t-3 7.5q-11 39 11 114q-40 -52 -104.5 -93.5t-112.5 -45.5q-26 -3 -42.5 1t-25 18t-10.5 32.5t3 52.5t13.5 70.5t24.5 93.5q8 24 21 89t10 80q-2 20 -45 18l6 27q17 -4 59 -5t82 7 q-32 -115 -66 -271q-23 -109 -21 -127q2 -16 15 -19q23 -5 52.5 5t55 27.5t47 35.5t34.5 31l13 13q16 65 36 167.5t27 137.5q12 -4 44 -5.5t51 2.5q-24 -72 -70 -249q-32 -120 -33 -133q-4 -33 20 -35h5q50 1 101 103zM495 724q7 -10 1.5 -27.5t-18.5 -28.5l-153 -129l-20 3 l129 173q11 13 29 17.5t32 -8.5z" />
<glyph unicode="&#xfb;" horiz-adv-x="571" d="M553 142q-86 -158 -165 -158h-6t-7 0.5t-6.5 1t-7 1t-7 1.5t-7 2.5t-6 3.5t-5.5 4.5t-4 6t-3 7.5q-11 39 11 114q-40 -52 -104.5 -93.5t-112.5 -45.5q-26 -3 -42.5 1t-25 18t-10.5 32.5t3 52.5t13.5 70.5t24.5 93.5q8 24 21 89t10 80q-2 20 -45 18l6 27q17 -4 59 -5t82 7 q-32 -115 -66 -271q-23 -109 -21 -127q2 -16 15 -19q23 -5 52.5 5t55 27.5t47 35.5t34.5 31l13 13q16 65 36 167.5t27 137.5q12 -4 44 -5.5t51 2.5q-24 -72 -70 -249q-32 -120 -33 -133q-4 -33 20 -35h5q50 1 101 103zM444 541h-30l-72 91l-120 -91h-35l138 147h42z" />
<glyph unicode="&#xfc;" horiz-adv-x="571" d="M553 142q-86 -158 -165 -158h-6t-7 0.5t-6.5 1t-7 1t-7 1.5t-7 2.5t-6 3.5t-5.5 4.5t-4 6t-3 7.5q-11 39 11 114q-40 -52 -104.5 -93.5t-112.5 -45.5q-26 -3 -42.5 1t-25 18t-10.5 32.5t3 52.5t13.5 70.5t24.5 93.5q8 24 21 89t10 80q-2 20 -45 18l6 27q17 -4 59 -5t82 7 q-32 -115 -66 -271q-23 -109 -21 -127q2 -16 15 -19q23 -5 52.5 5t55 27.5t47 35.5t34.5 31l13 13q16 65 36 167.5t27 137.5q12 -4 44 -5.5t51 2.5q-24 -72 -70 -249q-32 -120 -33 -133q-4 -33 20 -35h5q50 1 101 103zM475 587q-5 -20 -21 -33t-36 -13q-21 0 -31 13t-5 33 q5 21 20 34t36 13q20 0 30.5 -13t6.5 -34zM290 587q-5 -20 -20 -33t-36 -13q-20 0 -30 13t-6 33q4 21 20 34t36 13q21 0 31 -13t5 -34z" />
<glyph unicode="&#xfd;" horiz-adv-x="505" d="M515 419q-2 -23 -31.5 -66.5t-86 -119t-90.5 -126.5q-75 -114 -142 -192q-65 -78 -106.5 -110.5t-86.5 -29.5q-49 3 -58 59q-4 25 14.5 48t38.5 34l20 10q-3 -39 11 -63q12 -19 46 -13q23 4 55 38q65 73 73 88q-48 377 -70 431q-15 33 -65 33l6 29q5 -3 64 -1.5t89 10.5 q0 -31 6.5 -100.5t18.5 -173.5t16 -149q46 66 98.5 160t74.5 165q5 15 5 29.5t-3 23.5t-7 16t-7 10l-2 3l4 2q3 2 9 4.5t13 6t16 6t18 3.5q3 3 13.5 0.5t21.5 -6t18.5 -19.5t5.5 -40zM483 726q7 -11 1.5 -28t-18.5 -28l-153 -129l-20 3l129 173q11 13 29 17.5t32 -8.5z" />
<glyph unicode="&#xfe;" horiz-adv-x="511" d="M486 257q-23 -115 -99.5 -191t-182.5 -76q-60 0 -99 47q-35 -167 -48 -242q-10 3 -40.5 3.5t-48.5 -4.5q8 18 110 460q5 21 23.5 100t27.5 121.5t17.5 98t7.5 84.5q0 18 -40 18l6 29q7 -4 60 -4t83 9q-4 -11 -16.5 -61.5t-32.5 -129.5t-29 -116q78 78 170 78 q73 0 112.5 -61.5t18.5 -162.5zM384 225q4 19 5.5 42t-1.5 62t-27.5 64t-68.5 25q-67 0 -120 -67l-54 -257q-5 -20 24.5 -45.5t69.5 -25.5q13 0 27.5 3t36.5 15.5t41 33t37.5 59.5t29.5 91z" />
<glyph unicode="&#xff;" horiz-adv-x="505" d="M515 419q-2 -23 -31.5 -66.5t-86 -119t-90.5 -126.5q-75 -114 -142 -192q-65 -78 -106.5 -110.5t-86.5 -29.5q-49 3 -58 59q-4 25 14.5 48t38.5 34l20 10q-3 -39 11 -63q12 -19 46 -13q23 4 55 38q65 73 73 88q-48 377 -70 431q-15 33 -65 33l6 29q5 -3 64 -1.5t89 10.5 q0 -31 6.5 -100.5t18.5 -173.5t16 -149q46 66 98.5 160t74.5 165q5 15 5 29.5t-3 23.5t-7 16t-7 10l-2 3l4 2q3 2 9 4.5t13 6t16 6t18 3.5q3 3 13.5 0.5t21.5 -6t18.5 -19.5t5.5 -40zM455 591q-5 -21 -20.5 -33.5t-36.5 -12.5t-30.5 12.5t-4.5 33.5t19.5 33.5t35.5 12.5 t31.5 -13t5.5 -33zM271 591q-5 -21 -20.5 -33.5t-35.5 -12.5q-21 0 -31 12.5t-5 33.5q4 20 19.5 33t36.5 13q20 0 30 -13t6 -33z" />
<glyph unicode="&#x100;" horiz-adv-x="770" d="M730 22l-5 -22q-94 6 -154 6l-143 -6l5 22q77 0 87 51q3 16 -0.5 52t-7.5 65l-5 28h-287q-65 -103 -77 -147q-5 -20 13 -32.5t52 -16.5l-5 -22q-74 6 -122 6l-119 -6l5 22q8 0 21 1t41.5 12.5t42.5 32.5q44 63 145.5 222.5t180.5 287.5l80 128h53q0 -2 25 -146.5 t53.5 -301t36.5 -179.5q16 -47 84 -57zM504 252l-59 337l-207 -337h266zM644 731h-292l11 50h291z" />
<glyph unicode="&#x101;" horiz-adv-x="536" d="M520 109q-48 -119 -123 -124q-45 -3 -61 17t-8 65q-41 -34 -101.5 -57t-100.5 -20q-118 6 -98 107q16 80 96.5 129.5t253.5 78.5l14 61q9 40 -15.5 60.5t-65.5 20.5q-37 0 -62 -14.5t-33 -39.5q-2 -18 -1.5 -23t8.5 -11t9 -8q-9 -13 -33 -22.5t-48 -8.5q-30 2 -36.5 32.5 t13.5 56.5q19 27 67 48t121 22q101 0 136 -44q15 -19 17.5 -49.5t-2.5 -51.5l-5 -21l-25 -119q-3 -12 -7.5 -30.5t-7 -30.5t-6 -27t-3.5 -24t1 -18t6 -13t13 -4q16 0 31.5 17.5t23.5 35.5l7 17zM373 280q-216 -54 -243 -147v-2q-12 -39 3.5 -59.5t47.5 -22.5 q27 -2 79.5 13.5t73.5 36.5q24 116 39 181zM466 544h-292l11 50h291z" />
<glyph unicode="&#x102;" horiz-adv-x="770" d="M730 22l-5 -22q-94 6 -154 6l-143 -6l5 22q77 0 87 51q3 16 -0.5 52t-7.5 65l-5 28h-287q-65 -103 -77 -147q-5 -20 13 -32.5t52 -16.5l-5 -22q-74 6 -122 6l-119 -6l5 22q8 0 21 1t41.5 12.5t42.5 32.5q44 63 145.5 222.5t180.5 287.5l80 128h53q0 -2 25 -146.5 t53.5 -301t36.5 -179.5q16 -47 84 -57zM504 252l-59 337l-207 -337h266zM422 841l24 1q-6 -32 15.5 -54t55.5 -22q26 0 55.5 21t43.5 54q25 -1 25 0q-8 -46 -46 -78t-86 -32q-46 0 -71.5 32.5t-15.5 77.5z" />
<glyph unicode="&#x103;" horiz-adv-x="536" d="M520 109q-48 -119 -123 -124q-45 -3 -61 17t-8 65q-41 -34 -101.5 -57t-100.5 -20q-118 6 -98 107q16 80 96.5 129.5t253.5 78.5l14 61q9 40 -15.5 60.5t-65.5 20.5q-37 0 -62 -14.5t-33 -39.5q-2 -18 -1.5 -23t8.5 -11t9 -8q-9 -13 -33 -22.5t-48 -8.5q-30 2 -36.5 32.5 t13.5 56.5q19 27 67 48t121 22q101 0 136 -44q15 -19 17.5 -49.5t-2.5 -51.5l-5 -21l-25 -119q-3 -12 -7.5 -30.5t-7 -30.5t-6 -27t-3.5 -24t1 -18t6 -13t13 -4q16 0 31.5 17.5t23.5 35.5l7 17zM373 280q-216 -54 -243 -147v-2q-12 -39 3.5 -59.5t47.5 -22.5 q27 -2 79.5 13.5t73.5 36.5q24 116 39 181zM232 650l25 1q-7 -32 14.5 -54t55.5 -22q26 0 55.5 21t43.5 54h26q-8 -46 -46.5 -77.5t-85.5 -31.5q-46 0 -71.5 32t-16.5 77z" />
<glyph unicode="&#x104;" horiz-adv-x="770" d="M607 -165q-41 -45 -96 -46q-39 -1 -56 22t-10 53q15 73 119 142l-136 -6l5 22q77 0 87 51q3 16 -0.5 52t-7.5 65l-5 28h-287q-65 -103 -77 -147q-5 -20 13 -32.5t52 -16.5l-5 -22q-74 6 -122 6l-119 -6l5 22q8 0 21 1t41.5 12.5t42.5 32.5q44 63 145.5 222.5t180.5 287.5 l80 128h53q0 -2 25 -146.5t53.5 -301t36.5 -179.5q16 -47 84 -57l-5 -22q-65 4 -121 5q-81 -68 -89 -116q-6 -24 5 -38.5t36 -14.5q26 0 46 14q8 -3 5 -15zM504 252l-59 337l-207 -337h266z" />
<glyph unicode="&#x105;" horiz-adv-x="536" d="M435 -165q-39 -45 -95 -46q-40 -1 -57 22t-10 53q13 63 92 123q-49 8 -37 80q-41 -34 -101.5 -57t-100.5 -20q-118 6 -98 107q16 80 96.5 129.5t253.5 78.5l14 61q9 40 -15.5 60.5t-65.5 20.5q-37 0 -62 -14.5t-33 -39.5q-2 -18 -1.5 -23t8.5 -11t9 -8q-9 -13 -33 -22.5 t-48 -8.5q-30 2 -36.5 32.5t13.5 56.5q19 27 67 48t121 22q101 0 136 -44q15 -19 17.5 -49.5t-2.5 -51.5l-5 -21l-25 -119q-3 -12 -7.5 -30.5t-7 -30.5t-6 -27t-3.5 -24t1 -18t6 -13t13 -4q16 0 31.5 17.5t23.5 35.5l7 17l25 -8q-44 -107 -108 -121q-60 -57 -69 -99 q-5 -24 5.5 -38.5t35.5 -14.5q26 0 47 14q7 -3 4 -15zM373 280q-216 -54 -243 -147v-2q-12 -39 3.5 -59.5t47.5 -22.5q27 -2 79.5 13.5t73.5 36.5z" />
<glyph unicode="&#x106;" horiz-adv-x="751" d="M763 707l-41 -236h-23q-2 87 -49.5 140.5t-139.5 53.5q-91 0 -170 -64q-105 -84 -142 -257q-33 -156 24.5 -234.5t165.5 -78.5q132 0 258 106l15 -19q-1 -2 -14 -14.5t-41 -33t-63.5 -39t-87 -32t-105.5 -13.5q-66 0 -120.5 19.5t-97 62.5t-56.5 111.5t1 166.5 q17 91 61.5 162.5t105 113.5t128 63.5t137.5 21.5q55 0 114.5 -17.5t61.5 -17.5q40 0 56 35h22zM673 915q8 -10 2.5 -27.5t-18.5 -28.5l-153 -129l-21 3l129 173q12 13 30 17.5t31 -8.5z" />
<glyph unicode="&#x107;" horiz-adv-x="483" d="M467 419q8 -28 -8.5 -59.5t-46.5 -32.5q-8 0 -15.5 1.5t-13 5.5t-9 6.5t-7.5 7.5l-4 4q26 32 25 55q-1 22 -21.5 34t-50.5 9q-19 -2 -40 -9.5t-49 -26t-51 -57t-35 -92.5q-18 -89 16.5 -144t101.5 -55q51 0 90 25t80 72l12 -9q-112 -164 -243 -164q-73 0 -122.5 60.5 t-25.5 173.5q18 81 67 142t107.5 89t116.5 27q108 -1 126 -63zM454 727q7 -11 1.5 -28t-17.5 -28l-153 -130l-21 4l129 173q11 12 29.5 17t31.5 -8z" />
<glyph unicode="&#x108;" horiz-adv-x="751" d="M763 707l-41 -236h-23q-2 87 -49.5 140.5t-139.5 53.5q-91 0 -170 -64q-105 -84 -142 -257q-33 -156 24.5 -234.5t165.5 -78.5q132 0 258 106l15 -19q-1 -2 -14 -14.5t-41 -33t-63.5 -39t-87 -32t-105.5 -13.5q-66 0 -120.5 19.5t-97 62.5t-56.5 111.5t1 166.5 q17 91 61.5 162.5t105 113.5t128 63.5t137.5 21.5q55 0 114.5 -17.5t61.5 -17.5q40 0 56 35h22zM619 731h-30l-73 91l-119 -91h-36l139 147h42z" />
<glyph unicode="&#x109;" horiz-adv-x="483" d="M467 419q8 -28 -8.5 -59.5t-46.5 -32.5q-8 0 -15.5 1.5t-13 5.5t-9 6.5t-7.5 7.5l-4 4q26 32 25 55q-1 22 -21.5 34t-50.5 9q-19 -2 -40 -9.5t-49 -26t-51 -57t-35 -92.5q-18 -89 16.5 -144t101.5 -55q51 0 90 25t80 72l12 -9q-112 -164 -243 -164q-73 0 -122.5 60.5 t-25.5 173.5q18 81 67 142t107.5 89t116.5 27q108 -1 126 -63zM443 504h-30l-72 92l-120 -92h-35l139 148h41z" />
<glyph unicode="&#x10a;" horiz-adv-x="751" d="M763 707l-41 -236h-23q-2 87 -49.5 140.5t-139.5 53.5q-91 0 -170 -64q-105 -84 -142 -257q-33 -156 24.5 -234.5t165.5 -78.5q132 0 258 106l15 -19q-1 -2 -14 -14.5t-41 -33t-63.5 -39t-87 -32t-105.5 -13.5q-66 0 -120.5 19.5t-97 62.5t-56.5 111.5t1 166.5 q17 91 61.5 162.5t105 113.5t128 63.5t137.5 21.5q55 0 114.5 -17.5t61.5 -17.5q40 0 56 35h22zM517 731q-21 0 -34 16q-11 13 -8 37q6 20 24 37q22 15 40 15q21 0 34 -15q12 -16 7 -37q-5 -24 -23 -37q-17 -16 -40 -16z" />
<glyph unicode="&#x10b;" horiz-adv-x="483" d="M467 419q8 -28 -8.5 -59.5t-46.5 -32.5q-8 0 -15.5 1.5t-13 5.5t-9 6.5t-7.5 7.5l-4 4q26 32 25 55q-1 22 -21.5 34t-50.5 9q-19 -2 -40 -9.5t-49 -26t-51 -57t-35 -92.5q-18 -89 16.5 -144t101.5 -55q51 0 90 25t80 72l12 -9q-112 -164 -243 -164q-73 0 -122.5 60.5 t-25.5 173.5q18 81 67 142t107.5 89t116.5 27q108 -1 126 -63zM380 585q-5 -19 -19 -31.5t-32 -12.5t-28 11t-6 30t18.5 31.5t33.5 12.5q17 0 26.5 -12.5t6.5 -28.5z" />
<glyph unicode="&#x10c;" horiz-adv-x="751" d="M763 707l-41 -236h-23q-2 87 -49.5 140.5t-139.5 53.5q-91 0 -170 -64q-105 -84 -142 -257q-33 -156 24.5 -234.5t165.5 -78.5q132 0 258 106l15 -19q-1 -2 -14 -14.5t-41 -33t-63.5 -39t-87 -32t-105.5 -13.5q-66 0 -120.5 19.5t-97 62.5t-56.5 111.5t1 166.5 q17 91 61.5 162.5t105 113.5t128 63.5t137.5 21.5q55 0 114.5 -17.5t61.5 -17.5q40 0 56 35h22zM387 879h31l73 -91l119 91h35l-138 -148h-43z" />
<glyph unicode="&#x10d;" horiz-adv-x="504" d="M467 419q8 -28 -8.5 -59.5t-46.5 -32.5q-8 0 -15.5 1.5t-13 5.5t-9 6.5t-7.5 7.5l-4 4q26 32 25 55q-1 22 -21.5 34t-50.5 9q-19 -2 -40 -9.5t-49 -26t-51 -57t-35 -92.5q-18 -89 16.5 -144t101.5 -55q51 0 90 25t80 72l12 -9q-112 -164 -243 -164q-73 0 -122.5 60.5 t-25.5 173.5q18 81 67 142t107.5 89t116.5 27q108 -1 126 -63zM233 688h32l72 -91l120 91h34l-138 -147h-43z" />
<glyph unicode="&#x10e;" horiz-adv-x="806" d="M194 363q54 244 39 270q-16 29 -86 32l3 26l285 1q193 1 285.5 -87.5t57.5 -260.5q-11 -51 -31 -97t-58.5 -92.5t-89.5 -79.5t-127.5 -54t-168.5 -21h-296l7 28q59 2 101 38q21 21 72 262h-142l8 35h141zM501 363l-7 -35h-221q-13 -61 -28 -134t-23.5 -112.5t-8.5 -41.5 h10t23 -0.5t29 -0.5q23 0 40 0.5t55 6.5t67 16.5t67.5 33t66.5 54t54 81.5t39 112q33 149 -47 237q-34 37 -83 55.5t-142 18.5q-47 0 -48 -1q-2 0 -63 -290h220z" />
<glyph unicode="&#x10f;" horiz-adv-x="586" d="M604 571l-8 -35h-73q-83 -323 -101 -470q-2 -11 3.5 -18.5t17.5 -5.5q27 4 87 78l13 -11q-32 -55 -73.5 -90t-74.5 -36q-24 0 -36.5 9t-13 27t1.5 30t7 31q-61 -90 -163 -90q-11 0 -23 1.5t-30.5 7t-33 16t-30.5 27.5t-22.5 41.5t-9.5 59.5t9 80q22 103 103 180.5 t168 77.5q70 0 103 -61q11 35 24 116h-118l8 35h116q9 77 7 87q-3 18 -40 18l6 29q7 -4 60.5 -4t82.5 9q-22 -75 -38 -139h71zM403 351q8 53 -17 76.5t-67 23.5q-51 0 -100.5 -48t-70.5 -145q-23 -109 9 -164.5t90 -49.5q20 2 34.5 7.5t33 24t33 50t29.5 89t26 136.5z" />
<glyph unicode="&#x110;" horiz-adv-x="806" d="M778 344q-11 -51 -31 -97t-58.5 -92.5t-89.5 -79.5t-127.5 -54t-168.5 -21h-296l7 28q59 2 101 38q9 9 21.5 50.5t22.5 84.5t19.5 88t10.5 48q0 2 7.5 36.5t14 69.5t14.5 80.5t9.5 70.5t-1.5 39q-16 29 -86 32l3 26l285 1q193 1 285.5 -87.5t57.5 -260.5zM664 343 q33 149 -47 237q-34 37 -83 55.5t-142 18.5q-47 0 -48 -1l-33 -153q-33 -154 -65 -307l-33 -153h3h9.5t14 -0.5t17.5 -0.5h18q23 0 40 0.5t55 6.5t67 16.5t67.5 33t66.5 54t54 81.5t39 112zM324 878h32l72 -91l120 91h34l-138 -147h-43z" />
<glyph unicode="&#x111;" horiz-adv-x="697" d="M571 714q-50 -171 -94 -359.5t-56 -283.5q-1 -10 4.5 -18t17.5 -6q24 3 87 77l13 -10q-32 -55 -73.5 -89.5t-74.5 -35.5q-24 -1 -36.5 8t-13 27t1.5 30t7 31q-62 -91 -163 -91q-13 0 -27.5 2.5t-37 11t-38 24t-30.5 41.5t-15.5 64.5t8.5 91.5q21 103 102 179.5t169 76.5 q71 0 102 -60q15 53 28 137.5t10 101.5t-40 17l6 29q16 -3 60 -3.5t83 7.5zM403 356q8 53 -17 77t-67 24q-52 0 -101 -48t-70 -146q-23 -109 8.5 -164t90.5 -50q20 2 34.5 7.5t33 24t33 50t29 88.5t26.5 137zM750 627q-6 -33 -45 -70.5t-74 -50.5l-4 17q23 9 52 36.5 t33 47.5q3 12 -8 12t-27 -2q-43 4 -35 40q5 23 20.5 36.5t39.5 13.5q31 0 43 -25.5t5 -54.5z" />
<glyph unicode="&#x112;" horiz-adv-x="719" d="M711 698q-15 -61 -26 -169h-26q-3 22 -7 38.5t-9.5 28.5t-9 19.5t-11 13.5t-10 8.5t-11.5 6.5t-10 5q-72 12 -242 12q-9 -18 -61 -269q181 -6 203 15q47 38 64 88q1 3 2 5q21 2 25 -1q1 0 -3.5 -16.5t-13 -49.5t-14.5 -58q-7 -28 -13 -61t-8 -51t-3 -19l-26 -1 q0 14 0.5 26.5t-6 30t-20.5 36.5q-14 18 -197 15q-61 -290 -57 -310q171 0 263 19q1 1 10.5 5t13 6t13.5 7t15.5 10t14.5 12.5t16 16t15 19.5t15.5 25t14.5 30l26 1q-48 -145 -58 -191q-215 8 -576 0l7 29q61 3 100 39q26 24 75 271q7 30 18 82.5t22 126.5t5 86 q-16 29 -86 32l7 28q205 -7 559 3zM597 730h-292l10 49h292z" />
<glyph unicode="&#x113;" horiz-adv-x="498" d="M466 290h-325q-12 -56 -8 -95.5t14 -65.5t30 -40.5t39.5 -20.5t42.5 -6q33 0 62.5 10.5t54 31t37.5 33.5t31 34l15 -7q-8 -14 -19.5 -30.5t-36 -44t-52 -48t-68 -36t-83.5 -15.5q-89 0 -131 63.5t-18 173.5q15 68 48 120t73 80t78.5 41t72.5 13q77 0 116 -46.5t27 -144.5 zM366 323q3 19 1.5 40t-6.5 39t-23 29.5t-47 11.5q-45 0 -79 -27t-60 -93h214zM461 543h-291l10 50h292z" />
<glyph unicode="&#x114;" horiz-adv-x="719" d="M711 698q-15 -61 -26 -169h-26q-3 22 -7 38.5t-9.5 28.5t-9 19.5t-11 13.5t-10 8.5t-11.5 6.5t-10 5q-72 12 -242 12q-9 -18 -61 -269q181 -6 203 15q47 38 64 88q1 3 2 5q21 2 25 -1q1 0 -3.5 -16.5t-13 -49.5t-14.5 -58q-7 -28 -13 -61t-8 -51t-3 -19l-26 -1 q0 14 0.5 26.5t-6 30t-20.5 36.5q-14 18 -197 15q-61 -290 -57 -310q171 0 263 19q1 1 10.5 5t13 6t13.5 7t15.5 10t14.5 12.5t16 16t15 19.5t15.5 25t14.5 30l26 1q-48 -145 -58 -191q-215 8 -576 0l7 29q61 3 100 39q26 24 75 271q7 30 18 82.5t22 126.5t5 86 q-16 29 -86 32l7 28q205 -7 559 3zM339 840l25 1q-7 -32 14.5 -54t55.5 -22q26 0 55.5 21t43.5 54h26q-8 -46 -46.5 -77.5t-85.5 -31.5q-46 0 -71.5 32t-16.5 77z" />
<glyph unicode="&#x115;" horiz-adv-x="495" d="M466 290h-325q-12 -56 -8 -95.5t14 -65.5t30 -40.5t39.5 -20.5t42.5 -6q33 0 62.5 10.5t54 31t37.5 33.5t31 34l15 -7q-8 -14 -19.5 -30.5t-36 -44t-52 -48t-68 -36t-83.5 -15.5q-89 0 -131 63.5t-18 173.5q15 68 48 120t73 80t78.5 41t72.5 13q77 0 116 -46.5t27 -144.5 zM366 323q3 19 1.5 40t-6.5 39t-23 29.5t-47 11.5q-45 0 -79 -27t-60 -93h214zM244 650l24 1q-6 -32 15.5 -54t55.5 -22q26 0 55.5 21t43.5 54q25 -1 25 0q-8 -46 -46 -77.5t-86 -31.5q-46 0 -71.5 32t-15.5 77z" />
<glyph unicode="&#x116;" horiz-adv-x="719" d="M711 698q-15 -61 -26 -169h-26q-3 22 -7 38.5t-9.5 28.5t-9 19.5t-11 13.5t-10 8.5t-11.5 6.5t-10 5q-72 12 -242 12q-9 -18 -61 -269q181 -6 203 15q47 38 64 88q1 3 2 5q21 2 25 -1q1 0 -3.5 -16.5t-13 -49.5t-14.5 -58q-7 -28 -13 -61t-8 -51t-3 -19l-26 -1 q0 14 0.5 26.5t-6 30t-20.5 36.5q-14 18 -197 15q-61 -290 -57 -310q171 0 263 19q1 1 10.5 5t13 6t13.5 7t15.5 10t14.5 12.5t16 16t15 19.5t15.5 25t14.5 30l26 1q-48 -145 -58 -191q-215 8 -576 0l7 29q61 3 100 39q26 24 75 271q7 30 18 82.5t22 126.5t5 86 q-16 29 -86 32l7 28q205 -7 559 3zM430 731q-23 0 -34 15q-12 13 -7 37q3 19 22 37q22 15 41 15q21 0 34 -15q12 -16 7 -37q-5 -24 -23 -37q-16 -15 -40 -15z" />
<glyph unicode="&#x117;" horiz-adv-x="495" d="M466 290h-325q-12 -56 -8 -95.5t14 -65.5t30 -40.5t39.5 -20.5t42.5 -6q33 0 62.5 10.5t54 31t37.5 33.5t31 34l15 -7q-8 -14 -19.5 -30.5t-36 -44t-52 -48t-68 -36t-83.5 -15.5q-89 0 -131 63.5t-18 173.5q15 68 48 120t73 80t78.5 41t72.5 13q77 0 116 -46.5t27 -144.5 zM366 323q3 19 1.5 40t-6.5 39t-23 29.5t-47 11.5q-45 0 -79 -27t-60 -93h214zM360 585q-5 -19 -19 -31.5t-32 -12.5t-28 11t-6 30t18.5 31.5t33.5 12.5q17 0 26.5 -12.5t6.5 -28.5z" />
<glyph unicode="&#x118;" horiz-adv-x="719" d="M369 -165q-43 -45 -96 -46q-39 -1 -56 22t-11 53q15 73 119 141q-83 0 -321 -4l7 29q61 3 100 39q26 24 75 271q7 30 18 82.5t22 126.5t5 86q-16 29 -86 32l7 28q205 -7 559 3q-15 -61 -26 -169h-26q-3 22 -7 38.5t-9.5 28.5t-9 19.5t-11 13.5t-10 8.5t-11.5 6.5t-10 5 q-72 12 -242 12q-9 -18 -61 -269q181 -6 203 15q47 38 64 88q1 3 2 5q21 2 25 -1q1 0 -3.5 -16.5t-13 -49.5t-14.5 -58q-7 -28 -13 -61t-8 -51t-3 -19l-26 -1q0 14 0.5 26.5t-6 30t-20.5 36.5q-14 18 -197 15q-61 -290 -57 -310q171 0 263 19q1 1 10.5 5t13 6t13.5 7 t15.5 10t14.5 12.5t16 16t15 19.5t15.5 25t14.5 30l26 1q-48 -145 -58 -191q-146 4 -214 4q-80 -66 -90 -116q-5 -24 5.5 -38.5t34.5 -14.5q27 0 47 14q10 -3 6 -15z" />
<glyph unicode="&#x119;" horiz-adv-x="495" d="M286 -165q-39 -45 -95 -46q-40 -1 -57 22t-10 53q16 67 98 126h-22q-89 0 -131 63.5t-18 173.5q15 68 48 120t73 80t78.5 41t72.5 13q77 0 116 -46.5t27 -144.5h-325q-12 -56 -8 -95.5t14 -65.5t30 -40.5t39.5 -20.5t42.5 -6q33 0 62.5 10.5t54 31t37.5 33.5t31 34l15 -7 q-8 -14 -20 -31t-34 -43t-54 -49t-67 -36q-80 -65 -90 -116q-5 -24 5.5 -38.5t35.5 -14.5q26 0 47 14q7 -3 4 -15zM366 323q3 19 1.5 40t-6.5 39t-23 29.5t-47 11.5q-45 0 -79 -27t-60 -93h214z" />
<glyph unicode="&#x11a;" horiz-adv-x="719" d="M711 698q-15 -61 -26 -169h-26q-3 22 -7 38.5t-9.5 28.5t-9 19.5t-11 13.5t-10 8.5t-11.5 6.5t-10 5q-72 12 -242 12q-9 -18 -61 -269q181 -6 203 15q47 38 64 88q1 3 2 5q21 2 25 -1q1 0 -3.5 -16.5t-13 -49.5t-14.5 -58q-7 -28 -13 -61t-8 -51t-3 -19l-26 -1 q0 14 0.5 26.5t-6 30t-20.5 36.5q-14 18 -197 15q-61 -290 -57 -310q171 0 263 19q1 1 10.5 5t13 6t13.5 7t15.5 10t14.5 12.5t16 16t15 19.5t15.5 25t14.5 30l26 1q-48 -145 -58 -191q-215 8 -576 0l7 29q61 3 100 39q26 24 75 271q7 30 18 82.5t22 126.5t5 86 q-16 29 -86 32l7 28q205 -7 559 3zM334 878h32l72 -91l120 91h34l-138 -147h-43z" />
<glyph unicode="&#x11b;" horiz-adv-x="502" d="M466 290h-325q-12 -56 -8 -95.5t14 -65.5t30 -40.5t39.5 -20.5t42.5 -6q33 0 62.5 10.5t54 31t37.5 33.5t31 34l15 -7q-8 -14 -19.5 -30.5t-36 -44t-52 -48t-68 -36t-83.5 -15.5q-89 0 -131 63.5t-18 173.5q15 68 48 120t73 80t78.5 41t72.5 13q77 0 116 -46.5t27 -144.5 zM366 323q3 19 1.5 40t-6.5 39t-23 29.5t-47 11.5q-45 0 -79 -27t-60 -93h214zM218 688h31l73 -91l119 91h35l-138 -147h-43z" />
<glyph unicode="&#x11c;" horiz-adv-x="797" d="M793 372l-6 -28q-16 -1 -24 -2t-22 -8t-29 -22q-19 -19 -73 -259q-2 -1 -20.5 -9t-42 -17t-54 -18.5t-66.5 -16t-68 -6.5q-85 0 -157.5 27t-112.5 84q-23 34 -34.5 64.5t-15 81.5t10.5 115q29 150 152 249.5t287 99.5q62 0 117.5 -17.5t62.5 -17.5q12 0 30.5 8t26.5 27 h23q-16 -57 -26 -110l-13 -111h-24q-5 34 -15 60.5t-30 56t-57 46t-89 16.5q-42 0 -85.5 -15.5t-91 -50t-87 -103t-59.5 -162.5q-30 -141 26.5 -223.5t178.5 -82.5q15 0 30.5 2.5t29.5 7.5t26 10t24 12t19.5 11.5t16 10t9.5 6.5q46 200 31 224q-16 30 -76 32l7 28 q21 -7 139 -7q108 0 131 7zM622 731h-30l-73 91l-119 -91h-36l139 147h42z" />
<glyph unicode="&#x11d;" horiz-adv-x="502" d="M544 456q-5 -54 -31 -63q-33 -9 -81 13q9 -47 -4 -111q-11 -52 -49 -85.5t-74.5 -43.5t-72.5 -10q-7 0 -30 2.5t-25 2.5q-16 -1 -44.5 -25.5t-32.5 -40.5q-2 -8 4.5 -14t21 -9t24 -4t26.5 -2l133 -5q39 -2 64 -16t31.5 -31.5t9.5 -35.5t-2 -29q-12 -55 -69 -97.5 t-121 -61.5t-115 -18q-85 1 -129 30t-35 72q13 54 130 127q-16 8 -24.5 14t-15 17t-3.5 24q2 11 7 19.5t31.5 31.5t78.5 63q-43 22 -63.5 58.5t-10.5 81.5q17 84 84.5 127.5t137.5 43.5q67 0 118 -38q13 -9 64 -7.5t67 20.5zM345 282q3 16 3.5 40t-3 55t-22 52.5t-49.5 21.5 q-32 0 -60 -23t-38 -71q-8 -43 -8 -82t20.5 -66.5t58.5 -27.5q25 0 44.5 12t30 31t15.5 32t8 26zM380 -67q3 17 -3 27.5t-25 15t-36.5 6t-53.5 2.5q-126 5 -167 14q-27 -25 -37 -35.5t-21 -26t-14 -30.5q-3 -18 7 -33.5t44.5 -28t90.5 -12.5q88 0 147 29t68 72zM419 538h-32 l-76 96l-126 -96h-36l145 155h45z" />
<glyph unicode="&#x11e;" horiz-adv-x="797" d="M793 372l-6 -28q-16 -1 -24 -2t-22 -8t-29 -22q-19 -19 -73 -259q-2 -1 -20.5 -9t-42 -17t-54 -18.5t-66.5 -16t-68 -6.5q-85 0 -157.5 27t-112.5 84q-23 34 -34.5 64.5t-15 81.5t10.5 115q29 150 152 249.5t287 99.5q62 0 117.5 -17.5t62.5 -17.5q12 0 30.5 8t26.5 27 h23q-16 -57 -26 -110l-13 -111h-24q-5 34 -15 60.5t-30 56t-57 46t-89 16.5q-42 0 -85.5 -15.5t-91 -50t-87 -103t-59.5 -162.5q-30 -141 26.5 -223.5t178.5 -82.5q15 0 30.5 2.5t29.5 7.5t26 10t24 12t19.5 11.5t16 10t9.5 6.5q46 200 31 224q-16 30 -76 32l7 28 q21 -7 139 -7q108 0 131 7zM436 840l24 1q-6 -32 15.5 -54t55.5 -22q26 0 55.5 21t43.5 54q25 -1 25 0q-8 -46 -46 -77.5t-86 -31.5q-46 0 -71.5 32t-15.5 77z" />
<glyph unicode="&#x11f;" horiz-adv-x="501" d="M543 456q-3 -54 -30 -63q-29 -8 -82 13q11 -44 -3 -111q-8 -40 -31.5 -69t-54 -43.5t-58 -20.5t-52.5 -6q-7 0 -30 2.5t-25 2.5q-16 -2 -45 -26.5t-31 -39.5q-2 -8 4 -14t20 -9t24 -4t27 -2l134 -5q38 -2 63 -16t31.5 -31.5t9.5 -35.5t-2 -29q-12 -55 -69.5 -97.5 t-121.5 -61.5t-115 -18q-84 1 -128 30t-35 72q12 55 130 127q-25 12 -36.5 24t-7.5 31q3 11 8 19.5t31 32t78 62.5q-43 22 -63.5 58.5t-10.5 81.5q19 84 86 127.5t137 43.5q29 0 62.5 -10.5t54.5 -27.5q14 -9 65 -7.5t66 20.5zM345 282q3 16 4 40t-3 55t-22 52.5t-49 21.5 q-33 0 -61 -23t-38 -71q-7 -43 -7.5 -82t19.5 -66.5t59 -27.5q25 0 44 12t30 30.5t16 32t8 26.5zM379 -67q4 17 -2 27.5t-25.5 15t-37 6t-53.5 2.5q-124 5 -167 14q-25 -24 -36 -35.5t-21 -26.5t-13 -30q-4 -18 6 -33.5t44.5 -28t89.5 -12.5q90 0 148 29t67 72zM193 656 l25 1q-7 -33 15.5 -56.5t59.5 -23.5q27 0 58 22.5t45 56.5h28q-9 -48 -49.5 -81.5t-90.5 -33.5q-48 0 -74.5 34t-16.5 81z" />
<glyph unicode="&#x120;" horiz-adv-x="797" d="M793 372l-6 -28q-16 -1 -24 -2t-22 -8t-29 -22q-19 -19 -73 -259q-2 -1 -20.5 -9t-42 -17t-54 -18.5t-66.5 -16t-68 -6.5q-85 0 -157.5 27t-112.5 84q-23 34 -34.5 64.5t-15 81.5t10.5 115q29 150 152 249.5t287 99.5q62 0 117.5 -17.5t62.5 -17.5q12 0 30.5 8t26.5 27 h23q-16 -57 -26 -110l-13 -111h-24q-5 34 -15 60.5t-30 56t-57 46t-89 16.5q-42 0 -85.5 -15.5t-91 -50t-87 -103t-59.5 -162.5q-30 -141 26.5 -223.5t178.5 -82.5q15 0 30.5 2.5t29.5 7.5t26 10t24 12t19.5 11.5t16 10t9.5 6.5q46 200 31 224q-16 30 -76 32l7 28 q21 -7 139 -7q108 0 131 7zM530 731q-22 0 -34 16q-13 14 -8 37q6 22 24 37q20 15 40 15q19 0 34 -15q10 -16 6 -37q-3 -23 -22 -37q-19 -16 -40 -16z" />
<glyph unicode="&#x121;" horiz-adv-x="502" d="M544 456q-4 -54 -31 -63q-30 -9 -81 13q9 -45 -3 -111q-9 -40 -32.5 -69t-54 -43.5t-58 -20.5t-52.5 -6q-7 0 -29.5 2.5t-25.5 2.5q-16 -2 -44.5 -26t-32.5 -40q-2 -8 4.5 -14t21 -9t24 -4t26.5 -2l133 -5q39 -2 64 -16t31.5 -31.5t10 -35.5t-1.5 -29 q-12 -55 -69.5 -97.5t-121.5 -61.5t-115 -18q-84 1 -128.5 30t-35.5 72q13 54 130 127q-16 8 -24.5 14t-15 17t-3.5 24q3 12 7.5 19.5t31 31.5t78.5 63q-43 22 -64 58.5t-11 81.5q19 84 86 127.5t138 43.5q28 0 61.5 -10.5t55.5 -27.5q13 -9 64 -7.5t67 20.5zM345 282 q3 16 4 40t-3 55t-22 52.5t-49 21.5q-33 0 -61 -23t-38 -71q-7 -43 -7 -82t20 -66.5t58 -27.5q25 0 44.5 12t30 31t15.5 32t8 26zM379 -67q4 17 -2 27.5t-25.5 15t-36.5 6t-53 2.5q-126 5 -168 14q-35 -34 -50 -52.5t-20 -39.5q-4 -18 6 -33.5t44.5 -28t90.5 -12.5 q89 0 147 29t67 72zM328 585q-5 -19 -19 -31.5t-31 -12.5q-19 0 -28.5 11t-6.5 30q4 19 19 31.5t34 12.5q17 0 26.5 -12.5t5.5 -28.5z" />
<glyph unicode="&#x122;" horiz-adv-x="797" d="M793 372l-5 -28q-17 -1 -25 -2t-22 -8t-28 -22q-16 -16 -40 -112t-33 -147q-1 0 -29.5 -12t-59 -23.5t-76.5 -21.5t-86 -10q-85 0 -157.5 27t-112.5 84q-24 33 -35 64t-15 82t11 115q29 150 152 249.5t287 99.5q61 0 116 -17.5t63 -17.5q13 0 31 8t26 27h23 q-16 -57 -25 -110l-14 -111h-23q-6 34 -15.5 60.5t-29.5 56t-57 46t-89 16.5q-42 0 -85.5 -15.5t-91 -50t-87 -103t-59.5 -162.5q-30 -141 26.5 -223.5t178.5 -82.5q20 0 41 5t40 14t31.5 15.5t27.5 15.5l15 10q0 1 8.5 40.5t14 70t10.5 71t-2 42.5q-16 30 -76 32l7 28 q19 -7 138 -7q108 0 131 7zM274 -307v19q83 13 94 60q3 15 -15 15q-61 3 -51 58q6 24 25 39q18 14 45 14q32 0 43 -21q16 -26 11 -52q-28 -126 -152 -132z" />
<glyph unicode="&#x123;" horiz-adv-x="501" d="M543 456q-4 -54 -30 -63q-31 -9 -82 13q11 -44 -3 -111q-8 -40 -31.5 -69t-54.5 -43.5t-58.5 -20.5t-52.5 -6q-7 0 -29.5 2.5t-25.5 2.5q-16 -2 -44.5 -26t-31.5 -40q-2 -8 4.5 -14t20.5 -9t23.5 -4t26.5 -2l134 -5q39 -2 64 -16t31.5 -31.5t9.5 -35.5t-2 -29 q-12 -55 -69.5 -97.5t-121.5 -61.5t-115 -18q-84 1 -128 30t-35 72q12 55 130 127q-16 8 -25 14t-15.5 17t-3.5 24q3 11 8 19.5t31 32t78 62.5q-43 22 -63.5 58.5t-10.5 81.5q18 84 85 127.5t138 43.5q28 0 61.5 -10.5t55.5 -27.5q14 -9 64.5 -7.5t66.5 20.5zM344 282 q4 15 4.5 39.5t-3.5 55.5t-22 52.5t-49 21.5q-32 0 -60 -22.5t-39 -71.5q-7 -43 -7 -82t20 -66.5t59 -27.5q32 0 55.5 22t31 41.5t10.5 37.5zM379 -67q4 17 -2 27.5t-25.5 15t-37 6t-53.5 2.5q-126 5 -167 14q-25 -24 -36 -35.5t-21.5 -26.5t-13.5 -30q-3 -13 2.5 -25.5 t20.5 -23.5t45.5 -18t72.5 -7q90 0 148 28.5t67 72.5zM378 705q-74 -13 -85 -54q-3 -15 13 -15q57 0 46 -50q-5 -22 -23 -35q-16 -13 -40 -13q-26 0 -38 19q-11 17 -5 49q22 104 132 115v-16z" />
<glyph unicode="&#x124;" horiz-adv-x="827" d="M885 693l-6 -28q-70 -3 -99 -32q-6 -6 -14.5 -30t-16.5 -53.5t-17 -67t-15 -64.5l-12 -54l-6 -27q0 -1 -4.5 -21t-8.5 -38.5t-10 -49t-9.5 -53t-7.5 -49.5t-3 -38.5t3 -21.5q24 -36 84 -38l-6 -30q-8 4 -71.5 7t-86.5 3q-18 0 -81 -2.5t-71 -5.5l6 28q61 2 100 38 q6 5 12 19t12.5 35.5t12 42t12 50t10.5 48.5t9.5 48t7.5 38h-328q-55 -254 -42 -281q18 -36 84 -38l-6 -30q-8 4 -72 7t-86 3q-18 0 -81 -2.5t-71 -5.5l6 28q59 2 100 38q22 21 74 271q60 266 45 296q-16 29 -84 32l5 28q17 -7 151 -7q141 0 161 7l-7 -28q-70 -3 -99 -32 q-22 -23 -70 -248h328q48 224 35 248q-17 29 -85 32l6 28q17 -7 151 -7q141 0 161 7zM667 731h-30l-72 91l-120 -91h-35l138 147h42z" />
<glyph unicode="&#x125;" horiz-adv-x="589" d="M571 142q-13 -24 -25.5 -44.5t-23.5 -35t-22 -26.5t-19.5 -20t-18 -14t-15 -9t-13.5 -5t-11 -2.5l-9 -1.5h-7q-18 -1 -37.5 6.5t-27.5 24.5q-4 22 -5 35t6.5 46t13.5 54.5t17 59t17 60.5q37 147 7 157q-22 7 -51.5 -2.5t-55.5 -27.5t-48.5 -37t-36.5 -33l-13 -14 q-42 -195 -62 -313q-10 3 -40.5 4t-48.5 -4q10 24 79 315q19 84 42.5 206t20.5 136q-1 20 -45 18l6 28q18 -4 60 -4t83 10q-12 -29 -46.5 -179.5t-39.5 -178.5q33 37 103 87t114 54q42 3 62.5 -7.5t20.5 -50t-9 -81t-34 -133.5q-35 -128 -36 -141q-3 -25 17 -27q4 -1 8 -1 q22 0 46 24t35.5 44t18.5 35zM336 731h-30l-72 91l-120 -91h-35l139 147h41z" />
<glyph unicode="&#x126;" horiz-adv-x="827" d="M318 507q-6 -25 -16.5 -69.5t-12.5 -52.5h328q3 16 11.5 58t12.5 64h-323zM885 693l-6 -28q-70 -3 -99 -32q-12 -14 -33 -91h83l-8 -35h-85q-8 -33 -17 -71.5t-15 -67.5t-6 -31q0 -1 -4.5 -21t-8.5 -38.5t-10 -49t-9.5 -53t-7.5 -49.5t-3 -38.5t3 -21.5q24 -36 84 -38 l-6 -30q-8 4 -71.5 7t-86.5 3q-18 0 -81 -2.5t-71 -5.5l6 28q61 2 100 38q6 5 12 19t12.5 35.5t12 42t12 50t10.5 48.5t9.5 48t7.5 38h-328q-55 -254 -42 -281q18 -36 84 -38l-6 -30q-8 4 -72 7t-86 3q-18 0 -81 -2.5t-71 -5.5l6 28q59 2 100 38q22 21 74 271q17 74 35 170 h-80l7 35h78q12 77 5 91q-16 29 -84 32l5 28q17 -7 151 -7q141 0 161 7l-7 -28q-70 -3 -99 -32q-14 -18 -32 -91h319q14 78 6 91q-17 29 -85 32l6 28q17 -7 151 -7q141 0 161 7z" />
<glyph unicode="&#x127;" horiz-adv-x="589" d="M571 142q-13 -24 -25.5 -44.5t-23.5 -35t-22 -26.5t-19.5 -20t-18 -14t-15 -9t-13.5 -5t-11 -2.5l-9 -1.5h-7q-18 -1 -37.5 6.5t-27.5 24.5q-4 22 -5 35t6.5 46t13.5 54.5t17 59t17 60.5q37 147 7 157q-22 7 -51.5 -2.5t-55.5 -27.5t-48.5 -37t-36.5 -33l-13 -14 q-42 -195 -62 -313q-10 3 -40.5 4t-48.5 -4q10 24 79 315q31 149 46 230h-46l7 35h46q12 62 10 77q-1 20 -45 18l6 28q18 -4 60 -4t83 10q-13 -31 -34 -129h123l-7 -35h-125q-7 -31 -15 -67t-13.5 -60.5t-10 -45t-4.5 -21.5q33 37 103 87t114 54q42 3 62.5 -7.5t20.5 -50 t-9 -81t-34 -133.5q-35 -128 -36 -141q-3 -25 17 -27q4 -1 8 -1q22 0 46 24t35.5 44t18.5 35z" />
<glyph unicode="&#x128;" horiz-adv-x="402" d="M460 693l-7 -28q-70 -3 -98 -32q-16 -17 -43 -128.5t-37 -167.5q-14 -56 -32.5 -155.5t-8.5 -115.5q24 -36 84 -38l-6 -30q-8 4 -70 7t-84 3q-18 0 -80.5 -2.5t-70.5 -5.5l7 28q60 2 99 38q17 16 41.5 119t32.5 152q61 268 45 296q-16 29 -85 32l6 28q17 -7 150 -7 q137 0 157 7zM448 821q-7 -39 -27 -62q-25 -28 -61 -28q-23 0 -53 14l-33 13q-26 11 -41 11q-13 0 -22.5 -6t-13.5 -12t-11 -20h-24q21 90 85 90q27 0 55 -13l53 -20q18 -6 31 -3q18 2 37 36h25z" />
<glyph unicode="&#x129;" horiz-adv-x="346" d="M283 136q-78 -151 -154 -151q-59 0 -65 52q-5 54 30 198q4 18 16.5 66t17.5 73t4 34q-1 19 -41 19l5 27q5 -4 57 -3.5t79 10.5q-65 -225 -76 -280q-2 -9 -5 -22t-5 -22t-4.5 -20t-3.5 -18.5t-1 -16t1.5 -14t4.5 -10.5t8.5 -7.5t13.5 -3.5q41 -3 94 97zM330 632 q-5 -38 -26 -62q-27 -29 -61 -29q-21 0 -53 15l-34 13q-26 11 -40 11q-13 0 -22.5 -6t-13.5 -12.5t-11 -20.5h-25q23 91 86 91q27 0 55 -13l52 -21q22 -4 32 -2q18 2 37 36h24z" />
<glyph unicode="&#x12a;" horiz-adv-x="405" d="M454 731h-278l11 46h276zM460 693l-7 -28q-70 -3 -98 -32q-16 -17 -43 -128.5t-37 -167.5q-14 -56 -32.5 -155.5t-8.5 -115.5q24 -36 84 -38l-6 -30q-8 4 -70 7t-84 3q-18 0 -80.5 -2.5t-70.5 -5.5l7 28q60 2 99 38q17 16 41.5 119t32.5 152q61 268 45 296q-16 29 -85 32 l6 28q17 -7 150 -7q137 0 157 7z" />
<glyph unicode="&#x12b;" horiz-adv-x="363" d="M293 143q-81 -159 -162 -159q-62 0 -67 55q-6 54 30 208q5 22 18 70.5t18.5 75.5t4.5 36q-3 20 -44 20l6 29q5 -4 60 -3.5t83 9.5q-57 -183 -81 -293q-2 -11 -6.5 -30t-6.5 -29t-4.5 -25t-1.5 -23t3.5 -16.5t9 -13t16.5 -5.5q24 -1 48 26t53 77zM336 541h-292l10 49h293z " />
<glyph unicode="&#x12c;" horiz-adv-x="402" d="M460 693l-7 -28q-70 -3 -98 -32q-16 -17 -43 -128.5t-37 -167.5q-14 -56 -32.5 -155.5t-8.5 -115.5q24 -36 84 -38l-6 -30q-8 4 -70 7t-84 3q-18 0 -80.5 -2.5t-70.5 -5.5l7 28q60 2 99 38q17 16 41.5 119t32.5 152q61 268 45 296q-16 29 -85 32l6 28q17 -7 150 -7 q137 0 157 7zM209 840l25 1q-7 -32 14.5 -54t55.5 -22q26 0 55.5 21t43.5 54h26q-8 -46 -46.5 -77.5t-85.5 -31.5q-46 0 -71.5 32t-16.5 77z" />
<glyph unicode="&#x12d;" horiz-adv-x="322" d="M276 143q-81 -159 -163 -159q-62 0 -68 55q-5 59 31 208q5 22 18 70.5t18.5 75.5t4.5 36q-3 20 -44 20l6 29q4 -4 59 -3.5t85 9.5q-60 -194 -81 -293q-2 -12 -6.5 -30t-7 -29t-5 -25.5t-2 -22.5t3 -16.5t9 -13t16.5 -5.5q24 -1 49 26.5t52 76.5zM87 650l24 1 q-6 -32 15.5 -54t55.5 -22q26 0 55 21t43 54h26q-8 -46 -46 -77.5t-86 -31.5q-46 0 -71.5 32t-15.5 77z" />
<glyph unicode="&#x12e;" horiz-adv-x="402" d="M195 -165q-41 -45 -96 -46q-39 -1 -56 22t-10 53q15 75 122 144q-144 -7 -148 -8l7 28q60 2 99 38q17 16 41.5 119t32.5 152q61 268 45 296q-16 29 -85 32l6 28q17 -7 150 -7q137 0 157 7l-7 -28q-70 -3 -98 -32q-16 -17 -43 -128.5t-37 -167.5q-14 -56 -32.5 -155.5 t-8.5 -115.5q24 -36 84 -38l-6 -30q-9 4 -118 9q-83 -69 -91 -118q-6 -24 5 -38.5t36 -14.5q26 0 46 14q8 -3 5 -15z" />
<glyph unicode="&#x12f;" horiz-adv-x="334" d="M208 -165q-39 -45 -95 -46q-40 -1 -57 22t-10 53q13 61 91 122q-45 8 -50 53q-5 59 31 208q5 22 18 70.5t18.5 75.5t4.5 36q-3 20 -44 20l6 29q4 -4 59 -3.5t85 9.5q-60 -194 -81 -293q-2 -12 -6.5 -30t-7 -29t-5 -25.5t-2 -22.5t3 -16.5t9 -13t16.5 -5.5q24 -1 49 26.5 t52 76.5l25 -9q-65 -125 -129 -152q-65 -60 -73 -102q-5 -24 5.5 -38.5t35.5 -14.5q26 0 47 14q7 -3 4 -15zM306 646q-4 -24 -25.5 -41.5t-46.5 -17.5q-24 0 -37.5 17.5t-8.5 41.5q4 25 25.5 42.5t46.5 17.5t38.5 -17.5t7.5 -42.5z" />
<glyph unicode="&#x130;" horiz-adv-x="402" d="M460 693l-7 -28q-70 -3 -98 -32q-16 -17 -43 -128.5t-37 -167.5q-14 -56 -32.5 -155.5t-8.5 -115.5q24 -36 84 -38l-6 -30q-8 4 -70 7t-84 3q-18 0 -80.5 -2.5t-70.5 -5.5l7 28q60 2 99 38q17 16 41.5 119t32.5 152q61 268 45 296q-16 29 -85 32l6 28q17 -7 150 -7 q137 0 157 7zM306 728q-23 0 -34 14q-13 16 -8 37q6 24 24 37q18 15 40 15t34 -15q13 -15 7 -37q-5 -22 -23 -37q-17 -14 -40 -14z" />
<glyph unicode="&#x131;" horiz-adv-x="292" d="M276 143q-81 -159 -162 -159q-62 0 -68 55q-6 56 31 208q4 19 17 70t18.5 77t4.5 35q-1 20 -43 20l5 29q6 -4 60.5 -3.5t83.5 9.5q-60 -194 -81 -293q-2 -11 -6.5 -30t-7 -29.5t-4.5 -25t-1.5 -22.5t3 -16.5t9.5 -13t17 -5.5q43 -3 99 103z" />
<glyph unicode="&#x132;" horiz-adv-x="831" d="M460 693l-7 -28q-70 -3 -98 -32q-16 -17 -43 -128.5t-37 -167.5q-14 -56 -32.5 -155.5t-8.5 -115.5q24 -36 84 -38l-6 -30q-8 4 -70 7t-84 3q-18 0 -80.5 -2.5t-70.5 -5.5l7 28q60 2 99 38q17 16 41.5 119t32.5 152q61 268 45 296q-16 29 -85 32l6 28q17 -7 150 -7 q137 0 157 7zM890 693l-5 -28q-71 -3 -99 -32q-6 -6 -14.5 -30t-16.5 -53.5t-17 -67t-15.5 -65t-12 -53.5t-5.5 -27l-31 -146q-12 -57 -36.5 -98.5t-47.5 -61t-52.5 -31t-43.5 -13t-29 -1.5q-59 0 -76 25q-20 27 -13 51q9 24 28 36q10 6 20.5 8.5t17 1.5t14.5 -3t10 -2 q-6 -16 -8 -33t8.5 -31.5t36.5 -12.5q19 1 36.5 17.5t25.5 53.5l55 242q0 1 15 75t25 140.5t3 78.5q-16 29 -85 32l6 28q17 -7 151 -7q137 0 155 7z" />
<glyph unicode="&#x133;" d="M264 646q-4 -24 -25.5 -41.5t-46.5 -17.5q-24 0 -37.5 17.5t-8.5 41.5q4 25 25.5 42.5t46.5 17.5t38.5 -17.5t7.5 -42.5zM276 143q-81 -159 -163 -159q-62 0 -68 55q-5 59 31 208q5 22 18 70.5t18.5 75.5t4.5 36q-3 20 -44 20l6 29q4 -4 59 -3.5t85 9.5 q-60 -194 -81 -293q-2 -12 -6.5 -30t-7 -29t-5 -25.5t-2 -22.5t3 -16.5t9 -13t16.5 -5.5q24 -1 49 26.5t52 76.5zM559 647q-6 -25 -27 -42.5t-45 -17.5q-25 0 -39 17.5t-9 42.5q6 24 27 41.5t45 17.5q25 0 39 -17.5t9 -41.5zM514 484q-8 -29 -27 -116.5t-41 -194.5t-30 -145 q-29 -137 -71.5 -197t-120.5 -60q-84 -2 -94 43q-6 48 43 60q19 3 35 -4.5t15 -25.5q-2 -3 -5 -6.5t-5 -5.5t-3.5 -5.5t-1 -8t2.5 -10.5q5 -12 23 -12q13 0 25 9t22 28.5t16.5 35.5t14 45.5t10.5 42t9 40.5q16 69 51.5 244.5t33.5 188.5q-4 20 -44 20l6 29q15 -4 56 -4t80 9 z" />
<glyph unicode="&#x134;" horiz-adv-x="427" d="M484 693l-5 -28q-71 -3 -99 -32q-6 -6 -14.5 -30t-16.5 -53.5t-17 -67t-15.5 -65t-12 -53.5t-5.5 -27l-31 -146q-12 -57 -36.5 -98.5t-47.5 -61t-52.5 -31t-43.5 -13t-29 -1.5q-59 0 -76 25q-19 29 -12 51q7 23 27 36q10 6 20.5 8.5t17 1.5t14.5 -3t10 -2q-6 -16 -8 -33 t8.5 -31.5t36.5 -12.5q19 1 36.5 17.5t26.5 53.5l54 242q0 2 7.5 36.5t14 68.5t14 80t9 70t-1.5 39q-16 29 -85 32l7 28q15 -7 150 -7q137 0 155 7zM457 731h-30l-73 92l-119 -92h-36l139 148h42z" />
<glyph unicode="&#x135;" horiz-adv-x="356" d="M266 484q-7 -25 -98 -456q-29 -137 -72 -197t-120 -60q-86 -2 -94 43q-4 16 5.5 34.5t37.5 25.5q18 3 34 -4.5t16 -25.5q-2 -2 -5.5 -6t-5 -6t-3 -5.5t-1 -8t2.5 -10.5q2 -12 22 -12q13 0 25 9t22 28.5t16.5 35.5t14 45.5t10.5 42t9 40.5q16 69 51.5 244.5t33.5 188.5 q-3 20 -44 20l6 29q15 -4 56.5 -4t80.5 9zM344 542h-32l-76 96l-126 -96h-36l145 156h45z" />
<glyph unicode="&#x136;" horiz-adv-x="813" d="M866 696l-6 -32q-34 -3 -52.5 -7.5t-61 -27.5t-102.5 -69l-199 -155q31 -55 120.5 -189.5t104.5 -149.5q33 -31 93 -38l-7 -30q-7 3 -70.5 5.5t-83.5 2.5q-18 0 -81.5 -2.5t-72.5 -5.5l7 30q14 0 18.5 0.5t17 2.5t18.5 5.5t12 10t8 16.5q4 23 -159 285l-121 -88 q-37 -172 -24 -194q24 -36 85 -38l-7 -30q-8 4 -69.5 7t-83.5 3q-18 0 -78 -2.5t-68 -5.5l6 28q58 2 97 38q17 16 41 117.5t33 153.5q61 267 46 296q-16 29 -84 32l7 28q17 -7 145 -7q137 0 155 7l-5 -28q-71 -3 -99 -32q-6 -6 -14.5 -30t-16.5 -53.5t-17 -67t-15.5 -65 t-12 -53.5t-5.5 -27q0 -4 -7 -34q44 34 105 83t95.5 77.5t107 90t77.5 65.5q25 22 -11 37q-19 8 -42 8l7 29q151 -7 269 3zM290 -295v19q83 12 94 59q3 15 -15 16q-62 1 -51 57q6 24 25 39q22 15 45 15q30 0 43 -21q17 -26 11 -52q-28 -128 -152 -132z" />
<glyph unicode="&#x137;" horiz-adv-x="507" d="M497 434q-4 -22 -32 -44.5t-56 -35.5t-75.5 -33t-62.5 -27q46 -115 73 -158q9 -15 17.5 -31.5t11.5 -22t8.5 -9.5t15.5 -5q25 -2 43.5 24.5t28.5 56.5l23 -8q-19 -70 -53 -113t-67 -43q-55 0 -107 108l-78 165l-34 -15q-6 -33 -16.5 -85t-17.5 -90t-11 -67q-51 11 -90 0 q34 106 66 249q16 71 46 233t27 176q-3 18 -40 18l6 28q16 -3 63 -3t76 8q-16 -46 -56 -226t-45 -211q17 6 41 18q158 74 175 112q9 20 9 33t-5 18l-5 6q21 19 70 23q9 1 21 -1.5t23 -14.5t7 -33zM110 -295v19q85 12 94 59q3 15 -15 16q-62 2 -50 57q6 24 25 39q22 15 44 15 q29 0 44 -21q16 -27 10 -52q-28 -128 -152 -132z" />
<glyph unicode="&#x139;" horiz-adv-x="667" d="M655 181l-88 -181h-563l6 28q59 2 101 38q9 9 21.5 50.5t22.5 84.5t19.5 88t10.5 48q60 266 45 296q-17 29 -85 32l6 28q15 -7 150 -7q136 0 156 7l-6 -28q-71 -3 -99 -32q-6 -6 -14.5 -30t-16.5 -53.5t-17 -67t-15.5 -65t-12 -53.5t-5.5 -27l-5 -25l-9.5 -47.5 t-12.5 -60t-13.5 -64t-12 -57t-8.5 -41t-3 -14.5h20h44h45q125 0 187 28t126 125h26zM476 915q7 -10 1.5 -27.5t-18.5 -28.5l-153 -129l-20 3l129 173q11 13 29 17.5t32 -8.5z" />
<glyph unicode="&#x13a;" horiz-adv-x="390" d="M259 710q-16 -46 -76 -307t-64 -292q-4 -22 -5.5 -34t-0.5 -23t5.5 -15t14.5 -4q19 0 38 20.5t62 80.5l14 -11q-44 -72 -78 -104.5t-81 -32.5q-34 0 -47.5 20.5t-9.5 47.5q6 44 64.5 301.5t53.5 300.5q-1 18 -40 18l6 29q7 -4 60.5 -4t83.5 9zM374 915q7 -10 1.5 -27.5 t-18.5 -28.5l-153 -129l-20 3l129 173q11 13 29 17.5t32 -8.5z" />
<glyph unicode="&#x13b;" horiz-adv-x="667" d="M655 181l-88 -181h-563l6 28q59 2 101 38q9 9 21.5 50.5t22.5 84.5t19.5 88t10.5 48q60 266 45 296q-17 29 -85 32l6 28q15 -7 150 -7q136 0 156 7l-6 -28q-71 -3 -99 -32q-6 -6 -14.5 -30t-16.5 -53.5t-17 -67t-15.5 -65t-12 -53.5t-5.5 -27l-5 -25l-9.5 -47.5 t-12.5 -60t-13.5 -64t-12 -57t-8.5 -41t-3 -14.5h20h44h45q125 0 187 28t126 125h26zM235 -295v19q85 12 94 59q3 15 -15 16q-62 2 -49 57q5 24 24 39q23 15 45 15q28 0 43 -21q16 -27 10 -52q-28 -128 -152 -132z" />
<glyph unicode="&#x13c;" horiz-adv-x="322" d="M310 710q-16 -46 -76 -307t-64 -292q-4 -22 -5.5 -34t-0.5 -23t5.5 -15t14.5 -4q19 0 38 20.5t62 80.5l14 -11q-44 -72 -78 -104.5t-81 -32.5q-34 0 -47.5 20.5t-9.5 47.5q6 44 64.5 301.5t53.5 300.5q-1 18 -40 18l6 29q7 -4 60.5 -4t83.5 9zM30 -295v19q85 12 94 59 q3 15 -15 16q-62 2 -50 57q6 24 25 39q22 15 44 15q29 0 44 -21q16 -27 10 -52q-28 -128 -152 -132z" />
<glyph unicode="&#x13d;" horiz-adv-x="686" d="M655 181l-88 -181h-563l6 28q59 2 101 38q9 9 21.5 50.5t22.5 84.5t19.5 88t10.5 48q60 266 45 296q-17 29 -85 32l6 28q15 -7 150 -7q136 0 156 7l-6 -28q-71 -3 -99 -32q-6 -6 -14.5 -30t-16.5 -53.5t-17 -67t-15.5 -65t-12 -53.5t-5.5 -27l-5 -25l-9.5 -47.5 t-12.5 -60t-13.5 -64t-12 -57t-8.5 -41t-3 -14.5h20h44h45q125 0 187 28t126 125h26zM696 596q-6 -30 -42.5 -66t-68.5 -48l-5 16q21 7 49 33.5t32 45.5q3 12 -8 12q-13 0 -25 -2q-42 4 -35 38q12 48 57 48q30 0 41.5 -24.5t4.5 -52.5z" />
<glyph unicode="&#x13e;" horiz-adv-x="401" d="M259 710q-16 -46 -76 -307t-64 -292q-4 -22 -5.5 -34t-0.5 -23t5.5 -15t14.5 -4q19 0 38 20.5t62 80.5l14 -11q-44 -72 -78 -104.5t-81 -32.5q-34 0 -47.5 20.5t-9.5 47.5q6 44 64.5 301.5t53.5 300.5q-1 18 -40 18l6 29q7 -4 60.5 -4t83.5 9zM422 596q-6 -30 -42.5 -66 t-68.5 -48l-5 16q21 7 49 33.5t32 45.5q3 12 -8 12q-13 0 -25 -2q-42 4 -35 38q12 48 57 48q30 0 41.5 -24.5t4.5 -52.5z" />
<glyph unicode="&#x13f;" horiz-adv-x="667" d="M655 181l-88 -181h-563l6 28q59 2 101 38q9 9 21.5 50.5t22.5 84.5t19.5 88t10.5 48q60 266 45 296q-17 29 -85 32l6 28q15 -7 150 -7q136 0 156 7l-6 -28q-71 -3 -99 -32q-6 -6 -14.5 -30t-16.5 -53.5t-17 -67t-15.5 -65t-12 -53.5t-5.5 -27l-5 -25l-9.5 -47.5 t-12.5 -60t-13.5 -64t-12 -57t-8.5 -41t-3 -14.5h20h44h45q125 0 187 28t126 125h26zM548 326q-4 -19 -18.5 -31.5t-32.5 -12.5q-19 0 -28.5 10.5t-5.5 30.5q4 19 18.5 31.5t33.5 12.5q18 0 27.5 -12.5t5.5 -28.5z" />
<glyph unicode="&#x140;" horiz-adv-x="328" d="M259 710q-16 -46 -76 -307t-64 -292q-4 -22 -5.5 -34t-0.5 -23t5.5 -15t14.5 -4q19 0 38 20.5t62 80.5l14 -11q-44 -72 -78 -104.5t-81 -32.5q-34 0 -47.5 20.5t-9.5 47.5q6 44 64.5 301.5t53.5 300.5q-1 18 -40 18l6 29q7 -4 60.5 -4t83.5 9zM345 299q-4 -19 -18.5 -31 t-31.5 -12q-19 0 -28.5 10.5t-5.5 29.5q3 19 18 31.5t34 12.5q18 0 27 -12.5t5 -28.5z" />
<glyph unicode="&#x141;" horiz-adv-x="667" d="M480 413v-36l-210 -45q-2 -8 -6 -29.5t-10 -49.5t-12.5 -59t-12.5 -61t-11 -54t-8 -38t-3 -13h20h44h45q125 0 187 28t126 125h26l-88 -181h-563l6 28q59 2 101 38q22 21 69 247l-87 -18v37l95 19q54 259 42 282q-17 29 -85 32l6 28q15 -7 150 -7q136 0 156 7l-6 -28 q-71 -3 -99 -32q-26 -28 -74 -263z" />
<glyph unicode="&#x142;" horiz-adv-x="302" d="M290 355l-110 -23q-9 -43 -21.5 -101t-18.5 -86.5t-7 -33.5q-4 -22 -5.5 -34t-0.5 -23t5.5 -15t14.5 -4q19 0 38 20.5t62 80.5l14 -11q-44 -72 -78 -104.5t-81 -32.5q-34 0 -47.5 20.5t-9.5 47.5q7 57 54 257l-85 -18v37l94 20q60 258 55 306q-1 18 -40 18l6 29 q7 -4 60.5 -4t83.5 9q-16 -41 -84 -340l101 21v-36z" />
<glyph unicode="&#x143;" horiz-adv-x="802" d="M859 695l-8 -30q-49 1 -71 -16q-7 -6 -12 -13t-9.5 -18.5t-6.5 -18.5t-6.5 -26t-6.5 -27q-20 -79 -36 -157q-3 -16 -24 -111t-38.5 -177.5t-20.5 -101.5q-17 4 -31 0q-108 204 -325 569q-4 -20 -26.5 -126t-28.5 -136q-19 -78 -29 -158q-1 -5 -2.5 -15.5t-2 -14.5 t-2 -12.5t-1.5 -11.5t-0.5 -9.5t0.5 -9.5t1.5 -8t2.5 -8.5t4 -6.5q7 -10 20.5 -15.5t23 -6t32.5 -1.5l-7 -29q-9 1 -23 2.5t-47 3.5t-52 2q-109 -5 -131 -8l7 29q69 0 97 30q10 11 35 107t33 138q7 26 34 157.5t29 151.5q-4 32 -27 42q-14 10 -48 10l6 30q6 -1 14.5 -1.5 l17 -1t16.5 -0.5t16 -0.5t13.5 -0.5h10.5h5q41 0 68 5q50 -98 143 -266t147 -253q27 105 48 213q50 227 40 247q-6 14 -25.5 21t-35.5 7h-16q5 22 7 30q38 -5 117 -7h19.5t21 1t21 1.5t19.5 1.5t16 1.5t11 0.5zM656 915q7 -10 1.5 -27.5t-18.5 -28.5l-153 -129l-20 3 l129 173q11 13 29 17.5t32 -8.5z" />
<glyph unicode="&#x144;" horiz-adv-x="536" d="M554 142q-13 -24 -25.5 -44.5t-23.5 -35t-22 -26.5t-19.5 -20t-18 -14t-15 -9t-13.5 -5t-11 -2.5t-10 -1.5h-6q-18 -1 -37.5 6.5t-26.5 24.5q-4 21 -5 35t6 46t13.5 54.5t17 59t16.5 60.5q38 146 8 157q-22 7 -51.5 -2.5t-55.5 -27.5t-48.5 -37t-36.5 -33l-13 -14 q-27 -101 -63 -313q-11 4 -43.5 4t-50.5 -5q7 16 31.5 105.5t36.5 141.5q34 152 28 185q-3 20 -45 18l6 29q15 -4 62 -4.5t84 9.5q-18 -41 -38 -132q35 38 104 87.5t114 53.5q42 3 62.5 -7.5t20.5 -50t-9.5 -81.5t-34.5 -133q-36 -131 -37 -139q-4 -27 16 -30h9 q51 1 102 103zM478 723q7 -10 1.5 -27.5t-17.5 -28.5l-153 -129l-21 3l129 173q11 13 29.5 17.5t31.5 -8.5z" />
<glyph unicode="&#x145;" horiz-adv-x="802" d="M859 695l-8 -30q-49 1 -71 -16q-7 -6 -12 -13t-9.5 -18.5t-6.5 -18.5t-6.5 -26t-6.5 -27q-20 -79 -36 -157q-3 -16 -24 -111t-38.5 -177.5t-20.5 -101.5q-17 4 -31 0q-108 204 -325 569q-4 -20 -26.5 -126t-28.5 -136q-19 -78 -29 -158q-1 -5 -2.5 -15.5t-2 -14.5 t-2 -12.5t-1.5 -11.5t-0.5 -9.5t0.5 -9.5t1.5 -8t2.5 -8.5t4 -6.5q7 -10 20.5 -15.5t23 -6t32.5 -1.5l-7 -29q-9 1 -23 2.5t-47 3.5t-52 2q-109 -5 -131 -8l7 29q69 0 97 30q10 11 35 107t33 138q7 26 34 157.5t29 151.5q-4 32 -27 42q-14 10 -48 10l6 30q6 -1 14.5 -1.5 l17 -1t16.5 -0.5t16 -0.5t13.5 -0.5h10.5h5q41 0 68 5q50 -98 143 -266t147 -253q27 105 48 213q50 227 40 247q-6 14 -25.5 21t-35.5 7h-16q5 22 7 30q38 -5 117 -7h19.5t21 1t21 1.5t19.5 1.5t16 1.5t11 0.5zM285 -295v19q83 12 94 59q3 15 -15 16q-62 2 -50 57 q4 23 25 39q22 15 44 15q29 0 44 -21q16 -27 10 -52q-28 -128 -152 -132z" />
<glyph unicode="&#x146;" horiz-adv-x="536" d="M554 142q-13 -24 -25.5 -44.5t-23.5 -35t-22 -26.5t-19.5 -20t-18 -14t-15 -9t-13.5 -5t-11 -2.5t-10 -1.5h-6q-18 -1 -37.5 6.5t-26.5 24.5q-4 21 -5 35t6 46t13.5 54.5t17 59t16.5 60.5q38 146 8 157q-22 7 -51.5 -2.5t-55.5 -27.5t-48.5 -37t-36.5 -33l-13 -14 q-27 -101 -63 -313q-11 4 -43.5 4t-50.5 -5q7 16 31.5 105.5t36.5 141.5q34 152 28 185q-3 20 -45 18l6 29q15 -4 62 -4.5t84 9.5q-18 -41 -38 -132q35 38 104 87.5t114 53.5q42 3 62.5 -7.5t20.5 -50t-9.5 -81.5t-34.5 -133q-36 -131 -37 -139q-4 -27 16 -30h9 q51 1 102 103zM117 -295v19q83 12 94 59q3 15 -15 16q-62 1 -51 57q6 24 26 39t44 15q30 0 43 -21q17 -26 11 -52q-28 -128 -152 -132z" />
<glyph unicode="&#x147;" horiz-adv-x="802" d="M859 695l-8 -30q-49 1 -71 -16q-7 -6 -12 -13t-9.5 -18.5t-6.5 -18.5t-6.5 -26t-6.5 -27q-20 -79 -36 -157q-3 -16 -24 -111t-38.5 -177.5t-20.5 -101.5q-17 4 -31 0q-108 204 -325 569q-4 -20 -26.5 -126t-28.5 -136q-19 -78 -29 -158q-1 -5 -2.5 -15.5t-2 -14.5 t-2 -12.5t-1.5 -11.5t-0.5 -9.5t0.5 -9.5t1.5 -8t2.5 -8.5t4 -6.5q7 -10 20.5 -15.5t23 -6t32.5 -1.5l-7 -29q-9 1 -23 2.5t-47 3.5t-52 2q-109 -5 -131 -8l7 29q69 0 97 30q10 11 35 107t33 138q7 26 34 157.5t29 151.5q-4 32 -27 42q-14 10 -48 10l6 30q6 -1 14.5 -1.5 l17 -1t16.5 -0.5t16 -0.5t13.5 -0.5h10.5h5q41 0 68 5q50 -98 143 -266t147 -253q27 105 48 213q50 227 40 247q-6 14 -25.5 21t-35.5 7h-16q5 22 7 30q38 -5 117 -7h19.5t21 1t21 1.5t19.5 1.5t16 1.5t11 0.5zM391 878h32l72 -91l120 91h34l-138 -147h-43z" />
<glyph unicode="&#x148;" horiz-adv-x="536" d="M554 142q-13 -24 -25.5 -44.5t-23.5 -35t-22 -26.5t-19.5 -20t-18 -14t-15 -9t-13.5 -5t-11 -2.5t-10 -1.5h-6q-18 -1 -37.5 6.5t-26.5 24.5q-4 21 -5 35t6 46t13.5 54.5t17 59t16.5 60.5q38 146 8 157q-22 7 -51.5 -2.5t-55.5 -27.5t-48.5 -37t-36.5 -33l-13 -14 q-27 -101 -63 -313q-11 4 -43.5 4t-50.5 -5q7 16 31.5 105.5t36.5 141.5q34 152 28 185q-3 20 -45 18l6 29q15 -4 62 -4.5t84 9.5q-18 -41 -38 -132q35 38 104 87.5t114 53.5q42 3 62.5 -7.5t20.5 -50t-9.5 -81.5t-34.5 -133q-36 -131 -37 -139q-4 -27 16 -30h9 q51 1 102 103zM196 689h31l72 -91l120 91h34l-138 -148h-42z" />
<glyph unicode="&#x149;" horiz-adv-x="537" d="M555 142q-13 -24 -26 -44.5t-23.5 -35t-22 -26.5t-20 -20t-18 -14t-15 -9t-13.5 -5t-11 -2.5t-10 -1.5h-6q-18 -1 -37.5 6.5t-26.5 24.5q-4 21 -5 35t6.5 46.5t13.5 54.5t16.5 59t16.5 60q38 146 8 157q-22 7 -51.5 -2.5t-55.5 -27.5t-48.5 -37t-36.5 -33l-13 -14 q-30 -113 -62 -313q-12 4 -44.5 4t-50.5 -5q7 15 31.5 103.5t36.5 143.5q35 154 29 185q-4 20 -46 18l6 29q15 -4 62 -4.5t84 9.5q-25 -62 -37 -132q33 37 102.5 87t114.5 54q42 3 62.5 -7.5t20.5 -50t-9.5 -81.5t-34.5 -133q-36 -131 -37 -139q-4 -27 16 -30h9 q51 1 102 103zM234 623q-7 -32 -45.5 -69.5t-73.5 -50.5l-5 17q23 8 52.5 35.5t33.5 47.5q3 13 -9 13t-26 -2q-43 4 -36 39q12 50 60 50q31 0 43 -25.5t6 -54.5z" />
<glyph unicode="&#x14a;" horiz-adv-x="802" d="M859 695l-8 -30q-49 1 -71 -16q-7 -6 -12 -13t-9.5 -18.5t-6.5 -18.5t-6.5 -26t-6.5 -27q-20 -79 -36 -157t-46.5 -207t-52.5 -219l-23 -90q-10 -41 -40.5 -66.5t-64 -31.5t-65.5 0q-50 9 -58 59q-4 25 12 45.5t33 28.5l18 8q-4 -19 -3 -33.5t14 -27.5q23 -25 63.5 -13 t51.5 50q33 117 33 118q-168 317 -311 558q-4 -20 -26.5 -126t-28.5 -136q-19 -78 -29 -158q-1 -5 -2.5 -15.5t-2 -14.5t-2 -12.5t-1.5 -11.5t-0.5 -9.5t0.5 -9.5t1.5 -8t2.5 -8.5t4 -6.5q7 -10 20.5 -15.5t23 -6t32.5 -1.5l-7 -29q-9 1 -23 2.5t-47 3.5t-52 2 q-109 -5 -131 -8l7 29q69 0 97 30q10 11 35 107t33 138q7 26 34 157.5t29 151.5q-4 32 -27 42q-16 10 -48 10l6 30q6 -1 14.5 -1.5l17 -1t16.5 -0.5t16 -0.5t13.5 -0.5h10.5h5q41 0 68 5q50 -98 143 -266t147 -253q27 105 48 213q50 227 40 247q-6 14 -25.5 21t-35.5 7h-16 q5 22 7 30q38 -5 117 -7h19.5t21 1t21 1.5t19.5 1.5t16 1.5t11 0.5z" />
<glyph unicode="&#x14b;" horiz-adv-x="469" d="M442 220q-46 -169 -53 -192q-77 -257 -207 -257q-85 -2 -94 43q-2 9 0 20t12.5 23t30.5 17q19 3 34.5 -4.5t15.5 -25.5q-2 -2 -6.5 -7.5t-5.5 -7t-2.5 -8.5t2.5 -13q4 -12 23 -12q64 0 116 201q8 32 31 128.5t35 144.5q38 146 8 157q-22 7 -51.5 -2.5t-55.5 -27.5 t-48.5 -37t-36.5 -33l-13 -14q-27 -101 -63 -313q-11 4 -43.5 4t-50.5 -5q7 16 31.5 105.5t36.5 141.5q34 152 28 185q-3 20 -45 18l6 29q15 -4 62 -4.5t84 9.5q-18 -41 -38 -132q35 38 104 87.5t114 53.5q42 3 62.5 -7.5t20.5 -49.5t-9.5 -81t-34.5 -134z" />
<glyph unicode="&#x14c;" horiz-adv-x="797" d="M770 339q-93 -352 -428 -352q-152 0 -224.5 101t-39.5 261q37 180 148 270.5t275 88.5q154 -2 232.5 -103.5t36.5 -265.5zM644 345q14 58 11.5 116.5t-17 105.5t-52 77t-93.5 30q-107 0 -185 -95.5t-109 -228.5q-16 -61 -13.5 -119.5t18 -104.5t53.5 -74t94 -28 q108 0 186.5 94t106.5 227zM656 732h-292l11 50h291z" />
<glyph unicode="&#x14d;" horiz-adv-x="550" d="M513 228q-12 -72 -45.5 -124t-78.5 -77.5t-89 -36t-86 -6.5q-88 8 -136 83.5t-32 172.5q21 125 96 183.5t188 53.5h1q22 2 49 -5.5t55 -25t48.5 -47.5t30 -72t-0.5 -99zM410 201q12 65 11 120.5t-27.5 92t-74.5 36.5q-60 -1 -103 -46t-63 -124q-21 -88 -12.5 -147.5 t32.5 -90t55 -33.5q61 -4 109.5 43.5t72.5 148.5zM489 542h-292l10 50h292z" />
<glyph unicode="&#x14e;" horiz-adv-x="797" d="M770 339q-93 -352 -428 -352q-152 0 -224.5 101t-39.5 261q37 180 148 270.5t275 88.5q154 -2 232.5 -103.5t36.5 -265.5zM644 345q14 58 11.5 116.5t-17 105.5t-52 77t-93.5 30q-107 0 -185 -95.5t-109 -228.5q-16 -61 -13.5 -119.5t18 -104.5t53.5 -74t94 -28 q108 0 186.5 94t106.5 227zM406 842l24 1q-6 -32 15.5 -54t55.5 -22q26 0 55.5 21t43.5 54q25 -1 25 0q-8 -46 -46 -78t-86 -32q-46 0 -71.5 32.5t-15.5 77.5z" />
<glyph unicode="&#x14f;" horiz-adv-x="550" d="M513 228q-12 -72 -45.5 -124t-78.5 -77.5t-89 -36t-86 -6.5q-88 8 -136 83.5t-32 172.5q21 125 96 183.5t188 53.5h1q22 2 49 -5.5t55 -25t48.5 -47.5t30 -72t-0.5 -99zM410 201q12 65 11 120.5t-27.5 92t-74.5 36.5q-60 -1 -103 -46t-63 -124q-21 -88 -12.5 -147.5 t32.5 -90t55 -33.5q61 -4 109.5 43.5t72.5 148.5zM231 651l25 1q-7 -32 14.5 -54t55.5 -22q26 0 55.5 21t43.5 54h26q-8 -46 -46.5 -78t-85.5 -32q-46 0 -71.5 32.5t-16.5 77.5z" />
<glyph unicode="&#x150;" horiz-adv-x="797" d="M770 339q-93 -352 -428 -352q-152 0 -224.5 101t-39.5 261q37 180 148 270.5t275 88.5q154 -2 232.5 -103.5t36.5 -265.5zM644 345q14 58 11.5 116.5t-17 105.5t-52 77t-93.5 30q-107 0 -185 -95.5t-109 -228.5q-16 -61 -13.5 -119.5t18 -104.5t53.5 -74t94 -28 q108 0 186.5 94t106.5 227zM573 914q7 -10 1.5 -28t-17.5 -28l-153 -129l-21 3l129 173q11 13 29 17.5t32 -8.5zM732 914q7 -10 1.5 -28t-18.5 -28l-153 -129l-20 3l129 173q11 13 28.5 17.5t32.5 -8.5z" />
<glyph unicode="&#x151;" horiz-adv-x="550" d="M513 228q-12 -72 -45.5 -124t-78.5 -77.5t-89 -36t-86 -6.5q-88 8 -136 83.5t-32 172.5q21 125 96 183.5t188 53.5h1q22 2 49 -5.5t55 -25t48.5 -47.5t30 -72t-0.5 -99zM410 201q12 65 11 120.5t-27.5 92t-74.5 36.5q-60 -1 -103 -46t-63 -124q-21 -88 -12.5 -147.5 t32.5 -90t55 -33.5q61 -4 109.5 43.5t72.5 148.5zM509 677q0 -17 -13 -30l-110 -143l-26 6l85 182q9 17 33 17q13 0 22 -9t9 -23zM376 677q0 -16 -12 -30l-113 -140l-24 3l86 182q7 17 33 17q13 0 21.5 -9t8.5 -23z" />
<glyph unicode="&#x152;" horiz-adv-x="1059" d="M1051 696q-11 -51 -25 -170h-25q-3 22 -7 38.5t-10 28.5t-9.5 19.5t-11.5 14t-10 8.5t-11 7l-10 4q-72 12 -242 12q-8 -20 -61 -269q46 -3 116.5 -0.5t87.5 16.5q22 19 36 37.5t18.5 28t10.5 27.5q20 1 25 -1q1 0 -31 -124q-7 -28 -12.5 -61.5t-8 -51.5t-3.5 -19l-27 -1 q1 15 1.5 27.5t-5.5 29.5t-20 36q-18 24 -198 15q-61 -293 -56 -309q185 0 261 19q17 7 22 9t24 13.5t29.5 23.5t26 34t27.5 50l25 1q-48 -150 -57 -191q-197 9 -576 0q-147 0 -224 96.5t-43 251.5q34 163 145 256t270 91q207 -7 558 3zM572 633q-16 29 -85 32 q-107 1 -183 -92t-107 -226q-16 -84 -10.5 -155t48.5 -117.5t116 -46.5q60 2 102 38q9 9 22 50.5t22.5 84.5t19 88t10.5 48q60 266 45 296z" />
<glyph unicode="&#x153;" horiz-adv-x="887" d="M851 288h-324q-1 -13 -5 -50q-5 -98 30.5 -138t91.5 -40q33 0 62.5 10.5t54 31t37.5 33.5t31 34l16 -7q-10 -18 -28 -41.5t-50.5 -56.5t-80.5 -54.5t-100 -21.5q-112 0 -144 94q-90 -99 -217 -96q-100 1 -149 72t-27 182q21 106 96 172.5t189 64.5q138 -3 178 -99 q43 51 96.5 76t99.5 25q78 0 116.5 -46t26.5 -145zM753 321q0 27 0.5 53.5t-18.5 46.5t-57 20q-46 0 -80 -27t-60 -93h215zM412 200q25 98 1 172t-93 75q-50 1 -93 -40.5t-67 -121.5q-11 -36 -16 -79t-1 -88t30.5 -75t72.5 -30q49 1 95.5 43.5t70.5 143.5z" />
<glyph unicode="&#x154;" horiz-adv-x="700" d="M688 29l-6 -30q-10 5 -72 5t-96 -5l-180 322h-66q0 -1 -7 -33.5t-12.5 -59.5t-13 -68.5t-8 -60t2.5 -33.5q25 -36 86 -38l-7 -30q-8 4 -70 7t-84 3q-18 0 -80 -2.5t-71 -5.5l6 28q59 2 101 38q9 9 21.5 50.5t22.5 84.5t19.5 88t10.5 48q7 31 17.5 83t22 126.5t4.5 86.5 q-16 29 -84 32l5 27h289q35 0 64 -2.5t66 -13.5t60.5 -29.5t36 -54t2.5 -83.5q-28 -140 -231 -177l163 -266q23 -35 88 -37zM554 511q3 26 4 46t-8.5 35t-18 25.5t-24.5 17.5t-28 10.5t-28.5 5.5t-25.5 2.5t-20 0.5l-65 -1q-23 -113 -62 -295q30 0 49.5 1.5t53 5.5t57 14 t49.5 26t43 43t24 63zM522 915q8 -10 2.5 -27.5t-18.5 -28.5l-153 -129l-21 3l129 173q12 13 30 17.5t31 -8.5z" />
<glyph unicode="&#x155;" horiz-adv-x="393" d="M394 395q-6 -9 -15.5 -15.5t-16 -8.5t-17 -4t-11.5 -2q-1 14 -7.5 23.5t-25 7.5t-45.5 -24q-28 -22 -48 -40t-26 -26l-7 -7q-40 -188 -60 -299q-10 4 -41.5 4.5t-50.5 -4.5q6 15 30 102t37 144q34 152 28 185q-3 20 -46 18l7 29q15 -5 57 -6t81 9q-3 -8 -11.5 -43.5 t-15.5 -66t-8 -30.5q38 46 64 70q32 32 57 49t56 21q35 5 46 -22.5t-11 -63.5zM366 728q7 -11 1.5 -28t-17.5 -28l-153 -130l-21 4l129 173q11 12 29.5 17t31.5 -8z" />
<glyph unicode="&#x156;" horiz-adv-x="700" d="M688 29l-6 -30q-9 5 -71.5 5t-96.5 -5l-179 322h-67q-1 -4 -10 -46.5t-16 -81t-12.5 -81t1.5 -46.5q24 -36 85 -38l-7 -30q-8 4 -69.5 7t-84.5 3q-18 0 -80 -2.5t-71 -5.5l7 28q59 2 100 38q22 22 74 271q0 3 7.5 37t14.5 69t15 80.5t9.5 70.5t-1.5 39q-17 29 -85 32 l6 27h288q34 0 63.5 -2.5t66.5 -13.5t60.5 -29.5t36 -54t2.5 -83.5q-28 -141 -232 -177l165 -266q23 -35 87 -37zM555 511q7 23 4 41.5t-6 32.5t-14 24.5t-20 18t-24 12.5t-25.5 8t-25 4t-22 1.5t-17.5 0.5l-64 -1q-37 -172 -63 -295q30 0 49.5 1.5t53.5 5.5t57.5 14t49 26 t42.5 43t25 63zM305 -295v19q85 12 94 59q3 15 -15 16q-62 2 -50 57q6 24 25 39q22 15 44 15q29 0 44 -21q16 -27 10 -52q-28 -128 -152 -132z" />
<glyph unicode="&#x157;" horiz-adv-x="461" d="M462 395q-6 -9 -15.5 -15.5t-16 -8.5t-17 -4t-11.5 -2q-1 14 -7.5 23.5t-25 7.5t-45.5 -24q-28 -22 -48.5 -40t-26.5 -26l-6 -7q-40 -188 -60 -299q-10 4 -41.5 4.5t-50.5 -4.5q6 15 30 102t37 144q34 152 28 185q-3 20 -46 18l7 29q15 -5 57 -6t81 9q-3 -8 -11.5 -43.5 t-15.5 -66t-8 -30.5q38 46 64 70q32 32 57 49t56 21q35 5 46 -22.5t-11 -63.5zM23 -295v19q85 12 94 59q3 15 -15 16q-62 2 -50 57q6 24 25 39q22 15 44 15q29 0 44 -21q16 -27 10 -52q-28 -128 -152 -132z" />
<glyph unicode="&#x158;" horiz-adv-x="700" d="M688 29l-6 -30q-10 5 -72 5t-96 -5l-180 322h-66q0 -1 -7 -33.5t-12.5 -59.5t-13 -68.5t-8 -60t2.5 -33.5q25 -36 86 -38l-7 -30q-8 4 -70 7t-84 3q-18 0 -80 -2.5t-71 -5.5l6 28q59 2 101 38q9 9 21.5 50.5t22.5 84.5t19.5 88t10.5 48q7 31 17.5 83t22 126.5t4.5 86.5 q-16 29 -84 32l5 27h289q35 0 64 -2.5t66 -13.5t60.5 -29.5t36 -54t2.5 -83.5q-28 -140 -231 -177l163 -266q23 -35 88 -37zM554 511q3 26 4 46t-8.5 35t-18 25.5t-24.5 17.5t-28 10.5t-28.5 5.5t-25.5 2.5t-20 0.5l-65 -1q-23 -113 -62 -295q30 0 49.5 1.5t53 5.5t57 14 t49.5 26t43 43t24 63zM288 878h32l72 -91l120 91h34l-138 -147h-43z" />
<glyph unicode="&#x159;" horiz-adv-x="399" d="M394 395q-6 -9 -15.5 -15.5t-16 -8.5t-17 -4t-11.5 -2q-1 14 -7.5 23.5t-25 7.5t-45.5 -24q-28 -22 -48 -40t-26 -26l-7 -7q-40 -188 -60 -299q-10 4 -41.5 4.5t-50.5 -4.5q6 15 30 102t37 144q34 152 28 185q-3 20 -46 18l7 29q15 -5 57 -6t81 9q-3 -8 -11.5 -43.5 t-15.5 -66t-8 -30.5q38 46 64 70q32 32 57 49t56 21q35 5 46 -22.5t-11 -63.5zM158 688h31l72 -91l120 91h34l-138 -147h-42z" />
<glyph unicode="&#x15a;" horiz-adv-x="575" d="M569 708q-12 -60 -17 -99l-7 -124h-26q1 72 -39.5 126t-116.5 54q-43 0 -79.5 -25.5t-46.5 -72.5q-7 -32 6.5 -59.5t39.5 -49.5t58.5 -43.5t65 -45t57.5 -50t36.5 -63.5t2.5 -80q-16 -75 -86 -132t-176 -57q-45 0 -94 17.5t-59 17.5q-16 0 -27 -10t-13 -24h-23 q11 63 14 105q2 20 2 49t-1 48v19h25q4 -24 8 -39t17 -46t30 -50t48.5 -34.5t71.5 -15.5q58 0 98.5 35t51.5 82q10 48 -13.5 84.5t-117.5 99.5q-21 14 -35 24t-29.5 23t-25.5 24.5t-18.5 27t-12 31t-4 34.5t4.5 41q18 84 84 131t143 47q36 0 82.5 -18t55.5 -18q34 0 43 36 h22zM483 915q7 -10 1.5 -27.5t-17.5 -28.5l-153 -129l-21 3l129 173q11 13 29 17.5t32 -8.5z" />
<glyph unicode="&#x15b;" horiz-adv-x="461" d="M437 478l-28 -152h-25q6 57 -19 89.5t-63 34.5q-55 4 -87.5 -16.5t-37.5 -58.5q-3 -18 5.5 -34.5t28.5 -30.5t37 -23.5t43.5 -21.5t36.5 -17q79 -44 61 -124q-13 -64 -65.5 -99.5t-113.5 -34.5q-21 0 -46.5 3t-52 8t-34.5 6q-11 2 -24 -13l-20 1l25 163h23q-4 -51 28 -96 t102 -45q82 0 98 72q11 55 -36 77l-71 36q-31 16 -48.5 27.5t-37 29.5t-25 41t0.5 52q14 63 73 98t145 31q26 -1 56 -11t36 -10q4 0 7.5 4.5t5.5 9t1 4.5h21zM422 723q7 -10 1.5 -27.5t-17.5 -28.5l-153 -129l-21 3l129 173q11 13 29.5 17.5t31.5 -8.5z" />
<glyph unicode="&#x15c;" horiz-adv-x="576" d="M570 708q-13 -60 -18 -99l-6 -124h-27q1 72 -39 126t-117 54q-43 0 -79.5 -25.5t-46.5 -72.5q-7 -32 6.5 -60t40 -49.5t59 -43t64.5 -45t57.5 -50t36.5 -63.5t2 -80q-16 -75 -86 -132t-175 -57q-46 0 -95 17.5t-59 17.5q-16 0 -26.5 -10t-13.5 -24h-23q12 63 14 105 q2 20 2 49t-1 48v19h25q4 -20 5.5 -26.5t8.5 -31t14 -37t21.5 -32.5t30.5 -30.5t41 -19t54 -8.5q59 0 99.5 35t50.5 82q10 48 -13 85t-118 99q-21 14 -35 24t-29.5 23t-25.5 24.5t-18.5 27t-12 31t-4 34.5t4.5 41q18 84 84.5 131t142.5 47q36 0 82.5 -18t55.5 -18 q32 0 44 36h22zM511 731h-33l-76 95l-126 -95h-36l145 155h45z" />
<glyph unicode="&#x15d;" horiz-adv-x="461" d="M437 478l-28 -152h-25q6 57 -19 89.5t-63 34.5q-55 4 -87.5 -16.5t-37.5 -58.5q-3 -18 5.5 -34.5t28.5 -30.5t37 -23.5t43.5 -21.5t36.5 -17q79 -44 61 -124q-13 -64 -65.5 -99.5t-113.5 -34.5q-21 0 -46.5 3t-52 8t-34.5 6q-11 2 -24 -13l-20 1l25 163h23q-4 -51 28 -96 t102 -45q82 0 98 72q11 55 -36 77l-71 36q-31 16 -48.5 27.5t-37 29.5t-25 41t0.5 52q14 63 73 98t145 31q26 -1 56 -11t36 -10q4 0 7.5 4.5t5.5 9t1 4.5h21zM399 541h-30l-73 91l-119 -91h-35l138 147h42z" />
<glyph unicode="&#x15e;" horiz-adv-x="576" d="M313 -130q-8 -41 -45.5 -59t-82.5 -18q-27 0 -77 14l19 29q30 -10 54 -10q55 0 63 42q4 15 -5.5 24t-24.5 9q-14 0 -38 -6l-6 5l55 88q-39 2 -83 18t-55 16q-15 0 -26 -10t-13 -24h-23q11 63 15 105q2 20 2 49v48l-1 19h24q34 -185 174 -185q59 0 100 35t50 82q7 29 2 54 t-36 55.5t-97 74.5q-21 14 -34.5 24t-29 23t-25 24.5t-18.5 27t-12.5 31t-3.5 34.5t5 41q17 84 83 131t143 47q36 0 82.5 -18t54.5 -18q30 0 45 36h22q-12 -60 -17 -99q-3 -21 -5 -52t-2 -51l-1 -21h-25q0 72 -40 126t-117 54q-43 0 -79.5 -25.5t-46.5 -72.5 q-7 -32 6.5 -59.5t39.5 -49.5t58.5 -43.5t65 -45t57.5 -50t36.5 -63.5t2.5 -80q-16 -72 -82 -128.5t-165 -60.5l-33 -56q13 3 28 3q33 0 51 -16.5t11 -47.5z" />
<glyph unicode="&#x15f;" horiz-adv-x="461" d="M267 -130q-8 -41 -46 -59t-82 -18q-29 0 -77 14l19 29q30 -10 54 -10q53 0 63 42q3 16 -6.5 24.5t-24.5 8.5q-12 0 -38 -6l-6 5l58 90q-21 2 -60.5 9t-43.5 8q-11 2 -24 -13l-20 1l25 163h23q-4 -51 28 -96t102 -45q82 0 98 72q11 55 -36 77l-71 36q-31 16 -48.5 27.5 t-37 29.5t-25 41t0.5 52q14 63 73 98t145 31q26 -1 56 -11t36 -10q4 0 7.5 4.5t5.5 9t1 4.5h21l-28 -152h-25q6 57 -19 89.5t-63 34.5q-55 4 -87.5 -16.5t-37.5 -58.5q-3 -18 5.5 -34.5t28.5 -30.5t37 -23.5t43.5 -21.5t36.5 -17q79 -44 61 -124q-13 -64 -65 -99t-113 -35 l-34 -59q12 3 27 3q33 0 51 -16.5t12 -47.5z" />
<glyph unicode="&#x160;" horiz-adv-x="577" d="M571 708q-13 -60 -18 -99l-7 -124h-27q1 72 -39 126t-117 54q-43 0 -79.5 -25.5t-46.5 -72.5q-7 -32 6.5 -60t40 -49.5t59 -43t64.5 -45t57.5 -50t36.5 -63.5t2 -80q-16 -75 -85.5 -132t-174.5 -57q-46 0 -96 17.5t-59 17.5q-16 0 -26.5 -10t-13.5 -24h-23q12 63 15 105 l1 116h24q4 -20 5.5 -26.5t8.5 -31t14 -37t21.5 -32.5t30.5 -30.5t41 -19t54 -8.5q59 0 99.5 35t50.5 82q10 48 -13 85t-118 99q-21 14 -34.5 24t-29.5 23t-25.5 24.5t-18.5 27t-12.5 31t-4 34.5t4.5 41q18 84 84.5 131t142.5 47q36 0 83 -18t55 -18q32 0 44 36h23zM267 887 h32l76 -96l126 96h36l-145 -156h-45z" />
<glyph unicode="&#x161;" horiz-adv-x="470" d="M437 478l-28 -152h-25q6 57 -19 89.5t-63 34.5q-55 4 -87.5 -16.5t-37.5 -58.5q-3 -18 5.5 -34.5t28.5 -30.5t37 -23.5t43.5 -21.5t36.5 -17q79 -44 61 -124q-13 -64 -65.5 -99.5t-113.5 -34.5q-21 0 -46.5 3t-52 8t-34.5 6q-11 2 -24 -13l-20 1l25 163h23q-4 -51 28 -96 t102 -45q82 0 98 72q11 55 -36 77l-71 36q-31 16 -48.5 27.5t-37 29.5t-25 41t0.5 52q14 63 73 98t145 31q26 -1 56 -11t36 -10q4 0 7.5 4.5t5.5 9t1 4.5h21zM188 688h31l73 -91l119 91h35l-138 -147h-43z" />
<glyph unicode="&#x162;" horiz-adv-x="642" d="M702 699q-3 -15 -9 -38.5t-8 -34.5t-6 -36.5t-8 -60.5h-26q-8 101 -39 118q-28 15 -143 15q-70 -288 -77 -326q0 -2 -4.5 -21.5t-8.5 -38t-10 -49t-9.5 -52.5t-7.5 -48.5t-3.5 -38.5t3.5 -22q24 -36 84 -38l-6 -30q-8 4 -73 7t-87 3q-19 0 -82.5 -2.5t-72.5 -5.5l7 28 q59 2 100 38q16 16 42.5 121.5t33.5 148.5q30 134 66 326h-17q-97 0 -128 -11q-43 -14 -97 -122h-28q32 105 45 171q360 -5 569 -1zM170 -289v19q83 13 94 60q3 15 -15 15q-62 2 -51 58q7 25 26 38q18 15 44 15q31 0 43 -21q17 -26 11 -52q-27 -126 -152 -132z" />
<glyph unicode="&#x163;" horiz-adv-x="362" d="M360 472l-6 -33h-109l-10 -44q-10 -44 -25 -107.5t-22 -99.5q-3 -12 -7 -30t-6.5 -28.5t-5 -24.5t-2 -22t3 -16.5t9 -12.5t16.5 -5q24 -1 48 26t53 77l23 -9q-81 -159 -161 -159q-63 0 -69 55q-5 54 31 208q4 17 18 71.5t19.5 82.5t4.5 37h-62q49 30 105 85q32 31 77 82 q-19 -89 -28 -133h105zM46 -295v19q83 12 94 59q3 15 -15 16q-61 1 -51 57q6 24 26 39t44 15q30 0 43 -21q17 -26 11 -52q-28 -128 -152 -132z" />
<glyph unicode="&#x164;" horiz-adv-x="642" d="M702 699q-3 -15 -9 -38.5t-8 -34.5t-6 -36.5t-8 -60.5h-26q-8 101 -39 118q-28 15 -143 15q-70 -288 -77 -326q0 -2 -4.5 -21.5t-8.5 -38t-10 -49t-9.5 -52.5t-7.5 -48.5t-3.5 -38.5t3.5 -22q24 -36 84 -38l-6 -30q-8 4 -73 7t-87 3q-19 0 -82.5 -2.5t-72.5 -5.5l7 28 q59 2 100 38q16 16 42.5 121.5t33.5 148.5q30 134 66 326h-17q-97 0 -128 -11q-43 -14 -97 -122h-28q32 105 45 171q360 -5 569 -1zM311 879h32l72 -91l120 91h34l-138 -148h-43z" />
<glyph unicode="&#x165;" horiz-adv-x="485" d="M317 472l-6 -33h-109l-10 -44q-10 -44 -25 -107.5t-22 -99.5q-3 -12 -7 -30t-6.5 -28.5t-5 -24.5t-2 -22t3 -16.5t9 -12.5t16.5 -5q24 -1 48 26t53 77l23 -9q-81 -159 -161 -159q-63 0 -69 55q-5 54 31 208q4 17 18 71.5t19.5 82.5t4.5 37h-62q49 30 105 85q32 31 77 82 q-19 -89 -28 -133h105zM480 596q-6 -30 -43 -66t-68 -48l-5 16q20 7 48.5 33.5t32.5 45.5q1 12 -8 12q-12 0 -26 -2q-42 4 -34 38q12 48 57 48q30 0 41 -24t5 -53z" />
<glyph unicode="&#x166;" horiz-adv-x="641" d="M701 699q-3 -15 -9 -38.5t-8 -34.5t-6 -36.5t-8 -60.5h-26q-7 100 -39 118q-27 15 -143 15q-6 -25 -16 -67.5t-17.5 -74.5t-13.5 -57h204l-8 -36h-205q-10 -47 -21 -91q0 -2 -4.5 -21.5t-8.5 -38t-10 -49t-9.5 -52.5t-7.5 -48.5t-3.5 -38.5t3.5 -22q24 -36 85 -38l-7 -30 q-8 4 -72.5 7t-87.5 3q-19 0 -82 -2.5t-72 -5.5l6 28q61 2 100 38q26 25 77 270l19 91h-200l7 36h201q0 2 15 78.5t24 120.5h-17q-98 0 -129 -11q-43 -15 -97 -122h-27q34 114 44 171q360 -5 569 -1z" />
<glyph unicode="&#x167;" horiz-adv-x="326" d="M324 472l-6 -33h-109q-3 -14 -7 -35h106l-7 -35h-108q-34 -145 -41 -181q-3 -12 -7 -30t-6.5 -28.5t-5 -24.5t-2 -22t3 -16.5t9 -12.5t16.5 -5q24 -1 48 26t53 77l23 -9q-81 -159 -161 -159q-63 0 -69 55q-5 54 31 208q4 19 15 61t15 61h-69l7 35h70q4 21 4 34h-62 q49 30 105 85q32 31 77 82q-19 -89 -28 -133h105z" />
<glyph unicode="&#x168;" horiz-adv-x="738" d="M820 693l-6 -29q-71 -3 -99 -32q-13 -13 -19 -31t-15 -62l-58 -274q-6 -26 -10 -42.5t-16 -49t-26.5 -54.5t-40 -49t-57 -44t-78 -28.5t-102.5 -11.5q-250 0 -190 257q2 5 2 7q81 357 68 383q-16 29 -85 32l6 28q15 -7 150 -7q138 0 156 7l-6 -28q-70 -3 -99 -32 q-16 -17 -51.5 -170t-48.5 -220l-6 -33t-4 -37t1 -41.5t12 -37t25 -33.5t43.5 -21t65.5 -9q120 0 189 83q32 39 54 142l60 283q16 72 3 97q-5 9 -12 15t-18 8.5t-17 3.5t-19.5 1h-15.5l5 29q16 -8 124 -8q118 0 135 8zM612 821q-7 -39 -27 -62q-25 -28 -61 -28q-23 0 -53 14 l-33 13q-26 11 -41 11q-18 0 -27.5 -9t-18.5 -29h-25q21 90 85 90q27 0 55 -13l53 -20q19 -6 31 -3q18 2 37 36h25z" />
<glyph unicode="&#x169;" horiz-adv-x="571" d="M553 142q-86 -158 -165 -158h-6t-7 0.5t-6.5 1t-7 1t-7 1.5t-7 2.5t-6 3.5t-5.5 4.5t-4 6t-3 7.5q-11 39 11 114q-40 -52 -104.5 -93.5t-112.5 -45.5q-26 -3 -42.5 1t-25 18t-10.5 32.5t3 52.5t13.5 70.5t24.5 93.5q8 24 21 89t10 80q-2 20 -45 18l6 27q17 -4 59 -5t82 7 q-32 -115 -66 -271q-23 -109 -21 -127q2 -16 15 -19q23 -5 52.5 5t55 27.5t47 35.5t34.5 31l13 13q16 65 36 167.5t27 137.5q12 -4 44 -5.5t51 2.5q-24 -72 -70 -249q-32 -120 -33 -133q-4 -33 20 -35h5q50 1 101 103zM448 631q-7 -41 -27 -62q-25 -28 -60 -28q-23 0 -54 14 l-33 13q-26 11 -41 11q-18 0 -27.5 -9t-18.5 -29h-25q24 90 86 90q27 0 55 -13l52 -20q19 -6 31 -3q20 2 37 36h25z" />
<glyph unicode="&#x16a;" horiz-adv-x="738" d="M820 693l-6 -29q-71 -3 -99 -32q-13 -13 -19 -31t-15 -62l-58 -274q-6 -26 -10 -42.5t-16 -49t-26.5 -54.5t-40 -49t-57 -44t-78 -28.5t-102.5 -11.5q-250 0 -190 257q2 5 2 7q81 357 68 383q-16 29 -85 32l6 28q15 -7 150 -7q138 0 156 7l-6 -28q-70 -3 -99 -32 q-16 -17 -51.5 -170t-48.5 -220l-6 -33t-4 -37t1 -41.5t12 -37t25 -33.5t43.5 -21t65.5 -9q120 0 189 83q32 39 54 142l60 283q16 72 3 97q-5 9 -12 15t-18 8.5t-17 3.5t-19.5 1h-15.5l5 29q16 -8 124 -8q118 0 135 8zM622 732h-291l10 50h292z" />
<glyph unicode="&#x16b;" horiz-adv-x="571" d="M553 142q-86 -158 -165 -158h-6t-7 0.5t-6.5 1t-7 1t-7 1.5t-7 2.5t-6 3.5t-5.5 4.5t-4 6t-3 7.5q-11 39 11 114q-40 -52 -104.5 -93.5t-112.5 -45.5q-26 -3 -42.5 1t-25 18t-10.5 32.5t3 52.5t13.5 70.5t24.5 93.5q8 24 21 89t10 80q-2 20 -45 18l6 27q17 -4 59 -5t82 7 q-32 -115 -66 -271q-23 -109 -21 -127q2 -16 15 -19q23 -5 52.5 5t55 27.5t47 35.5t34.5 31l13 13q16 65 36 167.5t27 137.5q12 -4 44 -5.5t51 2.5q-24 -72 -70 -249q-32 -120 -33 -133q-4 -33 20 -35h5q50 1 101 103zM469 542h-292l11 50h291z" />
<glyph unicode="&#x16c;" horiz-adv-x="738" d="M820 693l-6 -29q-71 -3 -99 -32q-13 -13 -19 -31t-15 -62l-58 -274q-6 -26 -10 -42.5t-16 -49t-26.5 -54.5t-40 -49t-57 -44t-78 -28.5t-102.5 -11.5q-250 0 -190 257q2 5 2 7q81 357 68 383q-16 29 -85 32l6 28q15 -7 150 -7q138 0 156 7l-6 -28q-70 -3 -99 -32 q-16 -17 -51.5 -170t-48.5 -220l-6 -33t-4 -37t1 -41.5t12 -37t25 -33.5t43.5 -21t65.5 -9q120 0 189 83q32 39 54 142l60 283q16 72 3 97q-5 9 -12 15t-18 8.5t-17 3.5t-19.5 1h-15.5l5 29q16 -8 124 -8q118 0 135 8zM389 840l24 1q-6 -32 15.5 -54t55.5 -22q26 0 55 21 t43 54h26q-8 -46 -46 -77.5t-86 -31.5q-46 0 -71.5 32t-15.5 77z" />
<glyph unicode="&#x16d;" horiz-adv-x="571" d="M553 142q-86 -158 -165 -158h-6t-7 0.5t-6.5 1t-7 1t-7 1.5t-7 2.5t-6 3.5t-5.5 4.5t-4 6t-3 7.5q-11 39 11 114q-40 -52 -104.5 -93.5t-112.5 -45.5q-26 -3 -42.5 1t-25 18t-10.5 32.5t3 52.5t13.5 70.5t24.5 93.5q8 24 21 89t10 80q-2 20 -45 18l6 27q17 -4 59 -5t82 7 q-32 -115 -66 -271q-23 -109 -21 -127q2 -16 15 -19q23 -5 52.5 5t55 27.5t47 35.5t34.5 31l13 13q16 65 36 167.5t27 137.5q12 -4 44 -5.5t51 2.5q-24 -72 -70 -249q-32 -120 -33 -133q-4 -33 20 -35h5q50 1 101 103zM237 650l25 1q-7 -32 14.5 -54t55.5 -22q26 0 55.5 21 t43.5 54h26q-8 -46 -46.5 -77.5t-85.5 -31.5q-46 0 -71.5 32t-16.5 77z" />
<glyph unicode="&#x16e;" horiz-adv-x="738" d="M820 693l-6 -29q-71 -3 -99 -32q-13 -13 -19 -31t-15 -62l-58 -274q-6 -26 -10 -42.5t-16 -49t-26.5 -54.5t-40 -49t-57 -44t-78 -28.5t-102.5 -11.5q-250 0 -190 257q2 5 2 7q81 357 68 383q-16 29 -85 32l6 28q15 -7 150 -7q138 0 156 7l-6 -28q-70 -3 -99 -32 q-16 -17 -51.5 -170t-48.5 -220l-6 -33t-4 -37t1 -41.5t12 -37t25 -33.5t43.5 -21t65.5 -9q120 0 189 83q32 39 54 142l60 283q16 72 3 97q-5 9 -12 15t-18 8.5t-17 3.5t-19.5 1h-15.5l5 29q16 -8 124 -8q118 0 135 8zM584 818q-7 -36 -38.5 -61.5t-67.5 -25.5t-56.5 25 t-13.5 62q8 35 39.5 61t67.5 26t56.5 -26t12.5 -61zM550 818q6 25 -5.5 40.5t-36.5 15.5q-24 0 -42.5 -15.5t-23.5 -40.5t6.5 -40.5t35.5 -15.5q25 0 43 15.5t23 40.5z" />
<glyph unicode="&#x16f;" horiz-adv-x="571" d="M553 142q-86 -158 -165 -158h-6t-7 0.5t-6.5 1t-7 1t-7 1.5t-7 2.5t-6 3.5t-5.5 4.5t-4 6t-3 7.5q-11 39 11 114q-40 -52 -104.5 -93.5t-112.5 -45.5q-26 -3 -42.5 1t-25 18t-10.5 32.5t3 52.5t13.5 70.5t24.5 93.5q8 24 21 89t10 80q-2 20 -45 18l6 27q17 -4 59 -5t82 7 q-32 -115 -66 -271q-23 -109 -21 -127q2 -16 15 -19q23 -5 52.5 5t55 27.5t47 35.5t34.5 31l13 13q16 65 36 167.5t27 137.5q12 -4 44 -5.5t51 2.5q-24 -72 -70 -249q-32 -120 -33 -133q-4 -33 20 -35h5q50 1 101 103zM433 628q-8 -37 -39 -62t-68 -25q-35 0 -55.5 25 t-13.5 62q8 35 39.5 61t66.5 26q36 0 56.5 -25.5t13.5 -61.5zM399 628q5 25 -6.5 40.5t-35.5 15.5t-42.5 -15.5t-24.5 -40.5q-4 -25 7.5 -40.5t35.5 -15.5t42.5 15.5t23.5 40.5z" />
<glyph unicode="&#x170;" horiz-adv-x="738" d="M820 693l-6 -29q-71 -3 -99 -32q-13 -13 -19 -31t-15 -62l-58 -274q-6 -26 -10 -42.5t-16 -49t-26.5 -54.5t-40 -49t-57 -44t-78 -28.5t-102.5 -11.5q-250 0 -190 257q2 5 2 7q81 357 68 383q-16 29 -85 32l6 28q15 -7 150 -7q138 0 156 7l-6 -28q-70 -3 -99 -32 q-16 -17 -51.5 -170t-48.5 -220l-6 -33t-4 -37t1 -41.5t12 -37t25 -33.5t43.5 -21t65.5 -9q120 0 189 83q32 39 54 142l60 283q16 72 3 97q-5 9 -12 15t-18 8.5t-17 3.5t-19.5 1h-15.5l5 29q16 -8 124 -8q118 0 135 8zM568 918q8 -11 2.5 -28.5t-18.5 -27.5l-153 -130l-21 4 l129 173q12 12 29.5 17t31.5 -8zM727 918q7 -11 1.5 -28.5t-17.5 -27.5l-153 -130l-21 4l129 173q11 12 29.5 17t31.5 -8z" />
<glyph unicode="&#x171;" horiz-adv-x="571" d="M553 142q-86 -158 -165 -158h-6t-7 0.5t-6.5 1t-7 1t-7 1.5t-7 2.5t-6 3.5t-5.5 4.5t-4 6t-3 7.5q-11 39 11 114q-40 -52 -104.5 -93.5t-112.5 -45.5q-26 -3 -42.5 1t-25 18t-10.5 32.5t3 52.5t13.5 70.5t24.5 93.5q8 24 21 89t10 80q-2 20 -45 18l6 27q17 -4 59 -5t82 7 q-32 -115 -66 -271q-23 -109 -21 -127q2 -16 15 -19q23 -5 52.5 5t55 27.5t47 35.5t34.5 31l13 13q16 65 36 167.5t27 137.5q12 -4 44 -5.5t51 2.5q-24 -72 -70 -249q-32 -120 -33 -133q-4 -33 20 -35h5q50 1 101 103zM517 713q0 -16 -12 -30l-110 -142l-26 5l85 182 q7 17 33 17q13 0 21.5 -9t8.5 -23zM384 713q0 -16 -11 -30l-113 -140l-24 3l86 182q6 17 33 17q13 0 21 -9t8 -23z" />
<glyph unicode="&#x172;" horiz-adv-x="738" d="M389 -165q-39 -45 -95 -46q-40 -1 -57 22t-10 53q15 64 92 123q-4 0 -12.5 -0.5t-13.5 -0.5q-250 0 -190 257q2 5 2 7q81 357 68 383q-16 29 -85 32l6 28q15 -7 150 -7q138 0 156 7l-6 -28q-70 -3 -99 -32q-16 -17 -51.5 -170t-48.5 -220l-6 -33t-4 -37t1 -41.5t12 -37 t25 -33.5t43.5 -21t65.5 -9q120 0 189 83q32 39 54 142l60 283q16 72 3 97q-5 9 -12 15t-18 8.5t-17 3.5t-19.5 1h-15.5l5 29q16 -8 124 -8q118 0 135 8l-6 -29q-71 -3 -99 -32q-13 -13 -19 -31t-15 -62l-58 -274q-5 -23 -8.5 -37.5t-13.5 -43t-21 -48t-30.5 -45.5 t-43.5 -43.5t-59 -33t-76 -22.5q-65 -59 -74 -103q-5 -24 5.5 -38.5t35.5 -14.5q26 0 47 14q7 -3 4 -15z" />
<glyph unicode="&#x173;" horiz-adv-x="571" d="M430 -165q-41 -45 -96 -46q-39 -1 -56 22t-10 53q11 61 92 123q-26 6 -31 25q-11 39 11 114q-40 -52 -104.5 -93.5t-112.5 -45.5q-26 -3 -42.5 1t-25 18t-10.5 32.5t3 52.5t13.5 70.5t24.5 93.5q8 24 21 89t10 80q-2 20 -45 18l6 27q17 -4 59 -5t82 7q-32 -115 -66 -271 q-23 -109 -21 -127q2 -16 15 -19q23 -5 52.5 5t55 27.5t47 35.5t34.5 31l13 13q16 65 36 167.5t27 137.5q12 -4 44 -5.5t51 2.5q-24 -72 -70 -249q-32 -120 -33 -133q-4 -33 20 -35h5q50 1 101 103l23 -12q-78 -144 -149 -157q-57 -52 -66 -96q-6 -24 5 -38.5t36 -14.5 q26 0 46 14q8 -3 5 -15z" />
<glyph unicode="&#x174;" horiz-adv-x="1044" d="M1130 691l-6 -29q-10 0 -26 -1t-49 -13t-47 -35q-41 -65 -133.5 -222t-164.5 -281l-71 -125h-23q0 2 -7 69.5t-19.5 177.5t-24.5 192l-261 -439h-24q1 1 -15.5 144t-38 297t-31.5 177q-12 30 -34 43.5t-70 14.5l7 30q111 -6 171 -6l125 6l-6 -30q-62 1 -69 -52 q-6 -47 8 -224t29 -245q35 58 108 191t89 161l-19 109q-9 23 -15 33t-21.5 19t-40.5 9l6 30q81 -7 141 -7l154 6l-7 -30q-90 0 -96 -52q-10 -71 40 -454q75 124 155.5 276.5t85.5 179.5q5 29 -12 39.5t-70 11.5l7 29q95 -6 142 -6zM726 731h-30l-72 91l-120 -91h-35l139 147 h41z" />
<glyph unicode="&#x175;" horiz-adv-x="730" d="M738 418q-5 -24 -22.5 -53.5t-50.5 -78.5t-53 -82q-35 -57 -65.5 -105.5t-43.5 -69t-18 -30.5q-10 3 -32 3t-32 -2q-28 165 -47 289q0 -1 -19 -33.5t-42 -71t-33 -53.5q-49 -77 -77 -131q-11 4 -33 3.5t-31 -2.5q-41 353 -63 407q-7 17 -19.5 25.5t-20 9t-24.5 0.5l5 26 q5 -3 64.5 -1t88.5 10q0 -74 37 -422q106 192 201 414h33q19 -140 49 -416q7 13 36 68t41.5 80.5t32.5 76t34 100.5q4 15 4 29t-3 23.5t-6.5 16.5t-6.5 10l-2 3l4 2q3 2 8.5 5t12.5 6t16 6t18 4h1q9 0 17 -1t21.5 -6.5t19 -20.5t0.5 -38zM539 541h-31l-72 91l-119 -91h-36 l139 147h42z" />
<glyph unicode="&#x176;" horiz-adv-x="685" d="M755 693l-6 -27q-7 -1 -24 -1.5t-24.5 -3t-24 -11t-36 -27.5t-46.5 -50q-94 -107 -198 -236q-53 -254 -37 -269q24 -37 84 -39l-7 -30q-16 10 -156 10q-131 0 -153 -8l5 28q61 2 101 39q7 7 16.5 34t18.5 65.5t15.5 70.5t12.5 66l7 33q-68 180 -119 288q-6 14 -13.5 22.5 t-18.5 12.5t-15.5 5t-20 1h-16.5l6 27q8 -3 66.5 -6.5t71.5 -2.5q18 0 76.5 2.5t66.5 5.5l-6 -27h-18t-19 -0.5t-18.5 -6.5t-16.5 -18q-2 -4 -2.5 -11t2 -18t5.5 -23t8.5 -29t10.5 -31.5t12.5 -35t13.5 -36t14.5 -38t13.5 -37.5q105 118 190 242q9 14 -7 28t-43 14l5 26 q89 -4 115 -4q36 0 108 6zM571 731h-30l-72 91l-120 -91h-35l139 147h41z" />
<glyph unicode="&#x177;" horiz-adv-x="505" d="M515 419q-2 -23 -31.5 -66.5t-86 -119t-90.5 -126.5q-75 -114 -142 -192q-65 -78 -106.5 -110.5t-86.5 -29.5q-49 3 -58 59q-4 25 14.5 48t38.5 34l20 10q-3 -39 11 -63q12 -19 46 -13q23 4 55 38q65 73 73 88q-48 377 -70 431q-15 33 -65 33l6 29q5 -3 64 -1.5t89 10.5 q0 -31 6.5 -100.5t18.5 -173.5t16 -149q46 66 98.5 160t74.5 165q5 15 5 29.5t-3 23.5t-7 16t-7 10l-2 3l4 2q3 2 9 4.5t13 6t16 6t18 3.5q3 3 13.5 0.5t21.5 -6t18.5 -19.5t5.5 -40zM436 541h-30l-73 91l-119 -91h-35l138 147h42z" />
<glyph unicode="&#x178;" horiz-adv-x="685" d="M755 693l-6 -27q-7 -1 -24 -1.5t-24.5 -3t-24 -11t-36 -27.5t-46.5 -50q-94 -107 -198 -236q-53 -254 -37 -269q24 -37 84 -39l-7 -30q-16 10 -156 10q-131 0 -153 -8l5 28q61 2 101 39q7 7 16.5 34t18.5 65.5t15.5 70.5t12.5 66l7 33q-68 180 -119 288q-6 14 -13.5 22.5 t-18.5 12.5t-15.5 5t-20 1h-16.5l6 27q8 -3 66.5 -6.5t71.5 -2.5q18 0 76.5 2.5t66.5 5.5l-6 -27h-18t-19 -0.5t-18.5 -6.5t-16.5 -18q-2 -4 -2.5 -11t2 -18t5.5 -23t8.5 -29t10.5 -31.5t12.5 -35t13.5 -36t14.5 -38t13.5 -37.5q105 118 190 242q9 14 -7 28t-43 14l5 26 q89 -4 115 -4q36 0 108 6zM600 779q-5 -21 -21 -33.5t-36 -12.5q-21 0 -30.5 12.5t-4.5 33.5q4 21 19 34t36 13q20 0 30.5 -13t6.5 -34zM416 779q-12 -46 -56 -46q-21 0 -31 12.5t-6 33.5t20 34t36 13q21 0 31 -13t6 -34z" />
<glyph unicode="&#x179;" horiz-adv-x="682" d="M714 696q-193 -221 -303 -354l-248 -305q209 0 298 19q20 9 29 14t29.5 19.5t37.5 39.5t32 59h23q-8 -26 -19 -59.5t-15.5 -48t-10.5 -36.5t-11 -46q-161 7 -552 0q96 101 299 346l258 316q-207 -1 -276 -19q-23 -8 -37 -16t-38 -34t-46 -69h-22q29 98 47 174 q179 -8 525 0zM635 915q8 -10 2.5 -27.5t-18.5 -28.5l-153 -129l-21 3l129 173q12 13 30 17.5t31 -8.5z" />
<glyph unicode="&#x17a;" horiz-adv-x="516" d="M497 470l-3 -15l-372 -424h145q33 0 56 5t37 11t26.5 24t18.5 30t19 44l19 -3l-45 -142h-394l3 15l368 424h-144q-28 0 -46 -5.5t-29.5 -20t-17 -27t-15.5 -39.5h-18l30 123h362zM500 728q7 -11 1.5 -28.5t-17.5 -27.5l-153 -130l-21 4l130 173q11 12 28.5 17t31.5 -8z " />
<glyph unicode="&#x17b;" horiz-adv-x="682" d="M714 696q-193 -221 -303 -354l-248 -305q209 0 298 19q20 9 29 14t29.5 19.5t37.5 39.5t32 59h23q-8 -26 -19 -59.5t-15.5 -48t-10.5 -36.5t-11 -46q-161 7 -552 0q96 101 299 346l258 316q-207 -1 -276 -19q-23 -8 -37 -16t-38 -34t-46 -69h-22q29 98 47 174 q179 -8 525 0zM453 731q-22 0 -35 16q-12 15 -6 36q5 23 23 37q18 15 40 15t34 -15q11 -16 6 -37q-3 -22 -22 -36q-19 -16 -40 -16z" />
<glyph unicode="&#x17c;" horiz-adv-x="508" d="M497 470l-4 -15l-370 -424h143q41 0 66 5t42.5 22.5t26 33.5t24.5 53l18 -3l-45 -142h-394l3 15l368 424h-144q-52 0 -71 -20.5t-36 -71.5h-19l29 123h363zM386 587q-4 -20 -19 -33t-34 -13q-20 0 -30 11t-6 32q3 19 19 32.5t36 13.5q18 0 28 -13t6 -30z" />
<glyph unicode="&#x17d;" horiz-adv-x="682" d="M714 696q-193 -221 -303 -354l-248 -305q209 0 298 19q20 9 29 14t29.5 19.5t37.5 39.5t32 59h23q-8 -26 -19 -59.5t-15.5 -48t-10.5 -36.5t-11 -46q-161 7 -552 0q96 101 299 346l258 316q-207 -1 -276 -19q-23 -8 -37 -16t-38 -34t-46 -69h-22q29 98 47 174 q179 -8 525 0zM342 878h32l72 -91l120 91h34l-138 -147h-43z" />
<glyph unicode="&#x17e;" horiz-adv-x="508" d="M497 470l-4 -15l-370 -424h143q33 0 56.5 5t37.5 11t27 23.5t19 30.5t19 44l18 -3l-45 -142h-394l3 15l369 424h-145q-52 0 -71 -20.5t-36 -71.5h-19l29 123h363zM228 688h32l72 -91l120 91h34l-138 -147h-43z" />
<glyph unicode="&#x17f;" horiz-adv-x="359" d="M136 -15q-25 -112 -67 -163t-114 -51q-85 -2 -94 43q-4 16 5.5 34.5t37.5 25.5q19 3 34.5 -4.5t15.5 -25.5q-2 -2 -6.5 -7.5t-5.5 -7t-2.5 -8.5t2.5 -13q4 -12 23 -12q22 0 40 19.5t28.5 49.5t18 62t13.5 62q1 9 2 13q16 78 45 223t38 188h-90l7 35h91q19 92 41 135 q61 123 198 123q33 0 53 -13q24 -15 24.5 -47t-28.5 -49q-7 -4 -14.5 -6.5t-13 -3.5t-11.5 -0.5t-9.5 1t-8 2t-5.5 1.5q4 12 6 25.5t1 28.5t-11.5 23.5t-30.5 5.5q-69 -9 -87 -97q-47 -242 -126 -592z" />
<glyph unicode="&#x192;" horiz-adv-x="475" d="M256 336l-40 -301q-11 -76 -22 -116q-17 -55 -63 -100t-91 -66t-73 -21q-10 0 -14 2l-2 6q13 34 18 53l6 5q20 -7 42 -7q25 0 48 14q35 24 46 61t26 162l37 308h-42q-24 0 -63 -3l-6 4v32l6 5q23 -2 69 -2h40q3 18 7 44.5t5 35t5 24.5t6.5 22t8.5 17t13.5 18.5t18.5 19.5 q97 98 172 98q28 0 55 -11l4 -6q-14 -40 -18 -62h-9q-32 26 -66 26q-56 0 -79.5 -45.5t-40.5 -180.5h48q54 0 91 2l8 -5v-30l-8 -6q-56 3 -89 3h-54z" />
<glyph unicode="&#x1a0;" horiz-adv-x="822" d="M770 339q-93 -352 -428 -352q-152 0 -224.5 101t-39.5 261q37 180 148 270.5t275 88.5q95 -2 164.5 -43t98.5 -115q65 20 78 51q5 6 2 13t-3.5 10.5t-7.5 8t-10 6t-11.5 5.5t-12.5 6q-20 10 -11 32q11 27 44 26q9 0 18 -3q36 -11 48.5 -36t4.5 -56q-17 -61 -129 -89l-2 1 q25 -80 -2 -186zM644 345q14 58 11.5 116.5t-17 105.5t-52 77t-93.5 30q-107 0 -185 -95.5t-109 -228.5q-16 -61 -13.5 -119.5t18 -104.5t53.5 -74t94 -28q108 0 186.5 94t106.5 227z" />
<glyph unicode="&#x1a1;" horiz-adv-x="550" d="M513 228q-12 -72 -45.5 -124t-78.5 -77.5t-89 -36t-86 -6.5q-88 8 -136 83.5t-32 172.5q21 125 96 183.5t188 53.5h1q39 3 86.5 -20.5t74.5 -72.5q58 19 64 51q1 7 -1 13.5t-4.5 10t-9.5 8t-11 6.5t-13.5 6t-12.5 5q-22 10 -18 32q4 25 34 26q11 0 23 -3q38 -11 56 -36.5 t16 -56.5q-1 -26 -21 -45.5t-39 -27t-49 -15.5l-2 1q21 -58 9 -131zM410 201q12 65 11 120.5t-27.5 92t-74.5 36.5q-60 -1 -103 -46t-63 -124q-21 -88 -12.5 -147.5t32.5 -90t55 -33.5q61 -4 109.5 43.5t72.5 148.5z" />
<glyph unicode="&#x1af;" horiz-adv-x="787" d="M804 689q59 6 78 50q2 5 2 10t-1 8.5t-4 7t-5.5 6t-8 5t-8.5 4l-9 4.5t-9 4q-20 10 -11 32q10 27 43 26q9 0 19 -3q36 -11 48.5 -37t3.5 -56q-10 -38 -45 -60t-74 -29q-9 -1 -32.5 -4t-32 -4.5t-21.5 -7t-22 -13.5q-9 -9 -15 -23t-9 -25t-10 -45l-58 -274 q-6 -26 -10 -42.5t-16 -49t-26.5 -54.5t-40 -49t-57 -44t-78 -28.5t-102.5 -11.5q-250 0 -190 257q2 5 2 7q81 357 68 383q-16 29 -85 32l6 28q15 -7 150 -7q138 0 156 7l-6 -28q-70 -3 -99 -32q-16 -17 -51.5 -170t-48.5 -220l-6 -33t-4 -37t1 -41.5t12 -37t25 -33.5 t43.5 -21t65.5 -9q120 0 189 83q32 39 54 142l60 283q16 72 3 97q-5 9 -12 15t-18 8.5t-17 3.5t-19.5 1h-15.5l5 29q5 -3 36 -5t59 -2l29 -1q75 -1 119 4z" />
<glyph unicode="&#x1b0;" horiz-adv-x="577" d="M553 142q-86 -158 -165 -158h-6t-7 0.5t-6.5 1t-7 1t-7 1.5t-7 2.5t-6 3.5t-5.5 4.5t-4 6t-3 7.5q-11 39 11 114q-40 -52 -104.5 -93.5t-112.5 -45.5q-26 -3 -42.5 1t-25 18t-10.5 32.5t3 52.5t13.5 70.5t24.5 93.5q8 24 21 89t10 80q-2 20 -45 18l6 27q17 -4 59 -5t82 7 q-32 -115 -66 -271q-23 -109 -21 -127q2 -16 15 -19q23 -5 52.5 5t55 27.5t47 35.5t34.5 31l13 13q16 65 36 167.5t27 137.5q11 -3 45 -3t49 5v-1q20 6 37.5 18.5t21.5 28.5q4 17 -7.5 27.5t-34.5 21.5q-21 9 -11 32q10 27 44 25q8 0 17 -3q37 -11 49 -36t4 -56 q-7 -28 -29.5 -47t-44 -27t-55.5 -15v1q-34 -122 -60 -223q-32 -120 -33 -133q-4 -33 20 -35h5q50 1 101 103z" />
<glyph unicode="&#x1f4;" horiz-adv-x="797" d="M793 372l-6 -28q-16 -1 -24 -2t-22 -8t-29 -22q-19 -19 -73 -259q-2 -1 -20.5 -9t-42 -17t-54 -18.5t-66.5 -16t-68 -6.5q-85 0 -157.5 27t-112.5 84q-23 34 -34.5 64.5t-15 81.5t10.5 115q29 150 152 249.5t287 99.5q62 0 117.5 -17.5t62.5 -17.5q12 0 30.5 8t26.5 27 h23q-16 -57 -26 -110l-13 -111h-24q-5 34 -15 60.5t-30 56t-57 46t-89 16.5q-42 0 -85.5 -15.5t-91 -50t-87 -103t-59.5 -162.5q-30 -141 26.5 -223.5t178.5 -82.5q15 0 30.5 2.5t29.5 7.5t26 10t24 12t19.5 11.5t16 10t9.5 6.5q46 200 31 224q-16 30 -76 32l7 28 q21 -7 139 -7q108 0 131 7zM687 918q8 -11 2.5 -28t-18.5 -28l-153 -130l-21 4l130 173q11 12 29 17t31 -8z" />
<glyph unicode="&#x1f5;" horiz-adv-x="501" d="M543 456q-4 -54 -30 -63q-31 -9 -82 13q11 -44 -3 -111q-8 -40 -31.5 -69t-54.5 -43.5t-58.5 -20.5t-52.5 -6q-7 0 -29.5 2.5t-25.5 2.5q-16 -2 -44.5 -26t-31.5 -40q-2 -8 4.5 -14t20.5 -9t23.5 -4t26.5 -2l134 -5q39 -2 64 -16t31.5 -31.5t9.5 -35.5t-2 -29 q-12 -55 -69.5 -97.5t-121.5 -61.5t-115 -18q-84 1 -128 30t-35 72q12 55 130 127q-16 8 -25 14t-15.5 17t-3.5 24q3 11 8 19.5t31 32t78 62.5q-43 22 -63.5 58.5t-10.5 81.5q18 84 85 127.5t138 43.5q28 0 61.5 -10.5t55.5 -27.5q14 -9 64.5 -7.5t66.5 20.5zM344 282 q4 15 4.5 39.5t-3.5 55.5t-22 52.5t-49 21.5q-32 0 -60 -22.5t-39 -71.5q-7 -43 -7 -82t20 -66.5t59 -27.5q32 0 55.5 22t31 41.5t10.5 37.5zM379 -67q4 17 -2 27.5t-25.5 15t-37 6t-53.5 2.5q-126 5 -167 14q-25 -24 -36 -35.5t-21.5 -26.5t-13.5 -30q-3 -13 2.5 -25.5 t20.5 -23.5t45.5 -18t72.5 -7q90 0 148 28.5t67 72.5zM467 725q7 -10 1.5 -27.5t-17.5 -28.5l-153 -129l-21 3l129 173q12 13 30 17.5t31 -8.5z" />
<glyph unicode="&#x1fa;" horiz-adv-x="770" d="M730 22l-5 -22q-94 6 -154 6l-143 -6l5 22q77 0 87 51q3 16 -0.5 52t-7.5 65l-5 28h-287q-65 -103 -77 -147q-5 -20 13 -32.5t52 -16.5l-5 -22q-74 6 -122 6l-119 -6l5 22q8 0 21 1t41.5 12.5t42.5 32.5q44 63 145.5 222.5t180.5 287.5l80 128h53q0 -2 25 -146.5 t53.5 -301t36.5 -179.5q16 -47 84 -57zM504 252l-59 337l-207 -337h266zM613 824q-8 -38 -41 -65.5t-71 -27.5t-59.5 27.5t-13.5 65.5t41.5 65t70.5 27q38 0 59.5 -27t13.5 -65zM578 824q5 27 -7 43t-38 16t-45 -16t-24 -43q-6 -27 6 -43t38 -16t45 16t25 43zM716 1111 q8 -11 2.5 -28.5t-18.5 -28.5l-153 -129l-21 4l129 173q12 12 30 16.5t31 -7.5z" />
<glyph unicode="&#x1fb;" horiz-adv-x="574" d="M520 109q-48 -119 -123 -124q-45 -3 -61 17t-8 65q-41 -34 -101.5 -57t-100.5 -20q-118 6 -98 107q16 80 96.5 129.5t253.5 78.5l14 61q9 40 -15.5 60.5t-65.5 20.5q-37 0 -62 -14.5t-33 -39.5q-2 -18 -1.5 -23t8.5 -11t9 -8q-9 -13 -33 -22.5t-48 -8.5q-30 2 -36.5 32.5 t13.5 56.5q19 27 67 48t121 22q101 0 136 -44q15 -19 17.5 -49.5t-2.5 -51.5l-5 -21l-25 -119q-3 -12 -7.5 -30.5t-7 -30.5t-6 -27t-3.5 -24t1 -18t6 -13t13 -4q16 0 31.5 17.5t23.5 35.5l7 17zM373 280q-216 -54 -243 -147v-2q-12 -39 3.5 -59.5t47.5 -22.5 q27 -2 79.5 13.5t73.5 36.5q24 116 39 181zM451 630q-9 -38 -41.5 -65t-70.5 -27t-59.5 27t-13.5 65t41 65t71 27q37 0 59 -27t14 -65zM416 630q5 27 -7 43t-38 16t-45 -16t-24 -43q-6 -27 6 -43t38 -16t45 16t25 43zM553 936q8 -11 2.5 -28t-18.5 -28l-153 -130l-21 4 l129 173q12 12 29.5 17t31.5 -8z" />
<glyph unicode="&#x1fc;" horiz-adv-x="1144" d="M1136 696q-11 -51 -25 -169h-25q-3 19 -7 34.5t-7.5 26t-8.5 19.5t-8.5 14t-10 9.5t-9.5 6l-10 5l-9 4.5q-55 12 -241 12q-7 -12 -62 -268q47 -3 117.5 -1t87.5 16q22 19 36 37.5t18 28.5t10 27q21 1 26 -1q1 0 -31 -124q-7 -28 -12.5 -61t-8 -51t-3.5 -19l-27 -2 q1 15 1.5 27.5t-5.5 29.5t-20 36q-18 22 -198 16q-61 -293 -56 -310q185 0 261 19q20 9 28.5 13t30 19t38.5 39.5t31 58.5l26 2q-9 -28 -19.5 -60.5t-15.5 -47.5t-11 -37t-11 -47q-221 10 -577 0l7 30q60 2 102 39q18 18 48 151h-287q-103 -102 -130 -147q-12 -19 1.5 -32 t45.5 -16l-13 -22q-72 5 -120 5l-121 -5l12 22q8 1 22 3t47 15.5t55 34.5q49 46 148.5 146.5t232.5 235.5t176 178q-18 26 -83 29l6 28q171 -6 558 3zM656 579l-326 -326h264q5 24 11.5 53.5t6.5 31.5q6 25 22 107.5t22 133.5zM910 915q8 -10 2.5 -27.5t-18.5 -28.5 l-153 -129l-21 3l129 173q12 13 30 17.5t31 -8.5z" />
<glyph unicode="&#x1fd;" horiz-adv-x="800" d="M602 728q7 -11 2 -28t-18 -28l-153 -130l-21 4l129 173q11 12 29.5 17t31.5 -8zM357 89q-40 -41 -107.5 -70t-123.5 -29q-50 0 -80 24.5t-18 82.5q16 80 96.5 129.5t253.5 78.5l14 61q9 40 -15.5 60.5t-65.5 20.5q-37 0 -62 -14.5t-33 -39.5q-2 -18 -1.5 -23t8.5 -11 t9 -8q-9 -13 -33 -22.5t-48 -8.5q-30 2 -36.5 32.5t13.5 56.5q19 27 67 48t121 22q114 0 146 -64q77 66 165 66q78 0 117 -46.5t27 -144.5h-325q-12 -56 -8 -95.5t14 -65.5t30 -40.5t39.5 -20.5t42.5 -6q33 0 62.5 10.5t54 31t37.5 33.5t31 34l15 -7q-8 -14 -19.5 -30.5 t-36 -44t-52 -48t-68 -36t-83.5 -15.5q-54 0 -93 26.5t-55 72.5zM671 323q3 19 1.5 40t-6.5 39t-23 29.5t-47 11.5q-46 0 -80 -27t-60 -93h215zM373 280q-216 -54 -243 -147q-12 -40 4 -62t47 -22q51 0 97.5 20t71.5 45q-11 64 23 166z" />
<glyph unicode="&#x1fe;" horiz-adv-x="797" d="M286 35l220 638q-4 1 -13 1q-107 0 -185 -95.5t-109 -228.5q-27 -101 -5.5 -193.5t92.5 -121.5zM553 662l-219 -638h17q108 0 186.5 94t106.5 227q12 69 11.5 132t-27 114.5t-75.5 70.5zM597 788l-30 -86q125 -23 182.5 -120t20.5 -243q-93 -352 -428 -352q-14 0 -21 1 l-28 -84l-52 -1l31 90q-118 23 -170.5 119t-23.5 237q37 180 148 270.5t275 88.5h17l27 79zM589 915q8 -10 2.5 -27.5t-18.5 -28.5l-153 -129l-21 3l129 173q12 13 30 17.5t31 -8.5z" />
<glyph unicode="&#x1ff;" horiz-adv-x="550" d="M178 37l144 413h-3q-60 0 -103 -45.5t-63 -124.5q-19 -95 -11 -153t36 -90zM369 438l-149 -428q2 0 4 -0.5t4 -0.5q61 -4 109.5 43.5t72.5 148.5q19 75 9 143.5t-50 93.5zM408 550l-28 -79q30 -8 55.5 -25t48 -47.5t30 -72t-0.5 -98.5q-12 -72 -45.5 -124t-78 -78 t-89 -36t-86.5 -6l-3 1l-27 -81l-52 -1l33 93q-66 25 -99.5 94t-19.5 150q40 237 284 237h1h1l25 71zM462 731q7 -11 2 -28t-18 -29l-153 -129l-21 4l129 173q12 12 30 16.5t31 -7.5z" />
<glyph unicode="&#x218;" horiz-adv-x="616" d="M570 708q-12 -60 -17 -99q-3 -21 -5 -52t-2 -51l-1 -21h-25q0 72 -40 126t-117 54q-43 0 -79.5 -25.5t-46.5 -72.5q-7 -32 6.5 -59.5t39.5 -49.5t58.5 -43.5t65 -45t57.5 -50t36.5 -63.5t2.5 -80q-16 -75 -86 -132t-175 -57q-46 0 -95.5 17.5t-59.5 17.5q-15 0 -26 -10 t-13 -24h-23q11 63 15 105q2 20 2 49v48l-1 19h24q34 -185 174 -185q59 0 100 35t50 82q7 29 2 54t-36 55.5t-97 74.5q-21 14 -34.5 24t-29 23t-25 24.5t-18.5 27t-12.5 31t-3.5 34.5t5 41q17 84 83 131t143 47q36 0 82.5 -18t54.5 -18q30 0 45 36h22zM164 -314v19 q85 14 94 60q3 16 -15 16q-62 1 -50 57q6 27 25 39q20 15 44 15q30 0 44 -21q15 -27 10 -52q-28 -128 -152 -133z" />
<glyph unicode="&#x219;" horiz-adv-x="461" d="M437 478l-28 -152h-25q6 57 -19 89.5t-63 34.5q-55 4 -87.5 -16.5t-37.5 -58.5q-3 -18 5.5 -34.5t28.5 -30.5t37 -23.5t43.5 -21.5t36.5 -17q79 -44 61 -124q-13 -64 -65.5 -99.5t-113.5 -34.5q-21 0 -46.5 3t-52 8t-34.5 6q-11 2 -24 -13l-20 1l25 163h23q-4 -51 28 -96 t102 -45q82 0 98 72q11 55 -36 77l-71 36q-31 16 -48.5 27.5t-37 29.5t-25 41t0.5 52q14 63 73 98t145 31q26 -1 56 -11t36 -10q4 0 7.5 4.5t5.5 9t1 4.5h21zM98 -295v19q83 12 94 59q3 15 -15 16q-61 1 -51 57q6 24 26 39t44 15q30 0 43 -21q17 -26 11 -52 q-28 -128 -152 -132z" />
<glyph unicode="&#x2c6;" horiz-adv-x="281" d="M269 541h-30l-73 91l-119 -91h-35l138 147h42z" />
<glyph unicode="&#x2c7;" horiz-adv-x="282" d="M12 688h32l72 -91l120 91h34l-138 -147h-43z" />
<glyph unicode="&#x2d8;" horiz-adv-x="247" d="M15 650l25 1q-7 -32 14.5 -54t55.5 -22q26 0 55.5 21t43.5 54h26q-8 -46 -46.5 -77.5t-85.5 -31.5q-46 0 -71.5 32t-16.5 77z" />
<glyph unicode="&#x2d9;" horiz-adv-x="112" d="M98 585q-5 -19 -19 -31.5t-31 -12.5q-19 0 -28.5 11t-6.5 30q4 19 19 31.5t34 12.5q17 0 26.5 -12.5t5.5 -28.5z" />
<glyph unicode="&#x2da;" horiz-adv-x="214" d="M200 630q-9 -38 -41.5 -65t-70.5 -27t-59.5 27t-13.5 65t41 65t71 27q37 0 59 -27t14 -65zM165 630q5 27 -7 43t-38 16t-45 -16t-24 -43q-6 -27 6 -43t38 -16t45 16t25 43z" />
<glyph unicode="&#x2db;" horiz-adv-x="193" d="M169 -157q-39 -43 -91 -43q-37 -1 -53.5 21t-10.5 50q19 80 133 146h34q-90 -72 -100 -122q-5 -23 5 -37t34 -14q25 0 44 13q7 -1 5 -14z" />
<glyph unicode="&#x2dc;" horiz-adv-x="310" d="M298 631q-7 -39 -27 -62q-25 -28 -61 -28q-23 0 -53 14l-33 13q-26 11 -41 11q-13 0 -22.5 -6t-13.5 -12t-11 -20h-24q21 90 85 90q27 0 55 -13l53 -20q18 -6 31 -3q18 2 37 36h25z" />
<glyph unicode="&#x2dd;" horiz-adv-x="305" d="M293 713q0 -16 -12 -30l-110 -142l-26 5l85 182q7 17 33 17q13 0 21.5 -9t8.5 -23zM160 713q0 -16 -11 -30l-113 -140l-24 3l86 182q6 17 33 17q13 0 21 -9t8 -23z" />
<glyph unicode="&#x300;" horiz-adv-x="217" d="M206 545l-21 -4l-153 130q-12 11 -17.5 28t1.5 28q14 13 32 8t29 -17z" />
<glyph unicode="&#x301;" horiz-adv-x="217" d="M201 723q7 -10 1.5 -27.5t-17.5 -28.5l-153 -129l-21 3l129 173q11 13 29.5 17.5t31.5 -8.5z" />
<glyph unicode="&#x303;" horiz-adv-x="308" d="M297 631q-7 -39 -27 -62q-24 -28 -61 -28q-23 0 -53 14l-33 13q-26 11 -41 11q-13 0 -22.5 -6t-13.5 -12t-11 -20h-24q21 90 85 90q27 0 55 -13l53 -20q18 -6 31 -3q18 2 37 36h25z" />
<glyph unicode="&#x308;" horiz-adv-x="288" d="M275 560q-10 -44 -54 -44q-20 0 -29 12t-4 32t19 32t33 12q20 0 29.5 -12.5t5.5 -31.5zM101 560q-5 -20 -19.5 -32t-34.5 -12t-29 12t-5 32q4 19 18.5 31.5t34.5 12.5q19 0 28.5 -12t6.5 -32z" />
<glyph unicode="&#x309;" horiz-adv-x="154" d="M141 636q-3 -17 -22 -35.5t-37 -33.5t-20 -24q0 -2 3 -22q0 -1 -3 -2t-7.5 -2t-6.5 -1q-8 0 -12 9t-2 17q4 16 30.5 40t30.5 37q4 17 -5.5 24t-24.5 3t-25 -17q-2 -3 -5.5 -5t-7 -2t-6.5 0.5t-5 3t-3.5 5.5t-0.5 8t3 10q16 30 56 41q34 6 55.5 -8.5t14.5 -45.5z" />
<glyph unicode="&#x312;" horiz-adv-x="150" d="M139 670q-81 -15 -81 -55q0 -10 13 -10q45 -1 45 -35q0 -22 -17 -40.5t-45 -18.5q-20 0 -31.5 12t-11.5 33q0 57 36 90t92 39v-15z" />
<glyph unicode="&#x313;" horiz-adv-x="159" d="M135 589q-13 -31 -49 -55.5t-65 -24.5l3 16q52 16 75 59q6 10 5 26.5t-13 21.5q-10 5 -22.5 -2.5t-27.5 -6.5q-28 1 -29 24q-2 26 26 41q10 5 22 7q54 8 76 -20.5t-1 -85.5z" />
<glyph unicode="&#x314;" horiz-adv-x="176" d="M129 701q24 -1 32 -17t-3 -33t-34 -19q-14 -2 -29 5t-23 -1q-26 -18 -17 -53q1 -12 14.5 -28.5t38.5 -21.5l-1 -17q-32 -2 -61.5 18.5t-33.5 51.5q-6 52 28.5 84.5t88.5 30.5z" />
<glyph unicode="&#x323;" horiz-adv-x="120" d="M108 -158q0 -19 -14.5 -33.5t-33.5 -14.5t-34 14t-15 34q0 19 15 33.5t34 14.5q21 0 34.5 -14.5t13.5 -33.5z" />
<glyph unicode="&#x326;" horiz-adv-x="169" d="M11 -280v18q91 12 91 60q0 10 -16 11q-49 1 -49 38q0 26 19.5 46.5t47.5 20.5q25 0 39.5 -16t14.5 -40q0 -3 -2 -13q-26 -121 -145 -125z" />
<glyph unicode="&#x327;" horiz-adv-x="220" d="M207 -124q-8 -39 -44 -56t-78 -17q-26 0 -74 14l18 27q29 -9 52 -9q52 0 60 40q3 14 -6 22.5t-23 8.5t-36 -6l-6 5l55 85h29l-33 -56q12 3 26 3q31 0 48.5 -15.5t11.5 -45.5z" />
<glyph unicode="&#x328;" horiz-adv-x="192" d="M168 -157q-39 -43 -91 -43q-37 -1 -53.5 21t-10.5 50q19 79 133 146h34q-90 -72 -100 -122q-5 -23 5 -37t34 -14q25 0 44 13q7 -1 5 -14z" />
<glyph unicode="&#x342;" horiz-adv-x="343" d="M332 609q-21 -74 -73 -89q-40 -11 -106.5 10.5t-77.5 19.5q-20 -4 -33 -14.5t-15 -21.5h-16q14 58 60 79q34 16 109 -4.5t91 -18.5q31 4 45 39h16z" />
<glyph unicode="&#x343;" horiz-adv-x="162" d="M139 590q-13 -29 -49 -52t-66 -23l3 15q29 8 48.5 25.5t26.5 30.5q6 9 5 24t-12 20q-11 4 -24 -1.5t-29 -5.5q-29 1 -31 23q-1 24 27 39q10 5 22 7q57 7 79.5 -20.5t-0.5 -81.5z" />
<glyph unicode="&#x345;" horiz-adv-x="127" d="M116 -173q-21 -27 -49.5 -32.5t-37.5 3.5q-24 13 -15 61l15 74h64l-16 -76q-4 -19 2 -25q9 -11 31 4z" />
<glyph unicode="&#x374;" horiz-adv-x="181" d="M170 603q0 -20 -12 -32l-127 -129l-20 4l93 172q8 18 35 18q31 0 31 -33z" />
<glyph unicode="&#x375;" horiz-adv-x="181" d="M11 -176q0 20 13 33l126 129l20 -4l-92 -173q-10 -18 -35 -18q-32 0 -32 33z" />
<glyph unicode="&#x37a;" horiz-adv-x="128" d="M117 -173q-21 -27 -49.5 -32.5t-37.5 3.5q-26 14 -15 61l15 74h64l-17 -76q-2 -20 3 -25q9 -11 31 4z" />
<glyph unicode="&#x37e;" horiz-adv-x="287" d="M255 420q-6 -26 -28.5 -41t-42.5 -15t-35.5 14.5t-9.5 41.5q4 24 25 42t45 18q23 0 37 -18t9 -42zM195 7q-10 -50 -61.5 -96t-87.5 -58l-6 20q52 29 78.5 59.5t30.5 50.5q3 15 -11 15q-2 0 -10 -2q-12 -3 -16 -3q-28 0 -44 13t-10 40q12 60 75 60q11 0 21.5 -3 t24.5 -13.5t17.5 -30t-1.5 -52.5z" />
<glyph unicode="&#x384;" horiz-adv-x="208" d="M192 690q7 -10 2 -26.5t-17 -27.5l-146 -122l-20 3l124 164q10 12 27.5 16.5t29.5 -7.5z" />
<glyph unicode="&#x385;" horiz-adv-x="619" d="M532 590q-5 -19 -21.5 -33t-34.5 -14q-19 0 -30 14t-6 33q4 19 20 32.5t35 13.5h1q18 0 29 -13.5t7 -32.5zM263 590q-5 -19 -21.5 -33t-34.5 -14q-19 0 -29.5 14t-6.5 33t20.5 32.5t35.5 13.5q18 0 29 -13.5t7 -32.5zM484 720q7 -11 1.5 -28.5t-18.5 -27.5l-153 -129 l-20 4l129 173q11 12 29 16t32 -8z" />
<glyph unicode="&#x386;" horiz-adv-x="807" d="M767 22l-5 -22q-94 6 -153 6l-143 -6l5 22q78 0 86 51q3 16 0 52t-7 65l-5 28h-287q-66 -103 -77 -147q-6 -19 12.5 -32t52.5 -17l-5 -22q-74 6 -123 6l-118 -6l4 22q8 0 21 1t41.5 12.5t43.5 32.5q44 63 145 222.5t181 287.5l79 128h54q0 -2 25 -146.5t53.5 -301 t36.5 -179.5q5 -14 11.5 -23.5t24.5 -19.5t47 -14zM542 252l-60 337l-206 -337h266zM269 701q8 -10 2.5 -27.5t-18.5 -28.5l-153 -129l-21 4l130 173q11 12 29 16.5t31 -8.5z" />
<glyph unicode="&#x387;" horiz-adv-x="326" d="M215 382q0 -26 -17.5 -43.5t-43.5 -17.5q-25 0 -43 18t-18 43t18 42.5t43 17.5q26 0 43.5 -17.5t17.5 -42.5z" />
<glyph unicode="&#x388;" horiz-adv-x="849" d="M841 698q-15 -61 -26 -169h-26q-3 22 -7 38.5t-9.5 28.5t-9 19.5t-11 13.5t-10 8.5t-11.5 6.5t-10 5q-72 12 -242 12q-9 -18 -61 -269q181 -6 203 15q47 38 64 88q1 3 2 5q21 2 25 -1q1 0 -3.5 -16.5t-13 -49.5t-14.5 -58q-7 -28 -13 -61t-8 -51t-3 -19l-26 -1 q0 14 0.5 26.5t-6 30t-20.5 36.5q-14 18 -197 15q-61 -290 -57 -310q171 0 263 19q1 1 10.5 5t13 6t13.5 7t15.5 10t14.5 12.5t16 16t15 19.5t15.5 25t14.5 30l26 1q-48 -145 -58 -191q-215 8 -576 0l7 29q61 3 100 39q26 24 75 271q7 30 18 82.5t22 126.5t5 86 q-16 29 -86 32l7 28q205 -7 559 3zM190 697q7 -10 1.5 -27.5t-17.5 -28.5l-153 -129l-21 4l129 173q11 12 29 16.5t32 -8.5z" />
<glyph unicode="&#x389;" horiz-adv-x="957" d="M1015 693l-6 -28q-70 -3 -99 -32q-6 -6 -14.5 -30t-16.5 -53.5t-17 -67t-15 -64.5l-12 -54l-6 -27q0 -1 -4.5 -21t-8.5 -38.5t-10 -49t-9.5 -53t-7.5 -49.5t-3 -38.5t3 -21.5q24 -36 84 -38l-6 -30q-8 4 -71.5 7t-86.5 3q-18 0 -81 -2.5t-71 -5.5l6 28q61 2 100 38 q6 5 12 19t12.5 35.5t12 42t12 50t10.5 48.5t9.5 48t7.5 38h-328q-55 -254 -42 -281q18 -36 84 -38l-6 -30q-8 4 -72 7t-86 3q-18 0 -81 -2.5t-71 -5.5l6 28q59 2 100 38q22 21 74 271q60 266 45 296q-16 29 -84 32l5 28q17 -7 151 -7q141 0 161 7l-7 -28q-70 -3 -99 -32 q-22 -23 -70 -248h328q48 224 35 248q-17 29 -85 32l6 28q17 -7 151 -7q141 0 161 7zM190 700q8 -10 2.5 -27.5t-18.5 -28.5l-153 -129l-21 4l129 173q12 12 29.5 16.5t31.5 -8.5z" />
<glyph unicode="&#x38a;" horiz-adv-x="538" d="M596 693l-7 -28q-70 -3 -98 -32q-16 -17 -43 -128.5t-37 -167.5q-14 -56 -32.5 -155.5t-8.5 -115.5q24 -36 84 -38l-6 -30q-8 4 -70 7t-84 3q-18 0 -80.5 -2.5t-70.5 -5.5l7 28q60 2 99 38q17 16 41.5 119t32.5 152q61 268 45 296q-16 29 -85 32l6 28q17 -7 150 -7 q137 0 157 7zM190 700q8 -10 2.5 -27.5t-18.5 -28.5l-153 -129l-21 4l130 173q11 12 29 16.5t31 -8.5z" />
<glyph unicode="&#x38c;" horiz-adv-x="940" d="M913 337q-92 -351 -428 -353q-152 0 -224 101t-39 261q36 180 147 271t275 89q155 -2 233.5 -103.5t35.5 -265.5zM787 343q15 58 12.5 116.5t-17 105.5t-52.5 76.5t-94 29.5q-107 1 -185 -95t-109 -229q-16 -61 -13.5 -119.5t18 -104.5t54 -74t94.5 -28q73 0 135 47 t100.5 118.5t56.5 156.5zM190 703q7 -11 1.5 -28.5t-17.5 -27.5l-153 -129l-21 4l129 172q11 12 29 16.5t32 -7.5z" />
<glyph unicode="&#x38e;" horiz-adv-x="840" d="M910 693l-5 -27q-7 -1 -24 -1.5t-24.5 -3t-24 -11t-36 -27.5t-46.5 -50q-90 -102 -199 -236q-53 -253 -37 -269q24 -37 85 -39l-7 -30q-16 10 -157 10q-129 0 -153 -8l6 28q59 2 101 39q9 8 21 49.5t21 84.5t18 87t10 48q-71 185 -120 288q-6 14 -13.5 22.5t-18.5 12.5 t-15.5 5t-19.5 1h-16l5 27q8 -3 67 -6.5t71 -2.5q17 0 76.5 2.5t67.5 5.5l-6 -27h-18t-19 -0.5t-18.5 -6.5t-16.5 -18q-2 -4 -2.5 -11t1.5 -18t5 -23t8.5 -28.5t11 -31.5t13 -35.5t13.5 -36.5t14 -38t14 -37q110 125 190 242q9 14 -7.5 28t-43.5 14l6 26q88 -4 115 -4 q35 0 107 6zM190 698q8 -10 2.5 -27.5t-18.5 -28.5l-153 -129l-21 4l129 173q12 12 29.5 16.5t31.5 -8.5z" />
<glyph unicode="&#x38f;" horiz-adv-x="903" d="M881 424q-21 -111 -96 -179.5t-199 -84.5l-15 -74h39t37 0.5t34 2.5t29 6q31 10 66 82l24 -1q-31 -76 -56 -172q-73 3 -113 3l-117 -2q22 82 37 173q65 12 130 79.5t82 163.5q20 113 -18.5 184.5t-145.5 72.5q-109 1 -180 -71.5t-94 -186.5q-18 -91 16.5 -162.5 t87.5 -80.5q-14 -54 -37 -172q-64 2 -114 2l-116 -3q18 96 19 173h24q0 -71 31 -82q10 -4 27 -6t30.5 -2.5t40 -0.5h37.5l16 74q-117 22 -157.5 96t-21.5 170q27 138 136 211.5t260 74.5q147 0 223.5 -79.5t53.5 -208.5zM190 696q7 -10 1.5 -27t-17.5 -29l-153 -129l-21 4 l129 173q12 12 29.5 16.5t31.5 -8.5z" />
<glyph unicode="&#x390;" horiz-adv-x="338" d="M281 143q-82 -159 -162 -159q-63 0 -69 54q-5 60 31 209l17.5 70t18.5 77t5 36q-3 19 -44 19l6 29q5 -4 59.5 -3.5t83.5 9.5q-66 -224 -81 -292q-2 -12 -6.5 -30.5t-7 -29.5t-5 -25t-1.5 -22.5t3.5 -17t9 -13t17.5 -5.5q24 -1 49 26.5t51 76.5zM399 590q-5 -19 -21.5 -33 t-34.5 -14q-19 0 -30 14t-6 33q4 19 20 32.5t35 13.5h1q18 0 29 -13.5t7 -32.5zM130 590q-5 -19 -21.5 -33t-34.5 -14q-19 0 -29.5 14t-6.5 33t20.5 32.5t35.5 13.5q18 0 29 -13.5t7 -32.5zM351 720q7 -11 1.5 -28.5t-18.5 -27.5l-153 -129l-20 4l129 173q11 12 29 16t32 -8 z" />
<glyph unicode="&#x391;" horiz-adv-x="769" d="M729 22l-4 -22q-94 6 -153 6l-144 -6l5 22q78 0 86 51q3 21 0.5 53t-7.5 62l-4 30h-288q-65 -103 -77 -147q-4 -20 14 -32.5t51 -16.5l-5 -22q-74 6 -122 6l-119 -6l5 22q8 0 21.5 1t42 12.5t42.5 32.5q44 63 145 222.5t180 287.5l80 128h53q0 -3 25 -147t54 -300.5 t37 -179.5q14 -47 82 -57zM504 252l-60 337l-206 -337h266z" />
<glyph unicode="&#x392;" horiz-adv-x="711" d="M689 523q-10 -57 -74.5 -100t-174.5 -51q7 -2 37.5 -6.5t52 -9t51 -17t46 -30t25.5 -48.5t1 -71q-11 -58 -52 -100t-96.5 -61.5t-105.5 -27t-94 -5.5q-198 4 -298 2l7 30q60 2 101 38q9 9 22 50.5t23 84t19.5 88.5t10.5 48q0 2 7.5 36.5t14 69.5t14.5 80.5t9.5 70.5 t-1.5 39q-16 29 -85 32l7 28q6 -1 99 -2t183 -2t93 -2q88 -9 129.5 -51t28.5 -113zM585 516q12 56 -17.5 92t-72.5 44q-29 5 -144 8q-5 -11 -15.5 -55.5t-26.5 -124.5t-19 -93q92 0 134 6q69 10 110.5 46t50.5 77zM539 190q10 46 -3 80t-35 49.5t-56 24t-50 9.5t-33 1h-2 h-76l-66 -324q92 -5 154 7q20 4 40.5 11.5t48 23.5t49 46.5t29.5 71.5z" />
<glyph unicode="&#x393;" horiz-adv-x="625" d="M669 697q-18 -75 -26 -173h-24q-3 40 -20 71.5t-34 40.5q-23 12 -62 17t-164 6q-64 -298 -68 -321q0 -1 -8 -35.5t-15 -65.5t-15 -75.5t-9 -65.5t3 -36q22 -31 79 -32l-8 -30q-18 9 -150 9q-12 1 -73.5 -1t-70.5 -5l5 27q33 1 52.5 6.5t40.5 24.5q17 15 41.5 119.5 t33.5 160.5q58 277 45 298q-18 28 -78 28l6 28q398 0 519 4z" />
<glyph unicode="&#x394;" horiz-adv-x="680" d="M587 -1q-227 4 -318 5l-311 -6h-1q16 18 127 195t214 345l104 168h55q0 -2 28.5 -166.5t61 -341t40.5 -199.5zM471 42q-22 115 -32 167.5t-13 73.5t-17 102.5t-37 212.5q-28 -47 -144.5 -250.5t-181.5 -306.5z" />
<glyph unicode="&#x395;" horiz-adv-x="719" d="M711 698q-15 -61 -26 -169h-26q-3 22 -7 38.5t-9.5 28.5t-9 19.5t-11 13.5t-10 8.5t-11.5 6.5t-10 5q-72 12 -242 12q-9 -18 -61 -269q181 -6 203 15q47 38 64 88q1 3 2 5q21 2 25 -1q1 0 -3.5 -16.5t-13 -49.5t-14.5 -58q-7 -28 -13 -61t-8 -51t-3 -19l-26 -1 q0 14 0.5 26.5t-6 30t-20.5 36.5q-14 18 -197 15q-61 -290 -57 -310q171 0 263 19q1 1 10.5 5t13 6t13.5 7t15.5 10t14.5 12.5t16 16t15 19.5t15.5 25t14.5 30l26 1q-48 -145 -58 -191q-215 8 -576 0l7 29q61 3 100 39q26 24 75 271q7 30 18 82.5t22 126.5t5 86 q-16 29 -86 32l7 28q205 -7 559 3z" />
<glyph unicode="&#x396;" horiz-adv-x="682" d="M714 696q-193 -221 -303 -354l-248 -305q209 0 298 19q20 9 29 14t29.5 19.5t37.5 39.5t32 59h23q-8 -26 -19 -59.5t-15.5 -48t-10.5 -36.5t-11 -46q-161 7 -552 0q96 101 299 346l258 316q-207 -1 -276 -19q-23 -8 -37 -16t-38 -34t-46 -69h-22q29 98 47 174 q179 -8 525 0z" />
<glyph unicode="&#x397;" horiz-adv-x="827" d="M885 693l-6 -28q-70 -3 -99 -32q-6 -6 -14.5 -30t-16.5 -53.5t-17 -67t-15 -64.5l-12 -54l-6 -27q0 -1 -4.5 -21t-8.5 -38.5t-10 -49t-9.5 -53t-7.5 -49.5t-3 -38.5t3 -21.5q24 -36 84 -38l-6 -30q-8 4 -71.5 7t-86.5 3q-18 0 -81 -2.5t-71 -5.5l6 28q61 2 100 38 q6 5 12 19t12.5 35.5t12 42t12 50t10.5 48.5t9.5 48t7.5 38h-328q-55 -254 -42 -281q18 -36 84 -38l-6 -30q-8 4 -72 7t-86 3q-18 0 -81 -2.5t-71 -5.5l6 28q59 2 100 38q22 21 74 271q60 266 45 296q-16 29 -84 32l5 28q17 -7 151 -7q141 0 161 7l-7 -28q-70 -3 -99 -32 q-22 -23 -70 -248h328q48 224 35 248q-17 29 -85 32l6 28q17 -7 151 -7q141 0 161 7z" />
<glyph unicode="&#x398;" horiz-adv-x="797" d="M581 475q-18 -48 -30 -106v1l-16 -114h-26q3 37 -13 54q-4 4 -9.5 6.5t-15.5 3.5t-15 1h-20.5h-19.5q-79 0 -99 -11q-9 -5 -14.5 -10.5t-10 -13.5t-6 -12t-6.5 -18h-25q20 59 29 110l16 108h26q-3 -18 -1 -31t14 -22q15 -12 95 -12q66 0 85 13q3 2 6 4.5t5 4t4.5 4.5 t4 4.5t3.5 5t2.5 4.5t3 5.5t2.5 5.5t3 7t3 7zM770 339q-93 -352 -428 -352q-152 0 -224.5 101t-39.5 261q37 180 148 270.5t275 88.5q154 -2 232.5 -103.5t36.5 -265.5zM644 345q14 58 11.5 116.5t-17 105.5t-52 77t-93.5 30q-107 0 -185 -95.5t-109 -228.5 q-16 -61 -13.5 -119.5t18 -104.5t53.5 -74t94 -28q108 0 186.5 94t106.5 227z" />
<glyph unicode="&#x399;" horiz-adv-x="399" d="M457 693l-7 -28q-70 -3 -98 -32q-16 -17 -43 -128.5t-37 -167.5q-14 -56 -32.5 -155.5t-8.5 -115.5q24 -36 84 -38l-6 -30q-8 4 -70 7t-84 3q-18 0 -80.5 -2.5t-70.5 -5.5l7 28q60 2 99 38q17 16 41.5 119t32.5 152q61 268 45 296q-16 29 -85 32l6 28q17 -7 150 -7 q137 0 157 7z" />
<glyph unicode="&#x39a;" horiz-adv-x="814" d="M866 696l-6 -32q-35 -3 -53.5 -7.5t-60.5 -27.5t-102 -69l-200 -155q33 -56 122 -190.5t104 -148.5q33 -31 93 -38l-7 -30q-7 3 -71 5.5t-83 2.5q-18 0 -82 -2.5t-72 -5.5l7 30q21 1 31 2t25 9t18 24t-62 125.5t-99 159.5l-119 -88q-37 -174 -25 -194q25 -36 85 -38 l-6 -30q-8 4 -69.5 7t-83.5 3q-18 0 -78 -2.5t-68 -5.5l5 28q59 2 98 38q22 21 74 271q61 267 46 296q-8 14 -26 21.5t-28 8.5t-30 2l7 28q15 -7 145 -7q137 0 155 7l-6 -28q-70 -3 -98 -32q-6 -6 -14.5 -30t-16.5 -53.5t-17 -67t-15.5 -65t-12 -53.5t-5.5 -27t-2.5 -14 t-4.5 -20q44 34 105 83t95.5 77.5t107 90t77.5 65.5q24 22 -11 37q-19 8 -42 8l6 29q151 -7 270 3z" />
<glyph unicode="&#x39b;" horiz-adv-x="803" d="M763 29l-7 -30q-112 6 -172 7l-153 -6l7 28q86 0 96 54q3 16 -0.5 50t-7.5 60l-5 26l-62 371l-224 -371q-61 -95 -72 -138q-6 -28 11.5 -39t70.5 -13l-8 -29q-95 6 -143 7l-132 -6l5 28q10 0 26 1t49 13.5t48 35.5l401 628l54 -1q0 -3 23.5 -144.5t52 -296.5t38.5 -178 q13 -29 35 -42.5t69 -14.5z" />
<glyph unicode="&#x39c;" horiz-adv-x="944" d="M1002 693l-7 -28q-67 0 -95 -28q-8 -8 -18 -32.5t-18 -54t-16.5 -67t-14 -64.5t-10.5 -53.5t-5 -27.5q-53 -252 -40 -272q24 -36 84 -38l-6 -30q-8 4 -70.5 7t-84.5 3q-18 0 -79 -2.5t-69 -5.5l5 28q61 2 100 38q7 4 16 25t16 48t15 61.5t13 60t10 50.5t5 27l59 287 q-30 -44 -197.5 -310t-194.5 -314q-4 27 -25 126.5t-42.5 198.5t-42.5 194l-21 96q-4 -19 -17.5 -81.5t-28.5 -137t-19 -91.5q-7 -29 -30 -159q-14 -75 1 -97q13 -21 79 -21q0 -3 -2 -10.5t-4 -12.5l-1 -6h-4q-4 1 -12 2t-18.5 1.5t-22.5 1.5t-23.5 2t-23 1h-20.5 q-103 -5 -127 -8q6 29 7 29q56 0 91 27q13 10 36 100.5t34 147.5q60 280 63 309q1 15 -7 27.5t-19 16.5q-22 9 -49 9l6 29q6 -1 14.5 -1.5l17 -1t16.5 -0.5t16 -0.5t13.5 -0.5h10.5h5q71 0 99 6q81 -409 113 -523q35 57 118.5 188t142.5 225t68 111q15 -3 62 -7q15 -1 77 -1 t71 3z" />
<glyph unicode="&#x39d;" horiz-adv-x="802" d="M859 695l-8 -30q-49 1 -71 -16q-7 -6 -12 -13t-9.5 -18.5t-6.5 -18.5t-6.5 -26t-6.5 -27q-20 -79 -36 -157q-3 -16 -24 -111t-38.5 -177.5t-20.5 -101.5q-17 4 -31 0q-108 204 -325 569q-4 -20 -26.5 -126t-28.5 -136q-19 -78 -29 -158q-1 -5 -2.5 -15.5t-2 -14.5 t-2 -12.5t-1.5 -11.5t-0.5 -9.5t0.5 -9.5t1.5 -8t2.5 -8.5t4 -6.5q7 -10 20.5 -15.5t23 -6t32.5 -1.5l-7 -29q-9 1 -23 2.5t-47 3.5t-52 2q-109 -5 -131 -8l7 29q69 0 97 30q10 11 35 107t33 138q7 26 34 157.5t29 151.5q-4 32 -27 42q-14 10 -48 10l6 30q6 -1 14.5 -1.5 l17 -1t16.5 -0.5t16 -0.5t13.5 -0.5h10.5h5q41 0 68 5q50 -98 143 -266t147 -253q27 105 48 213q50 227 40 247q-6 14 -25.5 21t-35.5 7h-16q5 22 7 30q38 -5 117 -7h19.5t21 1t21 1.5t19.5 1.5t16 1.5t11 0.5z" />
<glyph unicode="&#x39e;" horiz-adv-x="693" d="M690 698q-19 -137 -21 -179h-27q5 47 -24 79q-14 13 -196 13q-175 0 -203 -13q-45 -22 -63 -79l-26 -1q16 43 56 180q184 -6 251 -6q32 0 95 1.5t111.5 3t46.5 1.5zM544 478q-18 -51 -30 -110h-1l-17 -116h-25q5 44 -12 61q-3 4 -9 6.5t-11.5 3.5t-15.5 1.5t-15.5 0.5 h-18h-16.5q-91 0 -111 -12q-5 -3 -9.5 -6.5t-8 -8t-5.5 -7.5t-4.5 -9.5t-3.5 -9t-4 -11t-3 -9.5h-26q20 61 30 114l18 112l25 -1q-4 -18 -2.5 -33.5t14.5 -24.5q14 -11 106 -11q76 0 92 11q4 3 7 5.5t6 6t5 5t4.5 6t3 6t3 7.5t3 7t3.5 8t3 8h25zM625 192l-1 1 q-28 -78 -60 -193q-190 3 -261 3l-271 -3q15 130 19 192h24v-12.5t0.5 -15.5t1.5 -14.5t3 -15t5 -12.5t8 -12t11 -8q15 -8 39 -12t42.5 -4.5t64.5 0t71 0.5q171 -2 209 17q12 5 21.5 13t17 19.5t11.5 18t11 21t8 17.5h26z" />
<glyph unicode="&#x39f;" horiz-adv-x="797" d="M770 337q-92 -351 -428 -353q-152 0 -224 101t-39 261q36 180 147 271t275 89q155 -2 233.5 -103.5t35.5 -265.5zM644 343q15 58 12.5 116.5t-17 105.5t-52.5 76.5t-94 29.5q-107 1 -185 -95t-109 -229q-16 -61 -13.5 -119.5t18 -104.5t54 -74t94.5 -28q73 0 135 47 t100.5 118.5t56.5 156.5z" />
<glyph unicode="&#x3a0;" horiz-adv-x="825" d="M883 693l-7 -29q-58 3 -96 -29q-18 -15 -45 -127.5t-38 -171.5q-7 -27 -17.5 -76.5t-20 -115.5t-1.5 -77q24 -36 83 -38l-6 -30q-17 10 -157 10q-131 0 -152 -8l5 28q60 2 100 39q22 21 74 268l68 311h-329q-66 -290 -71 -312q-14 -55 -32 -153.5t-8 -114.5 q24 -36 84 -38l-6 -30q-17 10 -158 10q-128 0 -149 -8l5 28q57 2 99 39q16 15 42.5 121.5t33.5 148.5q61 279 48 297q-22 29 -87 29l6 28q400 -3 732 1z" />
<glyph unicode="&#x3a1;" horiz-adv-x="673" d="M654 495q-24 -95 -93.5 -144t-168.5 -55l-129 -2q-6 -24 -14 -64.5t-16 -99t1 -64.5q24 -36 84 -38l-6 -30q-8 4 -72 7t-86 3q-18 0 -80 -2.5t-70 -5.5l6 28q59 2 100 38q22 21 74 271q60 266 45 296q-16 29 -84 32l5 28q22 -2 75.5 -1t148.5 0t149 -5q74 -6 112 -60.5 t19 -131.5zM555 493q9 53 -11.5 97t-68.5 60q-8 3 -17 4.5t-22.5 2.5t-23.5 1.5t-32 1t-37 0.5q-11 -23 -73 -335h29.5h26t20.5 0.5t24.5 2.5t26.5 5q64 15 106.5 62t51.5 98z" />
<glyph unicode="&#x3a3;" horiz-adv-x="661" d="M671 695q-13 -56 -26 -173h-25q-3 22 -7 39t-9.5 28.5t-9.5 19.5t-11 13.5t-10.5 8t-11.5 6t-10 4.5q-76 19 -283 19q58 -126 146 -283q-9 -9 -82.5 -79.5t-142 -135.5t-79.5 -74h61.5t114.5 -1q179 -2 216 17q12 5 21.5 13t17 19t12 18.5t11 21t8.5 18.5h25 q-25 -67 -63 -195q-220 6 -291 7l-275 -6q23 22 177.5 175t165.5 163h-1q-49 98 -75 147q-16 31 -44.5 82.5t-48.5 87.5t-22 41q264 -7 551 -1z" />
<glyph unicode="&#x3a4;" horiz-adv-x="642" d="M702 699q-3 -15 -9 -38.5t-8 -34.5t-6 -36.5t-8 -60.5h-26q-8 101 -39 118q-28 15 -143 15q-70 -288 -77 -326q0 -2 -4.5 -21.5t-8.5 -38t-10 -49t-9.5 -52.5t-7.5 -48.5t-3.5 -38.5t3.5 -22q24 -36 84 -38l-6 -30q-8 4 -73 7t-87 3q-19 0 -82.5 -2.5t-72.5 -5.5l7 28 q59 2 100 38q16 16 42.5 121.5t33.5 148.5q30 134 66 326h-17q-97 0 -128 -11q-43 -14 -97 -122h-28q32 105 45 171q360 -5 569 -1z" />
<glyph unicode="&#x3a5;" horiz-adv-x="685" d="M755 693l-6 -27q-7 -1 -24 -1.5t-24.5 -3t-24 -11t-36 -27.5t-46.5 -50q-94 -107 -198 -236q-53 -254 -37 -269q24 -37 84 -39l-7 -30q-16 10 -156 10q-131 0 -153 -8l5 28q61 2 101 39q7 7 16.5 34t18.5 65.5t15.5 70.5t12.5 66l7 33q-68 180 -119 288q-6 14 -13.5 22.5 t-18.5 12.5t-15.5 5t-20 1h-16.5l6 27q8 -3 66.5 -6.5t71.5 -2.5q18 0 76.5 2.5t66.5 5.5l-6 -27h-18t-19 -0.5t-18.5 -6.5t-16.5 -18q-2 -4 -2.5 -11t2 -18t5.5 -23t8.5 -29t10.5 -31.5t12.5 -35t13.5 -36t14.5 -38t13.5 -37.5q105 118 190 242q9 14 -7 28t-43 14l5 26 q89 -4 115 -4q36 0 108 6z" />
<glyph unicode="&#x3a6;" horiz-adv-x="816" d="M812 362q-16 -85 -78.5 -142t-139.5 -78t-158 -16q-13 -55 -8 -63q20 -32 91 -34l-7 -30q-8 5 -73.5 7.5t-80.5 1.5q-126 0 -147 -7l5 28q71 2 101 32q3 3 6.5 12t9 26t9.5 27h-1q-55 0 -106.5 13.5t-94.5 40.5t-62.5 75t-4.5 110q15 64 54 110.5t92 70.5t106.5 35 t111.5 11q5 43 2 48q-6 11 -19 17.5t-21.5 7.5t-28 1h-20.5l7 28q15 -7 147 -7q138 0 157 6l-8 -28h-19.5t-27 -1t-24.5 -6.5t-26 -16.5q-6 -7 -16 -48q56 0 106.5 -13t93 -39t63 -72.5t9.5 -106.5zM697 362q21 92 -31.5 146t-133.5 60l1 1q-17 -54 -34 -132t-20 -99 q-4 -15 -40 -189q92 6 164.5 61t93.5 152zM432 571q-83 -6 -156.5 -57.5t-94.5 -146.5q-18 -92 35 -151t132 -66q39 177 41 188q31 125 43 233z" />
<glyph unicode="&#x3a7;" horiz-adv-x="745" d="M803 691l-6 -26q-42 -4 -79 -23t-92 -69q-126 -118 -191 -187q2 -4 79 -182q16 -38 24 -55t22.5 -39.5t33.5 -43.5q26 -32 99 -37l-6 -30q-87 8 -167 9q-36 0 -164 -9l6 30q75 0 84 39q5 21 -36 116q-24 61 -54 127q-4 -4 -21.5 -23t-49 -53.5t-58.5 -63.5q-7 -8 -25 -27 t-25 -27.5t-17.5 -23.5t-17.5 -29q-8 -17 14.5 -26.5t55.5 -9.5l-7 -29q-95 4 -131 5q-75 4 -141 -5l6 29q51 1 88.5 18t77.5 55q41 38 74.5 72.5t77.5 82t81 85.5q-20 51 -62 145q-1 3 -7.5 17.5t-8 18t-6.5 15.5t-7.5 16t-7 13.5t-7.5 14.5t-8 12.5t-9.5 13t-9.5 11.5 q-10 12 -21 20.5t-23 13t-20 6.5t-21 3.5t-16 2.5l5 28q21 -7 154 -7q137 0 161 7l-6 -27q-35 -1 -51 -6t-25 -23q-11 -22 26 -105q1 -3 2 -5q43 -99 50 -112q175 183 185 217q7 20 -12 27t-48 6l6 27q106 -6 133 -6q73 0 119 6z" />
<glyph unicode="&#x3a8;" horiz-adv-x="801" d="M900 688l-4 -21zM901 688l-5 -21q-44 3 -62 -12q-26 -23 -35 -64q-33 -172 -53 -224q-13 -32 -24.5 -53.5t-46 -52.5t-83.5 -49q-21 -8 -44.5 -13t-39 -6.5t-39.5 -3.5t-34 -3q-26 -104 -19 -124q9 -32 90 -34l-8 -30q-7 5 -72.5 7.5t-81.5 1.5q-126 0 -147 -7l6 28 q70 2 101 32q11 9 39 126q-82 0 -162 39q-26 13 -42 30.5t-22 39.5t-7.5 37t-0.5 38q1 20 9.5 65t20 100t12.5 59q10 42 -5 64q-5 7 -18.5 10.5t-24.5 3.5l-11 -1l3 21q2 0 21 3.5t27.5 2.5t41.5 -4q38 -6 53.5 -32.5t13.5 -56.5t-43 -235q-14 -88 33 -123q35 -26 108 -29 q21 91 23 100q63 297 55 320q-7 24 -83 27l7 28q15 -7 138 -7q131 0 149 7l-7 -28q-3 0 -20 0.5t-26.5 -0.5t-23.5 -7.5t-23 -19.5q-5 -8 -36 -137t-42 -182q-22 -101 -23 -101q71 4 112 23q71 33 96 129q7 23 28 112.5t28 111.5q36 91 112 99q39 3 87 -5z" />
<glyph unicode="&#x3a9;" horiz-adv-x="769" d="M747 424q-21 -111 -96 -179.5t-199 -84.5l-15 -74h39t37 0.5t34 2.5t29 6q31 10 66 82l24 -1q-31 -76 -56 -172q-73 3 -113 3l-117 -2q22 82 37 173q65 12 130 79.5t82 163.5q20 113 -18.5 184.5t-145.5 72.5q-109 1 -180 -71.5t-94 -186.5q-18 -91 16.5 -162.5 t87.5 -80.5q-14 -54 -37 -172q-64 2 -114 2l-116 -3q18 96 19 173h24q0 -71 31 -82q10 -4 27 -6t30.5 -2.5t40 -0.5h37.5l16 74q-117 22 -157.5 96t-21.5 170q27 138 136 211.5t260 74.5q147 0 223.5 -79.5t53.5 -208.5z" />
<glyph unicode="&#x3aa;" horiz-adv-x="359" d="M417 693l-7 -28q-70 -3 -98 -32q-16 -17 -43 -128.5t-37 -167.5q-14 -56 -32.5 -155.5t-8.5 -115.5q24 -36 84 -38l-6 -30q-8 4 -70 7t-84 3q-18 0 -80.5 -2.5t-70.5 -5.5l7 28q60 2 99 38q17 16 41.5 119t32.5 152q61 268 45 296q-16 29 -85 32l6 28q17 -7 150 -7 q137 0 157 7zM409 779q-4 -21 -20 -33.5t-37 -12.5q-20 0 -29.5 12.5t-5.5 33.5q5 21 20 34t35 13q21 0 31 -13t6 -34zM225 779q-5 -21 -20 -33.5t-36 -12.5t-31 12.5t-5 33.5t20 34t36 13t31 -13t5 -34z" />
<glyph unicode="&#x3ab;" horiz-adv-x="685" d="M755 693l-6 -27q-7 -1 -24 -1.5t-24 -3t-23.5 -11t-36 -27.5t-47.5 -50q-77 -87 -198 -236q-53 -253 -37 -269q24 -37 84 -39l-6 -30q-17 10 -157 10q-131 0 -153 -8l6 28q60 2 100 39q9 8 21.5 49.5t21.5 84.5t18 87t10 48q-71 185 -120 288q-6 14 -13.5 22.5 t-18.5 12.5t-15.5 5t-20 1h-16.5l6 27q8 -3 67 -6.5t71 -2.5q18 0 76.5 2.5t66.5 5.5l-5 -27h-18t-19.5 -0.5t-19 -6.5t-16.5 -18q-1 -10 -2 -15.5t4.5 -26t10 -35t14 -41t16.5 -45.5t17.5 -48t17.5 -48q105 118 190 242q10 14 -6.5 28t-43.5 14l6 26q88 -4 115 -4 q35 0 107 6zM609 779q-5 -21 -21 -33.5t-36 -12.5q-21 0 -30.5 12.5t-4.5 33.5q4 21 19 34t36 13q20 0 30.5 -13t6.5 -34zM424 779q-4 -21 -19.5 -33.5t-36.5 -12.5q-20 0 -30 12.5t-6 33.5t20 34t36 13q21 0 31 -13t5 -34z" />
<glyph unicode="&#x3ac;" horiz-adv-x="621" d="M603 143q-45 -89 -83 -124t-64 -35q-43 0 -53 35q-12 46 26 169q-85 -202 -233 -202q-49 0 -86.5 24.5t-53.5 65.5q-25 65 -10 145q7 39 14.5 66t30 65.5t57.5 72.5q59 55 156 55q75 -1 107.5 -59t14.5 -171q29 103 54 230l-1 -1q75 -6 100 0q-14 -32 -55 -149t-57 -173 q-24 -83 15 -92q47 -13 99 88zM395 228q19 65 0 139.5t-71 78.5q-74 6 -122.5 -60.5t-62.5 -167.5q-10 -77 14.5 -140t77.5 -61v1q56 2 100.5 63.5t63.5 146.5zM521 728q8 -11 2.5 -28.5t-18.5 -27.5l-153 -130l-21 4l129 173q12 12 29.5 17t31.5 -8z" />
<glyph unicode="&#x3ad;" horiz-adv-x="469" d="M450 725q8 -10 2.5 -27.5t-18.5 -28.5l-153 -129l-21 3l130 173q11 13 29 17.5t31 -8.5zM467 395q-7 -25 -27 -37.5t-39.5 -11t-35.5 3.5l1 -1q17 54 -6 80.5t-63 24.5q-50 -1 -81 -26t-40 -66q-9 -38 12 -60.5t59 -25.5q30 -1 67 7q-10 -15 -12 -49q-40 7 -75 1 q-52 -11 -77.5 -45t-27.5 -68q-3 -47 24 -71.5t78 -22.5q60 3 110 41t72 75l28 -9q-35 -57 -87 -98.5t-108 -47.5q-55 -7 -110.5 2.5t-84.5 44.5q-26 34 -20.5 82.5t39.5 79.5q17 15 37 26t44.5 17.5t38.5 9t42 5.5t32 4q-87 -5 -138 20.5t-40 80.5q12 60 72 89.5t156 29.5 q88 0 128 -25.5t32 -59.5z" />
<glyph unicode="&#x3ae;" d="M490 728q7 -11 1.5 -28.5t-17.5 -27.5l-153 -130l-21 4l129 173q11 12 29 17t32 -8zM555 142q-84 -155 -162 -157h-3q-17 -2 -36.5 5.5t-27.5 25.5q-5 11 -5 28.5t2.5 35.5t9 43.5t12.5 46t14.5 50.5t13.5 50q38 149 9 157q-22 7 -51.5 -2t-55.5 -27t-48.5 -37.5 t-36.5 -33.5l-13 -14q-12 -43 -22 -90t-15 -75.5t-14 -78.5t-12 -69q-10 4 -45 4t-49 -6q8 17 32.5 105.5t36.5 142.5q33 147 26 185q-3 21 -43 19l5 28q16 -5 62.5 -5.5t84.5 9.5v1q-27 -62 -38 -133q30 36 100.5 86.5t115.5 54.5q78 6 81.5 -53t-42.5 -209q-2 -7 -3 -11 q-34 -127 -35 -143q-1 -22 18 -24h10q22 0 46.5 24.5t35.5 44t18 34.5z" />
<glyph unicode="&#x3af;" horiz-adv-x="328" d="M335 726q8 -11 2.5 -28t-18.5 -28l-153 -129l-21 3l130 173q11 13 29 17.5t31 -8.5zM281 143q-82 -159 -162 -159q-63 0 -69 54q-5 60 31 209l17.5 70t18.5 77t5 36q-3 19 -44 19l6 29q5 -4 59.5 -3.5t83.5 9.5q-66 -224 -81 -292q-2 -12 -6.5 -30.5t-7 -29.5t-5 -25 t-1.5 -22.5t3.5 -17t9 -13t17.5 -5.5q24 -1 49 26.5t51 76.5z" />
<glyph unicode="&#x3b0;" horiz-adv-x="584" d="M529 218q-22 -59 -53 -103.5t-59 -68t-59 -38t-51 -18.5t-38 -4q-56 0 -92 13t-60 50q-38 59 -8 185q3 13 12 37t15.5 44.5t12 42t4 35.5t-11.5 17q-12 4 -27 -2.5t-27.5 -18.5t-23 -25t-16.5 -22l-6 -10l-24 17q36 52 70 93q16 18 46 33t64 10q32 -5 44.5 -27.5t7 -58.5 t-15.5 -70t-24.5 -76t-18.5 -62q-19 -91 4 -137q8 -15 14 -22.5t20.5 -13.5t37.5 -6q54 1 100 51.5t73 151.5q12 44 12 91.5t-5.5 87t-5.5 41.5q-1 31 26 42q33 11 55 -1q26 -15 32.5 -64.5t-1.5 -101.5t-23 -92zM541 590q-4 -19 -21 -33t-35 -14q-19 0 -29.5 14t-6.5 33 t20.5 32.5t34.5 13.5h1q18 0 29 -13.5t7 -32.5zM273 590q-4 -19 -21.5 -33t-34.5 -14q-19 0 -30 14t-7 33t21 32.5t36 13.5q17 0 28 -13.5t8 -32.5zM493 720q7 -11 1.5 -28.5t-17.5 -27.5l-153 -129l-21 4l129 173q12 12 30 16t31 -8z" />
<glyph unicode="&#x3b1;" horiz-adv-x="620" d="M602 143q-44 -89 -82 -124t-65 -35q-44 0 -52 35q-13 45 25 169q-83 -202 -232 -202q-50 0 -87 24t-54 66q-24 65 -9 145q9 60 30 108t71 96q60 55 157 55q74 -1 107 -59t15 -171q28 103 54 230l-1 -1q73 -6 100 0q-15 -31 -56 -147.5t-57 -174.5q0 -1 -2 -9.5t-3 -12.5 t-2.5 -13.5t-1.5 -15t1 -13.5t3.5 -12.5t8 -9t12.5 -6.5q46 -13 98 88zM394 228q19 65 0 139.5t-70 78.5q-74 6 -122.5 -60t-62.5 -168q-7 -48 0.5 -94t31.5 -77t60 -30v1q56 2 99.5 63.5t63.5 146.5z" />
<glyph unicode="&#x3b2;" horiz-adv-x="533" d="M509 551q-10 -35 -35.5 -61t-59.5 -39.5t-66.5 -19.5t-65.5 -6h-4q34 1 70 -8.5t69.5 -29.5t55 -57t21.5 -85q0 -61 -19.5 -109.5t-50 -78t-68 -48.5t-72 -25t-63.5 -2q-37 4 -73.5 42t-41.5 75q-9 -53 -31.5 -167t-27.5 -141q-42 11 -81 2q79 355 143 676q12 61 35 106 t47.5 69.5t57 39t58 18.5t56.5 5q69 2 115 -33q18 -13 31 -46.5t0 -76.5zM426 559q10 48 -6.5 82.5t-65.5 34.5q-39 0 -70 -20t-48.5 -50t-26 -49.5t-11.5 -33.5q-12 -46 -36.5 -182.5t-37.5 -199.5l-1 -1q15 -119 114 -121q19 0 41.5 10t48 32t45.5 66.5t26 103.5 q9 83 -43.5 132.5t-127.5 47.5l9 35q53 0 92 12.5t58.5 33t28 36.5t11.5 31z" />
<glyph unicode="&#x3b3;" horiz-adv-x="515" d="M502 421q-1 -16 -8.5 -35t-24 -43.5t-30 -42.5t-40.5 -51.5t-41 -52.5q-116 -153 -131 -179q8 -75 -7 -142q-10 -42 -30 -73.5t-44 -31.5q-19 0 -29.5 13t-11 33.5t0.5 35t4 27.5q22 79 51 121q-57 362 -79 415q-2 6 -5 10.5t-6.5 8t-6.5 6t-8 4t-7.5 2t-8 1t-8 0.5h-8.5 h-8l7 31q11 -4 64.5 -4t95.5 7q0 -30 7 -98t18.5 -164t16.5 -147q0 1 15.5 23t38.5 56t37 57q61 110 73 168q3 17 2 31t-4 25.5t-7 19.5l-6 12l-3 5l67 19q8 2 21.5 0t29 -18.5t13.5 -48.5z" />
<glyph unicode="&#x3b4;" horiz-adv-x="557" d="M536 605q-14 -42 -112 -31q28 36 21 62q-3 14 -20 26t-45 15q-65 8 -97 -18t-31 -64q1 -32 34 -61.5t111 -68.5q49 -24 78 -67q22 -29 36 -80.5t1 -105.5q-19 -82 -63 -134.5t-96 -73t-115 -21.5q-56 0 -99 24.5t-64.5 64t-29.5 89t6 99.5q5 21 14 43t31.5 54t52.5 54 t81.5 34.5t113.5 4.5q-36 12 -60.5 22t-56.5 27.5t-48.5 39.5t-15.5 47q2 45 24 73t56 37t76.5 12.5t84.5 -0.5q74 -3 109 -36.5t23 -66.5zM413 211q19 84 -6.5 149.5t-86.5 66.5q-72 1 -118 -60t-58 -155q-6 -33 -2.5 -68.5t13 -65.5t33 -49.5t57.5 -18.5q63 1 106 57 t62 144z" />
<glyph unicode="&#x3b5;" horiz-adv-x="469" d="M467 395q-6 -25 -26 -37.5t-39.5 -11t-35.5 3.5l1 -1q16 54 -6 80.5t-63 24.5q-50 -1 -81 -26t-40 -66q-9 -38 12 -60.5t59 -25.5q34 -1 66 7q-9 -15 -11 -49q-40 7 -75 1q-53 -11 -78.5 -45.5t-26.5 -67.5q-3 -47 24 -71.5t78 -22.5q59 3 109.5 41t72.5 75l28 -9 q-36 -57 -88 -98.5t-108 -47.5q-55 -7 -110.5 2.5t-83.5 44.5q-27 34 -21.5 82t40.5 80q17 15 37 26t44 17.5t38.5 9t41.5 5.5t32 4q-87 -5 -137.5 21t-39.5 80q23 119 228 119q89 0 128.5 -25.5t30.5 -59.5z" />
<glyph unicode="&#x3b6;" horiz-adv-x="421" d="M453 535l-19 -90q-9 1 -23.5 2t-53 -6.5t-69.5 -27.5q-83 -52 -124 -151.5t-11 -148.5q16 -26 36.5 -33.5t51.5 -13.5t59 -26q66 -46 31 -139q-17 -45 -60 -82.5t-108 -37.5q-82 0 -99 37q-6 11 -7.5 26t-0.5 24l2 9q26 -27 113 -27q98 0 121 58q26 64 -61 84 q-11 3 -38 7t-46 8t-42.5 16t-37 29t-21 49t-1.5 76q9 63 44 116.5t81.5 86.5t86.5 52t72 27q-70 1 -132 18q-49 13 -71 70q-12 25 -6 72.5t39 67.5q9 6 24.5 7.5t30.5 -4t22 -22.5t-1 -48q-30 5 -54.5 -15t-20.5 -46q8 -42 136 -41q24 0 63.5 4.5t66.5 8.5z" />
<glyph unicode="&#x3b7;" d="M555 142q-25 -46 -50 -79t-40 -47t-35.5 -22t-23 -8t-16.5 -1q-17 -2 -37 5.5t-27 25.5q-4 21 -5.5 34.5t6 46t13.5 54t17 59t17 60.5q38 150 8 157q-22 7 -51.5 -2t-55.5 -27t-48.5 -37.5t-36.5 -33.5l-13 -14q-29 -111 -63 -313q-10 4 -44.5 4t-49.5 -6q20 40 69 248 q34 150 27 185q-4 21 -45 19l6 28q15 -5 62 -5.5t84 9.5v1q-26 -64 -37 -133q32 37 101.5 87t114.5 54q79 6 82 -54.5t-45 -214.5q0 -2 -1 -4q-35 -127 -35 -145q0 -20 20 -22h8q22 0 46.5 24.5t35.5 44t18 34.5z" />
<glyph unicode="&#x3b8;" horiz-adv-x="602" d="M634 471l-6 -30q-2 -1 -24.5 -7t-37.5 -9q-6 -52 -18 -95q-54 -198 -123.5 -273t-188.5 -71q-25 1 -48 9t-47.5 26.5t-35 59t-1.5 97.5q3 20 10 42.5t12 36t7 26t-3.5 18t-20.5 6.5q-16 1 -37 -19t-34 -40l-13 -21l-13 12q19 44 51 86q17 21 45.5 40.5t60.5 15.5 q45 -6 56.5 -35t-9.5 -107q-7 -22 -12 -42.5t-10.5 -47.5t-6 -49.5t3.5 -42.5t16.5 -32t32.5 -13q21 -1 39.5 2.5t34 15t28 22t24.5 33t20.5 38t18 48t15 51.5t14.5 59t13 61.5t13 67.5q-2 0 -23.5 -4.5t-33 -5.5t-35.5 -4t-42 -1.5t-41 4.5t-44.5 11.5t-41.5 20.5 q-30 20 -39.5 58.5t5.5 83.5q26 74 82 105.5t155 29.5q52 -1 89 -20.5t55 -53t25 -79t0 -97.5zM466 440q11 77 12 131t-18.5 83t-63.5 28q-128 -2 -146 -136q-8 -54 19 -83q39 -44 188 -24q6 1 9 1z" />
<glyph unicode="&#x3b9;" horiz-adv-x="292" d="M276 143q-82 -159 -162 -159q-63 0 -69 54q-5 60 31 209l17.5 70t18.5 77t5 36q-3 19 -44 19l6 29q5 -4 59.5 -3.5t83.5 9.5q-66 -224 -81 -292q-2 -12 -6.5 -30.5t-7 -29.5t-5 -25t-1.5 -22.5t3.5 -17t9 -13t17.5 -5.5q24 -1 49 26.5t51 76.5z" />
<glyph unicode="&#x3ba;" horiz-adv-x="564" d="M555 434q-8 -37 -106.5 -91.5t-151.5 -74.5l9 -22q9 -22 23.5 -54t26.5 -51q28 -45 44.5 -60.5t38.5 -14.5q47 6 72 85l24 -9q-20 -70 -55.5 -113t-68.5 -43q-26 0 -49.5 13t-39.5 33.5t-25.5 36t-16.5 30.5l-67 135l-73 -30q-23 -120 -35 -206q-25 5 -44 5q-31 0 -51 -5 q28 85 62 249q33 166 30 183q-5 19 -43 19l6 29q16 -5 62 -5.5t84 9.5q-16 -44 -36 -127t-27 -118q76 30 132 59q49 26 91 57t51 48q8 20 7.5 33t-5.5 19l-4 6q26 20 74 24q10 1 24 -1.5t27.5 -14.5t9.5 -33z" />
<glyph unicode="&#x3bb;" horiz-adv-x="566" d="M554 158q-17 -48 -37 -83t-33.5 -51.5t-31.5 -26t-23.5 -10.5t-16.5 -2q-80 0 -80 106q-3 174 18 410q1 3 -42 -85t-104.5 -213.5t-99.5 -202.5l-24 2q-25 1 -51.5 1.5t-46.5 -3.5q10 16 99.5 151t174.5 262t85 126v12q0 12 -2 30t-6.5 36t-15 32.5t-25.5 18.5 q-22 5 -37 -2t-21.5 -22t-8.5 -27t-3 -25q-1 0 -8 -2t-12 -2h-12.5t-14.5 2.5t-13 7.5q-22 17 -8 49.5t45 46.5q47 25 112 3q22 -6 49 -30t39 -69q26 -92 24 -230q-1 -26 -2.5 -58.5t-2.5 -54.5t-1.5 -48.5t-1 -44t0.5 -36t3 -30t5 -21t8 -14t12 -4.5q24 0 49.5 41t32.5 66z " />
<glyph unicode="&#x3bc;" horiz-adv-x="576" d="M560 142q-87 -159 -162 -159q-65 0 -70 57q-5 47 4 56q-115 -124 -190 -110q-72 12 -62 151q-30 -124 -22 -182t49 -89q22 -14 67 -11q-1 -3 -3.5 -8t-10.5 -18t-17.5 -23t-25 -18t-32.5 -8q-29 0 -48.5 14.5t-25.5 35.5t-9 44t0 39q2 18 16.5 78.5t36 143t27.5 109.5 q37 155 41 229q49 -9 108 3q-45 -109 -81 -277q-13 -50 -11 -82.5t9.5 -46t22.5 -23.5q11 -11 29 -7.5t30 10.5t32 21q22 16 41 34.5t27.5 29t7.5 10.5q67 275 67 327q55 -10 107 1q-39 -102 -82 -273q-6 -23 -9 -35t-6.5 -31.5t-3.5 -30t1 -22.5t7 -18t16 -8q22 -4 49 23 t49 72z" />
<glyph unicode="&#x3bd;" horiz-adv-x="503" d="M490 419q-2 -22 -21 -57t-39 -63t-60 -80q-11 -14 -16 -21q-126 -169 -141 -198h-2q-2 0 -4.5 0.5t-6.5 1t-8.5 0.5h-9.5q-23 0 -34 -2q-47 355 -69 409q-9 25 -24.5 32t-38.5 7l5 29q5 -4 62.5 -3.5t87.5 9.5q0 -31 7.5 -101.5t20.5 -171t18 -149.5q151 239 158 324 q2 17 0.5 30t-4.5 22.5t-7 16t-6 9.5l-2 3l11 4q11 3 28.5 7.5t31.5 6.5q3 3 14 0.5t23 -6t20 -19.5t6 -40z" />
<glyph unicode="&#x3be;" horiz-adv-x="452" d="M501 617q1 0 -3 -18.5t-8 -36.5l-4 -18q-1 0 -26.5 3t-49.5 4.5t-58.5 -2t-61 -13t-49 -32.5t-29.5 -58q-5 -24 4.5 -42.5t26 -28t37.5 -15.5t34.5 -7.5t21.5 -1.5h96l-16 -70q-68 12 -121 -1q-126 -30 -153 -120q-16 -50 9 -73.5t55 -24.5q34 -2 85.5 -14.5t68.5 -37.5 t18 -51t-6 -45q-15 -62 -67.5 -97.5t-107.5 -35.5q-83 0 -100 37q-5 11 -6 26.5t1 24.5l1 9q26 -27 112 -27q110 -4 124 63q9 36 -25 54.5t-103 17.5q-80 -1 -129 33t-38 109q8 54 38 92.5t75.5 58t90 28t95.5 9.5q-100 0 -164.5 35t-50.5 101q12 63 88 106q-44 -5 -78 8 q-36 16 -32 57t41 67q19 12 42.5 18t39.5 -8.5t5 -56.5q-32 -4 -47.5 -21.5t-6.5 -34.5q10 -16 51 -12q4 2 12.5 6t37 14t58 15t77.5 9.5t95 -2.5z" />
<glyph unicode="&#x3bf;" horiz-adv-x="550" d="M513 228q-12 -72 -45.5 -124t-78.5 -77.5t-89 -36t-86 -6.5q-88 8 -136 83.5t-32 172.5q21 125 96 183.5t188 53.5h1q22 2 49 -5.5t55 -25t48.5 -47.5t30 -72t-0.5 -99zM410 201q12 65 11 120.5t-27.5 92t-74.5 36.5q-60 -1 -103 -46t-63 -124q-21 -88 -12.5 -147.5 t32.5 -90t55 -33.5q61 -4 109.5 43.5t72.5 148.5z" />
</font>
</defs>
</svg>
