<?xml version="1.0" standalone="no"?>
<!DOCTYPE svg PUBLIC "-//W3C//DTD SVG 1.1//EN" "http://www.w3.org/Graphics/SVG/1.1/DTD/svg11.dtd" >
<svg xmlns="http://www.w3.org/2000/svg">
<metadata></metadata>
<defs>
<font id="gfs_artemisiabold_italic" horiz-adv-x="624" >
<font-face units-per-em="1000" ascent="800" descent="-200" />
<missing-glyph horiz-adv-x="320" />
<glyph unicode="ff" horiz-adv-x="698" d="M814 640q0 -32 -25 -45q-16 -10 -50 -10q-29 0 -54 6q8 24 8 45q0 34 -22 34q-4 0 -12 -2q-36 -12 -52 -91l-27 -129h136l-10 -41h-136q-8 -39 -37 -173t-45 -208q-23 -109 -52 -154q-61 -103 -194 -103q-68 0 -93 14q-17 11 -23 35q-58 -49 -149 -49q-68 0 -93 14.5 t-25 51.5q0 30 25 45q16 9 50 9q26 0 54 -5q-8 -24 -8 -45q0 -34 22 -34q3 0 13 2q38 12 55 92l104 508h-90l9 41h91q19 95 47 138q61 91 193 91q66 0 92 -14q12 -8 17 -20q61 63 164 63q66 0 91.5 -15t25.5 -51zM479 558q-35 -2 -66 4q7 21 7 45q0 34 -22 34q-2 0 -12 -2 q-34 -10 -51 -91l-21 -100l136 1q5 27 29 109zM335 -101l104 509l-133 -1l-83 -381l-14 -61q-10 -42 -28 -76q33 3 72 -5q-9 -22 -9 -45q0 -34 23 -34q3 0 13 2q39 14 55 92z" />
<glyph unicode="fi" horiz-adv-x="719" d="M703 154q-27 -53 -54 -88.5t-51.5 -51t-37 -20.5t-30.5 -9q-30 -7 -69 7.5t-44 53.5q-8 75 31 215q23 89 39 167q-60 1 -155 0q1 1 -43 -197t-46 -204q-19 -91 -38 -131q-63 -139 -221 -139h-1q-71 0 -97 15q-23 13 -26 47.5t26 54.5q36 19 110 4q-10 -18 -9 -50.5 t23 -32.5q50 -1 71 99q110 532 110 533h-93l11 45h92q28 130 74 188q61 76 186 83q130 8 169 -15q23 -14 26 -50t-26 -55q-18 -11 -52.5 -11t-53.5 7q8 22 -9 52.5t-50 29.5q-42 -1 -65.5 -31t-29.5 -63l-29 -135l157 6q84 3 156 27q-48 -128 -92 -297q-8 -31 -12 -54 t-4.5 -45t8 -33.5t25.5 -10.5q19 1 44.5 28.5t51.5 72.5z" />
<glyph unicode="fl" horiz-adv-x="709" d="M697 709q-17 -47 -78 -306q-58 -245 -63 -278q-7 -41 -7 -49q0 -21 25 -22q31 -4 89 84l23 -15q-80 -139 -183 -138q-78 1 -71 73q4 56 55 278q52 234 58 282q-13 -33 -71 -33q-28 0 -54 6q8 24 8 45q0 34 -22 34q-4 0 -12 -2q-36 -12 -52 -91l-27 -129h136l-10 -41h-134 l-84 -381q-23 -108 -51 -154q-63 -103 -195 -103q-68 0 -93 14.5t-25 51.5q0 30 25 45q16 9 50 9q26 0 54 -5q-8 -24 -8 -45q0 -34 22 -34q3 0 13 2q38 12 55 92l107 508h-91l8 41h91q23 106 51 152q64 106 195 106q41 0 59 -2q42 -6 65 -29q38 5 142 34z" />
<glyph unicode="ffi" horiz-adv-x="1055" d="M1039 154q-27 -53 -54 -88.5t-51.5 -51t-37 -20.5t-30.5 -9q-30 -7 -69 7.5t-44 53.5q-8 75 31 215q23 89 39 167q-60 1 -155 0q1 1 -43 -197t-46 -204q-19 -91 -38 -131q-63 -139 -221 -139h-1q-71 0 -97 15q-23 13 -26 47.5t26 54.5q36 19 110 4q-10 -18 -9 -50.5 t23 -32.5q50 -1 71 99q111 533 111 534h-200q-8 -35 -45 -213.5t-49 -230.5q-47 -210 -219 -225q-36 -4 -74.5 0t-54.5 13q-23 13 -26 47.5t26 54.5q33 18 109 4q-11 -21 -8 -55t31 -27q12 3 22.5 11.5t18 22.5t13 28t10.5 35.5t8 36t7 38t6 34.5q73 352 89 426h-95l10 44 h95q17 81 33 122t49 77q68 73 206 72q1 0 16 0.5t21 0t21 -1.5t25 -4t23.5 -8t25 -12.5t22.5 -18.5q35 22 66 31.5t87 12.5q133 6 169 -15q23 -14 26 -50t-26 -55q-18 -11 -52.5 -11t-53.5 7q8 22 -9 52.5t-50 29.5q-42 -1 -65.5 -31t-29.5 -63l-29 -135l157 6q84 3 156 27 q-48 -128 -92 -297q-8 -31 -12 -54t-4.5 -45t8 -33.5t25.5 -10.5q19 1 44.5 28.5t51.5 72.5zM592 643q-26 32 -49 46.5t-61 12.5q-46 -3 -70.5 -27.5t-39.5 -66.5q-16 -47 -35 -136h198q23 96 57 171z" />
<glyph unicode="ffl" horiz-adv-x="1083" d="M785 622q17 55 1 76q-11 11 -29 4q-36 -12 -54 -96l-29 -134h143v0l-10 -45h-141l-29 -131q-9 -42 -25 -116t-24.5 -113t-8.5 -40q-20 -94 -41 -138q-40 -80 -112 -112q-48 -21 -108 -21q-71 0 -97 15q-23 14 -26 48.5t26 53.5q4 2 5 3q37 16 105 2q-4 -12 -6.5 -26.5 t-1.5 -30t10 -23t26 -1.5q1 0 2 0.5t2 0.5q36 17 53 96l38 179q74 348 74 355q-101 -2 -200 0q-8 -35 -45 -213.5t-49 -230.5q-47 -210 -219 -225q-36 -4 -74.5 0t-54.5 13q-23 13 -26 47.5t26 54.5q33 18 109 4q-11 -21 -8 -55t31 -27q12 3 22.5 11.5t18 22.5t13 28 t10.5 35.5t8 36t7 38t6 34.5q73 352 89 426h-95l10 44h95q17 81 33 122t49 77q71 77 206 76q30 0 73 -17t71 -45q63 58 162 58q31 0 46.5 -1t40 -8.5t39.5 -22.5q38 4 149 35q-18 -48 -80 -313.5t-68 -301.5q-1 -7 -2.5 -16t-2 -13.5t-1.5 -11t-0.5 -9.5t0.5 -7.5t1.5 -6 t3 -4t4.5 -3.5t7 -2t9 -2q20 -2 41 19t53 70l24 -15q-39 -71 -84.5 -109.5t-107.5 -37.5q-39 1 -59.5 21.5t-16.5 56.5q7 64 59 295t60 295q-7 -17 -22 -25q-34 -19 -104 -5v1zM597 641q-48 58 -118 54q-46 -3 -69.5 -24.5t-37.5 -62.5q-16 -47 -35 -136h200q2 6 7.5 28.5 t7.5 30.5t7.5 27t10 29.5t12 25.5t15.5 28z" />
<glyph unicode=" "  horiz-adv-x="320" />
<glyph unicode="&#x09;" horiz-adv-x="320" />
<glyph unicode="&#xa0;" horiz-adv-x="320" />
<glyph unicode="!" horiz-adv-x="303" d="M330 592q-11 -52 -36.5 -123.5t-63.5 -167.5t-49 -126h-38q2 33 4.5 126.5t7.5 166t16 124.5q8 33 36 56.5t60 23.5q35 0 53 -23t10 -57zM205 50q-6 -28 -30 -47t-52 -19t-43 19t-9 47q5 27 29 46.5t52 19.5q27 0 42.5 -19t10.5 -47z" />
<glyph unicode="&#x22;" horiz-adv-x="428" d="M374 628q-6 -29 -19.5 -68.5t-33 -90.5t-26.5 -69h-50q2 21 3.5 69.5t4.5 89.5t9 69q4 20 24.5 34.5t40.5 14.5q21 0 36 -15t11 -34zM215 628q-6 -29 -19.5 -68t-34 -91.5t-26.5 -68.5h-49q1 16 2.5 68.5t5 91.5t9.5 68q4 19 24 33.5t40 14.5t36 -14.5t12 -33.5z" />
<glyph unicode="#" horiz-adv-x="733" d="M735 456l-43 -84h-143l-62 -103h153l-46 -82h-153l-108 -188h-89l108 188h-133l-108 -188h-90l109 188h-150l45 82h150l62 103h-161l44 84h160l123 218h90l-124 -218h133l124 218h91l-125 -218h143zM460 372h-134l-61 -103h133z" />
<glyph unicode="$" horiz-adv-x="687" d="M716 713q-12 -64 -17 -105l-7 -124h-29q-19 159 -157 182l-48 -229q36 -16 51 -26q77 -46 107 -77q67 -69 47 -162q-13 -61 -62.5 -104t-110 -61.5t-128.5 -21.5l-14 -67h-41l14 67h-2q-45 2 -95.5 19t-61.5 17q-28 0 -36 -34h-27q11 64 14 104q2 21 2 50t-1 48v19h29 q37 -182 171 -185q10 0 15 1l58 270q-5 3 -24 13.5t-30 16.5q-77 41 -107.5 87t-12.5 118q19 77 91.5 127t164.5 49h5l11 54h41l-12 -57q27 -4 75 -17t64 -13q5 0 9.5 1.5t8 3t6 5.5t4 6t3.5 7t2.5 6.5t1.5 6.5l1 5h27zM466 670h-4q-40 0 -75.5 -32t-42.5 -71 q-8 -40 13 -65.5t64 -46.5zM504 142q8 35 -10 64.5t-71 64.5l-52 -240q49 14 87 46.5t46 64.5z" />
<glyph unicode="%" horiz-adv-x="705" d="M474 505q-13 -64 -64 -107.5t-112 -43.5q-53 0 -84.5 39t-19.5 98q13 63 64.5 106.5t110.5 43.5q54 0 86 -39.5t19 -96.5zM735 693l-530 -709h-37l530 709h37zM676 152q-13 -64 -64.5 -108t-111.5 -44q-54 0 -85 39.5t-19 98.5q14 64 62.5 107.5t111.5 42.5q61 -1 90 -39 t16 -97zM394 497q5 24 7.5 40.5t2 38t-11 32.5t-30.5 11q-63 0 -88 -123q-4 -19 -5.5 -26.5t-4 -25.5t-1 -27t5 -20.5t12.5 -16.5t23 -5q65 0 90 122zM596 142q4 18 5.5 27.5t3.5 27t0 27t-5.5 21t-13 16.5t-23.5 5q-62 0 -87 -124q-6 -25 -8 -40.5t-2.5 -37t10 -32.5 t30.5 -11q64 0 90 121z" />
<glyph unicode="&#x26;" horiz-adv-x="784" d="M860 446l-7 -32q-74 -3 -143 -89q-112 -140 -153 -175q42 -64 137 -64q53 0 94 24l2 -14q-1 -1 -9.5 -11.5t-13 -15.5t-15.5 -16.5t-20.5 -18t-24 -16t-29 -15t-34 -10.5t-39.5 -6q-85 -8 -145 69q-94 -72 -201 -72q-125 0 -164 46.5t-14 151.5q8 36 29.5 67t56 55.5 t61.5 39.5t68 35q-16 100 13 166q28 65 91.5 112t124.5 47q47 0 75.5 -32.5t18.5 -80.5q-6 -27 -20 -50t-42 -45t-43.5 -33t-55 -33.5t-46.5 -26.5q50 -145 120 -221q35 33 79 93t52 107q4 18 -8.5 26t-40.5 6l5 27q90 -1 117 -1q50 0 124 6zM519 573q6 27 -8 54t-38 27 q-33 0 -52.5 -28.5t-23.5 -68.5q-5 -53 7 -119q99 58 115 135zM436 89q-87 97 -133 252q-81 -65 -91 -113q-16 -75 16.5 -120t113.5 -49q44 -2 94 30z" />
<glyph unicode="'" horiz-adv-x="270" d="M219 583q-12 -56 -49 -92t-102 -70l-12 30q47 27 69.5 46.5t31.5 43.5q5 17 -14 23q-4 2 -16 0t-22 1q-28 11 -16 55q6 25 27 39.5t43 14.5q35 0 52 -24.5t8 -66.5z" />
<glyph unicode="(" horiz-adv-x="236" d="M358 666q-79 -71 -117 -162.5t-66 -219.5q-16 -79 -22 -131.5t4 -115.5t43 -113l-28 -23q-174 141 -122 390q53 245 288 396z" />
<glyph unicode=")" horiz-adv-x="301" d="M245 291q-54 -248 -288 -390l-18 23q78 72 115 156t62 204q13 61 19.5 103.5t8.5 96t-10 99t-38 83.5l29 21q172 -152 120 -396z" />
<glyph unicode="*" horiz-adv-x="395" d="M434 563q-5 -24 -38.5 -38.5t-82.5 -24.5t-60 -14q10 -5 53.5 -14.5t71.5 -23.5t23 -38q-3 -15 -19 -27t-31 -12t-35 20.5t-41 48.5t-30 36q-2 -22 5 -72t3 -71q-4 -16 -19 -30t-31 -14q-17 0 -25.5 13.5t-4.5 30.5q5 25 30 73t31 70q-12 -8 -44.5 -36.5t-61 -49.5 t-43.5 -21q-17 0 -27 12t-6 28q5 23 38 37.5t81.5 24t59.5 14.5q-10 5 -54 14t-71 23.5t-22 39.5q4 16 19.5 27.5t31.5 11.5q14 0 33.5 -21t40 -49t29.5 -36q3 22 -2 71t1 70q4 18 17 32t31 14q17 0 25 -14t4 -32q-5 -24 -31 -71.5t-32 -69.5q12 8 44 36t60.5 49.5 t42.5 21.5q17 0 28.5 -11.5t7.5 -27.5z" />
<glyph unicode="+" horiz-adv-x="538" d="M520 283l-17 -81h-199l-44 -202h-80l43 202h-199l17 81h199l42 197h81l-42 -197h199z" />
<glyph unicode="," horiz-adv-x="281" d="M216 11q-10 -49 -53 -90t-97 -64l-12 24q29 17 43.5 26t34 29.5t23.5 41.5q2 8 -1.5 14.5t-10.5 6.5q-5 0 -14.5 -4t-14.5 -4q-17 0 -26.5 11.5t-5.5 29.5q6 24 26 40t44 16q36 0 53.5 -20.5t10.5 -56.5z" />
<glyph unicode="-" horiz-adv-x="341" d="M277 248l-15 -74h-228l15 74h228z" />
<glyph unicode="." horiz-adv-x="271" d="M207 50q-6 -28 -30 -47t-52 -19t-43 19t-9 47q5 27 29 46.5t51 19.5q28 0 43.5 -19t10.5 -47z" />
<glyph unicode="/" horiz-adv-x="442" d="M483 649l-396 -737h-75l394 737h77z" />
<glyph unicode="0" horiz-adv-x="598" d="M575 352q-15 -70 -40 -131t-64.5 -117t-99.5 -89t-134 -33q-72 0 -119.5 29t-66 78t-21.5 113t14 132q35 165 126.5 269.5t221.5 104.5q19 0 37 -2.5t43 -11.5t44.5 -23.5t38 -42t27.5 -63.5t8 -91t-15 -122zM442 407q52 265 -59 263q-41 -1 -76.5 -39t-59 -99t-36 -106 t-21.5 -91q-31 -156 -23 -223q11 -91 78 -91q125 0 194 371z" />
<glyph unicode="1" horiz-adv-x="598" d="M349 342v-1q-58 -250 -41 -277q11 -17 21 -23t31 -7.5t32 -4.5l-6 -31q-61 9 -164.5 10t-171.5 -8l8 30q34 1 50.5 7.5t45.5 28.5q26 19 73 267l56 264h-1l-124 -44l9 42l3 1l268 136z" />
<glyph unicode="2" horiz-adv-x="598" d="M571 584q12 -49 -12.5 -103t-68.5 -99.5t-108 -93t-121 -82.5t-116 -70q-28 -16 -40 -23q210 -1 227 0h10q10 0 15 1t16 3t18.5 6.5t17.5 11t19 18t16 26.5q46 -1 46 0q-17 -41 -33.5 -85.5t-24.5 -68.5l-8 -24h-449q17 80 18 80q5 3 31.5 22.5t45.5 33.5t48 36t57 45.5 t54 46.5q74 67 124 132.5t64 116.5q38 148 -69 150q-60 1 -102 -55t-9 -121q-25 -18 -79 -14.5t-63 29.5q-23 59 16 112q30 41 88.5 64t128.5 26q53 2 89.5 -1t69.5 -15t53.5 -38t30.5 -67z" />
<glyph unicode="3" horiz-adv-x="598" d="M595 541q-25 -137 -257 -171l29 -3q29 -3 48 -6.5t49.5 -16.5t47.5 -31t27 -51.5t3 -76.5q-16 -102 -110.5 -153t-228.5 -50q-27 0 -51 3t-54.5 12.5t-50.5 25t-30 45t-2 68.5q7 28 33.5 50t54.5 22q63 0 77 -28q-23 -33 -28.5 -63t3 -49.5t22 -31.5t27.5 -14 q85 -14 150 51.5t45 144.5q-17 67 -60.5 94.5t-135.5 20.5q14 67 15 67q95 0 144 22q21 10 38 24q57 49 63 121.5t-55 94.5q-33 10 -76 -5.5t-63.5 -49.5t5.5 -85q-31 -25 -85 -22.5t-61 41.5q-9 46 22.5 82t79.5 58q46 21 96 24t100 -2q47 -2 87 -17t66 -53t16 -92z" />
<glyph unicode="4" horiz-adv-x="598" d="M529 194l-11 -54h-106q-2 -6 -4.5 -15t-5.5 -31.5t6 -29.5q9 -12 18.5 -18.5t16.5 -8t22.5 -3.5t26.5 -5l-7 -31q-61 9 -162.5 10t-168.5 -8l7 30q33 1 49.5 7.5t46.5 28.5q18 12 32 74h-302l4 21h-1l456 532h82l-106 -499h107zM379 544l-296 -348h221z" />
<glyph unicode="5" horiz-adv-x="598" d="M586 693q0 -1 -14 -29t-28 -55l-14 -27h-161q-161 1 -163 1q-29 -144 -30 -144q1 0 46.5 12t73.5 16.5t78 -1t91 -28.5q75 -46 72 -151t-68 -187q-59 -75 -128.5 -98t-169.5 -20q-52 1 -91 22t-56 50.5t-11 65.5t38 66q28 25 71.5 23t60.5 -26q-22 -29 -29.5 -58.5 t-2.5 -51.5t20.5 -36.5t38.5 -15.5q53 -4 94.5 35t61 94.5t16.5 107.5q-2 49 -19 82t-41.5 46.5t-54 18.5t-58 0t-52.5 -11t-38.5 -12t-14.5 -7q29 84 48 179t15 139h419z" />
<glyph unicode="6" horiz-adv-x="598" d="M611 583q-7 -30 -37.5 -48.5t-67 -17t-60.5 23.5q30 45 30.5 76.5t-19 43t-49.5 8.5t-57 -21q-18 -12 -34.5 -31.5t-28.5 -39.5t-23.5 -47.5t-18.5 -48.5t-14.5 -48.5t-10.5 -42t-7.5 -36t-4.5 -22.5l7 6q6 7 17.5 16.5t26.5 20.5t37 21t45 16q76 20 127.5 1t77 -60.5 t21.5 -104.5t-39 -131q-38 -74 -105.5 -104.5t-176.5 -31.5q-98 -1 -146.5 58.5t-53.5 151.5q-4 86 29.5 205t101.5 197q58 67 122 90t145 23q35 0 66 -7t57 -20.5t38 -38.5t5 -57zM412 304q-17 50 -59 56t-84.5 -21t-69.5 -69q-8 -32 -10.5 -72t1 -80.5t21 -67.5t46.5 -27 q57 0 99.5 53t56 119t-0.5 109z" />
<glyph unicode="7" horiz-adv-x="598" d="M617 691q-103 -126 -227 -389t-118 -302h-6h-17h-23.5h-27.5h-28.5h-27.5h-23h-15h-6q44 113 171.5 292.5t220.5 287.5q-1 1 -43 1.5t-94.5 0.5t-99.5 -1q-18 -1 -31.5 -5.5t-21.5 -13.5t-12 -15.5t-8 -18t-5 -12.5l-43 -1l-2 1l14 44q14 45 27.5 88.5t14.5 42.5 q0 1 108 1.5t215.5 0t107.5 -1.5z" />
<glyph unicode="8" horiz-adv-x="598" d="M569 189q1 -107 -69.5 -155.5t-184.5 -49.5q-121 -2 -188.5 44.5t-67.5 142.5q0 73 47.5 127t127.5 61q-5 3 -38 24.5t-44.5 31.5t-33 30.5t-30 42.5t-8.5 48q0 87 65.5 126t170.5 42q97 2 162.5 -40t66.5 -126q1 -60 -45 -101.5t-103 -47.5q172 -79 172 -200zM424 533 q5 63 -24 99t-86 36q-60 0 -89.5 -37t-22.5 -82q5 -24 25.5 -47.5t38 -35t50 -30t34.5 -19.5q29 11 50 46t24 70zM441 161q0 21 -7.5 40t-15.5 31.5t-28 29.5t-30 24t-38.5 25.5t-36.5 23.5q-52 -17 -74 -70.5t-21 -101.5q1 -28 13.5 -59t41.5 -57t66 -26q68 0 99 41t31 99z " />
<glyph unicode="9" horiz-adv-x="598" d="M603 495q4 -84 -29 -203.5t-101 -197.5q-58 -67 -122 -90t-145 -23q-76 -1 -128 30t-38 92q11 47 69 62t95 -20q-23 -36 -28.5 -64t5.5 -42t30 -20t43 -0.5t46 19.5q24 16 44.5 44.5t34 57t26 66.5t18.5 62t12 54t7 32l-6 -6q-7 -7 -18.5 -16.5t-27 -20.5t-37 -21 t-44.5 -16q-76 -19 -127 -1.5t-76 57.5t-21 101t38 129t106.5 107.5t174.5 38.5q57 0 96.5 -17t60.5 -48t30.5 -65.5t11.5 -80.5zM452 417q8 33 11.5 72t1.5 80t-18 68.5t-46 27.5q-45 1 -84 -31.5t-59 -78.5t-28.5 -95t7.5 -82q20 -48 62 -53.5t84 22t69 70.5z" />
<glyph unicode=":" horiz-adv-x="226" d="M237 395q-5 -23 -26.5 -40.5t-45.5 -17.5q-23 0 -37 17.5t-9 40.5q5 24 26.5 41.5t44.5 17.5t37 -17.5t10 -41.5zM163 45q-5 -24 -26.5 -41t-45.5 -17q-23 0 -37 17t-9 41q5 23 26 41t45 18q23 0 37.5 -18t9.5 -41z" />
<glyph unicode=";" horiz-adv-x="273" d="M230 28q-11 -54 -54.5 -99t-100.5 -71l-35 15q26 15 38 23t34.5 25t34.5 34t16 36q3 9 0 17q-19 -8 -26 -8q-22 0 -36 14t-9 36q5 28 31.5 47.5t54.5 19.5q32 0 45.5 -28t6.5 -61zM284 395q-5 -23 -26.5 -40.5t-45.5 -17.5q-23 0 -37 17.5t-9 40.5q5 24 26.5 41.5 t44.5 17.5t37 -17.5t10 -41.5z" />
<glyph unicode="&#x3c;" horiz-adv-x="331" d="M387 598l-28 -120l-240 -196l156 -197l-23 -122l-230 295l10 48z" />
<glyph unicode="=" horiz-adv-x="563" d="M546 309h-502l18 84h502zM504 110h-502l18 85h502z" />
<glyph unicode="&#x3e;" horiz-adv-x="330" d="M312 306l-11 -48l-353 -295l26 122l240 197l-157 196l26 120z" />
<glyph unicode="?" horiz-adv-x="459" d="M456 528q-9 -43 -38.5 -81t-66.5 -67.5t-74.5 -59.5t-68 -70.5t-40.5 -87.5h-25q14 81 15 83q9 41 28.5 76t42 60.5t45 49.5t41 54.5t25.5 63.5q8 41 -12 62.5t-55 22.5q-34 0 -63 -16.5t-35 -42.5q-3 -13 2 -24.5t3 -21.5q-4 -18 -25.5 -29t-51.5 -11q-32 0 -49.5 14.5 t-12.5 37.5q9 42 53 72.5t92.5 42.5t91.5 12q76 0 134 -36.5t44 -103.5zM197 46q-6 -26 -27 -43.5t-46 -17.5q-26 0 -39.5 17.5t-9.5 43.5q6 25 28 42t47 17t39 -17t8 -42z" />
<glyph unicode="@" horiz-adv-x="695" d="M688 381q-22 -102 -108 -179.5t-163 -77.5q-33 0 -46.5 23.5t-7.5 54.5q-26 -25 -41.5 -38t-39 -24t-48.5 -11q-54 0 -81 38.5t-15 96.5q17 78 92 144t154 66q33 0 50 -19t15 -52h3l30 62h81l-128 -261q-23 -52 11 -52q46 0 110 68.5t83 158.5t-38.5 155t-168.5 65 q-128 0 -230 -80.5t-128 -205.5q-27 -127 42.5 -206t199.5 -79q73 0 141.5 35t121.5 97h57q-60 -81 -150.5 -129.5t-183.5 -48.5q-146 0 -229 91.5t-53 232.5q31 143 150 241.5t265 98.5q79 0 142.5 -32t95 -93.5t15.5 -139.5zM428 380q5 25 -2.5 47t-32.5 22 q-55 0 -110.5 -76.5t-68.5 -136.5q-6 -32 2 -56.5t38 -24.5q38 0 78 44t64.5 94.5t31.5 86.5z" />
<glyph unicode="A" horiz-adv-x="785" d="M745 28l-7 -28q-118 6 -178 6l-166 -6l7 28q81 0 90 48q3 16 -1.5 49.5t-10.5 58.5l-6 26l-242 1q-67 -104 -76 -147q-4 -18 16.5 -27t51.5 -9l-7 -28q-62 4 -110 4l-144 -4l6 28q8 0 21 0.5t41 10.5t42 29q45 62 144 221.5t176 288.5l76 129h71q0 -2 26.5 -146 t56.5 -301t38 -181q15 -49 85 -51zM466 259l-56 266l-154 -266h210z" />
<glyph unicode="B" horiz-adv-x="759" d="M741 558q0 -59 -43.5 -101.5t-103.5 -61.5t-125 -18q237 -8 237 -144q0 -55 -25 -98t-62 -67.5t-85 -40.5t-88.5 -21.5t-77.5 -5.5h-288h-73l7 31q63 2 99 35q22 20 74 271q47 223 47 278q0 17 -9 28t-27 15t-26 5t-25 2l6 28q9 -1 212.5 -2.5t212.5 -2.5 q68 -6 115.5 -39t47.5 -91zM331 389q44 0 85.5 7.5t82 24.5t65 50.5t24.5 79.5q0 43 -27.5 67.5t-68.5 27.5q-19 2 -46 2.5t-43 0.5h-16l-11 -51q-11 -51 -25 -116.5t-20 -92.5zM537 194q5 25 5 42q0 32 -13.5 55t-31 34t-41 17.5t-36 7.5t-23.5 1l-74 -2l-65 -306 q30 -3 49 -3q53 0 97.5 13t82.5 49t50 92z" />
<glyph unicode="C" horiz-adv-x="753" d="M765 707l-41 -236h-28q-2 87 -45 139.5t-130 52.5q-205 0 -272 -317q-8 -37 -11.5 -75.5t1.5 -82t19.5 -77t47.5 -55.5t81 -22q24 0 47 4t41.5 9t39 14.5t33.5 16.5t30 19t24.5 18t22 17.5t16.5 13.5l22 -28q-1 -2 -14 -14.5t-41 -33t-63.5 -39t-87 -32t-105.5 -13.5 q-77 0 -139 25t-103.5 85.5t-41.5 150.5q0 86 27 161.5t72 129t102.5 92.5t119.5 58t122 19q55 0 114.5 -17.5t61.5 -17.5q40 0 56 35h22z" />
<glyph unicode="D" horiz-adv-x="806" d="M788 431q0 -189 -135.5 -310t-349.5 -121h-296l6 30q68 2 102 36q7 7 15.5 29.5t16 48.5t15 60t12.5 58t10 49t5 26q46 219 46 278q0 12 -5.5 21t-11.5 13.5t-18.5 7t-18.5 3.5t-20 1h-15l7 32l282 -1q166 -1 259.5 -66.5t93.5 -194.5zM320 38q94 0 165.5 67.5t105 164.5 t33.5 203q0 99 -51.5 137.5t-172.5 38.5q-14 0 -15 -1q-1 0 -33 -152t-63 -304l-31 -153q18 0 39 -0.5t23 -0.5z" />
<glyph unicode="E" horiz-adv-x="758" d="M750 692q-5 -23 -8.5 -40.5t-4.5 -28.5t-4 -40.5t-6 -56.5h-34q-6 37 -16 59.5t-15.5 28.5t-22.5 13.5t-18 7.5q-69 12 -229 12q-25 -123 -54 -258h17q142 0 170 14q17 9 37 35.5t28 57.5h34q0 -1 -31 -123q-10 -41 -17 -87t-9 -54l-36 1q7 71 -25 94q-18 13 -149 13h-29 q-13 -63 -29.5 -138t-25 -115t-8.5 -41q45 0 84 1.5t63 3.5t46.5 5t32 5t23.5 5.5t16 3.5q1 1 15 7t19 8.5t18 12.5t21 20.5t19.5 29t21.5 42.5l35 -1q-9 -28 -19.5 -59.5t-15.5 -47t-11 -37t-12 -45.5h-457h-160l7 30q63 2 100 36q22 21 74 271q47 223 47 278q0 12 -5 21 t-11.5 13.5t-18.5 7t-18.5 3t-19.5 0.5h-15l6 32q66 -1 155 -1z" />
<glyph unicode="F" horiz-adv-x="743" d="M757 694q-17 -77 -28 -179h-26q-7 48 -20 75t-21.5 33t-26.5 12q-35 12 -243 12q-6 -17 -57 -256q163 -5 196 16q40 26 62 90q30 -1 30 0q-22 -70 -35 -132q-6 -30 -11.5 -63t-8 -52t-1.5 -18h-33q14 54 -20 94q-18 21 -192 15q0 -2 -7.5 -36t-14.5 -65t-14.5 -74.5 t-9 -64.5t1.5 -35q24 -35 86 -37l-7 -33q-8 4 -91 8t-110 4q-96 0 -152 -10l7 32q63 2 100 36q17 16 41.5 119t32.5 152q61 267 46 296q-5 9 -13 14.5t-19 8t-18 3.5t-20.5 1h-15.5l6 33q261 -9 606 1z" />
<glyph unicode="G" horiz-adv-x="792" d="M788 372l-5 -29q-45 -2 -76 -34q-9 -9 -20 -48.5t-19 -79.5t-15.5 -81.5t-8.5 -44.5q-2 0 -31 -12t-61.5 -24t-80 -22.5t-87.5 -10.5q-60 0 -114.5 14.5t-100.5 43.5t-73.5 80t-27.5 117q0 124 56.5 230.5t159.5 171t230 64.5q62 0 117 -17.5t63 -17.5q12 0 30 8t26 27 h23q-4 -1 -15 -57t-19 -110.5t-4 -53.5l-28 -1q-6 36 -14.5 61t-28 55.5t-56 47t-88.5 16.5q-74 0 -131.5 -43t-89 -111t-47 -140.5t-15.5 -143.5q0 -199 155 -199q76 3 121 60l7 32q7 31 13 58t11.5 61.5t5.5 52.5q0 17 -7.5 28t-22.5 15t-23.5 5t-24.5 2l8 31 q7 -3 70.5 -5.5t82.5 -2.5q132 0 155 7z" />
<glyph unicode="H" horiz-adv-x="870" d="M928 692l-6 -28q-53 -5 -69 -10t-31 -24q-10 -12 -23 -53.5t-21.5 -79t-20.5 -92t-14 -63.5q-58 -249 -40 -276q11 -17 20.5 -23t31.5 -8t32 -4l-7 -31q-65 8 -171.5 9.5t-178.5 -8.5l7 31q35 1 54.5 8t41.5 28q27 25 77 278h-288q-61 -251 -42 -282q11 -17 21 -23 t31 -7.5t32 -4.5l-6 -31q-61 9 -172.5 10t-178.5 -8l7 30q34 1 50.5 7.5t46.5 28.5q21 16 77 279q0 2 7 35t13.5 65.5t14 77t8.5 69t-3 41.5q-5 13 -15.5 19.5t-19.5 7.5t-24.5 1t-23.5 1l6 30q31 -6 158 -6.5t196 6.5l-6 -32q-6 0 -17.5 -1t-15.5 -1.5t-12 -1t-10.5 -1 t-8 -1.5t-7.5 -2.5t-6 -3.5t-6.5 -4t-5.5 -5l-7 -7q-26 -31 -71 -238h289q45 212 30 240q-6 13 -17 19.5t-19.5 7.5t-24.5 1t-23 1l6 29q30 -6 157 -6.5t198 6.5z" />
<glyph unicode="I" horiz-adv-x="447" d="M505 693l-7 -30q-52 -5 -67 -9t-31 -22q-22 -26 -79 -291q-58 -250 -41 -277q11 -17 21 -23t31 -7.5t32 -4.5l-6 -31q-61 9 -172.5 10t-178.5 -8l7 30q34 1 50.5 7.5t46.5 28.5q24 19 77 282q0 3 7.5 35t14 65t14 76.5t8 68t-3.5 40.5q-6 12 -16.5 18.5t-19.5 7.5 t-24.5 1.5t-22.5 1.5l7 31q30 -6 156.5 -6.5t196.5 6.5z" />
<glyph unicode="J" horiz-adv-x="487" d="M544 692l-6 -29q-71 -3 -99 -32q-6 -6 -14.5 -29.5t-16.5 -53t-17 -67t-15.5 -64.5t-12 -53.5t-5.5 -27.5l-31 -146q-12 -57 -41.5 -98.5t-59 -61t-67 -30.5t-55 -12.5t-34.5 -1.5q-74 0 -88 21q-19 29 -12 49q11 28 29 37q41 23 79 15q-6 -16 -7.5 -32.5t8.5 -32 t36 -13.5q42 4 56 67l54 242q7 29 17.5 82t21.5 126.5t5 85.5q-4 7 -11 12.5t-13 8.5t-17 5t-15.5 2t-16.5 0.5t-13 0.5l7 31q19 -8 189 -8q149 0 165 7z" />
<glyph unicode="K" horiz-adv-x="896" d="M949 692l-6 -32q-5 -1 -21 -1.5t-22.5 -2t-22 -4.5t-29.5 -9.5t-35.5 -17t-48.5 -27t-61 -38.5q-18 -12 -61 -44.5t-76 -59.5l-34 -26q207 -344 220 -356q36 -34 93 -44l-6 -30q-15 5 -182 5q-183 0 -197 -4l7 31h19t25 1t20 4t19.5 9t8.5 16q3 16 -58.5 125t-91.5 155 l-102 -73q-9 -46 -18.5 -94t-15.5 -77t-6 -31q22 -37 93 -39l-7 -30q-18 9 -178 9q-147 0 -171 -7l6 28q56 1 99 39q9 9 22 50.5t22.5 84t19 87.5t10.5 48q11 48 31.5 162.5t14.5 131.5q-4 10 -11.5 16t-18.5 8.5t-18 3.5t-21 1h-16l7 33q15 -7 194 -7q139 0 159 7l-7 -30 q-74 -3 -102 -32q-18 -19 -76 -301q260 193 348 276q29 29 11 43q-15 12 -78 12l6 31q119 -6 177 -6q107 0 166 6z" />
<glyph unicode="L" horiz-adv-x="691" d="M679 190l-61 -190h-614l6 32q64 2 100 34q9 9 22 50.5t22.5 84.5t19 88t10.5 48q60 266 45 296q-6 11 -18.5 17t-20.5 7.5t-27 2.5t-20 1l7 32q18 -8 179 -8t182 8l-7 -31h-11q-11 -1 -14 -1t-13.5 -1t-16 -3.5t-14 -5.5t-16 -8t-13.5 -11q-16 -16 -43 -129t-37 -166 q-3 -11 -18.5 -84.5t-30 -141.5t-13.5 -66h20t44.5 0.5t47.5 1.5q102 8 140 19q92 30 127 123z" />
<glyph unicode="M" horiz-adv-x="1007" d="M226 613q1 15 -7.5 27.5t-19.5 16.5q-15 6 -50 6l5 30q255 -2 256 0l101 -474l313 472l241 1l-5 -30q-63 0 -94 -29q-8 -8 -18 -32.5t-18 -53.5t-16.5 -65.5t-14 -63t-11 -52.5t-5.5 -27q-52 -251 -40 -272q12 -20 32 -26.5t54 -7.5l-8 -35q-8 4 -89 7t-113 3 q-18 0 -79.5 -3.5t-70.5 -6.5l6 32q63 2 101 36q7 4 15.5 25t16 48t15 61.5t12.5 60.5t10 50.5t5 26.5l46 231q-4 -6 -100.5 -148t-179.5 -266.5t-99 -153.5q-5 35 -38 169t-67 263.5t-35 134.5q0 -7 -53 -259q-28 -142 -31 -158q-2 -12 -6 -33t-5.5 -31t-0.5 -22t7 -19 q14 -18 78 -17q0 -2 -1 -5t-2.5 -9.5t-2.5 -10.5v-4q1 0 -14 0h-38t-51 -0.5t-56 -0.5h-51.5t-37.5 1h-15l6 30q71 -3 96 29q17 22 67 245q60 298 60 309z" />
<glyph unicode="N" horiz-adv-x="861" d="M918 693l-2 -7q-1 -8 -2 -15l-2 -7q-63 0 -85 -17q-9 -7 -15 -19t-9 -20t-8.5 -31t-8.5 -33q-16 -61 -36 -157q-3 -15 -24.5 -114.5t-39.5 -183t-20 -98.5h-3h-7h-10h-11.5h-11.5h-9.5h-7.5h-2q-241 398 -333 550q-35 -175 -47 -232q-18 -74 -30 -158q-2 -11 -5 -27 t-5 -25.5t-3 -20.5t1 -18.5t6 -13.5q14 -18 78 -17q0 -2 -1 -5t-2.5 -9.5t-2.5 -10.5v-4q1 0 -14 0h-38t-51 -0.5t-56 -0.5h-51.5t-37.5 1h-15l7 32q74 -3 97 26q13 14 65 246q4 13 30.5 151.5t28.5 157.5q-4 33 -26 42q-5 2 -21 3.5t-30 2.5l-13 1l6 31h229 q27 -54 77 -137.5t122 -197.5t87 -138q13 44 38 171q11 51 27.5 142.5t12.5 104.5q-4 15 -26 21.5t-42 5.5l-20 -1q4 20 6 29h266z" />
<glyph unicode="O" horiz-adv-x="824" d="M797 332q-37 -152 -158.5 -248.5t-272.5 -96.5q-161 0 -242 92.5t-46 252.5q26 121 93 207t156 126.5t193 40.5q73 0 131 -20.5t101 -65.5t54.5 -116.5t-9.5 -171.5zM631 344q13 59 14.5 113t-10 101t-43.5 75.5t-82 29.5t-91 -19.5t-67.5 -51t-48 -77.5t-33.5 -87 t-22 -91q-16 -84 -9.5 -152.5t42.5 -111t95 -41.5q83 1 154.5 92.5t100.5 219.5z" />
<glyph unicode="P" horiz-adv-x="721" d="M704 495q-18 -94 -89.5 -143.5t-172.5 -55.5l-134 -2l-10 -52q-11 -51 -19.5 -108t-1.5 -68q24 -36 84 -38l-6 -30q-16 8 -172.5 8.5t-178.5 -6.5l8 29q62 3 98 37q17 16 41.5 119t32.5 152q61 267 46 296q-8 14 -26.5 21t-26.5 7h-32l5 30v0v0v0v0h1v0v0h1v0h1v0h1v0h1 v0h1h1v0h1h1h1h1h1h1h1h1h1h1h1h1h1h1h1h1h1h1h1h1h1h1h1h1h1h1h1h1h1h1h1h1h1h1h1h1h1h1h1h1h1h1h1h1h1h1h1h1h1h1h1h1h1h1h1h1h1h1h1h1h1h1h1h1h1h1h1h1h1h1h1h1h1h1h1h1h1h1h1h1h1h1h1h1h1h1h1h1h1h1h1h1h1h1h1h1h1h1h1h1h1h1h1h1h1h1h1h1h1h1h1h1h1h1h1h1h1h1h1h1h1h1h1 h1h1h1h1h1h1h9q197 2 265 -5q77 -8 118.5 -61t25.5 -130zM555 493q21 119 -69 150q-9 3 -14.5 5t-14.5 3t-14.5 1t-23.5 0.5t-34 1.5q1 0 -16 -80.5t-34.5 -161.5t-17.5 -80h26.5t16 -0.5t10.5 0t12.5 1.5t20.5 4q63 12 103.5 58t48.5 98z" />
<glyph unicode="Q" horiz-adv-x="826" d="M798 332q-30 -128 -125 -219.5t-219 -117.5q42 -67 68 -90t45.5 -35.5t55 -23.5t80.5 -12l-4 -19q-15 -1 -50 -1q-115 0 -206.5 30t-132.5 97l-33 54q-118 25 -173 113t-26 224q39 181 161 277.5t282 96.5q73 0 131 -20.5t101 -65.5t54.5 -116.5t-9.5 -171.5zM631 344 q13 59 15 113t-9.5 101t-43.5 75.5t-82 29.5t-91 -19.5t-67.5 -51t-48.5 -77.5t-33.5 -87t-22.5 -91q-27 -128 7 -217t122 -88q83 1 154.5 92.5t99.5 219.5z" />
<glyph unicode="R" horiz-adv-x="734" d="M722 29l-6 -30q-10 5 -92 5.5t-115 -4.5l-159 322l-36 -1q-55 -229 -38 -255q24 -36 84 -38l-5 -30q-8 4 -90.5 7t-109.5 3q-18 0 -80.5 -2.5t-70.5 -5.5l6 28q59 2 100 38q22 21 74 271q60 266 45 296q-16 29 -84 32l4 27h324q37 0 70 -4t67.5 -16.5t57.5 -32.5 t34.5 -54t3.5 -79q-7 -41 -31.5 -73t-52 -49t-57.5 -28t-46 -14t-19 -3l146 -273q22 -36 76 -37zM559 505q7 39 -4 69.5t-32.5 46.5t-43.5 24.5t-40 8.5l-54 -1q-10 -48 -18.5 -88l-42.5 -200q15 2 38.5 -0.5t54.5 4.5t59 19t51 42.5t32 74.5z" />
<glyph unicode="S" horiz-adv-x="649" d="M643 713q-13 -64 -18 -105l-7 -124h-29q-12 98 -66.5 142t-134.5 44q-40 0 -75.5 -32t-42.5 -71q-5 -27 3 -48t28 -36t40.5 -26t49.5 -24t44 -22q78 -47 108 -79q65 -68 46 -160q-11 -52 -47.5 -91t-86.5 -59.5t-103.5 -30t-106.5 -6.5q-44 3 -95 19.5t-63 16.5 q-28 0 -34 -34h-28q11 63 14 104l2 117h29q37 -182 169 -185q62 -1 121.5 37t68.5 82q11 47 -25.5 85t-145.5 97q-77 41 -107 87t-12 118q19 77 91 126.5t166 49.5q42 0 105.5 -16.5t76.5 -16.5q33 0 36 41h29z" />
<glyph unicode="T" horiz-adv-x="684" d="M744 693q-23 -102 -28 -169h-34q-3 41 -18 72.5t-32 37.5q-14 5 -24 8t-24.5 4.5t-20 2t-29 0t-34.5 -0.5q-59 -275 -64 -297q-58 -255 -43 -287q5 -12 14 -18.5t17 -8t25 -3.5t28 -5l-8 -31q-60 9 -171.5 10t-177.5 -8l7 30q36 1 54.5 7.5t40.5 28.5q7 6 15.5 28.5 t18.5 62t16 66t16.5 73.5t11.5 52l64 301q-11 0 -35 0.5t-31.5 0t-23 -1.5t-27.5 -4t-28 -8q-20 -7 -48.5 -38t-49.5 -72h-33q26 78 43 167h613z" />
<glyph unicode="U" horiz-adv-x="749" d="M831 693l-7 -29q-70 -3 -99 -32q-19 -21 -34 -93l-58 -274q-5 -23 -7 -32.5t-9.5 -36t-15 -41.5t-22 -40.5t-31.5 -40.5t-42.5 -34t-55.5 -29t-70.5 -17.5t-87.5 -7.5q-248 0 -188 258q1 4 1 6q14 50 46 208t22 175q-17 29 -85 32l6 28q15 -7 192 -7q138 0 156 7l-6 -28 q-70 -3 -98 -32q-16 -17 -52 -169.5t-49 -220.5q-1 -4 -2 -12q-4 -21 -5.5 -33.5t-3.5 -36t0.5 -38.5t9 -33.5t18.5 -29.5t33 -18.5t49 -7.5q120 1 184 80q34 41 55 142l60 283q15 73 3 97q-5 9 -12 15t-18 8.5t-17 3.5t-19.5 1h-15.5l6 29q15 -8 134 -8q115 0 135 8z" />
<glyph unicode="V" horiz-adv-x="798" d="M884 691l-5 -29q-10 0 -26 -1t-49 -13t-48 -35l-402 -628h-53q0 3 -23.5 144.5t-52 296.5t-37.5 178q-12 29 -34 42.5t-69 14.5l5 30q128 -7 187 -7l177 5l-6 -29q-90 0 -97 -52q-4 -29 6 -95t33 -184t31 -164q22 37 64 106t70 116t58.5 99t47 84t18.5 42 q5 28 -11.5 38.5t-69.5 11.5l6 29q100 -6 147 -6z" />
<glyph unicode="W" horiz-adv-x="1168" d="M1254 691l-6 -29q-10 0 -25.5 -1t-49 -13t-48.5 -35q-149 -227 -387 -628h-24l-4 15q-3 14 -9 40t-13.5 59.5t-16 74.5l-17 82t-16 85.5t-12.5 82.5q1 0 -69 -109.5t-141 -219.5l-70 -110h-24q1 1 -27.5 144t-62 297t-43.5 177q-12 30 -34 43.5t-70 14.5l7 30 q111 -6 171 -6l172 5l-6 -30q-62 1 -68 -52q-3 -22 6 -82.5t20.5 -116t27.5 -128t19 -86.5l178 310q-11 81 -18 96q-10 24 -15.5 33.5t-20.5 18.5t-41 9l6 30q82 -7 142 -7l194 6l-5 -29q-93 0 -97 -52q-2 -29 12.5 -133.5t30 -197t15.5 -88.5q1 0 56.5 97t112 201.5 t59.5 120.5q5 29 -12 39.5t-69 11.5l6 29q105 -5 153 -5z" />
<glyph unicode="X" horiz-adv-x="799" d="M856 693l-6 -26q-55 -3 -91.5 -21t-90.5 -67q-33 -29 -82.5 -75t-82.5 -78l-33 -31q0 -1 22 -43t47 -91t30 -58q6 -11 16.5 -30.5t15 -28.5t13 -23t17.5 -25.5t21 -24.5q33 -37 99 -42l-7 -30q-195 15 -398 0l8 30q83 0 92 39q-1 10 0.5 12.5t-2.5 14.5l-5.5 16.5 t-7.5 17.5t-8 17.5t-8.5 17t-8.5 16.5q-50 94 -54 105l-3 -3q-3 -3 -8.5 -9t-12.5 -13.5t-16.5 -17t-19 -19.5t-20 -20.5l-20.5 -20.5q-24 -22 -52 -60.5t-27 -57.5q1 -17 20.5 -25t49.5 -6l-7 -33q-127 5 -164 6q-73 2 -139 -7l8 31q51 2 88 17.5t77 53.5q69 64 224 224 q0 -1 -6 10.5t-16 31t-21 40.5t-22 43t-17 36q-3 6 -11.5 26t-11.5 26t-10 21t-11.5 22.5t-11.5 17.5t-14 19q-12 15 -28.5 24t-25 11.5t-29 4.5t-21.5 2l7 32q15 -5 179 -4.5t202 5.5l-6 -29q-38 -1 -56.5 -6t-28.5 -22l-3 -16.5t5 -21.5t9.5 -24.5t12 -25t11.5 -23.5 q8 -18 23 -50l22 -45q14 15 65 66t81 84.5t34 49.5q7 20 -14 27.5t-50 6.5l6 28q72 -5 145 -5q14 0 29.5 0.5t28.5 1t25.5 1t22.5 1t17 1t11 0.5z" />
<glyph unicode="Y" horiz-adv-x="722" d="M792 693l-7 -32q-55 -2 -91.5 -26.5t-103.5 -102.5q-17 -20 -53.5 -65.5t-65 -82.5t-28.5 -38q-63 -263 -50 -280q24 -38 86 -36l-7 -33q-8 4 -71.5 8t-84.5 4q-170 0 -192 -8l7 30q61 2 100 37q9 8 21.5 49.5t22 84t19 87.5t10.5 48q-72 183 -119 288q-8 17 -20 25.5 t-20 10t-25 1t-20 -0.5l6 32q24 -9 160 -9q20 0 87 2.5t75 5.5l-6 -31q-3 0 -14 0.5t-17 0t-15 -2t-15.5 -6.5t-10.5 -13q-7 -10 14 -72t45 -119l24 -57l37 50q38 51 79 108.5t48 72.5q8 18 -7 29t-43 9l7 30q88 -4 115 -4q51 0 123 6z" />
<glyph unicode="Z" horiz-adv-x="731" d="M763 693q-192 -218 -303 -351q-48 -57 -107.5 -130.5t-94.5 -119.5l-36 -45q98 -2 181.5 4.5t112.5 14.5q68 21 112 124l35 -1q-11 -37 -24 -73.5t-20.5 -60.5t-14.5 -55v0v0v0v0v0h-1v0v0v0h-1v0v0h-1v0v0h-1v0h-1v0h-1v0h-1v0h-1v0h-1v0h-1h-1v0h-1h-1h-1h-1h-1h-1h-1 h-1h-1h-1h-1h-1h-1h-1h-1h-1h-1h-1h-1h-1h-1h-1h-1h-1h-1h-1h-1h-1h-1h-1h-1h-1h-1h-1h-1h-1h-1h-1h-1h-1h-1h-1h-1h-1h-1h-1h-1h-1h-1h-1h-1h-1h-1h-1h-1h-1h-1h-1h-1h-1h-1h-1h-1h-1h-1h-1h-1h-1h-1h-1h-1h-1h-1h-1h-1h-1h-1h-1h-1h-1h-1h-1h-1h-1h-1h-1h-1h-1h-1h-1h-1 h-1h-1h-1h-1h-1h-1h-1h-1h-1h-1h-1h-1h-1h-2h-1h-1h-1h-1h-1h-1h-1h-1h-1h-2h-1h-1h-1h-1h-1h-1h-1h-2h-1h-1h-1h-1h-1h-2h-1h-1h-1h-1h-1h-2h-1h-1h-1h-1h-2h-1h-1h-1h-1h-2h-1h-1h-1h-2h-1h-1h-1h-2h-1h-1h-1h-2h-1h-1h-1h-2h-1h-1h-1h-2h-1h-1h-2h-1h-1h-2h-1h-1h-1h-2 h-1h-1h-2h-1h-1h-2h-1h-1h-2h-1h-1h-2h-1h-1h-2h-1h-1h-2h-1h-2h-1h-1h-2h-1h-1h-2h-1h-2h-1h-1h-2h-1h-2h-1h-1h-2h-1h-2h-1h-1h-2h-1h-2h-1h-2h-1h-2h-1h-1h-2h-1h-2h-1h-2h-1h-2h-1h-2h-1h-1h-2h-1h-2h-1h-2h-1h-2h-1h-2h-1h-2h-1h-2h-1h-2h-1h-2h-1h-2h-2h-1h-2h-1h-2 h-1h-2h-1h-2h-1h-2h-1h-2h-2h-1h-2h-1h-2h-1h-2h-2h-1h-2h-1h-2h-1h-2h-2h-1h-2h-1h-2h-2h-1h-2h-1h-2h-2h-1h-2h-1h-2h-2h-1h-2h-2h-1h-2h-2h-1h-2h-1h-2h-2h-1h-2h-2h-1h-2h-2h-1h-2h-2h-1h-2h-2h-1h-2h-2h-2h-1h-2h-2h-1h-2h-2h-1h-2h-2h-2h-1h-2h-2h-1h-2h-2h-2h-1h-2 h-2h-1h-2h-2h-2h-1h-2h-2h-2h-1h-2h-2h-2h-2h-1h-2h-2h-2h-1h-2h-2h-2h-2h-1h-2h-2h-2h-2h-1h-2h-2h-2h-2h-1h-2h-2h-2h-2h-1h-2h-2h-2h-2h-2h-1h-2h-2h-2h-2h-2h-2h-1h-2h-2h-2h-2h-2h-2h-2h-1h-2h-2h-2h-2h-2h-2h-2h-2h-1h-2h-2h-2h-10q93 99 295 344l247 301 q-219 1 -261 -10q-19 -6 -32.5 -12.5t-39.5 -32.5t-50 -68h-31l48 171h582z" />
<glyph unicode="[" horiz-adv-x="298" d="M421 633l-6 -35h-133l-160 -747h133l-7 -35h-247l173 817h247z" />
<glyph unicode="\" horiz-adv-x="596" d="M438 0h-85l-207 684h85z" />
<glyph unicode="]" horiz-adv-x="363" d="M365 633l-173 -817h-247l7 35h133l159 747h-133l7 35h247z" />
<glyph unicode="^" horiz-adv-x="475" d="M427 232h-58l-132 295l-131 -295h-59l168 363h45z" />
<glyph unicode="_" horiz-adv-x="334" d="M376 -54l-7 -46h-373l8 46h372z" />
<glyph unicode="`" horiz-adv-x="235" d="M161 544h-51l-157 96q-18 12 -18 38q0 17 12 29.5t30 12.5q21 0 33.5 -8t28.5 -27z" />
<glyph unicode="a" horiz-adv-x="566" d="M550 107q-65 -123 -153 -123q-12 0 -24.5 2.5t-29.5 10t-25.5 25.5t-4.5 45q-46 -39 -77 -58t-61 -24q-23 -6 -51.5 -1.5t-53 13.5t-37.5 34.5t-5 62.5q17 78 94.5 126.5t240.5 84.5l14 61q6 28 -11 52t-36 25q-73 4 -87 -51q-4 -11 -3 -19.5t2.5 -10.5t5.5 -5.5t6 -5.5 q-27 -37 -87 -42q-18 -2 -35.5 6.5t-25.5 28.5t13 54q29 48 82 64.5t133 17.5q104 3 139 -36q20 -20 24.5 -53t-0.5 -55l-5 -23l-24 -120q-2 -10 -5.5 -23t-5.5 -22t-4.5 -19.5t-3.5 -17t-1.5 -14t1 -12.5t4 -8.5t7 -5.5t10.5 -2q12 0 24 12.5t18 24.5l6 12zM358 277 q-80 -25 -122 -66.5t-52 -77.5l-1 -2q-11 -38 5.5 -54t44.5 -14q48 4 88 44q6 26 17.5 81t19.5 89z" />
<glyph unicode="b" horiz-adv-x="555" d="M514 249q-9 -39 -31.5 -81t-59 -83.5t-94 -68t-125.5 -26.5q-40 0 -102 11.5t-90 24.5q40 148 54 214q85 393 81 413q-4 17 -40 17l6 30q6 -4 78.5 -1t102.5 12q-5 -12 -14.5 -47t-19 -77t-18.5 -82t-15 -67l-6 -28q21 25 59.5 46.5t83.5 22.5q96 1 134.5 -64t15.5 -166z M364 209q17 73 2.5 132t-54.5 68q-29 7 -64.5 -12.5t-43.5 -60.5l-58 -270q-5 -20 16 -33t52 -8q116 17 150 184z" />
<glyph unicode="c" horiz-adv-x="556" d="M535 434q15 -31 -1 -62.5t-48 -40.5q-25 -9 -49.5 -2t-36 13.5t-17.5 12.5q1 2 7 7.5t9 9.5l7.5 10t7 13t2.5 15q1 21 -17.5 32.5t-33.5 11.5q-13 -1 -28.5 -5.5t-36 -17t-38.5 -32t-35 -54t-26 -78.5q-20 -98 15.5 -150t96.5 -51q25 0 48 7.5t41 21.5t29.5 24.5t25.5 27 t17 20.5l23 -19q-20 -39 -64.5 -83t-80.5 -58q-56 -22 -126 -21q-38 1 -72.5 14t-65 41.5t-40.5 73t1 108.5q28 132 116 200t201 70q65 1 110.5 -16t58.5 -43z" />
<glyph unicode="d" horiz-adv-x="601" d="M619 710q-106 -362 -148 -580q-7 -34 -2 -50.5t13.5 -20.5t21.5 -1q13 4 19.5 7t19.5 16t34 39l22 -15q-73 -122 -157 -122q-48 1 -72.5 33.5t-15.5 63.5q-62 -90 -163 -90q-11 0 -23 1.5t-30.5 7t-33 16t-30.5 27.5t-22.5 41.5t-9.5 59.5t9 80q22 104 102.5 181 t167.5 77q38 0 63 -12.5t41 -48.5q14 52 27 137t10 101q-3 18 -40 18l6 29q7 -4 84 -4t107 9zM403 351q-6 47 -30 67t-49 15q-42 -6 -76.5 -51t-51.5 -124q-20 -90 -4.5 -148t59.5 -61q21 -1 50 20t53 68q31 71 49 214z" />
<glyph unicode="e" horiz-adv-x="551" d="M519 280h-322q-13 -56 -7.5 -95t16 -63t31.5 -37.5t39.5 -18.5t39.5 -5q78 0 166 104l24 -21q-74 -92 -134.5 -125.5t-169.5 -32.5q-88 1 -131.5 66t-20.5 171q20 89 72 151.5t114 89t128 25.5q84 -1 129.5 -50t25.5 -159zM400 323q12 48 0.5 89t-47.5 41 q-94 0 -145 -130h192z" />
<glyph unicode="f" horiz-adv-x="432" d="M522 692q22 -14 25 -46.5t-25 -50.5q-31 -17 -104 -4q4 11 6.5 25t1.5 28.5t-9.5 21.5t-24.5 2q-34 -12 -52 -91l-26 -129h136l-10 -41h-134l-20 -95q-21 -94 -41.5 -189.5t-21.5 -96.5q-19 -92 -40 -134q-61 -123 -206 -123q-68 0 -93 14q-22 13 -24.5 45.5t24.5 51.5 q34 18 104 4q-4 -11 -6.5 -25t-1.5 -28.5t10 -21.5t25 -2q37 13 55 92l104 508h-90l9 41h91q19 89 38 130q63 128 208 128q68 0 92 -14z" />
<glyph unicode="g" horiz-adv-x="533" d="M575 486q-8 -81 -34 -89q-27 -5 -50.5 -1t-39.5 10l5 -6q5 -7 8 -11t7 -13.5t5.5 -18.5t1.5 -23.5t-4 -30.5q-12 -49 -45.5 -86t-87.5 -54q-30 -8 -45 -9.5t-88 -1.5q-18 0 -46 -15.5t-32 -35.5q-5 -22 12 -27t67 -5h23l66 -1q18 0 36.5 -3t42 -11.5t36.5 -22.5t19.5 -37 t-8.5 -55q-31 -82 -113.5 -124t-184.5 -42t-148.5 22.5t-33.5 80.5q6 32 47.5 55.5t82.5 29.5q-38 14 -54 31.5t-8 53.5q9 43 53.5 73t89.5 42l1 2q-58 24 -81.5 57t-9.5 99q15 72 78.5 117t163.5 45q58 0 107 -21q32 -15 87.5 -5.5t73.5 31.5zM338 316q4 19 5 26.5 t3.5 27.5t0.5 30.5t-6 23.5t-15 19t-27 6q-29 0 -49.5 -21.5t-29 -47t-16.5 -64.5q-7 -31 -9 -51t0 -40.5t14 -30t34 -9.5q23 0 40 11.5t27.5 33.5t16 40.5t11.5 45.5zM348 -105q11 26 -9 39t-61 13h-176q-42 -28 -48 -57q-2 -10 0.5 -19t8 -14.5t14.5 -10t16.5 -6.5 t19 -3.5t17.5 -2t16 -0.5l9 -1q55 -1 116.5 13t76.5 49z" />
<glyph unicode="h" horiz-adv-x="646" d="M628 142q-85 -158 -201 -158q-51 0 -69 45q-17 46 42 242q12 37 17.5 65t5.5 43t-4.5 24.5t-9 13t-11.5 5.5q-20 6 -43.5 -2.5t-42.5 -25.5t-35 -34.5t-25 -31.5l-9 -13q-30 -113 -62 -316q-12 7 -67.5 7t-71.5 -6q13 31 67 246q19 68 48.5 218.5t26.5 185.5q0 20 -53 18 l8 32q14 -4 87 -4.5t110 8.5q-12 -28 -43.5 -166t-35.5 -166q24 44 87.5 86t138.5 33q30 -4 48 -17t26.5 -41.5t-2 -81t-40.5 -127.5q-14 -36 -21.5 -64.5t-7.5 -45.5t3.5 -28.5t9 -15.5t11.5 -4q19 0 41 21t33.5 39t17.5 31z" />
<glyph unicode="i" horiz-adv-x="334" d="M294 634q-6 -30 -32 -52t-56 -22t-46.5 22t-10.5 52q7 30 32.5 51.5t55.5 21.5t47 -21.5t10 -51.5zM318 146q-73 -144 -165 -160q-28 -7 -65 7t-42 51q-8 68 29 204q5 17 13 44.5t13 44t11 39.5t6.5 31t-0.5 19q-9 20 -53 20l8 37q12 -3 86 -5.5t112 2.5 q-39 -103 -88 -282q-7 -30 -10.5 -51.5t-4 -42.5t7 -32t23.5 -10q38 2 93 96z" />
<glyph unicode="j" horiz-adv-x="409" d="M395 634q-7 -30 -33 -51.5t-56 -21.5q-31 0 -47.5 21.5t-10.5 51.5q7 30 33 51.5t56 21.5q31 0 47.5 -21.5t10.5 -51.5zM368 484q-8 -29 -27 -116.5t-41 -194.5t-30 -145q-27 -126 -94 -191.5t-153 -65.5q-128 -4 -141 48q-6 18 3.5 41.5t43.5 34.5q29 10 59.5 -2 t30.5 -32q-6 -4 -10.5 -15t-1.5 -21q5 -16 31 -12q19 3 34 18t26 46t16 50t14 57q2 9 3 13q16 67 50.5 242t32.5 189q-3 19 -44 19l7 32q15 -4 83.5 -4t107.5 9z" />
<glyph unicode="k" horiz-adv-x="595" d="M585 427q-4 -21 -26 -42t-55.5 -38t-61.5 -29t-59 -23t-33 -12q27 -69 51 -114q22 -41 37.5 -57.5t32.5 -14.5q14 1 25 13.5t14.5 20t8.5 22.5l28 -13q-20 -75 -58.5 -114.5t-74.5 -39.5q-84 0 -133 109l-57 131l-35 -15q-15 -78 -33 -210q-19 5 -70.5 5t-67.5 -5 q33 102 65 246q20 88 48.5 236.5t24.5 162.5q-5 17 -52 19l7 35q25 -3 97 -3t102 8q-17 -45 -61.5 -234t-51.5 -227q163 71 232 144q18 22 17 39t-12 27l-10 10q36 22 99 22q8 0 17.5 -2t22.5 -7.5t19.5 -18.5t2.5 -31z" />
<glyph unicode="l" horiz-adv-x="308" d="M296 709q-16 -45 -75 -297t-65 -287q-8 -40 -6 -54.5t25 -16.5q18 -2 38.5 18.5t49.5 65.5l23 -15q-38 -67 -80.5 -103t-101.5 -35q-37 1 -56.5 20t-16.5 53q7 59 63.5 309t52.5 291q-1 18 -40 18l6 29q15 -4 80.5 -4.5t102.5 8.5z" />
<glyph unicode="m" horiz-adv-x="945" d="M927 142q-10 -23 -22.5 -43t-24.5 -34t-26 -26t-25.5 -20t-25 -14.5t-23 -9.5t-21.5 -5.5t-17.5 -3.5t-13.5 -2h-8q-31 -2 -54 30q-8 12 -9.5 31.5t4 48.5t11 53t16 63t15.5 60q14 54 18.5 84.5t1 42.5t-14.5 15q-22 7 -49.5 -2t-50.5 -27.5t-43 -37.5t-31 -33l-12 -14 q-14 -55 -25 -105.5t-23 -110.5t-17 -83q-11 4 -61 4t-68 -5q4 9 13.5 50t23.5 107t18 84q10 49 15.5 76t8.5 50.5t0.5 34t-9.5 12.5q-35 11 -82.5 -17.5t-77.5 -62.5l-30 -34q-58 -249 -66 -299q-11 4 -57.5 4.5t-64.5 -4.5q12 22 60 240q4 16 10.5 45t11 48.5t9 42t6 36.5 t0.5 20q-4 20 -45 18l6 29q15 -4 78 -4.5t101 9.5q-25 -62 -37 -132q35 40 96.5 88.5t105.5 52.5q68 5 100 -27t13 -114q38 44 95.5 90.5t101.5 50.5q34 2 61 0t44 -17.5t22 -44.5t-5.5 -81.5t-38.5 -128.5q-15 -41 -22 -70.5t-6.5 -45.5t5.5 -25t11.5 -11t15.5 -2 q43 1 86 88z" />
<glyph unicode="n" horiz-adv-x="625" d="M607 142q-86 -158 -202 -158q-50 0 -68 45q-20 49 42 242q19 60 21 95t-4.5 43.5t-18.5 12.5q-20 6 -43.5 -2.5t-42.5 -25.5t-35 -34.5t-25 -31.5l-9 -13q-32 -122 -63 -316q-12 7 -67.5 7t-71.5 -6q7 16 31.5 103.5t36.5 142.5q34 144 27 181q-3 19 -53 19l8 32 q15 -4 87.5 -5t109.5 9q-23 -53 -32 -110q24 44 87.5 86t138.5 33q30 -4 48 -17t26.5 -41.5t-2 -81t-40.5 -127.5q-14 -36 -21 -64.5t-7.5 -45.5t3.5 -28.5t9.5 -15.5t11.5 -4q43 0 92 91z" />
<glyph unicode="o" horiz-adv-x="606" d="M566 234q-25 -117 -110.5 -185.5t-205.5 -67.5q-112 1 -169 69.5t-30 195.5q24 108 108.5 176.5t203.5 69.5q113 2 171 -66t32 -192zM410 206q12 53 16 97.5t0 81.5t-21.5 57.5t-47.5 20.5q-48 0 -93 -61t-68 -177q-20 -88 -3 -151t72 -62q37 1 79 46t66 148z" />
<glyph unicode="p" horiz-adv-x="564" d="M524 256q-22 -101 -98.5 -183.5t-177.5 -82.5q-62 0 -99 47l-35 -165q-1 -5 -1.5 -6.5t-0.5 -3t-3 -18.5t-8 -49q-8 3 -62 3t-69 -6q7 16 29 100t33 137q4 18 20 92t26 121t18 104.5t6 83.5q0 7 -5.5 9t-17 2.5t-17.5 1.5l7 27q5 -4 74 -1.5t101 12.5q-10 -46 -17 -80 l-2 -9q28 35 74 62t100 27q72 0 109 -62t16 -163zM378 228q11 39 15.5 77.5t-4.5 74.5t-35 42q-47 8 -95 -36q-16 -15 -28.5 -31.5t-16.5 -25.5l-5 -9l-46 -220q-5 -18 5 -35t38 -23q13 -1 28.5 -2t35.5 10.5t38.5 30t37.5 57t32 90.5z" />
<glyph unicode="q" horiz-adv-x="561" d="M557 486q-33 -88 -89 -349q-63 -301 -67 -342q-14 5 -63 4.5t-60 -4.5q13 51 35 149.5t28 122.5q-45 -46 -84 -61.5t-89 -15.5q-74 0 -110.5 59.5t-12.5 171.5q23 109 107 184.5t181 75.5q74 0 121 -38q59 6 103 43zM410 389q1 25 -17 40t-41 13q-70 -7 -108.5 -53.5 t-58.5 -143.5q-9 -50 -9 -92t23 -68.5t66 -23.5q31 2 58.5 31t35.5 53z" />
<glyph unicode="r" horiz-adv-x="466" d="M448 373q-22 -20 -51 -25q-1 14 -11.5 26t-31.5 15.5t-52 -17.5l-81 -73q-40 -189 -59 -300q-10 4 -65.5 5t-73.5 -3q7 16 30.5 103.5t35.5 141.5q13 55 22 113t7 73q-4 19 -46 17l6 29q18 -4 82.5 -5t106.5 9q-3 -8 -12.5 -43.5t-18 -66.5t-9.5 -31q34 42 64 70 q51 51 112 70q37 11 59.5 -4t19 -45.5t-33.5 -58.5z" />
<glyph unicode="s" horiz-adv-x="511" d="M487 479l-32 -147h-28q-9 114 -95 114q-28 0 -53.5 -17t-30.5 -40q-6 -28 15 -48.5t53.5 -35.5t64 -33t48 -51t4.5 -79q-20 -81 -79.5 -118.5t-138.5 -37.5q-22 0 -50.5 7t-49.5 14.5t-23 7.5q-20 2 -33 -28h-26l37 168h27q4 -125 117 -129q71 -3 84 61q5 22 -9 40 t-38.5 30t-52.5 28.5t-51 34t-35 46.5t-4 66q14 64 85.5 106.5t145.5 42.5q28 0 57 -11t35 -11q20 0 31 20h25z" />
<glyph unicode="t" horiz-adv-x="364" d="M362 468l-10 -48h-108q0 -1 -9.5 -41t-23.5 -100t-22 -95q-14 -54 -13.5 -89t25.5 -36q40 -3 100 93l23 -10q-87 -163 -190 -158h-4q-65 4 -80 57q-3 9 -4 20.5t1.5 29.5t4 30.5t8 40t9.5 39t11 46.5l17.5 70t17.5 69.5t9 35.5h-68l14 8q15 8 44 27.5t57 41.5 q23 18 51 43t45.5 41.5t16.5 17.5q-18 -89 -27 -133h105z" />
<glyph unicode="u" d="M606 139q-24 -46 -49.5 -78t-46.5 -46.5t-41.5 -23t-34.5 -7t-26 0.5h-7q-43 0 -59 37q-15 30 -1 94q-39 -50 -104 -87.5t-115 -41.5q-25 -3 -41.5 1.5t-25 18t-10.5 32.5t3 52.5t14 70.5t24 93q8 29 21 91.5t11 77.5q-5 20 -46 18l6 27q16 -3 83.5 -3t96.5 8 q-40 -147 -66 -272q-16 -73 -16 -98.5t18 -32.5q24 -9 63.5 17t66.5 56l28 31q16 64 33.5 159t26.5 137q8 -3 62.5 -3t69.5 6q-1 -4 -12 -52t-26.5 -110.5t-24.5 -97.5q-22 -91 -19.5 -120t29.5 -30q19 -1 49.5 32t38.5 55z" />
<glyph unicode="v" horiz-adv-x="543" d="M552 419q-4 -19 -13.5 -40t-30 -49t-33 -44t-44.5 -54.5t-42 -50.5q-95 -113 -134 -182q-9 3 -50.5 3t-50.5 -2q-47 351 -65 408q-2 8 -6 14t-8 10t-10 7t-10 4.5t-12 2t-10.5 0.5h-11h-9.5l8 37q17 -4 96 -8.5t120 3.5q0 -39 17 -189.5t21 -200.5q52 75 90.5 158 t52.5 143q3 15 2 27t-3.5 20.5t-6.5 14t-7 8.5l-2 3l2 3q3 3 8 7t12 8.5t18 7.5t24 4q48 3 72 -12.5t16 -60.5z" />
<glyph unicode="w" horiz-adv-x="826" d="M834 423q-4 -19 -21 -47t-33.5 -49t-51 -63t-49.5 -62q-84 -109 -133 -201q-32 4 -66.5 3.5t-43.5 -3.5q-34 287 -35 287q0 1 -35 -58.5t-76.5 -131.5t-55.5 -98q-9 4 -45.5 3.5t-44.5 -3.5q-45 354 -67 408q-7 17 -19.5 25.5t-20 9t-25.5 0.5l6 26q17 -3 102.5 -3.5 t126.5 7.5q0 -229 13 -351l171 348q103 -1 103 0q24 -216 38 -356q10 14 25 38t48.5 93t50.5 132q4 15 4.5 29.5t-2 24t-5.5 16.5t-5 11l-3 3l5 3q5 2 13.5 5.5t19 7.5t23 7t23.5 4q3 2 15.5 0t26 -6t21.5 -19.5t2 -39.5z" />
<glyph unicode="x" horiz-adv-x="612" d="M614 472l-7 -31q-58 0 -106 -36l-139 -129q-1 -1 17.5 -40t43 -88.5t38.5 -71.5q30 -53 82 -48l-6 -29q-29 4 -94 5.5t-111 -4.5q0 -1 -9 17.5t-21 45.5t-24 54.5t-20 46.5l-9 19l-19 -21q-18 -22 -43.5 -51.5t-37.5 -45.5l-52 -65q-25 5 -73 4.5t-60 -3.5l7 28 q16 0 45 8.5t53 26.5q72 56 164 155l-82 182q-7 17 -21 25.5t-22.5 9t-27.5 0.5l8 34q6 -4 86 -3t113 8q-1 0 14.5 -41.5t30.5 -83.5l16 -41q0 -1 17 19t37.5 43.5t28.5 32.5q12 13 26.5 30.5t24.5 29.5l9 11q30 -6 66.5 -5.5t56.5 2.5z" />
<glyph unicode="y" horiz-adv-x="561" d="M570 417q-3 -14 -8.5 -28.5t-16.5 -32t-20 -31.5t-26.5 -35.5t-28 -34t-32.5 -38t-32 -37.5q-32 -38 -108.5 -133.5t-91.5 -113.5q-66 -79 -116 -119.5t-95 -37.5q-73 5 -80 48q-5 28 3.5 50.5t23.5 35.5t31 22t27 12l12 3v-11q1 -11 4.5 -26t10.5 -24q15 -19 43.5 -17 t45.5 21q62 69 62 74q-51 387 -68 444q-2 8 -6 14t-8 10t-10 7t-10 4.5t-12 2t-11 0.5h-11.5h-9.5l9 37q15 -4 96.5 -8t120.5 4q0 -31 6.5 -96t16.5 -154.5t14 -137.5q103 150 137 297q4 15 2.5 26.5t-4.5 20.5t-7.5 15t-6.5 9l-3 3l3 3q2 3 7 7t12 8.5t18.5 7.5t24.5 4 q48 3 74 -13.5t18 -61.5z" />
<glyph unicode="z" horiz-adv-x="527" d="M516 469l-6 -27l-341 -410q111 -3 149 11q40 13 72 50t45 69h29l-51 -162h-409l5 26l345 410q-39 0 -56.5 -1t-46.5 -4t-43.5 -10t-33.5 -19t-32.5 -31.5t-25.5 -46.5h-26l38 145h388z" />
<glyph unicode="{" horiz-adv-x="271" d="M401 677q-50 -9 -81 -35t-43.5 -60.5t-18.5 -75t-12 -80.5t-18 -74.5t-42 -60.5t-79 -35q44 -10 63.5 -37t16.5 -62.5t-13.5 -76t-21.5 -80t-13 -73.5t17.5 -58t65.5 -31l-27 -1q-68 -1 -102.5 18.5t-38.5 53t4.5 74.5t21 84.5t18 81.5t-11.5 67.5t-62 39.5q47 10 76 34 t39 55.5t17 69t9 74t15 71t35 60.5t69 42t117 15z" />
<glyph unicode="|" horiz-adv-x="219" d="M207 670l-143 -670h-71l142 670h72z" />
<glyph unicode="}" horiz-adv-x="393" d="M414 256q-50 -10 -79.5 -39.5t-40.5 -67.5t-16 -81.5t-13.5 -84.5t-26 -74t-60 -53t-109.5 -19l-29 1q48 7 78 31t42 57.5t18.5 73.5t13 80.5t19 76t42.5 62.5t78 37q-45 9 -63.5 35t-16 60.5t13.5 74.5t22 80.5t13.5 75t-17 60.5t-65.5 35q79 1 120.5 -19t47.5 -53.5 t-2.5 -74.5t-23 -84.5t-21.5 -81.5t10 -67.5t65 -40.5z" />
<glyph unicode="~" horiz-adv-x="615" d="M560 304q-80 -107 -162 -107q-40 0 -105.5 34.5t-100.5 34.5q-25 0 -50.5 -16t-39.5 -31.5t-36 -43.5l-29 73q40 52 79.5 83t85.5 31q38 0 109 -35t98 -35q60 0 117 78z" />
<glyph unicode="&#xa1;" horiz-adv-x="311" d="M343 606q-6 -27 -30 -46t-52 -19t-43 19t-9 46q6 28 29 47.5t51 19.5q29 0 44.5 -19.5t9.5 -47.5zM266 482l-21 -368q-1 -6 -3 -23t-4 -26q-5 -30 -30.5 -55t-66.5 -25q-36 0 -51.5 25.5t-9.5 54.5q1 4 14 49l134 368h38z" />
<glyph unicode="&#xa2;" horiz-adv-x="460" d="M219 153l62 294q-80 -29 -103 -144q-22 -112 41 -150zM334 542l-13 -57q104 -2 127 -47q12 -25 -0.5 -50t-38.5 -34q-28 -8 -51.5 1.5t-32.5 18.5q26 23 27 45q1 15 -11.5 23.5t-25.5 10.5l-67 -311q14 -2 20 -2q21 0 39 6t33 17t24 19.5t20.5 22t13.5 16.5l18 -15 q-16 -32 -52 -67.5t-65 -46.5q-37 -14 -64 -16l-19 -89h-32l19 88h-5q-31 1 -59 12t-52 32.5t-33.5 60t0.5 87.5q21 100 85.5 155t149.5 62l12 58h33z" />
<glyph unicode="&#xa3;" horiz-adv-x="594" d="M589 612q-11 -50 -122 -38q25 29 17 60q-10 38 -59 38q-76 -1 -93.5 -53.5t24.5 -125.5q11 -21 17.5 -52.5t5.5 -50.5q117 2 117 0l-9 -45h-111q-9 -71 -69.5 -148t-111.5 -112l3 3q4 3 12 7.5t21 9t31.5 6.5t42.5 -1q41 -4 86.5 -21.5t83.5 -11.5q58 10 82 79l27 1 q-6 -31 -32.5 -89t-59.5 -78q-20 -12 -43.5 -14.5t-54.5 6.5t-44.5 14t-47.5 19q-83 36 -154 23l-10 -16q-9 -15 -20 -25t-23 -10q-21 0 -31 14.5t5 34.5q8 10 16 15.5t13 7.5t14 4.5t13 4.5q11 6 32 30t48.5 74.5t39.5 106.5q4 20 6 36.5t1 22.5v7h-110l8 43q103 1 103 0 q-8 36 -31 82q-13 31 -10.5 59.5t19 56.5t35 48t37.5 34q59 41 135 41q89 -1 125 -27.5t26 -69.5z" />
<glyph unicode="&#xa4;" horiz-adv-x="475" d="M443 310q0 -73 -44 -126l43 -42q0 -1 -7 -8.5t-15.5 -15t-16.5 -14.5l-8 -8l-39 48q-54 -38 -119 -38q-64 0 -118 38l-39 -48l-41 37q-7 8 -6 9l43 42q-44 53 -44 126t44 125l-43 43l5 4q4 5 11 11.5t14.5 13t12.5 11.5l4 5l39 -48q50 36 118 38q66 1 119 -38l39 48 l12 -12q12 -12 23.5 -23t11.5 -10l-43 -43q44 -52 44 -125zM389 309q0 65 -45.5 112t-105.5 47q-61 0 -106 -47t-45 -112q0 -67 45.5 -113.5t105.5 -46.5t105.5 46.5t45.5 113.5z" />
<glyph unicode="&#xa5;" horiz-adv-x="641" d="M682 693l-7 -32q-55 -2 -91.5 -26.5t-103.5 -102.5q-31 -34 -129 -162h154l-5 -38h-171l-9 -37h170l-5 -38h-173q-41 -174 -29 -191q24 -38 86 -36l-7 -33q-8 4 -71.5 8t-84.5 4q-170 0 -192 -8l7 30q61 2 100 37q19 19 56 189h-161l6 38h163q4 24 8 37h-162l6 38h144 q-55 145 -106 255q-8 17 -20 25.5t-20 10t-25 1t-20 -0.5l6 32q24 -9 160 -9q20 0 87 2.5t75 5.5l-6 -31q-3 0 -14 0.5t-17 0t-15 -2t-15.5 -6.5t-10.5 -13q-7 -10 14 -72t45 -119l24 -57l37 50q38 51 79 108.5t48 72.5q8 18 -7 29t-43 9l7 30q88 -4 115 -4q51 0 123 6z" />
<glyph unicode="&#xa6;" horiz-adv-x="256" d="M172 353h-87v266h87v-266zM172 -14h-87v265h87v-265z" />
<glyph unicode="&#xa7;" horiz-adv-x="549" d="M603 629q-21 -46 -45 -140h-36l2 14q13 56 -4 74t-78 18q-46 0 -90 -23t-54 -66q-7 -33 12.5 -54.5t53.5 -30.5t73.5 -21.5t72.5 -26.5t50.5 -45t7.5 -76q-10 -46 -32 -76.5t-66 -66.5q45 -34 30 -104q-18 -86 -105.5 -148.5t-174.5 -62.5q-89 0 -142 42q10 28 25.5 79.5 t20.5 68.5h37l-3 -10q-15 -65 11.5 -94t95.5 -29q43 0 91 29t56 70q9 40 -19.5 65t-73.5 39t-90 29.5t-71.5 49t-15.5 85.5q10 45 32 71.5t71 64.5q-38 35 -25 95q18 87 97.5 149t166.5 62q65 0 119 -31zM484 187q9 43 -16 66t-72 39l-125 45q-41 -35 -49 -70 q-4 -20 13.5 -40.5t50 -37.5t61 -29t61 -23.5t35.5 -12.5q35 38 41 63z" />
<glyph unicode="&#xa8;" horiz-adv-x="338" d="M417 619q-1 -27 -26.5 -49.5t-52.5 -22.5q-22 0 -37 15t-14 36q1 28 25.5 50t52.5 22q22 0 37.5 -14.5t14.5 -36.5zM158 619q-1 -26 -26.5 -49t-51.5 -23q-22 0 -38 15t-15 36q1 28 27 50t54 22q21 0 36 -15t14 -36z" />
<glyph unicode="&#xa9;" horiz-adv-x="689" d="M463 218q-63 -63 -149 -63q-68 0 -108 42.5t-21 128.5q17 80 76.5 126t128.5 46q26 0 52 -8.5t27 -8.5q18 0 26 17h16l-19 -112h-19q-1 42 -20.5 64t-62.5 21q-93 -2 -124 -145q-16 -75 4 -109t63 -34q13 0 25 2t22.5 6t18.5 7.5t17 9.5l13.5 9t12 9.5t8.5 7.5zM289 -17 q-122 0 -202.5 78t-80.5 193q0 119 56 211t144 138.5t190 46.5q121 0 204 -79t83 -194q0 -90 -32.5 -165.5t-87.5 -125t-126 -76.5t-148 -27zM300 33q134 0 229 98t95 236q0 96 -69.5 163.5t-169.5 67.5q-127 0 -223.5 -96t-96.5 -238q0 -96 67.5 -163.5t167.5 -67.5z" />
<glyph unicode="&#xaa;" horiz-adv-x="347" d="M386 319q-36 -70 -85 -70q-11 0 -21 2.5t-20 13.5t-7 31q-52 -42 -77 -46q-35 -5 -63.5 9t-19.5 53q9 44 53 71.5t135 46.5l8 35q6 21 -3 32t-26 11q-40 0 -46 -28q-2 -10 -2 -13t3 -6t4 -5q-14 -20 -49 -24q-17 -1 -28 11t2 40q26 44 121 46q60 1 79 -21 q11 -11 13.5 -29t0.5 -31l-3 -13l-14 -68q-2 -7 -4 -16.5t-3.5 -15t-3 -12.5t-1.5 -11t1 -8t3.5 -5.5t7.5 -1.5q7 0 14.5 7t10.5 14l4 7q1 0 3 -1t5.5 -2t5.5 -2zM258 319q4 17 10.5 48t10.5 48q-46 -15 -69.5 -38t-29.5 -44v-1q-7 -21 2.5 -30t25.5 -8q26 0 50 25z" />
<glyph unicode="&#xab;" horiz-adv-x="434" d="M407 352q-99 -110 -128 -138l69 -138l-38 -8q-110 127 -129 146l191 146zM255 352q-98 -110 -127 -138l68 -138l-38 -8q-109 127 -128 146q27 19 74.5 55.5t81.5 63.5l35 27z" />
<glyph unicode="&#xac;" horiz-adv-x="487" d="M387 42v141h-356v71h425v-212h-69z" />
<glyph unicode="&#xad;" horiz-adv-x="341" d="M277 248l-15 -74h-228l15 74h228z" />
<glyph unicode="&#xae;" horiz-adv-x="745" d="M319 -17q-122 0 -202.5 78t-80.5 193q0 119 56 211t144 138.5t190 46.5q121 0 204 -79t83 -194q0 -90 -32.5 -165.5t-87.5 -125t-126 -76.5t-148 -27zM330 33q134 0 229 98t95 236q0 96 -69.5 163.5t-169.5 67.5q-127 0 -223.5 -96t-96.5 -238q0 -96 67.5 -163.5 t167.5 -67.5zM531 162q-8 2 -52 2q-31 0 -49 -2l-76 156h-17q-18 -90 -18 -108q0 -28 40 -28l-4 -21q-10 5 -96 5q-61 0 -75 -4l4 20q28 0 46 18q9 8 36 127q21 95 21 129q0 24 -39 24l4 19h157q113 0 113 -74q0 -38 -25 -62t-50 -29l-25 -6q8 -14 21.5 -40.5t25.5 -47.5 t25 -40q10 -17 37 -18zM448 408q2 12 2 16q0 27 -17.5 39t-37.5 12l-24 -1q-4 -18 -5 -23.5t-2 -9t-2 -8.5t-5.5 -28t-12.5 -61q2 0 7.5 -0.5t9.5 -0.5q75 0 87 65z" />
<glyph unicode="&#xaf;" horiz-adv-x="328" d="M316 601l-12 -58h-292l12 58h292z" />
<glyph unicode="&#xb0;" horiz-adv-x="338" d="M297 485q-12 -57 -53 -89.5t-95 -32.5q-55 0 -87 33.5t-20 88.5q12 56 53 89.5t93 33.5q55 0 88 -34.5t21 -88.5zM248 485q8 40 -9.5 65t-50.5 25t-61 -25t-36 -65q-9 -39 8.5 -64t50.5 -25q32 0 60.5 25t37.5 64z" />
<glyph unicode="&#xb1;" horiz-adv-x="574" d="M528 19h-484v65h484v-65zM564 415l-17 -81h-199l-44 -202h-80l43 202h-199l17 81h199l42 197h81l-42 -197h199z" />
<glyph unicode="&#xb2;" horiz-adv-x="253" d="M253 693q0 -20 -13 -40.5t-23.5 -30.5t-39.5 -32.5t-33 -25.5q-13 -10 -35 -25t-29 -21h8q25 0 37.5 1t27.5 9t21 25h50q-14 -25 -24 -73h-200l4 23l83 72q35 32 60.5 70.5t25.5 61.5q0 22 -17 22q-13 0 -22 -16.5t-9 -31.5q0 -12 5 -16q-13 -11 -43 -11q-48 0 -48 28 q0 31 32 50.5t85 19.5q97 0 97 -59z" />
<glyph unicode="&#xb3;" horiz-adv-x="302" d="M257 568q0 -45 -41.5 -68.5t-93.5 -23.5q-43 0 -69 14t-26 34q0 21 18 32.5t41 11.5q27 0 37 -13q-9 -11 -9 -33q0 -23 17 -23t27.5 16.5t13 31.5t2.5 26q0 37 -30 37q-24 0 -41 -1q7 15 7 30h28q57 0 57 70q0 23 -16 23q-10 0 -19 -12t-9 -28q0 -6 3 -11 q-15 -12 -44 -12q-41 0 -41 24q0 27 32.5 45t79.5 18q39 0 67.5 -13t28.5 -43q0 -23 -24 -46t-58 -27q62 -11 62 -59z" />
<glyph unicode="&#xb4;" horiz-adv-x="302" d="M320 693q1 -7 0 -13t-5.5 -12t-7.5 -9.5t-10.5 -10.5t-9.5 -9l-94 -95h-62l72 148q12 23 48 38q19 6 42 -2.5t27 -34.5z" />
<glyph unicode="&#xb5;" horiz-adv-x="600" d="M584 146q-79 -153 -183 -157q-52 -3 -71 40q-3 17 -2.5 34t2.5 29l3 13q-44 -52 -91 -81.5t-79 -29.5q-42 0 -65 23.5t-21 87.5q-13 -62 -14 -100.5t12.5 -63t24.5 -33.5t23 -13q34 -13 83 -1q-1 -4 -3.5 -10.5t-12 -24t-21 -31t-31 -25t-41.5 -12.5q-34 -2 -55.5 9 t-29.5 32t-10 38t-1 38q2 24 17 89.5t36.5 152t27.5 111.5q3 11 9 37t8.5 37.5t7.5 33t7 34.5t5 30t4 30.5t1 26.5q75 -9 144 4q-31 -68 -85 -279q-8 -32 -11 -47.5t-5.5 -37.5t1 -35t12.5 -20q29 -21 80 13q26 18 46 37t28 29l7 11q15 57 39.5 171.5t27.5 151.5 q78 -6 141 0q-43 -118 -90 -286q-16 -53 -15 -87.5t28 -41.5q14 -5 38.5 17t46.5 69z" />
<glyph unicode="&#xb6;" horiz-adv-x="584" d="M619 645l-6 -30h-73q-8 -14 -22 -80l-122 -561l-9 -70h73l-6 -25h-353l5 25h74q14 46 19 70l75 347q-49 0 -95 20t-75 63.5t-17 99.5q14 63 71.5 105t147.5 37q88 -5 162 -5q80 0 151 4zM334 609q-41 6 -87.5 -24.5t-60.5 -99.5q-11 -49 17.5 -84.5t77.5 -44.5zM465 609 h-64l-136 -635l-9 -70h55q14 46 19 70z" />
<glyph unicode="&#xb7;" horiz-adv-x="237" d="M119 340q23 0 39 -16.5t16 -39.5q0 -22 -16 -38.5t-39 -16.5t-39.5 16t-16.5 39t16 39.5t40 16.5z" />
<glyph unicode="&#xb8;" horiz-adv-x="240" d="M98 -11l38 -3l-24 -53q27 5 41 5q39 0 57 -20t18 -51q0 -81 -132 -81q-37 0 -84 17l16 35q111 -24 111 27q0 44 -71 30l-9 7z" />
<glyph unicode="&#xb9;" horiz-adv-x="247" d="M175 570q-7 -28 -7 -44q0 -14 7 -18.5t25 -4.5l-5 -27q-44 6 -80 6q-37 0 -83 -6l5 27q25 0 35 12t20 55l23 109q-9 -3 -25 -6.5t-18 -4.5l6 27q78 34 144 73q-31 -116 -47 -198z" />
<glyph unicode="&#xba;" horiz-adv-x="352" d="M403 388q-13 -63 -59.5 -100t-111.5 -37q-61 1 -92 37.5t-17 105.5q13 59 58.5 96t110.5 38q61 1 93 -36t18 -104zM318 373q30 139 -29 139q-26 0 -50 -33t-36 -96q-11 -47 -2 -81.5t38 -33.5q21 1 43.5 25.5t35.5 79.5z" />
<glyph unicode="&#xbb;" horiz-adv-x="488" d="M437 214l-191 -146l-35 8q101 112 128 138q-8 12 -25 46.5t-30 63.5l-14 28l39 8q86 -104 128 -146zM285 214l-191 -146l-34 8q101 112 127 138l-68 138l38 8q87 -104 128 -146z" />
<glyph unicode="&#xbc;" horiz-adv-x="648" d="M512 675h84l-441 -675h-86zM268 476q-7 -28 -7 -44q0 -14 7 -18.5t25 -4.5l-5 -27q-44 6 -80 6q-37 0 -83 -6l5 27q25 0 35 12t20 55l23 109q-9 -3 -25 -6.5t-18 -4.5l6 27q78 34 144 73q-31 -116 -47 -198zM611 69h-45q-3 -12 -3 -18q0 -13 7.5 -16t28.5 -3l-7 -34 q-30 6 -85 6q-53 0 -80 -5l7 33q24 0 33 5.5t15 31.5h-116l4 18l174 193h67l-40 -185h45zM486 95l14 63q-11 -14 -31.5 -34.5t-27.5 -28.5h45z" />
<glyph unicode="&#xbd;" horiz-adv-x="687" d="M504 675h84l-441 -675h-86zM268 477q-7 -28 -7 -44q0 -14 7 -18.5t25 -4.5l-5 -27q-44 6 -80 6q-37 0 -83 -6l5 27q25 0 35 12t20 55l23 109q-9 -3 -25 -6.5t-18 -4.5l6 27q78 34 144 73q-31 -116 -47 -198zM653 195q-5 -16 -20 -34.5t-27.5 -29.5t-34.5 -28t-25 -19 q-9 -7 -65 -47h12.5h13.5t12 0.5t12.5 1.5t10.5 2.5t10.5 4t8.5 6t8.5 9t6.5 11.5h50q-15 -24 -25 -73h-199l5 24l82 71q35 32 60.5 71t25.5 61t-17 22q-14 0 -22.5 -17t-8.5 -33q0 -12 5 -14q-15 -11 -44 -11q-47 0 -47 28q0 31 32 51t85 20q97 0 97 -59q0 -6 -2 -18z" />
<glyph unicode="&#xbe;" horiz-adv-x="679" d="M553 675h84l-441 -675h-86zM262 487q0 -45 -41.5 -68.5t-93.5 -23.5q-43 0 -69 14t-26 34q0 21 18 32.5t41 11.5q27 0 37 -13q-9 -11 -9 -33q0 -23 17 -23t27.5 16.5t13 31.5t2.5 26q0 37 -30 37q-24 0 -41 -1q7 15 7 30h28q57 0 57 70q0 23 -16 23q-10 0 -19 -12t-9 -28 q0 -7 3 -11q-15 -12 -44 -12q-41 0 -41 24q0 27 32.5 45t79.5 18q39 0 67.5 -13t28.5 -43q0 -23 -24 -46t-58 -27q62 -11 62 -59zM642 70h-45q-3 -12 -3 -18q0 -13 8 -16t28 -3l-7 -34q-30 6 -85 6q-53 0 -80 -5l7 33q25 0 33.5 5.5t14.5 31.5h-116l4 18l174 193h67 l-40 -185h45zM517 96l14 63q-11 -14 -31.5 -34.5t-27.5 -28.5h45z" />
<glyph unicode="&#xbf;" horiz-adv-x="564" d="M65 125q9 43 38.5 81t66.5 67.5t74.5 59.5t68 70.5t40.5 87.5h25q-14 -81 -15 -83q-9 -41 -28.5 -76t-42 -60.5t-45 -49.5t-41 -54.5t-25.5 -63.5q-8 -41 12 -62.5t55 -22.5q34 0 63 16.5t35 42.5q3 13 -2 24.5t-3 21.5q4 17 26.5 28.5t50.5 11.5q30 0 48 -15t14 -37 q-9 -42 -53 -72.5t-92.5 -42.5t-91.5 -12q-76 0 -134 36.5t-44 103.5zM324 607q6 26 27 43.5t46 17.5q26 0 39.5 -17.5t9.5 -43.5q-6 -25 -28 -42t-47 -17t-39 17t-8 42z" />
<glyph unicode="&#xc0;" horiz-adv-x="785" d="M745 28l-7 -28q-118 6 -178 6l-166 -6l7 28q81 0 90 48q3 16 -1.5 49.5t-10.5 58.5l-6 26l-242 1q-67 -104 -76 -147q-4 -18 16.5 -27t51.5 -9l-7 -28q-62 4 -110 4l-144 -4l6 28q8 0 21 0.5t41 10.5t42 29q45 62 144 221.5t176 288.5l76 129h71q0 -2 26.5 -146 t56.5 -301t38 -181q15 -49 85 -51zM466 259l-56 266l-154 -266h210zM533 731h-51l-157 96q-18 11 -18 38q0 17 12 29.5t30 12.5q21 0 33.5 -8t28.5 -27z" />
<glyph unicode="&#xc1;" horiz-adv-x="785" d="M745 28l-7 -28q-118 6 -178 6l-166 -6l7 28q81 0 90 48q3 16 -1.5 49.5t-10.5 58.5l-6 26l-242 1q-67 -104 -76 -147q-4 -18 16.5 -27t51.5 -9l-7 -28q-62 4 -110 4l-144 -4l6 28q8 0 21 0.5t41 10.5t42 29q45 62 144 221.5t176 288.5l76 129h71q0 -2 26.5 -146 t56.5 -301t38 -181q15 -49 85 -51zM466 259l-56 266l-154 -266h210zM652 878q0 -7 -1.5 -13t-6 -12t-7 -8.5l-10 -10l-8.5 -8.5l-95 -96h-43l72 147q17 38 48 38q19 0 35 -9.5t16 -27.5z" />
<glyph unicode="&#xc2;" horiz-adv-x="785" d="M745 28l-7 -28q-118 6 -178 6l-166 -6l7 28q81 0 90 48q3 16 -1.5 49.5t-10.5 58.5l-6 26l-242 1q-67 -104 -76 -147q-4 -18 16.5 -27t51.5 -9l-7 -28q-62 4 -110 4l-144 -4l6 28q8 0 21 0.5t41 10.5t42 29q45 62 144 221.5t176 288.5l76 129h71q0 -2 26.5 -146 t56.5 -301t38 -181q15 -49 85 -51zM466 259l-56 266l-154 -266h210zM654 731h-54l-76 97l-137 -97h-53l153 167h89z" />
<glyph unicode="&#xc3;" horiz-adv-x="785" d="M745 28l-7 -28q-118 6 -178 6l-166 -6l7 28q81 0 90 48q3 16 -1.5 49.5t-10.5 58.5l-6 26l-242 1q-67 -104 -76 -147q-4 -18 16.5 -27t51.5 -9l-7 -28q-62 4 -110 4l-144 -4l6 28q8 0 21 0.5t41 10.5t42 29q45 62 144 221.5t176 288.5l76 129h71q0 -2 26.5 -146 t56.5 -301t38 -181q15 -49 85 -51zM466 259l-56 266l-154 -266h210zM680 850q-28 -119 -115 -119q-27 0 -77 23q-44 23 -72 23q-32 0 -45 -46h-38q1 37 30 78t82 41q29 0 75 -23q46 -22 70 -22q14 0 24 7.5t13.5 14t11.5 23.5h41z" />
<glyph unicode="&#xc4;" horiz-adv-x="785" d="M745 28l-7 -28q-118 6 -178 6l-166 -6l7 28q81 0 90 48q3 16 -1.5 49.5t-10.5 58.5l-6 26l-242 1q-67 -104 -76 -147q-4 -18 16.5 -27t51.5 -9l-7 -28q-62 4 -110 4l-144 -4l6 28q8 0 21 0.5t41 10.5t42 29q45 62 144 221.5t176 288.5l76 129h71q0 -2 26.5 -146 t56.5 -301t38 -181q15 -49 85 -51zM466 259l-56 266l-154 -266h210zM702 800q-1 -27 -26.5 -49.5t-52.5 -22.5q-22 0 -37 15t-14 36q1 27 26 49t53 22q21 0 36.5 -14.5t14.5 -35.5zM444 800q-1 -26 -27 -49t-52 -23q-22 0 -38 15t-15 36q1 28 27 49.5t54 21.5 q21 0 36.5 -14.5t14.5 -35.5z" />
<glyph unicode="&#xc5;" horiz-adv-x="785" d="M745 28l-7 -28q-118 6 -178 6l-166 -6l7 28q81 0 90 48q3 16 -1.5 49.5t-10.5 58.5l-6 26l-242 1q-67 -104 -76 -147q-4 -18 16.5 -27t51.5 -9l-7 -28q-62 4 -110 4l-144 -4l6 28q8 0 21 0.5t41 10.5t42 29q45 62 144 221.5t176 288.5l76 129h71q0 -2 26.5 -146 t56.5 -301t38 -181q15 -49 85 -51zM466 259l-56 266l-154 -266h210zM619 827q-8 -44 -39.5 -69.5t-77.5 -25.5q-37 0 -60.5 31.5t-16.5 63.5q9 40 41 67.5t76 27.5q35 0 59.5 -29.5t17.5 -65.5zM570 827q4 20 -6.5 34t-30.5 14t-36.5 -14t-21.5 -34t6 -33.5t31 -13.5 t36.5 13.5t21.5 33.5z" />
<glyph unicode="&#xc6;" horiz-adv-x="1003" d="M1015 692q-5 -23 -8 -40t-4 -29t-4 -40.5t-6 -56.5h-35q-4 30 -10 50t-15 30t-14.5 14.5t-16.5 8.5t-15 6q-72 12 -228 12q-27 -123 -55 -258q170 -2 187 14q48 43 66 93h33q1 0 -31 -123q-7 -29 -13 -63.5t-8.5 -55t-3.5 -21.5h-36q0 4 1.5 16t1 19t-2.5 18t-8.5 21 t-17.5 20q-8 7 -52.5 10.5t-85.5 2.5h-41l-62 -294q54 0 96.5 1.5t72 5.5t44 6t33.5 7l19 4q2 1 15.5 7t18.5 8.5t18 12.5t21.5 20.5t20 29t21.5 42.5l35 -1q-10 -32 -24 -72.5t-21 -63t-13 -53.5h-619l7 30q63 2 101 36q17 17 47 146l-243 -1q-88 -104 -107 -147 q-7 -18 11.5 -27t49.5 -9l-7 -27q-62 4 -109 4l-146 -4l7 27q8 0 21 0.5t43.5 10.5t48.5 29q73 79 235.5 275.5t249.5 307.5q-17 9 -68 9l7 32h149h300h149zM498 616l-280 -357h217q15 70 17 79q47 223 46 278z" />
<glyph unicode="&#xc7;" horiz-adv-x="754" d="M766 707l-41 -236h-28q-2 89 -47.5 142.5t-137.5 49.5q-86 -3 -139 -51q-82 -79 -123 -266q-33 -158 8.5 -235.5t131.5 -76.5q27 0 52 4t48.5 13.5t40 16.5t37.5 21.5t29 20t27 20.5l18 16l22 -28q-1 -2 -14 -14.5t-41 -33t-63.5 -39t-87 -32t-105.5 -13.5 q-66 0 -121.5 19.5t-99 62.5t-57 111.5t4.5 166.5q36 167 162 264t270 97q55 0 114.5 -17.5t61.5 -17.5q40 0 56 35h22zM459 -133q0 -31 -23.5 -50.5t-50.5 -25t-58 -5.5q-36 0 -83 17l15 35q111 -24 111 27q0 44 -70 30l-10 7l41 91h39l-26 -60q27 5 40 5q75 0 75 -71z" />
<glyph unicode="&#xc8;" horiz-adv-x="758" d="M750 692q-5 -23 -8.5 -40.5t-4.5 -28.5t-4 -40.5t-6 -56.5h-34q-6 37 -16 59.5t-15.5 28.5t-22.5 13.5t-18 7.5q-69 12 -229 12q-25 -123 -54 -258q172 0 187 14q49 44 65 93h34q1 0 -31 -123q-7 -28 -13 -63t-9 -55.5t-4 -21.5h-36q0 1 2 15t1.5 19.5t-2.5 18t-8.5 22 t-17.5 19.5q-8 7 -52.5 10.5t-85.5 2.5h-40q-13 -63 -29.5 -138t-25 -115t-8.5 -41q45 0 84 1.5t63 3.5t46.5 5t32 5t23.5 5.5t16 3.5q1 1 15 7t19 8.5t18 12.5t21 20.5t19.5 29t21.5 42.5l35 -1q-9 -28 -19.5 -59.5t-15.5 -47t-11 -37t-12 -45.5h-617l7 30q63 2 100 36 q17 16 41.5 119t32.5 152q61 268 45 296q-5 9 -12.5 14.5t-19 8t-18 3.5t-20.5 1h-16l6 32h600zM498 733h-51l-157 96q-18 12 -18 38q0 17 12 29.5t30 12.5q21 0 33.5 -8t28.5 -27z" />
<glyph unicode="&#xc9;" horiz-adv-x="758" d="M750 692q-6 -25 -23 -166h-34q-5 30 -11 50t-14.5 30t-14 14.5t-16.5 8.5t-15 6q-72 12 -229 12q-26 -123 -54 -258q172 0 187 14q48 44 64 93h35q1 0 -3 -16t-13.5 -49.5t-15.5 -57.5q-7 -28 -12.5 -63t-8.5 -55.5t-4 -21.5h-36q0 4 1.5 15.5t1 19t-2 18.5t-8 21 t-17.5 20q-8 7 -52.5 10.5t-85.5 2.5h-41l-62 -294q54 0 96.5 1.5t72 5.5t44 6t33.5 7l19 4q2 1 15 6.5t18.5 9t18 12.5t21 20t20 29.5t21.5 42.5l35 -1q-8 -25 -19.5 -59t-16 -48t-11 -36t-11.5 -46h-618l7 30q63 2 101 36q22 22 74 271q61 268 44 296q-5 9 -12.5 14.5 t-18.5 8t-18 3.5t-21 1h-16l7 32h599zM603 878q0 -7 -1.5 -13t-6 -12t-6.5 -9t-9 -10l-9 -9l-95 -95h-44l72 147q20 38 48 38q19 0 35 -10t16 -27z" />
<glyph unicode="&#xca;" horiz-adv-x="758" d="M750 692q-5 -23 -8.5 -40.5t-4.5 -28.5t-4 -40.5t-6 -56.5h-34q-6 37 -16 59.5t-15.5 28.5t-22.5 13.5t-18 7.5q-69 12 -229 12q-25 -123 -54 -258q172 0 187 14q49 44 65 93h34q1 0 -31 -123q-7 -28 -13 -63t-9 -55.5t-4 -21.5h-36q0 1 2 15t1.5 19.5t-2.5 18t-8.5 22 t-17.5 19.5q-8 7 -52.5 10.5t-85.5 2.5h-40q-13 -63 -29.5 -138t-25 -115t-8.5 -41q45 0 84 1.5t63 3.5t46.5 5t32 5t23.5 5.5t16 3.5q1 1 15 7t19 8.5t18 12.5t21 20.5t19.5 29t21.5 42.5l35 -1q-9 -28 -19.5 -59.5t-15.5 -47t-11 -37t-12 -45.5h-617l7 30q63 2 100 36 q17 16 41.5 119t32.5 152q61 268 45 296q-5 9 -12.5 14.5t-19 8t-18 3.5t-20.5 1h-16l6 32h600zM621 734h-54l-76 97l-137 -97h-53l153 167h89z" />
<glyph unicode="&#xcb;" horiz-adv-x="758" d="M750 692q-5 -23 -8.5 -40.5t-4.5 -28.5t-4 -40.5t-6 -56.5h-34q-6 37 -16 59.5t-15.5 28.5t-22.5 13.5t-18 7.5q-69 12 -229 12q-25 -123 -54 -258q172 0 187 14q49 44 65 93h34q1 0 -31 -123q-7 -28 -13 -63t-9 -55.5t-4 -21.5h-36q0 1 2 15t1.5 19.5t-2.5 18t-8.5 22 t-17.5 19.5q-8 7 -52.5 10.5t-85.5 2.5h-40q-13 -63 -29.5 -138t-25 -115t-8.5 -41q45 0 84 1.5t63 3.5t46.5 5t32 5t23.5 5.5t16 3.5q1 1 15 7t19 8.5t18 12.5t21 20.5t19.5 29t21.5 42.5l35 -1q-9 -28 -19.5 -59.5t-15.5 -47t-11 -37t-12 -45.5h-617l7 30q63 2 100 36 q17 16 41.5 119t32.5 152q61 268 45 296q-5 9 -12.5 14.5t-19 8t-18 3.5t-20.5 1h-16l6 32h600zM671 807q-1 -27 -26.5 -50t-52.5 -23q-22 0 -37 15t-14 37q1 27 26 49t53 22q21 0 36.5 -14.5t14.5 -35.5zM412 807q-1 -27 -26 -50t-52 -23q-22 0 -38 15t-15 37q1 28 27 49.5 t54 21.5q21 0 36 -14.5t14 -35.5z" />
<glyph unicode="&#xcc;" horiz-adv-x="447" d="M505 693l-7 -30q-52 -5 -67 -9t-31 -22q-22 -26 -79 -291q-58 -250 -41 -277q11 -17 21 -23t31 -7.5t32 -4.5l-6 -31q-61 9 -172.5 10t-178.5 -8l7 30q34 1 50.5 7.5t46.5 28.5q24 19 77 282q0 3 7.5 35t14 65t14 76.5t8 68t-3.5 40.5q-6 12 -16.5 18.5t-19.5 7.5 t-24.5 1.5t-22.5 1.5l7 31q30 -6 156.5 -6.5t196.5 6.5zM358 731h-52l-156 95q-18 11 -18 38q0 17 12 29.5t29 12.5q22 0 34.5 -8t28.5 -27z" />
<glyph unicode="&#xcd;" horiz-adv-x="447" d="M505 693l-7 -30q-52 -5 -67 -9t-31 -22q-22 -26 -79 -291q-58 -250 -41 -277q11 -17 21 -23t31 -7.5t32 -4.5l-6 -31q-61 9 -172.5 10t-178.5 -8l7 30q34 1 50.5 7.5t46.5 28.5q24 19 77 282q0 3 7.5 35t14 65t14 76.5t8 68t-3.5 40.5q-6 12 -16.5 18.5t-19.5 7.5 t-24.5 1.5t-22.5 1.5l7 31q30 -6 156.5 -6.5t196.5 6.5zM476 878q0 -6 -1.5 -11.5t-3 -9t-6 -9t-6.5 -7.5l-8 -8l-7 -7l-95 -96h-44l73 147q17 38 48 38q19 0 34.5 -9.5t15.5 -27.5z" />
<glyph unicode="&#xce;" horiz-adv-x="447" d="M505 693l-7 -30q-52 -5 -67 -9t-31 -22q-22 -26 -79 -291q-58 -250 -41 -277q11 -17 21 -23t31 -7.5t32 -4.5l-6 -31q-61 9 -172.5 10t-178.5 -8l7 30q34 1 50.5 7.5t46.5 28.5q24 19 77 282q0 3 7.5 35t14 65t14 76.5t8 68t-3.5 40.5q-6 12 -16.5 18.5t-19.5 7.5 t-24.5 1.5t-22.5 1.5l7 31q30 -6 156.5 -6.5t196.5 6.5zM486 731h-54l-76 97l-138 -97h-52l153 167h88z" />
<glyph unicode="&#xcf;" horiz-adv-x="476" d="M505 693l-7 -30q-52 -5 -67 -9t-31 -22q-22 -26 -79 -291q-58 -250 -41 -277q11 -17 21 -23t31 -7.5t32 -4.5l-6 -31q-61 9 -172.5 10t-178.5 -8l7 30q34 1 50.5 7.5t46.5 28.5q24 19 77 282q0 3 7.5 35t14 65t14 76.5t8 68t-3.5 40.5q-6 12 -16.5 18.5t-19.5 7.5 t-24.5 1.5t-22.5 1.5l7 31q30 -6 156.5 -6.5t196.5 6.5zM533 807q-1 -27 -26 -50t-52 -23q-22 0 -37.5 15t-14.5 37q1 27 26 49t53 22q22 0 37 -14.5t14 -35.5zM275 807q-1 -27 -26.5 -50t-52.5 -23q-22 0 -37.5 15t-14.5 37q1 28 27 49.5t54 21.5q21 0 36 -14.5t14 -35.5z " />
<glyph unicode="&#xd0;" horiz-adv-x="757" d="M729 344q-10 -45 -30 -89.5t-58.5 -91.5t-89.5 -82.5t-128 -58t-169 -22.5h-296l6 30q62 2 102 36q20 20 73 269h-107l8 34h106q51 243 38 264q-4 7 -11 12.5t-13.5 8.5t-16.5 4.5t-16 2t-17 0.5h-13l7 32l282 -1q193 0 286.5 -88.5t56.5 -259.5zM558 340q34 157 -1 226 q-6 11 -10 18t-18 21t-30.5 22t-46.5 15t-67 7q-48 0 -49 -1l-8 -36q-8 -37 -24 -111.5t-28 -131.5h149l-8 -34h-147q-54 -256 -61 -296q1 1 62 -1q8 0 16.5 0.5t34 6.5t47.5 16t52 32.5t54 53.5t47 81t36 112z" />
<glyph unicode="&#xd1;" horiz-adv-x="861" d="M918 693l-2 -7q-1 -8 -2 -15l-2 -7q-63 0 -85 -17q-9 -7 -15 -19t-9 -20t-8.5 -31t-8.5 -33q-16 -61 -36 -157q-3 -15 -24.5 -114.5t-39.5 -183t-20 -98.5h-3h-7h-10h-11.5h-11.5h-9.5h-7.5h-2q-241 398 -333 550q-35 -175 -47 -232q-18 -74 -30 -158q-2 -11 -5 -27 t-5 -25.5t-3 -20.5t1 -18.5t6 -13.5q14 -18 78 -17q0 -2 -1 -5t-2.5 -9.5t-2.5 -10.5v-4q1 0 -14 0h-38t-51 -0.5t-56 -0.5h-51.5t-37.5 1h-15l7 32q74 -3 97 26q13 14 65 246q4 13 30.5 151.5t28.5 157.5q-4 33 -26 42q-5 2 -21 3.5t-30 2.5l-13 1l6 31h229 q27 -54 77 -137.5t122 -197.5t87 -138q13 44 38 171q11 51 27.5 142.5t12.5 104.5q-4 15 -26 21.5t-42 5.5l-20 -1q4 20 6 29h266zM689 854q-28 -120 -115 -120q-26 0 -76 24q-50 23 -73 23q-17 0 -28.5 -14t-15.5 -32h-38q1 36 30 77.5t82 41.5q28 0 74 -23q50 -23 70 -23 q5 0 9 0.5t7 1.5t6 3t5.5 3.5t5 5t3.5 5.5t3.5 6.5t3.5 6t3.5 7t3.5 7.5h40z" />
<glyph unicode="&#xd2;" horiz-adv-x="824" d="M797 332q-37 -152 -158.5 -248.5t-272.5 -96.5q-161 0 -242 92.5t-46 252.5q26 121 93 207t156 126.5t193 40.5q73 0 131 -20.5t101 -65.5t54.5 -116.5t-9.5 -171.5zM631 344q13 59 14.5 113t-10 101t-43.5 75.5t-82 29.5t-91 -19.5t-67.5 -51t-48 -77.5t-33.5 -87 t-22 -91q-16 -84 -9.5 -152.5t42.5 -111t95 -41.5q83 1 154.5 92.5t100.5 219.5zM547 733h-51l-157 96q-18 12 -18 38q0 17 12 29.5t30 12.5q21 0 33.5 -8t28.5 -27z" />
<glyph unicode="&#xd3;" horiz-adv-x="824" d="M797 332q-36 -152 -157.5 -248.5t-272.5 -96.5q-161 0 -242 92.5t-47 252.5q26 121 93 207t156.5 126.5t193.5 40.5q73 0 131 -20.5t101 -65.5t54 -116.5t-10 -171.5zM631 344q13 59 14.5 113t-9.5 101t-43 75.5t-83 29.5q-50 1 -91 -19.5t-67.5 -51t-48 -77.5t-33 -87 t-22.5 -91q-27 -128 6.5 -217t121.5 -88q83 1 155 92.5t100 219.5zM663 883q0 -5 -1 -9t-3 -9t-3.5 -7.5t-6 -7.5t-6 -6.5l-7 -7l-6.5 -6.5l-94 -95h-44l73 148q18 38 47 38q20 0 35.5 -10t15.5 -28z" />
<glyph unicode="&#xd4;" horiz-adv-x="824" d="M797 332q-37 -152 -158.5 -248.5t-272.5 -96.5q-161 0 -242 92.5t-46 252.5q26 121 93 207t156 126.5t193 40.5q73 0 131 -20.5t101 -65.5t54.5 -116.5t-9.5 -171.5zM631 344q13 59 14.5 113t-10 101t-43.5 75.5t-82 29.5t-91 -19.5t-67.5 -51t-48 -77.5t-33.5 -87 t-22 -91q-16 -84 -9.5 -152.5t42.5 -111t95 -41.5q83 1 154.5 92.5t100.5 219.5zM676 729h-54l-76 97l-138 -97h-52l153 166h88z" />
<glyph unicode="&#xd5;" horiz-adv-x="824" d="M797 332q-37 -152 -158.5 -248.5t-272.5 -96.5q-161 0 -242 92.5t-46 252.5q26 121 93 207t156 126.5t193 40.5q73 0 131 -20.5t101 -65.5t54.5 -116.5t-9.5 -171.5zM631 344q13 59 14.5 113t-10 101t-43.5 75.5t-82 29.5t-91 -19.5t-67.5 -51t-48 -77.5t-33.5 -87 t-22 -91q-16 -84 -9.5 -152.5t42.5 -111t95 -41.5q83 1 154.5 92.5t100.5 219.5zM693 855q-28 -120 -115 -120q-25 0 -77 24q-48 23 -72 23q-32 0 -45 -46h-38q1 36 30.5 77.5t82.5 41.5q28 0 74 -23q48 -23 70 -23q14 0 24 7.5t13.5 14.5t11.5 24h41z" />
<glyph unicode="&#xd6;" horiz-adv-x="824" d="M797 332q-37 -152 -158.5 -248.5t-272.5 -96.5q-161 0 -242 92.5t-46 252.5q26 121 93 207t156 126.5t193 40.5q73 0 131 -20.5t101 -65.5t54.5 -116.5t-9.5 -171.5zM631 344q13 59 14.5 113t-10 101t-43.5 75.5t-82 29.5t-91 -19.5t-67.5 -51t-48 -77.5t-33.5 -87 t-22 -91q-16 -84 -9.5 -152.5t42.5 -111t95 -41.5q83 1 154.5 92.5t100.5 219.5zM705 804q-1 -27 -26.5 -50t-52.5 -23q-22 0 -37.5 15t-14.5 37q1 27 26 49t53 22q22 0 37.5 -14.5t14.5 -35.5zM446 804q-2 -26 -27 -49.5t-52 -23.5q-22 0 -37.5 15t-14.5 37q1 28 27 49.5 t54 21.5q21 0 36 -14.5t14 -35.5z" />
<glyph unicode="&#xd8;" horiz-adv-x="815" d="M776 332q-36 -152 -157.5 -248.5t-272.5 -96.5h-23l-26 -78h-51l27 83q-127 21 -186.5 110.5t-29.5 229.5q26 121 93 207t156.5 127t193.5 40h6l13 44h51l-14 -47q131 -16 195.5 -108.5t24.5 -262.5zM610 344q15 69 16 129.5t-20 111.5t-65 69l-204 -622h18 q83 1 155 92.5t100 219.5zM492 663h-3q-42 1 -77 -12t-61 -38.5t-46 -55.5t-35 -70t-24.5 -74t-18.5 -76q-21 -98 -4 -178.5t69 -111.5z" />
<glyph unicode="&#xd9;" horiz-adv-x="748" d="M830 695l-7 -28q-70 -3 -99 -32q-19 -21 -34 -94l-58 -272q-6 -28 -9 -42.5t-15.5 -49t-26 -55t-40 -49t-59.5 -44.5t-82 -28t-109 -12q-248 0 -189 257q2 5 2 7q81 359 67 383q-16 29 -84 32l6 27q17 -6 192 -6q137 0 156 6l-6 -27q-70 -3 -98 -32q-16 -17 -52 -169.5 t-49 -220.5q-1 -4 -2 -12q-4 -25 -6 -40t-3.5 -42t4.5 -44t17 -35t33.5 -26.5t55.5 -8.5q121 0 184 79q33 41 54 142l61 282q14 73 3 97q-5 9 -12 15.5t-18 9t-17 3.5t-20.5 1h-15.5l7 28q15 -7 133 -7q115 0 136 7zM526 732h-52l-156 96q-18 11 -18 38q0 17 12 29.5 t29 12.5q21 0 33 -7.5t30 -27.5z" />
<glyph unicode="&#xda;" horiz-adv-x="749" d="M831 693l-7 -29q-70 -3 -99 -32q-19 -21 -34 -93l-58 -274q-5 -23 -7 -32.5t-9.5 -36t-15 -41.5t-22 -40.5t-31.5 -40.5t-42.5 -34t-55.5 -29t-70.5 -17.5t-87.5 -7.5q-248 0 -188 258q1 4 1 6q14 50 46 208t22 175q-17 29 -85 32l6 28q15 -7 192 -7q138 0 156 7l-6 -28 q-70 -3 -98 -32q-16 -17 -52 -169.5t-49 -220.5q-1 -4 -2 -12q-4 -21 -5.5 -33.5t-3.5 -36t0.5 -38.5t9 -33.5t18.5 -29.5t33 -18.5t49 -7.5q120 1 184 80q34 41 55 142l60 283q15 73 3 97q-5 9 -12 15t-18 8.5t-17 3.5t-19.5 1h-15.5l6 29q15 -8 134 -8q115 0 135 8z M664 877q0 -7 -1.5 -13t-6 -12t-7 -8.5l-10 -10l-8.5 -8.5l-95 -96h-43l72 147q17 38 48 38q19 0 35 -9.5t16 -27.5z" />
<glyph unicode="&#xdb;" horiz-adv-x="749" d="M831 693l-7 -29q-70 -3 -99 -32q-19 -21 -34 -93l-58 -274q-5 -23 -7 -32.5t-9.5 -36t-15 -41.5t-22 -40.5t-31.5 -40.5t-42.5 -34t-55.5 -29t-70.5 -17.5t-87.5 -7.5q-248 0 -188 258q1 4 1 6q14 50 46 208t22 175q-17 29 -85 32l6 28q15 -7 192 -7q138 0 156 7l-6 -28 q-70 -3 -98 -32q-16 -17 -52 -169.5t-49 -220.5q-1 -4 -2 -12q-4 -21 -5.5 -33.5t-3.5 -36t0.5 -38.5t9 -33.5t18.5 -29.5t33 -18.5t49 -7.5q120 1 184 80q34 41 55 142l60 283q15 73 3 97q-5 9 -12 15t-18 8.5t-17 3.5t-19.5 1h-15.5l6 29q15 -8 134 -8q115 0 135 8z M652 732h-54l-76 97l-138 -97h-52l153 167h88z" />
<glyph unicode="&#xdc;" horiz-adv-x="749" d="M831 693l-6 -29q-71 -3 -99 -32q-13 -13 -19 -31t-15 -62l-58 -274q-5 -25 -7 -32.5t-10 -36t-15 -42t-22.5 -40t-31.5 -40.5t-42 -33.5t-55.5 -29.5t-70 -17.5t-87.5 -7.5q-249 0 -189 257q2 5 2 7q81 357 67 383q-16 29 -85 32l7 28q15 -7 192 -7q136 0 156 7l-6 -28 q-71 -3 -99 -32q-17 -17 -55.5 -183.5t-44.5 -206.5q-17 -91 -9 -130q14 -80 107 -79q119 1 185 80q33 42 54 142l60 283q16 72 4 97q-5 9 -12 15t-18 8.5t-17 3.5t-20 1h-16l6 29q15 -8 134 -8q118 0 135 8zM713 800q-1 -27 -26.5 -49.5t-52.5 -22.5q-22 0 -37 15t-14 36 q1 28 26 49.5t53 21.5q21 0 36.5 -14.5t14.5 -35.5zM455 800q-1 -26 -27 -49t-52 -23q-22 0 -37.5 15t-14.5 36q1 28 26.5 49.5t53.5 21.5q21 0 36.5 -14.5t14.5 -35.5z" />
<glyph unicode="&#xdd;" horiz-adv-x="722" d="M792 693l-7 -32q-55 -2 -91.5 -26.5t-103.5 -102.5q-17 -20 -53.5 -65.5t-65 -82.5t-28.5 -38q-63 -263 -50 -280q24 -38 86 -36l-7 -33q-8 4 -71.5 8t-84.5 4q-170 0 -192 -8l7 30q61 2 100 37q9 8 21.5 49.5t22 84t19 87.5t10.5 48q-72 183 -119 288q-8 17 -20 25.5 t-20 10t-25 1t-20 -0.5l6 32q24 -9 160 -9q20 0 87 2.5t75 5.5l-6 -31q-3 0 -14 0.5t-17 0t-15 -2t-15.5 -6.5t-10.5 -13q-7 -10 14 -72t45 -119l24 -57l37 50q38 51 79 108.5t48 72.5q8 18 -7 29t-43 9l7 30q88 -4 115 -4q51 0 123 6zM644 877q0 -6 -1.5 -11.5t-3 -9t-6 -9 t-6.5 -7.5l-8 -8l-7 -7l-95 -96h-44l72 147q19 38 49 38q18 0 34 -9.5t16 -27.5z" />
<glyph unicode="&#xde;" horiz-adv-x="670" d="M309 227q12 0 43 6q63 12 103 57.5t49 98.5q21 119 -70 150q-9 3 -14.5 4.5t-13.5 2.5t-13.5 1t-22.5 0.5t-32 0.5q-3 -12 -28 -113q-79 -348 -61 -371q10 -13 20 -19.5t17 -8t21.5 -3t26.5 -4.5l-7 -31q-61 9 -172 10t-178 -8l6 30q34 1 50.5 7.5t46.5 28.5 q29 22 77 282q58 254 41 285q-6 12 -16.5 18.5t-19.5 7.5t-24.5 1.5t-23.5 1.5l7 31q30 -6 156.5 -6.5t196.5 6.5l-6 -30q-53 -5 -67.5 -9t-30.5 -22q-8 -9 -20 -45q118 -2 159 -6q77 -8 118.5 -60.5t25.5 -130.5q-19 -94 -90.5 -143t-171.5 -55q-38 -2 -65 -2q-1 2 -3.5 6 t-7 12t-6.5 13.5t0 5.5z" />
<glyph unicode="&#xdf;" horiz-adv-x="448" d="M453 119q-13 -61 -73 -96.5t-143 -35.5q-27 0 -48 5q-30 6 -75 8q-3 0 -28 0.5t-48 0.5q-17 0 -79.5 -0.5t-99.5 -0.5l5 28h73q11 34 18 67l60 285h-75l9 42h75l16 73q18 88 91.5 132t173.5 44q85 0 127.5 -47t25.5 -127q-9 -45 -34 -93q-31 23 -61 23q-24 0 -42.5 -15 t-23.5 -37t12.5 -42t44.5 -39t53 -41t40.5 -57t5.5 -77zM189 326q28 135 179 145q10 24 13 40q11 51 -16.5 86t-71.5 35q-42 0 -72.5 -29.5t-41.5 -81.5l-37 -165l-55 -261q-7 -34 -9 -67q20 0 46 1l30 118h37q-1 -8 -6 -30.5t-4 -34.5q3 -33 19.5 -44.5t49.5 -11.5 q37 0 57 21t23 53q2 22 -14.5 42t-40 37t-46.5 36.5t-35 48t-5 62.5z" />
<glyph unicode="&#xe0;" horiz-adv-x="567" d="M551 107q-65 -123 -153 -123q-13 0 -25.5 2.5t-29 10t-25 25.5t-5.5 45q-46 -39 -76.5 -58t-60.5 -24q-23 -6 -51.5 -1.5t-53 13.5t-37.5 34.5t-6 62.5q17 78 95 126.5t241 84.5l13 61q7 28 -10.5 52t-36.5 25q-71 4 -87 -51q-4 -12 -2.5 -19.5t3 -10t5.5 -6t5 -5.5 q-27 -37 -87 -42q-18 -2 -35 6.5t-25 28.5t13 54q28 48 81 64.5t133 17.5q105 3 140 -36q20 -20 24.5 -53t-0.5 -55l-5 -23l-25 -120q-2 -10 -5.5 -23t-5.5 -22t-4.5 -19.5t-3.5 -17t-1.5 -14t1 -12.5t4 -8.5t7 -5.5t10.5 -2q12 0 24 12.5t18 24.5l7 12zM358 277 q-80 -25 -121 -66t-53 -78l-1 -2q-11 -38 5.5 -54t45.5 -14q47 4 88 44q7 34 36 170zM388 540h-51l-157 96q-18 10 -18 38q0 17 12 29t30 12q21 0 33.5 -8t29.5 -27z" />
<glyph unicode="&#xe1;" horiz-adv-x="567" d="M551 107q-65 -123 -153 -123q-13 0 -25.5 2.5t-29 10t-25 25.5t-5.5 45q-46 -39 -76.5 -58t-60.5 -24q-23 -6 -51.5 -1.5t-53 13.5t-37.5 34.5t-6 62.5q17 78 95 126.5t241 84.5l13 61q7 28 -10.5 52t-36.5 25q-71 4 -87 -51q-4 -12 -2.5 -19.5t3 -10t5.5 -6t5 -5.5 q-27 -37 -87 -42q-18 -2 -35 6.5t-25 28.5t13 54q28 48 81 64.5t133 17.5q105 3 140 -36q20 -20 24.5 -53t-0.5 -55l-5 -23l-25 -120q-2 -10 -5.5 -23t-5.5 -22t-4.5 -19.5t-3.5 -17t-1.5 -14t1 -12.5t4 -8.5t7 -5.5t10.5 -2q12 0 24 12.5t18 24.5l7 12zM358 277 q-80 -25 -121 -66t-53 -78l-1 -2q-11 -38 5.5 -54t45.5 -14q47 4 88 44q7 34 36 170zM503 691q0 -7 -1.5 -13t-6 -12t-6.5 -9t-9 -10l-9 -9l-95 -96h-44l73 148q17 38 48 38q19 0 34.5 -9.5t15.5 -27.5z" />
<glyph unicode="&#xe2;" horiz-adv-x="567" d="M551 107q-65 -123 -153 -123q-13 0 -25.5 2.5t-29 10t-25 25.5t-5.5 45q-46 -39 -76.5 -58t-60.5 -24q-23 -6 -51.5 -1.5t-53 13.5t-37.5 34.5t-6 62.5q17 78 95 126.5t241 84.5l13 61q7 28 -10.5 52t-36.5 25q-71 4 -87 -51q-4 -12 -2.5 -19.5t3 -10t5.5 -6t5 -5.5 q-27 -37 -87 -42q-18 -2 -35 6.5t-25 28.5t13 54q28 48 81 64.5t133 17.5q105 3 140 -36q20 -20 24.5 -53t-0.5 -55l-5 -23l-25 -120q-2 -10 -5.5 -23t-5.5 -22t-4.5 -19.5t-3.5 -17t-1.5 -14t1 -12.5t4 -8.5t7 -5.5t10.5 -2q12 0 24 12.5t18 24.5l7 12zM358 277 q-80 -25 -121 -66t-53 -78l-1 -2q-11 -38 5.5 -54t45.5 -14q47 4 88 44q7 34 36 170zM493 546h-54l-76 97l-138 -97h-52l153 166h88z" />
<glyph unicode="&#xe3;" horiz-adv-x="567" d="M551 107q-65 -123 -153 -123q-13 0 -25.5 2.5t-29 10t-25 25.5t-5.5 45q-46 -39 -76.5 -58t-60.5 -24q-23 -6 -51.5 -1.5t-53 13.5t-37.5 34.5t-6 62.5q17 78 95 126.5t241 84.5l13 61q7 28 -10.5 52t-36.5 25q-71 4 -87 -51q-4 -12 -2.5 -19.5t3 -10t5.5 -6t5 -5.5 q-27 -37 -87 -42q-18 -2 -35 6.5t-25 28.5t13 54q28 48 81 64.5t133 17.5q105 3 140 -36q20 -20 24.5 -53t-0.5 -55l-5 -23l-25 -120q-2 -10 -5.5 -23t-5.5 -22t-4.5 -19.5t-3.5 -17t-1.5 -14t1 -12.5t4 -8.5t7 -5.5t10.5 -2q12 0 24 12.5t18 24.5l7 12zM358 277 q-80 -25 -121 -66t-53 -78l-1 -2q-11 -38 5.5 -54t45.5 -14q47 4 88 44q7 34 36 170zM527 661q-28 -120 -115 -120q-25 0 -77 24q-44 23 -72 23q-32 0 -45 -46h-38q1 37 30 78t82 41q29 0 75 -23q46 -22 70 -22q14 0 24 7t14 14t11 24h41z" />
<glyph unicode="&#xe4;" horiz-adv-x="567" d="M551 107q-65 -123 -153 -123q-13 0 -25.5 2.5t-29 10t-25 25.5t-5.5 45q-46 -39 -76.5 -58t-60.5 -24q-23 -6 -51.5 -1.5t-53 13.5t-37.5 34.5t-6 62.5q17 78 95 126.5t241 84.5l13 61q7 28 -10.5 52t-36.5 25q-71 4 -87 -51q-4 -12 -2.5 -19.5t3 -10t5.5 -6t5 -5.5 q-27 -37 -87 -42q-18 -2 -35 6.5t-25 28.5t13 54q28 48 81 64.5t133 17.5q105 3 140 -36q20 -20 24.5 -53t-0.5 -55l-5 -23l-25 -120q-2 -10 -5.5 -23t-5.5 -22t-4.5 -19.5t-3.5 -17t-1.5 -14t1 -12.5t4 -8.5t7 -5.5t10.5 -2q12 0 24 12.5t18 24.5l7 12zM358 277 q-80 -25 -121 -66t-53 -78l-1 -2q-11 -38 5.5 -54t45.5 -14q47 4 88 44q7 34 36 170zM523 617q-1 -27 -26.5 -50t-52.5 -23q-22 0 -37.5 15t-14.5 37q1 27 26.5 49t53.5 22q21 0 36.5 -14.5t14.5 -35.5zM265 617q-1 -27 -26.5 -50t-52.5 -23q-22 0 -38 15t-15 37 q1 28 27 49.5t55 21.5q21 0 36 -14.5t14 -35.5z" />
<glyph unicode="&#xe5;" horiz-adv-x="566" d="M550 107q-65 -123 -153 -123q-12 0 -24.5 2.5t-29.5 10t-25.5 25.5t-4.5 45q-46 -39 -77 -58t-61 -24q-23 -6 -51.5 -1.5t-53 13.5t-37.5 34.5t-5 62.5q17 78 94.5 126.5t240.5 84.5l14 61q6 28 -11 52t-36 25q-73 4 -87 -51q-4 -11 -3 -19.5t2.5 -10.5t5.5 -5.5t6 -5.5 q-27 -37 -87 -42q-18 -2 -35.5 6.5t-25.5 28.5t13 54q29 48 82 64.5t133 17.5q104 3 139 -36q20 -20 24.5 -53t-0.5 -55l-5 -23l-24 -120q-2 -10 -5.5 -23t-5.5 -22t-4.5 -19.5t-3.5 -17t-1.5 -14t1 -12.5t4 -8.5t7 -5.5t10.5 -2q12 0 24 12.5t18 24.5l6 12zM358 277 q-80 -25 -122 -66.5t-52 -77.5l-1 -2q-11 -38 5.5 -54t44.5 -14q48 4 88 44q6 26 17.5 81t19.5 89zM435 636q-8 -43 -39.5 -69t-76.5 -26q-38 0 -61.5 31.5t-15.5 63.5q8 40 40.5 67.5t75.5 27.5q35 0 59.5 -29.5t17.5 -65.5zM386 636q5 20 -6 34t-31 14t-36.5 -14 t-21.5 -34t6 -33.5t31 -13.5t36.5 13.5t21.5 33.5z" />
<glyph unicode="&#xe6;" horiz-adv-x="840" d="M807 280h-322q-13 -56 -7.5 -95t16.5 -63t32 -37.5t39.5 -18.5t39.5 -5q80 0 165 104l24 -21q-50 -62 -87 -93.5t-89 -48.5t-128 -16q-113 0 -143 109q-91 -97 -171 -110q-19 -1 -41 -2t-43.5 6.5t-38.5 18.5t-24 33.5t-1 52.5q17 78 95 126.5t241 84.5l13 61 q6 28 -11 52t-36 25q-71 4 -87 -51q-2 -19 -2.5 -23.5t6 -10.5t7.5 -7q-27 -37 -87 -42q-18 -2 -35 6.5t-25 28.5t12 54q29 49 82.5 66t131.5 18q102 3 143 -45q78 54 176 52q84 -1 130 -50t25 -159zM689 323q10 53 -1 91.5t-47 38.5q-93 0 -144 -130h192zM358 277 q-80 -25 -121 -66t-53 -78l-1 -2q-11 -38 5.5 -54t44.5 -14q48 4 89 44q7 34 36 170z" />
<glyph unicode="&#xe7;" horiz-adv-x="556" d="M535 434q15 -31 -0.5 -62.5t-48.5 -40.5q-55 -17 -103 24l6 5q6 6 7.5 8t6.5 8t7 10.5t4.5 11t2.5 12.5q1 21 -18 32.5t-34 11.5q-13 -1 -28 -5.5t-36 -17t-39 -32t-34.5 -54t-25.5 -78.5q-20 -98 15 -150t96 -51q25 0 48 7.5t41 21.5t29.5 24.5t25.5 27t17 20.5l22 -19 q-19 -39 -63.5 -83t-80.5 -58q-57 -22 -125 -21q-4 0 -11.5 0.5t-11.5 1.5l-24 -55q27 5 41 5q39 0 57 -20t18 -51t-24 -50.5t-51 -25t-57 -5.5q-37 0 -84 17l16 35q111 -24 111 27q0 44 -71 30l-9 7l41 91h7q-68 18 -107 75.5t-19 154.5q28 132 116 200t201 70 q65 1 110.5 -16t58.5 -43z" />
<glyph unicode="&#xe8;" horiz-adv-x="551" d="M519 280h-322q-13 -56 -7.5 -95t16 -63t31.5 -37.5t39.5 -18.5t39.5 -5q78 0 166 104l24 -21q-74 -92 -134.5 -125.5t-169.5 -32.5q-88 1 -131.5 66t-20.5 171q20 89 72 151.5t114 89t128 25.5q84 -1 129.5 -50t25.5 -159zM400 323q12 48 0.5 89t-47.5 41 q-94 0 -145 -130h192zM384 544h-51l-157 96q-18 12 -18 38q0 17 12 29.5t30 12.5q21 0 33.5 -8t28.5 -27z" />
<glyph unicode="&#xe9;" horiz-adv-x="551" d="M519 280h-322q-13 -56 -7.5 -95t16 -63t31.5 -37.5t39.5 -18.5t39.5 -5q78 0 166 104l24 -21q-74 -92 -134.5 -125.5t-169.5 -32.5q-88 1 -131.5 66t-20.5 171q20 89 72 151.5t114 89t128 25.5q84 -1 129.5 -50t25.5 -159zM400 323q12 48 0.5 89t-47.5 41 q-94 0 -145 -130h192zM507 693q0 -5 -1 -9.5t-3 -9t-3.5 -7.5t-6 -8t-5.5 -6l-6.5 -6.5l-6.5 -6.5l-95 -96h-44l73 148q17 38 48 38q19 0 34.5 -9.5t15.5 -27.5z" />
<glyph unicode="&#xea;" horiz-adv-x="551" d="M519 280h-322q-13 -56 -7.5 -95t16 -63t31.5 -37.5t39.5 -18.5t39.5 -5q78 0 166 104l24 -21q-74 -92 -134.5 -125.5t-169.5 -32.5q-88 1 -131.5 66t-20.5 171q20 89 72 151.5t114 89t128 25.5q84 -1 129.5 -50t25.5 -159zM400 323q12 48 0.5 89t-47.5 41 q-94 0 -145 -130h192zM506 542h-54l-76 97l-137 -97h-53l153 167h89z" />
<glyph unicode="&#xeb;" horiz-adv-x="574" d="M519 280h-322q-13 -56 -7.5 -95t16 -63t31.5 -37.5t39.5 -18.5t39.5 -5q78 0 166 104l24 -21q-74 -92 -134.5 -125.5t-169.5 -32.5q-88 1 -131.5 66t-20.5 171q20 89 72 151.5t114 89t128 25.5q84 -1 129.5 -50t25.5 -159zM400 323q12 48 0.5 89t-47.5 41 q-94 0 -145 -130h192zM547 614q-1 -27 -26.5 -50t-52.5 -23q-22 0 -37 15t-14 37q1 27 26 49t53 22q22 0 37 -14.5t14 -35.5zM289 614q-1 -26 -27 -49.5t-52 -23.5q-22 0 -37.5 15t-14.5 37q1 28 27 49.5t54 21.5q21 0 36 -14.5t14 -35.5z" />
<glyph unicode="&#xec;" horiz-adv-x="364" d="M315 146q-73 -144 -165 -160q-28 -7 -65 7t-42 51q-8 68 29 204q5 17 13 44.5t13 44t11 39.5t6.5 31t-0.5 19q-9 20 -53 20l8 37q12 -3 86 -5.5t112 2.5q-39 -103 -88 -282q-7 -30 -10.5 -51.5t-4 -42.5t7 -32t23.5 -10q38 2 93 96zM212 539h-52l-156 96q-18 10 -18 38 q0 17 12 29t29 12q21 0 33.5 -7.5t29.5 -27.5z" />
<glyph unicode="&#xed;" horiz-adv-x="323" d="M323 146q-26 -50 -51.5 -84t-49 -48.5t-36.5 -19.5t-29 -8q-27 -7 -64 7t-42 51q-8 64 28 204q5 17 13 44.5t13 44t11 39.5t6.5 31t-0.5 19q-8 20 -53 20l9 37q12 -3 86 -5.5t111 2.5q-41 -109 -87 -282q-7 -31 -11 -52t-4.5 -42.5t7.5 -32t24 -9.5q39 2 92 96zM356 691 q0 -7 -1.5 -13t-6 -12t-6.5 -9t-9.5 -10.5l-9.5 -9.5l-94 -95h-44l72 148q20 38 48 38q19 0 35 -10t16 -27z" />
<glyph unicode="&#xee;" horiz-adv-x="396" d="M345 146q-73 -144 -165 -160q-28 -7 -65 7t-42 51q-8 68 29 204q5 17 13 44.5t13 44t11 39.5t6.5 31t-0.5 19q-9 20 -53 20l8 37q12 -3 86 -5.5t112 2.5q-39 -103 -88 -282q-7 -30 -10.5 -51.5t-4 -42.5t7 -32t23.5 -10q38 2 93 96zM371 543h-54l-76 96l-138 -96h-52 l153 167h88z" />
<glyph unicode="&#xef;" horiz-adv-x="405" d="M344 146q-73 -144 -165 -160q-28 -7 -65 7t-42 51q-8 68 29 204q5 17 13 44.5t13 44t11 39.5t6.5 31t-0.5 19q-9 20 -53 20l8 37q12 -3 86 -5.5t112 2.5q-39 -103 -88 -282q-7 -30 -10.5 -51.5t-4 -42.5t7 -32t23.5 -10q38 2 93 96zM412 615q-1 -27 -26.5 -50t-52.5 -23 q-22 0 -37.5 15t-14.5 37q1 28 26 49.5t53 21.5q22 0 37.5 -14.5t14.5 -35.5zM153 615q-1 -27 -26.5 -50t-52.5 -23q-22 0 -38 15t-15 37q2 28 28 49.5t54 21.5q21 0 36 -14.5t14 -35.5z" />
<glyph unicode="&#xf0;" horiz-adv-x="561" d="M393 186q15 69 15 115q0 101 -68 101q-96 0 -130 -165q-15 -67 -15 -114q0 -94 68 -94q46 0 80 40t50 117zM412 611l144 63l14 -32q-69 -30 -128 -57q44 -43 74 -119t30 -155q0 -160 -83.5 -244t-219.5 -84q-91 0 -139.5 42t-48.5 122q0 138 82 219t209 81q17 0 49 -6 q-2 58 -35 108l-127 -56l-15 30q5 2 20.5 9t43.5 20t57 26q-43 51 -92 64q3 17 7 29q94 -12 158 -60z" />
<glyph unicode="&#xf1;" horiz-adv-x="646" d="M628 142q-85 -158 -201 -158q-51 0 -69 45q-18 49 42 242q12 37 17.5 65t5.5 43t-4.5 24.5t-9 13t-11.5 5.5q-20 6 -43.5 -2.5t-42.5 -25.5t-35 -34.5t-25 -31.5l-9 -13q-30 -113 -62 -316q-13 7 -68 7t-71 -6q7 16 31 104.5t36 141.5q35 146 28 181q-4 19 -53 19l7 32 q16 -4 88 -5t110 9q-27 -63 -32 -110q23 43 87 85.5t139 33.5q30 -4 48 -17t26.5 -41.5t-2.5 -81t-41 -127.5q-14 -36 -21 -64.5t-7 -45.5t3.5 -28.5t9 -15.5t11.5 -4q19 0 41 21t33.5 39t17.5 31zM544 662q-30 -120 -115 -120q-27 0 -77 24q-46 23 -73 23q-17 0 -28.5 -14 t-15.5 -32h-38q1 21 11 46.5t37 49t64 23.5q28 0 74 -23q48 -22 70 -22q5 0 9 0.5t7 1.5t6.5 3.5t5 3t4.5 4.5t4 5t4 6t3.5 6.5t3.5 7.5t3 7h41z" />
<glyph unicode="&#xf2;" horiz-adv-x="606" d="M566 234q-25 -117 -110.5 -185.5t-205.5 -67.5q-112 1 -169 69.5t-30 195.5q24 108 108.5 176.5t203.5 69.5q113 2 171 -66t32 -192zM410 206q12 53 16 97.5t0 81.5t-21.5 57.5t-47.5 20.5q-48 0 -93 -61t-68 -177q-20 -88 -3 -151t72 -62q37 1 79 46t66 148zM394 540 h-51l-157 96q-18 10 -18 38q0 17 12 29t30 12q22 0 34.5 -8t28.5 -27z" />
<glyph unicode="&#xf3;" horiz-adv-x="606" d="M566 234q-25 -117 -110.5 -185.5t-205.5 -67.5q-112 1 -169 69.5t-30 195.5q24 108 108.5 176.5t203.5 69.5q113 2 171 -66t32 -192zM410 206q12 53 16 97.5t0 81.5t-21.5 57.5t-47.5 20.5q-48 0 -93 -61t-68 -177q-20 -88 -3 -151t72 -62q37 1 79 46t66 148zM526 689 q0 -7 -1.5 -13t-6 -12t-6.5 -9t-9 -10l-9 -9l-95 -95h-44l73 147q17 38 48 38q19 0 34.5 -9.5t15.5 -27.5z" />
<glyph unicode="&#xf4;" horiz-adv-x="606" d="M566 234q-25 -117 -110.5 -185.5t-205.5 -67.5q-112 1 -169 69.5t-30 195.5q24 108 108.5 176.5t203.5 69.5q113 2 171 -66t32 -192zM410 206q12 53 16 97.5t0 81.5t-21.5 57.5t-47.5 20.5q-48 0 -93 -61t-68 -177q-20 -88 -3 -151t72 -62q37 1 79 46t66 148zM522 541 h-54l-76 96l-138 -96h-52l153 166h88z" />
<glyph unicode="&#xf5;" horiz-adv-x="606" d="M566 234q-25 -117 -110.5 -185.5t-205.5 -67.5q-112 1 -169 69.5t-30 195.5q24 108 108.5 176.5t203.5 69.5q113 2 171 -66t32 -192zM410 206q12 53 16 97.5t0 81.5t-21.5 57.5t-47.5 20.5q-48 0 -93 -61t-68 -177q-20 -88 -3 -151t72 -62q37 1 79 46t66 148zM532 660 q-28 -119 -115 -119q-27 0 -77 23q-44 23 -72 23q-32 0 -45 -46h-38q1 21 11 46.5t37.5 49t64.5 23.5q28 0 74 -23q46 -22 70 -22q14 0 24 7.5t13.5 14t11.5 23.5h41z" />
<glyph unicode="&#xf6;" horiz-adv-x="606" d="M566 234q-25 -117 -110.5 -185.5t-205.5 -67.5q-112 1 -169 69.5t-30 195.5q24 108 108.5 176.5t203.5 69.5q113 2 171 -66t32 -192zM410 206q12 53 16 97.5t0 81.5t-21.5 57.5t-47.5 20.5q-48 0 -93 -61t-68 -177q-20 -88 -3 -151t72 -62q37 1 79 46t66 148zM566 613 q-1 -27 -26 -49.5t-52 -22.5q-22 0 -37.5 14.5t-14.5 36.5q1 27 26 49t53 22q22 0 37 -14.5t14 -35.5zM308 613q-1 -26 -27 -49t-52 -23q-22 0 -37.5 14.5t-14.5 36.5q1 28 27 49.5t54 21.5q21 0 36 -14.5t14 -35.5z" />
<glyph unicode="&#xf7;" horiz-adv-x="561" d="M314 62q-6 -28 -30 -47.5t-52 -19.5t-42.5 19.5t-8.5 47.5q5 27 28.5 46t50.5 19t43.5 -19t10.5 -46zM386 401q-6 -28 -30 -47.5t-52 -19.5t-42.5 19.5t-8.5 47.5q5 27 29 46t51 19t43 -19t10 -46zM501 188h-460l18 81h460z" />
<glyph unicode="&#xf8;" horiz-adv-x="626" d="M578 234q-25 -117 -110.5 -185.5t-205.5 -67.5q-13 0 -20 1l-24 -73h-35l26 77q-87 17 -128.5 83.5t-17.5 176.5q23 108 108 176t203 70l20 62h35l-21 -63q98 -9 146.5 -76t23.5 -181zM422 206q48 216 -25 250l-144 -440q9 -4 24 -4q37 1 79 46t66 148zM364 462 q-47 -3 -90 -64t-66 -173q-28 -137 17 -190z" />
<glyph unicode="&#xf9;" d="M606 139q-24 -46 -49.5 -78t-46.5 -46.5t-41.5 -23t-34.5 -7t-26 0.5h-7q-43 0 -59 37q-15 30 -1 94q-39 -50 -104 -87.5t-115 -41.5q-25 -3 -41.5 1.5t-25 18t-10.5 32.5t3 52.5t14 70.5t24 93q8 29 21 91.5t11 77.5q-5 20 -46 18l6 27q16 -3 83.5 -3t96.5 8 q-40 -147 -66 -272q-16 -73 -16 -98.5t18 -32.5q24 -9 63.5 17t66.5 56l28 31q16 64 33.5 159t26.5 137q8 -3 62.5 -3t69.5 6q-1 -4 -12 -52t-26.5 -110.5t-24.5 -97.5q-22 -91 -19.5 -120t29.5 -30q19 -1 49.5 32t38.5 55zM365 542h-52l-156 96q-18 11 -18 38q0 17 12 29.5 t29 12.5q22 0 34.5 -8t28.5 -27z" />
<glyph unicode="&#xfa;" horiz-adv-x="623" d="M605 139q-30 -56 -60 -91.5t-59 -47.5t-43 -14t-36 -1h-7q-41 0 -59 37q-14 31 -1 94q-39 -50 -103.5 -87.5t-114.5 -41.5q-26 -3 -42 1t-24.5 18t-11 32.5t3 52.5t14 70.5t24.5 93.5q34 151 31 169q-5 20 -45 18l5 27q16 -3 84 -3t97 8q-37 -126 -67 -272 q-16 -73 -16 -98.5t18 -32.5q24 -9 64 17t67 56l28 31q15 61 31.5 151.5t28.5 144.5q8 -3 62.5 -3t69.5 6q-1 -4 -12 -52t-26.5 -110.5t-24.5 -97.5q-22 -91 -20 -120t29 -30q20 -1 50 31.5t39 55.5zM500 688q0 -6 -1.5 -11.5t-3 -9t-6 -9t-6.5 -7.5l-8.5 -8.5l-7.5 -7.5 l-94 -95h-44l72 147q20 38 48 38q19 0 35 -10t16 -27z" />
<glyph unicode="&#xfb;" horiz-adv-x="623" d="M605 139q-30 -56 -60 -91.5t-59 -47.5t-43 -14t-36 -1h-7q-41 0 -59 37q-14 31 -1 94q-39 -50 -103.5 -87.5t-114.5 -41.5q-26 -3 -42 1t-24.5 18t-11 32.5t3 52.5t14 70.5t24.5 93.5q34 151 31 169q-5 20 -45 18l5 27q16 -3 84 -3t97 8q-37 -126 -67 -272 q-16 -73 -16 -98.5t18 -32.5q24 -9 64 17t67 56l28 31q15 61 31.5 151.5t28.5 144.5q8 -3 62.5 -3t69.5 6q-1 -4 -12 -52t-26.5 -110.5t-24.5 -97.5q-22 -91 -20 -120t29 -30q20 -1 50 31.5t39 55.5zM500 541h-54l-76 96l-138 -96h-52l153 166h88z" />
<glyph unicode="&#xfc;" horiz-adv-x="623" d="M605 139q-30 -56 -60 -91.5t-59 -47.5t-43 -14t-36 -1h-7q-41 0 -59 37q-14 31 -1 94q-39 -50 -103.5 -87.5t-114.5 -41.5q-26 -3 -42 1t-24.5 18t-11 32.5t3 52.5t14 70.5t24.5 93.5q34 151 31 169q-5 20 -45 18l5 27q16 -3 84 -3t97 8q-37 -126 -67 -272 q-16 -73 -16 -98.5t18 -32.5q24 -9 64 17t67 56l28 31q15 61 31.5 151.5t28.5 144.5q8 -3 62.5 -3t69.5 6q-1 -4 -12 -52t-26.5 -110.5t-24.5 -97.5q-22 -91 -20 -120t29 -30q20 -1 50 31.5t39 55.5zM547 615q-1 -27 -26.5 -50t-52.5 -23q-22 0 -37.5 15t-14.5 37 q1 27 26 49t53 22q22 0 37.5 -14.5t14.5 -35.5zM288 615q-1 -27 -26.5 -50t-52.5 -23q-22 0 -37.5 15t-14.5 37q1 28 27 49.5t54 21.5q21 0 36 -14.5t14 -35.5z" />
<glyph unicode="&#xfd;" horiz-adv-x="561" d="M570 417q-3 -14 -8.5 -28.5t-16.5 -32t-20 -31.5t-26.5 -35.5t-28 -34t-32.5 -38t-32 -37.5q-32 -38 -108.5 -133.5t-91.5 -113.5q-66 -79 -116 -119.5t-95 -37.5q-73 5 -80 48q-5 28 3.5 50.5t23.5 35.5t31 22t27 12l12 3v-11q1 -11 4.5 -26t10.5 -24q15 -19 43.5 -17 t45.5 21q62 69 62 74q-51 387 -68 444q-2 8 -6 14t-8 10t-10 7t-10 4.5t-12 2t-11 0.5h-11.5h-9.5l9 37q15 -4 96.5 -8t120.5 4q0 -31 6.5 -96t16.5 -154.5t14 -137.5q103 150 137 297q4 15 2.5 26.5t-4.5 20.5t-7.5 15t-6.5 9l-3 3l3 3q2 3 7 7t12 8.5t18.5 7.5t24.5 4 q48 3 74 -13.5t18 -61.5zM490 690q0 -7 -1.5 -13t-6 -12t-6.5 -9t-9 -10l-9 -9l-95 -96h-44l72 148q19 38 49 38q19 0 34.5 -9.5t15.5 -27.5z" />
<glyph unicode="&#xfe;" horiz-adv-x="548" d="M522 256q-22 -101 -98.5 -183.5t-177.5 -82.5q-62 0 -99 47l-35 -165q-1 -5 -1.5 -6.5t-0.5 -3t-3 -18.5t-8 -49q-8 3 -62 3t-69 -6q7 16 29 100t33 137q7 32 46 205.5t57 259.5q5 23 15.5 67t14.5 65t4 32q0 7 -5.5 9t-17 2.5t-17.5 1.5l6 27q6 -4 75 -1.5t100 12.5 q-5 -24 -15.5 -65.5t-22.5 -83.5t-23 -81t-17 -63l-7 -24q28 35 74 62t100 27q72 0 109 -62t16 -163zM376 228q11 39 15.5 77.5t-4.5 74.5t-35 42q-47 8 -95 -36q-16 -15 -28.5 -31.5t-16.5 -25.5l-5 -9l-46 -220q-5 -18 5 -35t38 -23q13 -1 28.5 -2t35.5 10.5t38.5 30 t37.5 57t32 90.5z" />
<glyph unicode="&#xff;" horiz-adv-x="561" d="M570 417q-3 -14 -8.5 -28.5t-16.5 -32t-20 -31.5t-26.5 -35.5t-28 -34t-32.5 -38t-32 -37.5q-32 -38 -108.5 -133.5t-91.5 -113.5q-66 -79 -116 -119.5t-95 -37.5q-73 5 -80 48q-5 28 3.5 50.5t23.5 35.5t31 22t27 12l12 3v-11q1 -11 4.5 -26t10.5 -24q15 -19 43.5 -17 t45.5 21q62 69 62 74q-51 387 -68 444q-2 8 -6 14t-8 10t-10 7t-10 4.5t-12 2t-11 0.5h-11.5h-9.5l9 37q15 -4 96.5 -8t120.5 4q0 -31 6.5 -96t16.5 -154.5t14 -137.5q103 150 137 297q4 15 2.5 26.5t-4.5 20.5t-7.5 15t-6.5 9l-3 3l3 3q2 3 7 7t12 8.5t18.5 7.5t24.5 4 q48 3 74 -13.5t18 -61.5zM541 614q-1 -27 -26 -50t-52 -23q-22 0 -37.5 15t-14.5 37q1 27 26 49t53 22q22 0 37 -14.5t14 -35.5zM283 614q-1 -26 -27 -49.5t-52 -23.5q-22 0 -37.5 15t-14.5 37q1 28 27 49.5t54 21.5q21 0 36 -14.5t14 -35.5z" />
<glyph unicode="&#x100;" horiz-adv-x="785" d="M745 28l-7 -28q-118 6 -178 6l-166 -6l7 28q81 0 90 48q3 16 -1.5 49.5t-10.5 58.5l-6 26l-242 1q-67 -104 -76 -147q-4 -18 16.5 -27t51.5 -9l-7 -28q-62 4 -110 4l-144 -4l6 28q8 0 21 0.5t41 10.5t42 29q45 62 144 221.5t176 288.5l76 129h71q0 -2 26.5 -146 t56.5 -301t38 -181q15 -49 85 -51zM466 259l-56 266l-154 -266h210zM654 789l-11 -58h-293l13 58h291z" />
<glyph unicode="&#x101;" horiz-adv-x="566" d="M550 107q-65 -123 -153 -123q-12 0 -24.5 2.5t-29.5 10t-25.5 25.5t-4.5 45q-46 -39 -77 -58t-61 -24q-23 -6 -51.5 -1.5t-53 13.5t-37.5 34.5t-5 62.5q17 78 94.5 126.5t240.5 84.5l14 61q6 28 -11 52t-36 25q-73 4 -87 -51q-4 -11 -3 -19.5t2.5 -10.5t5.5 -5.5t6 -5.5 q-27 -37 -87 -42q-18 -2 -35.5 6.5t-25.5 28.5t13 54q29 48 82 64.5t133 17.5q104 3 139 -36q20 -20 24.5 -53t-0.5 -55l-5 -23l-24 -120q-2 -10 -5.5 -23t-5.5 -22t-4.5 -19.5t-3.5 -17t-1.5 -14t1 -12.5t4 -8.5t7 -5.5t10.5 -2q12 0 24 12.5t18 24.5l6 12zM358 277 q-80 -25 -122 -66.5t-52 -77.5l-1 -2q-11 -38 5.5 -54t44.5 -14q48 4 88 44q6 26 17.5 81t19.5 89zM487 601l-12 -58h-292l12 58h292z" />
<glyph unicode="&#x102;" horiz-adv-x="785" d="M745 28l-7 -28q-118 6 -178 6l-166 -6l7 28q81 0 90 48q3 16 -1.5 49.5t-10.5 58.5l-6 26l-242 1q-67 -104 -76 -147q-4 -18 16.5 -27t51.5 -9l-7 -28q-62 4 -110 4l-144 -4l6 28q8 0 21 0.5t41 10.5t42 29q45 62 144 221.5t176 288.5l76 129h71q0 -2 26.5 -146 t56.5 -301t38 -181q15 -49 85 -51zM466 259l-56 266l-154 -266h210zM414 846l32 -1q4 -39 20 -52.5t49 -13.5q26 0 52 17t42 50h36q-6 -49 -48.5 -82t-92.5 -33q-45 1 -72.5 35t-17.5 80z" />
<glyph unicode="&#x103;" horiz-adv-x="566" d="M550 107q-65 -123 -153 -123q-12 0 -24.5 2.5t-29.5 10t-25.5 25.5t-4.5 45q-46 -39 -77 -58t-61 -24q-23 -6 -51.5 -1.5t-53 13.5t-37.5 34.5t-5 62.5q17 78 94.5 126.5t240.5 84.5l14 61q6 28 -11 52t-36 25q-73 4 -87 -51q-4 -11 -3 -19.5t2.5 -10.5t5.5 -5.5t6 -5.5 q-27 -37 -87 -42q-18 -2 -35.5 6.5t-25.5 28.5t13 54q29 48 82 64.5t133 17.5q104 3 139 -36q20 -20 24.5 -53t-0.5 -55l-5 -23l-24 -120q-2 -10 -5.5 -23t-5.5 -22t-4.5 -19.5t-3.5 -17t-1.5 -14t1 -12.5t4 -8.5t7 -5.5t10.5 -2q12 0 24 12.5t18 24.5l6 12zM358 277 q-80 -25 -122 -66.5t-52 -77.5l-1 -2q-11 -38 5.5 -54t44.5 -14q48 4 88 44q6 26 17.5 81t19.5 89zM251 659l32 -1q4 -39 20 -52.5t49 -13.5q26 0 52 17t42 50h8h17h11q-6 -49 -48.5 -82.5t-92.5 -32.5q-45 1 -72.5 35t-17.5 80z" />
<glyph unicode="&#x104;" horiz-adv-x="785" d="M745 28l-7 -28q-93 4 -156 5q-64 -66 -64 -115q0 -24 14 -38.5t38 -14.5q26 0 44 14q8 -3 8 -15q-33 -46 -86 -46q-39 0 -59 22t-20 52q0 64 86 141l-149 -5l7 28q81 0 90 48q3 16 -1.5 49.5t-10.5 58.5l-6 26l-242 1q-67 -104 -76 -147q-4 -18 16.5 -27t51.5 -9l-7 -28 q-62 4 -110 4l-144 -4l6 28q8 0 21 0.5t41 10.5t42 29q45 62 144 221.5t176 288.5l76 129h71q0 -2 26.5 -146t56.5 -301t38 -181q15 -49 85 -51zM466 259l-56 266l-154 -266h210z" />
<glyph unicode="&#x105;" horiz-adv-x="566" d="M550 107q-50 -94 -115 -117q-51 -57 -51 -100q0 -24 14 -38.5t38 -14.5q27 0 44 14q9 -3 9 -15q-33 -46 -87 -46q-39 0 -59 22t-20 52q0 57 65 120q-86 6 -75 83q-46 -39 -77 -58t-61 -24q-23 -6 -51.5 -1.5t-53 13.5t-37.5 34.5t-5 62.5q17 78 94.5 126.5t240.5 84.5 l14 61q6 28 -11 52t-36 25q-73 4 -87 -51q-4 -11 -3 -19.5t2.5 -10.5t5.5 -5.5t6 -5.5q-27 -37 -87 -42q-18 -2 -35.5 6.5t-25.5 28.5t13 54q29 48 82 64.5t133 17.5q104 3 139 -36q20 -20 24.5 -53t-0.5 -55l-5 -23l-24 -120q-2 -10 -5.5 -23t-5.5 -22t-4.5 -19.5t-3.5 -17 t-1.5 -14t1 -12.5t4 -8.5t7 -5.5t10.5 -2q12 0 24 12.5t18 24.5l6 12zM358 277q-80 -25 -122 -66.5t-52 -77.5l-1 -2q-11 -38 5.5 -54t44.5 -14q48 4 88 44z" />
<glyph unicode="&#x106;" horiz-adv-x="754" d="M766 707l-41 -236h-28q-2 89 -47.5 142.5t-137.5 49.5q-86 -3 -139 -51q-82 -79 -123 -266q-33 -158 8.5 -235.5t131.5 -76.5q27 0 52 4t48.5 13.5t40 16.5t37.5 21.5t29 20t27 20.5l18 16l22 -28q-1 -2 -14 -14.5t-41 -33t-63.5 -39t-87 -32t-105.5 -13.5 q-66 0 -121.5 19.5t-99 62.5t-57 111.5t4.5 166.5q36 167 162 264t270 97q55 0 114.5 -17.5t61.5 -17.5q40 0 56 35h22zM662 876q0 -6 -1.5 -11.5t-3 -9t-6 -9t-6.5 -7.5l-8 -8l-7 -7l-95 -96h-44l72 147q19 38 48 38q19 0 35 -9.5t16 -27.5z" />
<glyph unicode="&#x107;" horiz-adv-x="556" d="M535 434q15 -31 -1 -62.5t-48 -40.5q-25 -9 -49.5 -2t-36 13.5t-17.5 12.5q1 2 7 7.5t9 9.5l7.5 10t7 13t2.5 15q1 21 -17.5 32.5t-33.5 11.5q-13 -1 -28.5 -5.5t-36 -17t-38.5 -32t-35 -54t-26 -78.5q-20 -98 15.5 -150t96.5 -51q25 0 48 7.5t41 21.5t29.5 24.5t25.5 27 t17 20.5l23 -19q-20 -39 -64.5 -83t-80.5 -58q-56 -22 -126 -21q-38 1 -72.5 14t-65 41.5t-40.5 73t1 108.5q28 132 116 200t201 70q65 1 110.5 -16t58.5 -43zM522 693q0 -5 -1 -9.5t-3 -9t-3.5 -7.5t-6 -8t-5.5 -6l-6.5 -6.5l-6.5 -6.5l-95 -96h-44l73 148q17 38 48 38 q19 0 34.5 -9.5t15.5 -27.5z" />
<glyph unicode="&#x108;" horiz-adv-x="754" d="M766 707l-41 -236h-28q-2 89 -47.5 142.5t-137.5 49.5q-86 -3 -139 -51q-82 -79 -123 -266q-33 -158 8.5 -235.5t131.5 -76.5q27 0 52 4t48.5 13.5t40 16.5t37.5 21.5t29 20t27 20.5l18 16l22 -28q-1 -2 -14 -14.5t-41 -33t-63.5 -39t-87 -32t-105.5 -13.5 q-66 0 -121.5 19.5t-99 62.5t-57 111.5t4.5 166.5q36 167 162 264t270 97q55 0 114.5 -17.5t61.5 -17.5q40 0 56 35h22zM667 731h-55l-76 96l-137 -96h-53l153 166h89z" />
<glyph unicode="&#x109;" horiz-adv-x="555" d="M535 434q15 -31 -1 -62.5t-48 -40.5q-25 -9 -49.5 -2t-36 13.5t-17.5 12.5q1 2 7 7.5t9 9.5l7.5 10t7 13t2.5 15q1 21 -17.5 32.5t-33.5 11.5q-13 -1 -28.5 -5.5t-36 -17t-38.5 -32t-35 -54t-26 -78.5q-20 -98 15.5 -150t96.5 -51q25 0 48 7.5t41 21.5t29.5 24.5t25.5 27 t17 20.5l23 -19q-20 -39 -64.5 -83t-80.5 -58q-56 -22 -126 -21q-38 1 -72.5 14t-65 41.5t-40.5 73t1 108.5q28 132 116 200t201 70q65 1 110.5 -16t58.5 -43zM526 545h-54l-76 97l-138 -97h-52l153 167h88z" />
<glyph unicode="&#x10a;" horiz-adv-x="754" d="M766 707l-41 -236h-28q-2 89 -47.5 142.5t-137.5 49.5q-86 -3 -139 -51q-82 -79 -123 -266q-33 -158 8.5 -235.5t131.5 -76.5q27 0 52 4t48.5 13.5t40 16.5t37.5 21.5t29 20t27 20.5l18 16l22 -28q-1 -2 -14 -14.5t-41 -33t-63.5 -39t-87 -32t-105.5 -13.5 q-66 0 -121.5 19.5t-99 62.5t-57 111.5t4.5 166.5q36 167 162 264t270 97q55 0 114.5 -17.5t61.5 -17.5q40 0 56 35h22zM588 804q-1 -27 -26.5 -50t-52.5 -23q-22 0 -37.5 14.5t-14.5 36.5q1 28 25.5 50t52.5 22q22 0 38 -14.5t15 -35.5z" />
<glyph unicode="&#x10b;" horiz-adv-x="555" d="M535 434q15 -31 -1 -62.5t-48 -40.5q-25 -9 -49.5 -2t-36 13.5t-17.5 12.5q1 2 7 7.5t9 9.5l7.5 10t7 13t2.5 15q1 21 -17.5 32.5t-33.5 11.5q-13 -1 -28.5 -5.5t-36 -17t-38.5 -32t-35 -54t-26 -78.5q-20 -98 15.5 -150t96.5 -51q25 0 48 7.5t41 21.5t29.5 24.5t25.5 27 t17 20.5l23 -19q-20 -39 -64.5 -83t-80.5 -58q-56 -22 -126 -21q-38 1 -72.5 14t-65 41.5t-40.5 73t1 108.5q28 132 116 200t201 70q65 1 110.5 -16t58.5 -43zM451 614q-1 -27 -26.5 -50t-52.5 -23q-22 0 -37.5 14.5t-14.5 36.5q1 28 26 50t53 22q21 0 37 -14.5t15 -35.5z " />
<glyph unicode="&#x10c;" horiz-adv-x="754" d="M766 707l-41 -236h-28q-2 89 -47.5 142.5t-137.5 49.5q-86 -3 -139 -51q-82 -79 -123 -266q-33 -158 8.5 -235.5t131.5 -76.5q27 0 52 4t48.5 13.5t40 16.5t37.5 21.5t29 20t27 20.5l18 16l22 -28q-1 -2 -14 -14.5t-41 -33t-63.5 -39t-87 -32t-105.5 -13.5 q-66 0 -121.5 19.5t-99 62.5t-57 111.5t4.5 166.5q36 167 162 264t270 97q55 0 114.5 -17.5t61.5 -17.5q40 0 56 35h22zM715 900l-150 -167h-88l-82 167h16h20l9 -1l95 -96l123 97h57z" />
<glyph unicode="&#x10d;" horiz-adv-x="575" d="M535 434q15 -31 -1 -62.5t-48 -40.5q-25 -9 -49.5 -2t-36 13.5t-17.5 12.5q1 2 7 7.5t9 9.5l7.5 10t7 13t2.5 15q1 21 -17.5 32.5t-33.5 11.5q-13 -1 -28.5 -5.5t-36 -17t-38.5 -32t-35 -54t-26 -78.5q-20 -98 15.5 -150t96.5 -51q25 0 48 7.5t41 21.5t29.5 24.5t25.5 27 t17 20.5l23 -19q-20 -39 -64.5 -83t-80.5 -58q-56 -22 -126 -21q-38 1 -72.5 14t-65 41.5t-40.5 73t1 108.5q28 132 116 200t201 70q65 1 110.5 -16t58.5 -43zM563 708l-150 -167h-88l-82 167h16h20l9 -1l96 -96l122 97h57z" />
<glyph unicode="&#x10e;" horiz-adv-x="806" d="M778 344q-10 -45 -30 -89.5t-58.5 -91.5t-89.5 -82.5t-128 -58t-169 -22.5h-296l6 30q62 2 102 36q9 9 21.5 50.5t22.5 84.5t19.5 88t10.5 48q0 2 7.5 36.5t14 69.5t14.5 80.5t9.5 70.5t-1.5 39q-4 7 -11 12.5t-13.5 8.5t-16.5 4.5t-16 2t-17 0.5h-13l7 32l282 -1 q193 0 286.5 -88.5t56.5 -259.5zM607 340q34 157 -1 226q-6 11 -10 18t-18 21t-30.5 22t-46.5 15t-67 7q-48 0 -49 -1q-1 0 -33 -152t-63 -304l-31 -153q0 1 3 1h9.5t13.5 -0.5t18 -1t18 -0.5q8 0 16.5 0.5t34 6.5t47.5 16t52 32.5t54 53.5t47 81t36 112zM647 900l-151 -167 h-88l-82 167h17h19l9 -1l96 -96l123 97h57z" />
<glyph unicode="&#x10f;" horiz-adv-x="771" d="M619 710q-106 -362 -148 -580q-7 -34 -2 -50.5t13.5 -20.5t21.5 -1q13 4 19.5 7t19.5 16t34 39l21 -15q-72 -122 -156 -122q-48 1 -72.5 33.5t-16.5 63.5q-61 -90 -163 -90q-11 0 -22.5 1.5t-30 7t-33 16t-30.5 27.5t-22.5 41.5t-9.5 59.5t9 80q21 104 102 181t169 77 q37 0 61.5 -12.5t40.5 -48.5q15 52 28 136.5t10 101.5q-4 18 -40 18l6 29q7 -4 84 -4t107 9zM403 351q-5 47 -29.5 67t-49.5 15q-42 -6 -76.5 -51t-51.5 -124q-20 -90 -4.5 -148t59.5 -61q21 -1 50.5 20t52.5 68q31 77 49 214zM844 616q-12 -56 -49 -92.5t-102 -70.5l-12 31 q86 47 101 90q6 16 -14 23q-3 1 -16 -1t-22 2q-28 8 -16 55q6 25 27 39t43 14q35 0 52 -24t8 -66z" />
<glyph unicode="&#x110;" horiz-adv-x="806" d="M778 344q-10 -45 -30 -89.5t-58.5 -91.5t-89.5 -82.5t-128 -58t-169 -22.5h-296l6 30q62 2 102 36q20 20 73 269h-107l8 34h106q51 243 38 264q-4 7 -11 12.5t-13.5 8.5t-16.5 4.5t-16 2t-17 0.5h-13l7 32l282 -1q193 0 286.5 -88.5t56.5 -259.5zM607 340q34 157 -1 226 q-6 11 -10 18t-18 21t-30.5 22t-46.5 15t-67 7q-48 0 -49 -1l-8 -36q-8 -37 -24 -111.5t-28 -131.5h149l-8 -34h-147q-54 -256 -61 -296q1 1 62 -1q8 0 16.5 0.5t34 6.5t47.5 16t52 32.5t54 53.5t47 81t36 112z" />
<glyph unicode="&#x111;" horiz-adv-x="629" d="M619 710q-7 -23 -19 -65t-17 -59h64l-7 -37h-67q-67 -235 -102 -419q-7 -34 -2 -50.5t13.5 -20.5t21.5 -1q13 4 19.5 7t19.5 16t34 39l22 -15q-73 -122 -157 -122q-48 1 -72.5 33.5t-15.5 63.5q-62 -90 -163 -90q-11 0 -23 1.5t-30.5 7t-33 16t-30.5 27.5t-22.5 41.5 t-9.5 59.5t9 80q22 104 102.5 181t167.5 77q38 0 63 -12.5t41 -48.5q15 57 26 129h-106l8 37h103q9 61 6 72q-3 18 -40 18l6 29q7 -4 84 -4t107 9zM403 351q-6 47 -30 67t-49 15q-42 -6 -76.5 -51t-51.5 -124q-20 -90 -4.5 -148t59.5 -61q22 -1 51.5 20t51.5 68 q30 64 49 214z" />
<glyph unicode="&#x112;" horiz-adv-x="758" d="M750 692q-5 -23 -8.5 -40.5t-4.5 -28.5t-4 -40.5t-6 -56.5h-34q-6 37 -16 59.5t-15.5 28.5t-22.5 13.5t-18 7.5q-69 12 -229 12q-25 -123 -54 -258q172 0 187 14q49 44 65 93h34q1 0 -31 -123q-7 -28 -13 -63t-9 -55.5t-4 -21.5h-36q0 1 2 15t1.5 19.5t-2.5 18t-8.5 22 t-17.5 19.5q-8 7 -52.5 10.5t-85.5 2.5h-40q-13 -63 -29.5 -138t-25 -115t-8.5 -41q45 0 84 1.5t63 3.5t46.5 5t32 5t23.5 5.5t16 3.5q1 1 15 7t19 8.5t18 12.5t21 20.5t19.5 29t21.5 42.5l35 -1q-9 -28 -19.5 -59.5t-15.5 -47t-11 -37t-12 -45.5h-617l7 30q63 2 100 36 q17 16 41.5 119t32.5 152q61 268 45 296q-5 9 -12.5 14.5t-19 8t-18 3.5t-20.5 1h-16l6 32h600zM630 787l-11 -58h-293l12 58h292z" />
<glyph unicode="&#x113;" horiz-adv-x="551" d="M519 280h-322q-13 -56 -7.5 -95t16 -63t31.5 -37.5t39.5 -18.5t39.5 -5q78 0 166 104l24 -21q-74 -92 -134.5 -125.5t-169.5 -32.5q-88 1 -131.5 66t-20.5 171q20 89 72 151.5t114 89t128 25.5q84 -1 129.5 -50t25.5 -159zM400 323q12 48 0.5 89t-47.5 41 q-94 0 -145 -130h192zM502 600l-12 -58h-292l12 58h292z" />
<glyph unicode="&#x114;" horiz-adv-x="758" d="M750 692q-5 -23 -8.5 -40.5t-4.5 -28.5t-4 -40.5t-6 -56.5h-34q-6 37 -16 59.5t-15.5 28.5t-22.5 13.5t-18 7.5q-69 12 -229 12q-25 -123 -54 -258q172 0 187 14q49 44 65 93h34q1 0 -31 -123q-7 -28 -13 -63t-9 -55.5t-4 -21.5h-36q0 1 2 15t1.5 19.5t-2.5 18t-8.5 22 t-17.5 19.5q-8 7 -52.5 10.5t-85.5 2.5h-40q-13 -63 -29.5 -138t-25 -115t-8.5 -41q45 0 84 1.5t63 3.5t46.5 5t32 5t23.5 5.5t16 3.5q1 1 15 7t19 8.5t18 12.5t21 20.5t19.5 29t21.5 42.5l35 -1q-9 -28 -19.5 -59.5t-15.5 -47t-11 -37t-12 -45.5h-617l7 30q63 2 100 36 q17 16 41.5 119t32.5 152q61 268 45 296q-5 9 -12.5 14.5t-19 8t-18 3.5t-20.5 1h-16l6 32h600zM381 846l32 -1q4 -39 20 -52.5t49 -13.5q26 0 52 17t42 50h8h17h11q-6 -49 -48.5 -82t-92.5 -33q-45 1 -72.5 35t-17.5 80z" />
<glyph unicode="&#x115;" horiz-adv-x="551" d="M519 280h-322q-13 -56 -7.5 -95t16 -63t31.5 -37.5t39.5 -18.5t39.5 -5q78 0 166 104l24 -21q-74 -92 -134.5 -125.5t-169.5 -32.5q-88 1 -131.5 66t-20.5 171q20 89 72 151.5t114 89t128 25.5q84 -1 129.5 -50t25.5 -159zM400 323q12 48 0.5 89t-47.5 41 q-94 0 -145 -130h192zM273 654l32 -1q4 -39 20 -53t48 -14q27 0 53 17.5t42 50.5h36q-6 -49 -48.5 -82.5t-92.5 -32.5q-46 1 -73 34.5t-17 80.5z" />
<glyph unicode="&#x116;" horiz-adv-x="758" d="M750 692q-5 -23 -8.5 -40.5t-4.5 -28.5t-4 -40.5t-6 -56.5h-34q-6 37 -16 59.5t-15.5 28.5t-22.5 13.5t-18 7.5q-69 12 -229 12q-25 -123 -54 -258q172 0 187 14q49 44 65 93h34q1 0 -31 -123q-7 -28 -13 -63t-9 -55.5t-4 -21.5h-36q0 1 2 15t1.5 19.5t-2.5 18t-8.5 22 t-17.5 19.5q-8 7 -52.5 10.5t-85.5 2.5h-40q-13 -63 -29.5 -138t-25 -115t-8.5 -41q45 0 84 1.5t63 3.5t46.5 5t32 5t23.5 5.5t16 3.5q1 1 15 7t19 8.5t18 12.5t21 20.5t19.5 29t21.5 42.5l35 -1q-9 -28 -19.5 -59.5t-15.5 -47t-11 -37t-12 -45.5h-617l7 30q63 2 100 36 q17 16 41.5 119t32.5 152q61 268 45 296q-5 9 -12.5 14.5t-19 8t-18 3.5t-20.5 1h-16l6 32h600zM526 807q-1 -27 -26 -50t-52 -23q-22 0 -38 14.5t-15 36.5q1 28 26 50t53 22q22 0 37.5 -14.5t14.5 -35.5z" />
<glyph unicode="&#x117;" horiz-adv-x="551" d="M519 280h-322q-13 -56 -7.5 -95t16 -63t31.5 -37.5t39.5 -18.5t39.5 -5q78 0 166 104l24 -21q-74 -92 -134.5 -125.5t-169.5 -32.5q-88 1 -131.5 66t-20.5 171q20 89 72 151.5t114 89t128 25.5q84 -1 129.5 -50t25.5 -159zM400 323q12 48 0.5 89t-47.5 41 q-94 0 -145 -130h192zM441 618q-1 -27 -26.5 -49.5t-52.5 -22.5q-22 0 -37.5 14.5t-14.5 36.5q1 28 26 50t53 22q21 0 37 -15t15 -36z" />
<glyph unicode="&#x118;" horiz-adv-x="758" d="M750 692q-5 -23 -8.5 -40.5t-4.5 -28.5t-4 -40.5t-6 -56.5h-34q-6 37 -16 59.5t-15.5 28.5t-22.5 13.5t-18 7.5q-69 12 -229 12q-25 -123 -54 -258q172 0 187 14q49 44 65 93h34q1 0 -31 -123q-7 -28 -13 -63t-9 -55.5t-4 -21.5h-36q0 1 2 15t1.5 19.5t-2.5 18t-8.5 22 t-17.5 19.5q-8 7 -52.5 10.5t-85.5 2.5h-40l-63 -294q45 0 84 1.5t63 3.5t46.5 5t32 5t23.5 5.5t16 3.5q1 1 15 7t19 8.5t18 12.5t21 20.5t19.5 29t21.5 42.5l35 -1q-9 -28 -19.5 -59.5t-15.5 -47t-11 -37t-12 -45.5q-134 0 -277 -1q-59 -64 -59 -109q0 -24 14 -38.5 t38 -14.5q27 0 44 14q9 -3 9 -15q-33 -46 -87 -46q-39 0 -59 22t-20 52q0 63 81 135q-301 0 -301 1l7 30q63 2 100 36q17 16 41.5 119t32.5 152q61 268 45 296q-5 9 -12.5 14.5t-19 8t-18 3.5t-20.5 1h-16l6 32h600z" />
<glyph unicode="&#x119;" horiz-adv-x="551" d="M519 280h-322q-13 -56 -7.5 -95t16 -63t31.5 -37.5t39.5 -18.5t39.5 -5q78 0 166 104l24 -21q-69 -85 -123.5 -119.5t-144.5 -38.5q-48 -53 -48 -96q0 -24 14 -38.5t38 -14.5q27 0 44 14q9 -3 9 -15q-33 -46 -87 -46q-39 0 -59 22t-20 52q0 56 66 122q-85 3 -126 68 t-19 169q20 89 72 151.5t114 89t128 25.5q84 -1 129.5 -50t25.5 -159zM400 323q12 48 0.5 89t-47.5 41q-94 0 -145 -130h192z" />
<glyph unicode="&#x11a;" horiz-adv-x="758" d="M750 692q-5 -23 -8.5 -40.5t-4.5 -28.5t-4 -40.5t-6 -56.5h-34q-6 37 -16 59.5t-15.5 28.5t-22.5 13.5t-18 7.5q-69 12 -229 12q-25 -123 -54 -258q172 0 187 14q49 44 65 93h34q1 0 -31 -123q-7 -28 -13 -63t-9 -55.5t-4 -21.5h-36q0 1 2 15t1.5 19.5t-2.5 18t-8.5 22 t-17.5 19.5q-8 7 -52.5 10.5t-85.5 2.5h-40q-13 -63 -29.5 -138t-25 -115t-8.5 -41q45 0 84 1.5t63 3.5t46.5 5t32 5t23.5 5.5t16 3.5q1 1 15 7t19 8.5t18 12.5t21 20.5t19.5 29t21.5 42.5l35 -1q-9 -28 -19.5 -59.5t-15.5 -47t-11 -37t-12 -45.5h-617l7 30q63 2 100 36 q17 16 41.5 119t32.5 152q61 268 45 296q-5 9 -12.5 14.5t-19 8t-18 3.5t-20.5 1h-16l6 32h600zM647 896l-150 -166h-88l-82 166h16h20l9 -1l96 -96l122 97h57z" />
<glyph unicode="&#x11b;" horiz-adv-x="575" d="M519 280h-322q-13 -56 -7.5 -95t16 -63t31.5 -37.5t39.5 -18.5t39.5 -5q78 0 166 104l24 -21q-74 -92 -134.5 -125.5t-169.5 -32.5q-88 1 -131.5 66t-20.5 171q20 89 72 151.5t114 89t128 25.5q84 -1 129.5 -50t25.5 -159zM400 323q12 48 0.5 89t-47.5 41 q-94 0 -145 -130h192zM550 709l-150 -167h-88l-82 167q5 0 16 -0.5t20 -0.5h9l96 -96l122 97h57z" />
<glyph unicode="&#x11c;" horiz-adv-x="793" d="M789 372l-5 -29q-45 -2 -76 -34q-9 -9 -20 -48.5t-19 -79.5t-15.5 -81.5t-8.5 -44.5q-2 0 -31 -12t-61.5 -24t-80 -22.5t-87.5 -10.5q-85 0 -157.5 27t-112.5 84q-35 50 -43 101t11 158q29 140 151 245.5t281 105.5q62 0 117 -17.5t63 -17.5q12 0 30 8t26 27h23 q-16 -57 -26 -110l-12 -111l-28 -1q-6 36 -14.5 61t-28 55.5t-56 47t-88.5 16.5q-214 0 -272 -328q-26 -146 11.5 -228t143.5 -81q24 0 60.5 22t49.5 38q45 200 35 222q-13 29 -76 32l8 31q7 -3 71 -5.5t82 -2.5q132 0 155 7zM674 731h-54l-76 97l-138 -97h-52l153 167h88z " />
<glyph unicode="&#x11d;" horiz-adv-x="536" d="M578 486q-9 -81 -35 -89q-35 -11 -91 9q1 -1 4.5 -5t5.5 -6.5t5.5 -8.5t5.5 -11t4 -13t2.5 -16.5t-0.5 -20t-4 -23.5q-11 -49 -44.5 -85.5t-87.5 -53.5q-30 -8 -45 -9.5t-88 -1.5q-18 0 -45.5 -15.5t-32.5 -35.5q-3 -12 1 -18.5t14.5 -9t26 -3.5t38.5 -1h23l65 -1 q15 0 30 -2t35 -7.5t33.5 -14.5t25.5 -23.5t11.5 -34.5t-8.5 -47q-33 -83 -114.5 -124.5t-184.5 -41.5q-102 0 -148.5 22.5t-34.5 80.5q7 32 48 55.5t82 29.5q-38 14 -53.5 31t-7.5 54q9 42 54 73t90 42v2q-58 23 -81.5 56.5t-10.5 99.5q15 72 79 117t165 45q57 0 106 -21 q32 -15 87.5 -5.5t74.5 31.5zM340 316q4 19 6.5 32t3.5 34t-3 34t-15.5 23t-30.5 10q-22 0 -39 -11t-27.5 -32.5t-17 -41t-12.5 -48.5q-15 -53 -8 -92.5t48 -38.5q23 0 40 11.5t27.5 33.5t16 40.5t11.5 45.5zM350 -105q11 26 -9 39t-62 13h-175q-42 -28 -48 -57q-2 -9 0 -17 t6.5 -13.5t10.5 -10t15 -7t16 -4.5t17 -3t15.5 -1t13 -0.5t8.5 -0.5q54 -1 115.5 13t76.5 49zM461 547h-54l-76 97l-138 -97h-52l153 166h88z" />
<glyph unicode="&#x11e;" horiz-adv-x="793" d="M789 372l-5 -29q-45 -2 -76 -34q-9 -9 -20 -48.5t-19 -79.5t-15.5 -81.5t-8.5 -44.5q-2 0 -31 -12t-61.5 -24t-80 -22.5t-87.5 -10.5q-85 0 -157.5 27t-112.5 84q-35 50 -43 101t11 158q29 140 151 245.5t281 105.5q62 0 117 -17.5t63 -17.5q12 0 30 8t26 27h23 q-16 -57 -26 -110l-12 -111l-28 -1q-6 36 -14.5 61t-28 55.5t-56 47t-88.5 16.5q-214 0 -272 -328q-26 -146 11.5 -228t143.5 -81q24 0 60.5 22t49.5 38q45 200 35 222q-13 29 -76 32l8 31q7 -3 71 -5.5t82 -2.5q132 0 155 7zM432 846l32 -1q4 -39 20 -52.5t49 -13.5 q26 0 52 17t42 50h36q-6 -49 -48.5 -82t-92.5 -33q-45 1 -72.5 35t-17.5 80z" />
<glyph unicode="&#x11f;" horiz-adv-x="535" d="M577 486q-8 -81 -34 -89q-37 -11 -90 9q0 -1 6 -8t9.5 -14t7.5 -18.5t4 -27.5t-5 -35q-12 -49 -45.5 -86t-87.5 -54q-30 -8 -45 -9.5t-88 -1.5q-18 0 -45.5 -15.5t-31.5 -35.5q-5 -22 12 -27t67 -5h23l66 -1q18 0 36.5 -3t42 -11.5t36.5 -22.5t19.5 -37t-8.5 -55 q-32 -83 -114 -124.5t-184 -41.5t-149 22.5t-34 80.5q7 32 48 55.5t82 29.5q-38 14 -53.5 31.5t-7.5 53.5q9 43 53.5 73t89.5 42l1 2q-58 23 -81 56.5t-10 99.5q15 72 78 117t164 45q58 0 107 -21q31 -15 86.5 -5.5t74.5 31.5zM340 316q4 19 5 26.5t3.5 27.5t0.5 30.5 t-6 23.5t-15 19t-27 6q-29 0 -49.5 -21.5t-29 -47t-16.5 -64.5q-16 -53 -9.5 -92.5t48.5 -38.5q23 0 39.5 11t27.5 33.5t16.5 40t11.5 46.5zM350 -105q11 26 -9 39t-61 13h-176q-43 -29 -48 -57q-2 -10 0.5 -19t8 -14.5t14.5 -10t16.5 -6.5t19 -3.5t17.5 -2t16 -0.5l9 -1 q55 -1 116 13t77 49zM213 659l33 -1q4 -39 19.5 -53t48.5 -14q25 0 51.5 17.5t43.5 49.5q1 0 16 0.5t20 0.5q-7 -50 -49.5 -83t-92.5 -32q-45 1 -72.5 35t-17.5 80z" />
<glyph unicode="&#x120;" horiz-adv-x="793" d="M789 372l-5 -29q-45 -2 -76 -34q-9 -9 -20 -48.5t-19 -79.5t-15.5 -81.5t-8.5 -44.5q-2 0 -31 -12t-61.5 -24t-80 -22.5t-87.5 -10.5q-85 0 -157.5 27t-112.5 84q-35 50 -43 101t11 158q29 140 151 245.5t281 105.5q62 0 117 -17.5t63 -17.5q12 0 30 8t26 27h23 q-16 -57 -26 -110l-12 -111l-28 -1q-6 36 -14.5 61t-28 55.5t-56 47t-88.5 16.5q-214 0 -272 -328q-26 -146 11.5 -228t143.5 -81q24 0 60.5 22t49.5 38q45 200 35 222q-13 29 -76 32l8 31q7 -3 71 -5.5t82 -2.5q132 0 155 7zM614 804q-1 -27 -26.5 -50t-52.5 -23 q-22 0 -38 14.5t-15 36.5q1 28 26 50t53 22q22 0 37.5 -14.5t15.5 -35.5z" />
<glyph unicode="&#x121;" horiz-adv-x="534" d="M576 486q-8 -81 -34 -89q-27 -5 -50.5 -1t-39.5 10l5 -6q5 -7 8 -11t7 -13.5t5.5 -18.5t1.5 -23.5t-4 -30.5q-12 -49 -45.5 -86t-87.5 -54q-30 -8 -45 -9.5t-88 -1.5q-18 0 -46 -15.5t-32 -35.5q-5 -22 12 -27t67 -5h23l66 -1q18 0 36.5 -3t42 -11.5t36.5 -22.5t19.5 -37 t-8.5 -55q-31 -82 -113.5 -124t-184.5 -42t-148.5 22.5t-33.5 80.5q6 32 47.5 55.5t82.5 29.5q-38 14 -54 31.5t-8 53.5q9 43 53.5 73t89.5 42l1 2q-58 24 -81.5 57t-9.5 99q15 72 78.5 117t163.5 45q58 0 107 -21q32 -15 87.5 -5.5t73.5 31.5zM339 316q4 19 5 26.5 t3.5 27.5t0.5 30.5t-6 23.5t-15 19t-27 6q-29 0 -49.5 -21.5t-29 -47t-16.5 -64.5q-7 -31 -9 -51t0 -40.5t14 -30t34 -9.5q23 0 40 11.5t27.5 33.5t16 40.5t11.5 45.5zM349 -105q11 26 -9 39t-61 13h-176q-42 -28 -48 -57q-2 -10 0.5 -19t8 -14.5t14.5 -10t16.5 -6.5 t19 -3.5t17.5 -2t15 -0.5l10 -1q55 -1 116.5 13t76.5 49zM391 615q-1 -27 -26.5 -50t-52.5 -23q-22 0 -37.5 14.5t-14.5 36.5q1 28 26 50t53 22q21 0 37 -14.5t15 -35.5z" />
<glyph unicode="&#x122;" horiz-adv-x="793" d="M789 372l-5 -29q-45 -2 -76 -34q-9 -9 -20 -48.5t-19 -79.5t-15.5 -81.5t-8.5 -44.5q-2 0 -31 -12t-61.5 -24t-80 -22.5t-87.5 -10.5q-85 0 -157.5 27t-112.5 84q-35 50 -43 101t11 158q29 140 151 245.5t281 105.5q62 0 117 -17.5t63 -17.5q12 0 30 8t26 27h23 q-16 -57 -26 -110l-12 -111l-28 -1q-6 36 -14.5 61t-28 55.5t-56 47t-88.5 16.5q-214 0 -272 -328q-26 -146 11.5 -228t143.5 -81q24 0 60.5 22t49.5 38q45 200 35 222q-13 29 -76 32l8 31q7 -3 71 -5.5t82 -2.5q132 0 155 7zM404 -153q-13 -62 -48 -94t-103 -34v19 q84 12 95 60q1 7 -3 10.5t-13 4.5q-62 2 -50 57q6 25 26 39q22 15 43 15q29 0 44 -21q15 -23 9 -56z" />
<glyph unicode="&#x123;" horiz-adv-x="535" d="M577 486q-9 -81 -34 -89q-35 -11 -91 9l5 -6q5 -7 8 -11t7 -13.5t5.5 -18.5t1.5 -23.5t-4 -30.5q-12 -49 -45.5 -86t-87.5 -54q-30 -8 -45 -9.5t-88 -1.5q-18 0 -45.5 -15.5t-32.5 -35.5q-4 -22 13 -27t67 -5h23l65 -1q19 0 37.5 -3t42 -11.5t36 -22.5t19.5 -37t-8 -55 q-32 -83 -114 -124.5t-185 -41.5q-102 0 -148.5 22.5t-33.5 80.5q6 32 47.5 55.5t82.5 29.5q-38 14 -54 31.5t-8 53.5q9 43 54 73t90 42l1 2q-58 23 -81 56.5t-10 99.5q15 72 78 117t164 45q57 0 106 -21q32 -15 87.5 -5.5t74.5 31.5zM339 316q4 20 6.5 32t3.5 34t-3 34.5 t-15.5 22.5t-30.5 10q-22 0 -38.5 -11t-27 -32.5t-17 -41t-12.5 -48.5q-7 -31 -9 -51t0 -40.5t14 -30t34 -9.5q23 0 40 11.5t27.5 33.5t16 40t11.5 46zM350 -105q11 26 -9 39t-62 13h-175q-43 -28 -49 -57q-2 -10 1 -19t8 -14.5t14.5 -10t17 -6.5t19 -3.5t17.5 -2t16 -0.5 l9 -1q54 -1 115.5 13t77.5 49zM396 708q-75 -12 -84 -54q-3 -15 13 -15q55 -1 46 -50q-6 -21 -23 -35q-19 -13 -40 -13q-27 0 -39 19q-13 19 -5 49q24 112 131 115z" />
<glyph unicode="&#x124;" horiz-adv-x="870" d="M928 692l-6 -28q-53 -5 -69 -10t-31 -24q-10 -12 -23 -53.5t-21.5 -79t-20.5 -92t-14 -63.5q-58 -249 -40 -276q11 -17 20.5 -23t31.5 -8t32 -4l-7 -31q-65 8 -171.5 9.5t-178.5 -8.5l7 31q35 1 54.5 8t41.5 28q27 25 77 278h-288q-61 -251 -42 -282q11 -17 21 -23 t31 -7.5t32 -4.5l-6 -31q-61 9 -172.5 10t-178.5 -8l7 30q34 1 50.5 7.5t46.5 28.5q21 16 77 279q0 2 7 35t13.5 65.5t14 77t8.5 69t-3 41.5q-5 13 -15.5 19.5t-19.5 7.5t-24.5 1t-23.5 1l6 30q31 -6 158 -6.5t196 6.5l-6 -32q-6 0 -17.5 -1t-15.5 -1.5t-12 -1t-10.5 -1 t-8 -1.5t-7.5 -2.5t-6 -3.5t-6.5 -4t-5.5 -5l-7 -7q-26 -31 -71 -238h289q45 212 30 240q-6 13 -17 19.5t-19.5 7.5t-24.5 1t-23 1l6 29q30 -6 157 -6.5t198 6.5zM683 731h-55l-76 96l-137 -96h-53l153 166h89z" />
<glyph unicode="&#x125;" horiz-adv-x="646" d="M628 142q-85 -158 -201 -158q-51 0 -69 45q-17 46 42 242q12 37 17.5 65t5.5 43t-4.5 24.5t-9 13t-11.5 5.5q-20 6 -43.5 -2.5t-42.5 -25.5t-35 -34.5t-25 -31.5l-9 -13q-30 -113 -62 -316q-12 7 -67.5 7t-71.5 -6q13 31 67 246q19 68 48.5 218.5t26.5 185.5q0 20 -53 18 l8 32q14 -4 87 -4.5t110 8.5q-12 -28 -43.5 -166t-35.5 -166q24 44 87.5 86t138.5 33q30 -4 48 -17t26.5 -41.5t-2 -81t-40.5 -127.5q-14 -36 -21.5 -64.5t-7.5 -45.5t3.5 -28.5t9 -15.5t11.5 -4q19 0 41 21t33.5 39t17.5 31zM409 732h-54l-76 97l-138 -97h-52l152 167h89z " />
<glyph unicode="&#x126;" horiz-adv-x="870" d="M928 692l-6 -28q-53 -5 -69 -10t-31 -24q-15 -17 -34 -91h110l-6 -41h-114q-9 -36 -21.5 -93.5t-13.5 -62.5q-58 -249 -40 -276q11 -17 20.5 -23t31.5 -8t32 -4l-7 -31q-65 8 -171.5 9.5t-178.5 -8.5l7 31q35 1 54.5 8t41.5 28q27 25 77 278h-288q-61 -251 -42 -282 q11 -17 21 -23t31 -7.5t32 -4.5l-6 -31q-61 9 -172.5 10t-178.5 -8l7 30q34 1 50.5 7.5t46.5 28.5q21 16 77 279q0 2 5.5 27t12.5 60t12 66h-82l7 41h82q11 77 3 94q-5 13 -15.5 19.5t-19.5 7.5t-24.5 1t-23.5 1l6 30q31 -6 158 -6.5t196 6.5l-6 -32q-6 0 -17.5 -1 t-15.5 -1.5t-12 -1t-10.5 -1t-8 -1.5t-7.5 -2.5t-6 -3.5t-6.5 -4t-5.5 -5l-7 -7q-16 -19 -38 -93h282q14 77 4 95q-6 13 -17 19.5t-19.5 7.5t-24.5 1t-23 1l6 29q30 -6 157 -6.5t198 6.5zM641 498h-286q-2 -7 -23 -104h289q4 18 20 104z" />
<glyph unicode="&#x127;" horiz-adv-x="646" d="M628 142q-85 -158 -201 -158q-51 0 -69 45q-17 46 42 242q12 37 17.5 65t5.5 43t-4.5 24.5t-9 13t-11.5 5.5q-20 6 -43.5 -2.5t-42.5 -25.5t-35 -34.5t-25 -31.5l-9 -13q-30 -113 -62 -316q-12 7 -67.5 7t-71.5 -6q13 31 67 246q30 102 64 302h-65l7 34h64q6 51 5 68 q0 20 -53 18l8 32q14 -4 87 -4.5t110 8.5q-8 -20 -33 -122h92l-7 -34h-93q-28 -120 -38 -176q24 44 87.5 86t138.5 33q30 -4 48 -17t26.5 -41.5t-2 -81t-40.5 -127.5q-14 -36 -21.5 -64.5t-7.5 -45.5t3.5 -28.5t9 -15.5t11.5 -4q19 0 41 21t33.5 39t17.5 31z" />
<glyph unicode="&#x128;" horiz-adv-x="447" d="M505 693l-7 -30q-52 -5 -67 -9t-31 -22q-22 -26 -79 -291q-58 -250 -41 -277q11 -17 21 -23t31 -7.5t32 -4.5l-6 -31q-61 9 -172.5 10t-178.5 -8l7 30q34 1 50.5 7.5t46.5 28.5q24 19 77 282q0 3 7.5 35t14 65t14 76.5t8 68t-3.5 40.5q-6 12 -16.5 18.5t-19.5 7.5 t-24.5 1.5t-22.5 1.5l7 31q30 -6 156.5 -6.5t196.5 6.5zM501 847q-28 -119 -115 -119q-27 0 -77 23q-44 23 -72 23q-32 0 -45 -45h-38q1 36 30 77t82 41q27 0 75 -22q44 -23 70 -23q14 0 24 7.5t13.5 14t11.5 23.5h41z" />
<glyph unicode="&#x129;" horiz-adv-x="407" d="M351 146q-73 -144 -165 -160q-28 -7 -65 7t-42 51q-8 68 29 204q5 17 13 44.5t13 44t11 39.5t6.5 31t-0.5 19q-9 20 -53 20l8 37q12 -3 86 -5.5t112 2.5q-39 -103 -88 -282q-7 -30 -10.5 -51.5t-4 -42.5t7 -32t23.5 -10q38 2 93 96zM391 661q-28 -120 -115 -120 q-25 0 -77 24q-44 23 -72 23q-32 0 -45 -46h-38q1 37 30 78t82 41q29 0 75 -23q46 -22 70 -22q14 0 24 7t14 14t11 24h41z" />
<glyph unicode="&#x12a;" horiz-adv-x="447" d="M505 693l-7 -30q-52 -5 -67 -9t-31 -22q-22 -26 -79 -291q-58 -250 -41 -277q11 -17 21 -23t31 -7.5t32 -4.5l-6 -31q-61 9 -172.5 10t-178.5 -8l7 30q34 1 50.5 7.5t46.5 28.5q24 19 77 282q0 3 7.5 35t14 65t14 76.5t8 68t-3.5 40.5q-6 12 -16.5 18.5t-19.5 7.5 t-24.5 1.5t-22.5 1.5l7 31q30 -6 156.5 -6.5t196.5 6.5zM494 789l-11 -58h-293l13 58h291z" />
<glyph unicode="&#x12b;" horiz-adv-x="365" d="M333 146q-26 -50 -52 -84t-49 -48.5t-35.5 -19.5t-28.5 -8q-28 -7 -65.5 7t-41.5 51q-7 67 28 204q5 18 13 44.5t13.5 43.5t11.5 39.5t6.5 31.5t-0.5 19q-9 20 -53 20l7 37q14 -3 86.5 -5.5t111.5 2.5q-47 -130 -86 -282q-8 -30 -11.5 -51.5t-4 -43t7.5 -32t24 -9.5 q17 1 42 27t49 69zM349 598l-13 -57h-292l12 57h293z" />
<glyph unicode="&#x12c;" horiz-adv-x="447" d="M505 693l-7 -30q-52 -5 -67 -9t-31 -22q-22 -26 -79 -291q-58 -250 -41 -277q11 -17 21 -23t31 -7.5t32 -4.5l-6 -31q-61 9 -172.5 10t-178.5 -8l7 30q34 1 50.5 7.5t46.5 28.5q24 19 77 282q0 3 7.5 35t14 65t14 76.5t8 68t-3.5 40.5q-6 12 -16.5 18.5t-19.5 7.5 t-24.5 1.5t-22.5 1.5l7 31q30 -6 156.5 -6.5t196.5 6.5zM236 846l32 -1q4 -39 20 -52.5t49 -13.5q26 0 52 17t42 50h36q-6 -49 -48.5 -82t-92.5 -33q-45 1 -72.5 35t-17.5 80z" />
<glyph unicode="&#x12d;" horiz-adv-x="395" d="M311 84l-12 28l-27 -17q-48 -30 -61 -30q-12 0 -12 13q0 16 20 91l54 196q9 33 9 67q0 37 -25 37q-49 0 -150 -76l-63 -47l13 -26l22 16q46 34 68 34q11 0 11 -14q-3 -17 -8 -37l-59 -241q-6 -26 -6 -52q0 -43 30 -43q41 0 101 36q1 1 95 65zM148 654l32 -1q4 -39 20 -53 t48 -14q27 0 53 17.5t42 50.5h36q-6 -49 -48.5 -82.5t-92.5 -32.5q-46 1 -73 34.5t-17 80.5z" />
<glyph unicode="&#x12e;" horiz-adv-x="447" d="M505 693l-7 -30q-52 -5 -67 -9t-31 -22q-22 -26 -79 -291q-58 -250 -41 -277q11 -17 21 -23t31 -7.5t32 -4.5l-6 -31q-59 8 -151 10q-67 -69 -67 -118q0 -24 14 -38.5t38 -14.5q27 0 44 14q9 -3 9 -15q-33 -46 -87 -46q-39 0 -59 22t-20 52q0 65 91 144q-101 2 -163 -8 l7 30q34 1 50.5 7.5t46.5 28.5q24 19 77 282q0 3 7.5 35t14 65t14 76.5t8 68t-3.5 40.5q-6 12 -16.5 18.5t-19.5 7.5t-24.5 1.5t-22.5 1.5l7 31q30 -6 156.5 -6.5t196.5 6.5z" />
<glyph unicode="&#x12f;" horiz-adv-x="334" d="M294 634q-6 -30 -32 -52t-56 -22t-46.5 22t-10.5 52q7 30 32.5 51.5t55.5 21.5t47 -21.5t10 -51.5zM318 146q-62 -122 -135 -152q-54 -59 -54 -104q0 -24 14 -38.5t38 -14.5q27 0 44 14q9 -3 9 -15q-33 -46 -87 -46q-39 0 -59 22t-20 52q0 56 64 120q-30 1 -56 15.5 t-30 44.5q-8 68 29 204q5 17 13 44.5t13 44t11 39.5t6.5 31t-0.5 19q-9 20 -53 20l8 37q12 -3 86 -5.5t112 2.5q-39 -103 -88 -282q-7 -30 -10.5 -51.5t-4 -42.5t7 -32t23.5 -10q38 2 93 96z" />
<glyph unicode="&#x130;" horiz-adv-x="447" d="M505 693l-7 -30q-52 -5 -67 -9t-31 -22q-22 -26 -79 -291q-58 -250 -41 -277q11 -17 21 -23t31 -7.5t32 -4.5l-6 -31q-61 9 -172.5 10t-178.5 -8l7 30q34 1 50.5 7.5t46.5 28.5q24 19 77 282q0 3 7.5 35t14 65t14 76.5t8 68t-3.5 40.5q-6 12 -16.5 18.5t-19.5 7.5 t-24.5 1.5t-22.5 1.5l7 31q30 -6 156.5 -6.5t196.5 6.5zM410 804q-1 -27 -26.5 -50t-52.5 -23q-22 0 -37.5 14.5t-14.5 36.5q1 28 26 50t53 22q21 0 37 -14.5t15 -35.5z" />
<glyph unicode="&#x131;" horiz-adv-x="334" d="M318 146q-73 -144 -165 -160q-28 -7 -65 7t-42 51q-8 68 29 204q5 17 13 44.5t13 44t11 39.5t6.5 31t-0.5 19q-9 20 -53 20l8 37q12 -3 86 -5.5t112 2.5q-39 -103 -88 -282q-7 -30 -10.5 -51.5t-4 -42.5t7 -32t23.5 -10q38 2 93 96z" />
<glyph unicode="&#x132;" horiz-adv-x="919" d="M504 693l-6 -30q-53 -5 -67.5 -9t-30.5 -22q-23 -26 -80 -291q-58 -250 -41 -277q11 -17 21 -23t31 -7.5t33 -4.5l-7 -31q-61 9 -172 10t-178 -8l6 30q34 1 50.5 7.5t46.5 28.5q29 22 77 282q58 254 41 285q-6 12 -16.5 18.5t-19.5 7.5t-24.5 1.5t-23.5 1.5l7 31 q30 -6 156.5 -6.5t196.5 6.5zM977 692l-6 -29q-71 -3 -99 -32q-6 -6 -14.5 -29.5t-16.5 -53t-17 -67t-15.5 -64.5t-12 -53.5t-5.5 -27.5l-31 -146q-12 -57 -41.5 -98.5t-59 -61t-67 -30.5t-55 -12.5t-34.5 -1.5q-75 0 -88 21q-19 29 -12 49q11 28 29 37q41 23 79 15 q-6 -16 -7.5 -32.5t8.5 -32t36 -13.5q42 4 56 67l54 242q7 29 17.5 82t21.5 126.5t5 85.5q-4 7 -11 12.5t-13 8.5t-17 5t-15.5 2t-16.5 0.5t-13 0.5l7 31q19 -8 189 -8q149 0 165 7z" />
<glyph unicode="&#x133;" horiz-adv-x="633" d="M294 634q-6 -30 -32 -52t-56 -22t-46.5 22t-10.5 52q7 30 32.5 51.5t55.5 21.5t47 -21.5t10 -51.5zM318 146q-73 -144 -165 -160q-28 -7 -65 7t-42 51q-8 68 29 204q5 17 13 44.5t13 44t11 39.5t6.5 31t-0.5 19q-9 20 -53 20l8 37q12 -3 86 -5.5t112 2.5 q-39 -103 -88 -282q-7 -30 -10.5 -51.5t-4 -42.5t7 -32t23.5 -10q38 2 93 96zM619 634q-6 -30 -32 -51.5t-56 -21.5q-31 0 -48 21.5t-10 51.5t32.5 51.5t55.5 21.5q31 0 48 -21.5t10 -51.5zM593 484q-8 -29 -27 -116.5t-41 -194.5t-30 -145q-27 -126 -94.5 -191.5 t-152.5 -65.5q-128 -4 -142 48q-5 18 5 42t43 34q29 10 59.5 -2t30.5 -32q-7 -4 -11 -15t-1 -21q5 -16 31 -12q14 2 25.5 10.5t21 26.5t15 30.5t13 40.5t9.5 37t8 39q16 69 51 243.5t33 187.5q-3 19 -44 19l7 32q15 -4 83.5 -4t107.5 9z" />
<glyph unicode="&#x134;" horiz-adv-x="487" d="M544 692l-6 -29q-71 -3 -99 -32q-6 -6 -14.5 -29.5t-16.5 -53t-17 -67t-15.5 -64.5t-12 -53.5t-5.5 -27.5l-31 -146q-12 -57 -41.5 -98.5t-59 -61t-67 -30.5t-55 -12.5t-34.5 -1.5q-74 0 -88 21q-19 29 -12 49q11 28 29 37q41 23 79 15q-6 -16 -7.5 -32.5t8.5 -32 t36 -13.5q42 4 56 67l54 242q7 29 17.5 82t21.5 126.5t5 85.5q-4 7 -11 12.5t-13 8.5t-17 5t-15.5 2t-16.5 0.5t-13 0.5l7 31q19 -8 189 -8q149 0 165 7zM527 734h-54l-76 97l-137 -97h-53l153 167h89z" />
<glyph unicode="&#x135;" horiz-adv-x="448" d="M368 484q-8 -29 -27 -116.5t-41 -194.5t-30 -145q-27 -126 -94 -191.5t-153 -65.5q-128 -4 -141 48q-6 18 3.5 41.5t43.5 34.5q29 10 59.5 -2t30.5 -32q-6 -4 -10.5 -15t-1.5 -21q5 -16 31 -12q19 3 34 18t26 46t16 50t14 57q2 9 3 13q16 67 50.5 242t32.5 189 q-3 19 -44 19l7 32q15 -4 83.5 -4t107.5 9zM436 541h-54l-76 96l-137 -96h-53l153 166h89z" />
<glyph unicode="&#x136;" horiz-adv-x="896" d="M949 692l-6 -32q-5 -1 -21 -1.5t-22.5 -2t-22 -4.5t-29.5 -9.5t-35.5 -17t-48.5 -27t-61 -38.5q-18 -12 -61 -44.5t-76 -59.5l-34 -26q207 -344 220 -356q36 -34 93 -44l-6 -30q-15 5 -182 5q-183 0 -197 -4l7 31h19t25 1t20 4t19.5 9t8.5 16q3 16 -58.5 125t-91.5 155 l-102 -73q-9 -46 -18.5 -94t-15.5 -77t-6 -31q22 -37 93 -39l-7 -30q-18 9 -178 9q-147 0 -171 -7l6 28q56 1 99 39q9 9 22 50.5t22.5 84t19 87.5t10.5 48q11 48 31.5 162.5t14.5 131.5q-4 10 -11.5 16t-18.5 8.5t-18 3.5t-21 1h-16l7 33q15 -7 194 -7q139 0 159 7l-7 -30 q-74 -3 -102 -32q-18 -19 -76 -301q260 193 348 276q29 29 11 43q-15 12 -78 12l6 31q119 -6 177 -6q107 0 166 6zM455 -132q-13 -62 -48 -94t-103 -34l1 19q83 12 94 60q2 7 -2.5 11t-13.5 4q-60 3 -50 58q6 23 25 39q20 14 44 14q32 0 44 -21q15 -23 9 -56z" />
<glyph unicode="&#x137;" horiz-adv-x="595" d="M585 427q-4 -21 -26 -42t-55.5 -38t-61.5 -29t-59 -23t-33 -12q27 -69 51 -114q22 -41 37.5 -57.5t32.5 -14.5q14 1 25 13.5t14.5 20t8.5 22.5l28 -13q-20 -75 -58.5 -114.5t-74.5 -39.5q-84 0 -133 109l-57 131l-35 -15q-15 -78 -33 -210q-19 5 -70.5 5t-67.5 -5 q33 102 65 246q20 88 48.5 236.5t24.5 162.5q-5 17 -52 19l7 35q25 -3 97 -3t102 8q-17 -45 -61.5 -234t-51.5 -227q163 71 232 144q18 22 17 39t-12 27l-10 10q36 22 99 22q8 0 17.5 -2t22.5 -7.5t19.5 -18.5t2.5 -31zM291 -143q-13 -62 -48 -94t-102 -34v19q83 13 94 60 q3 14 -15 15q-62 1 -51 57q7 26 25 39q19 15 45 15q31 0 43 -20q16 -26 9 -57z" />
<glyph unicode="&#x139;" horiz-adv-x="691" d="M679 190l-61 -190h-614l6 32q64 2 100 34q9 9 22 50.5t22.5 84.5t19 88t10.5 48q60 266 45 296q-6 11 -18.5 17t-20.5 7.5t-27 2.5t-20 1l7 32q18 -8 179 -8t182 8l-7 -31h-11q-11 -1 -14 -1t-13.5 -1t-16 -3.5t-14 -5.5t-16 -8t-13.5 -11q-16 -16 -43 -129t-37 -166 q-3 -11 -18.5 -84.5t-30 -141.5t-13.5 -66h20t44.5 0.5t47.5 1.5q102 8 140 19q92 30 127 123zM478 880q0 -6 -1.5 -11.5t-3 -9t-6 -9t-6.5 -7.5l-8.5 -8.5l-7.5 -7.5l-95 -96h-43l72 148q17 38 48 38q19 0 35 -9.5t16 -27.5z" />
<glyph unicode="&#x13a;" horiz-adv-x="386" d="M296 709q-16 -45 -75 -297t-65 -287q-8 -40 -6 -54.5t25 -16.5q18 -2 38.5 18.5t49.5 65.5l23 -15q-38 -67 -80.5 -103t-101.5 -35q-37 1 -56.5 20t-16.5 53q7 59 63.5 309t52.5 291q-1 18 -40 18l6 29q15 -4 80.5 -4.5t102.5 8.5zM374 879q0 -7 -1.5 -13t-6 -12t-6.5 -9 t-9 -10l-9 -9l-95 -95h-44l73 147q17 38 48 38q19 0 34.5 -9.5t15.5 -27.5z" />
<glyph unicode="&#x13b;" horiz-adv-x="691" d="M679 190l-61 -190h-614l6 32q64 2 100 34q9 9 22 50.5t22.5 84.5t19 88t10.5 48q60 266 45 296q-6 11 -18.5 17t-20.5 7.5t-27 2.5t-20 1l7 32q18 -8 179 -8t182 8l-7 -31h-11q-11 -1 -14 -1t-13.5 -1t-16 -3.5t-14 -5.5t-16 -8t-13.5 -11q-16 -16 -43 -129t-37 -166 q-3 -11 -18.5 -84.5t-30 -141.5t-13.5 -66h20t44.5 0.5t47.5 1.5q102 8 140 19q92 30 127 123zM388 -132q-13 -62 -47.5 -94t-102.5 -34v19q85 12 94 60q3 15 -15 15q-62 3 -49 58q4 22 24 39q22 14 44 14q30 0 44 -21q15 -26 8 -56z" />
<glyph unicode="&#x13c;" horiz-adv-x="354" d="M342 709q-16 -45 -75 -297t-65 -287q-8 -40 -6 -54.5t25 -16.5q18 -2 38.5 18.5t49.5 65.5l23 -15q-38 -67 -80.5 -103t-101.5 -35q-37 1 -56.5 20t-16.5 53q7 59 63.5 309t52.5 291q-1 18 -40 18l6 29q15 -4 80.5 -4.5t102.5 8.5zM180 -161q-13 -62 -48 -94t-102 -34v19 q83 13 94 60q3 15 -15 15q-61 3 -51 58q6 24 26 39q17 14 44 14q32 0 43 -21q16 -25 9 -56z" />
<glyph unicode="&#x13d;" horiz-adv-x="748" d="M679 190l-61 -190h-614l6 32q64 2 100 34q9 9 22 50.5t22.5 84.5t19 88t10.5 48q60 266 45 296q-6 11 -18.5 17t-20.5 7.5t-27 2.5t-20 1l7 32q18 -8 179 -8t182 8l-7 -31h-11q-11 -1 -14 -1t-13.5 -1t-16 -3.5t-14 -5.5t-16 -8t-13.5 -11q-16 -16 -43 -129t-37 -166 q-3 -11 -18.5 -84.5t-30 -141.5t-13.5 -66h20t44.5 0.5t47.5 1.5q102 8 140 19q92 30 127 123zM758 618q-12 -56 -49 -92t-102 -70l-12 30q47 27 69.5 46.5t31.5 44.5q6 18 -14 22q-5 2 -16.5 0t-21.5 1q-28 11 -16 55q6 25 27 39.5t43 14.5q35 0 52 -24.5t8 -66.5z" />
<glyph unicode="&#x13e;" horiz-adv-x="475" d="M296 709q-16 -45 -75 -297t-65 -287q-8 -40 -6 -54.5t25 -16.5q18 -2 38.5 18.5t49.5 65.5l23 -15q-38 -67 -80.5 -103t-101.5 -35q-37 1 -56.5 20t-16.5 53q7 59 63.5 309t52.5 291q-1 18 -40 18l6 29q15 -4 80.5 -4.5t102.5 8.5zM496 616q-12 -56 -49 -92.5t-102 -70.5 l-12 31q86 47 101 90q6 16 -14 23q-4 1 -16.5 -0.5t-21.5 1.5q-28 10 -16 55q6 25 27 39t43 14q35 0 52 -24t8 -66z" />
<glyph unicode="&#x13f;" horiz-adv-x="716" d="M679 190l-61 -190h-614l6 32q64 2 100 34q9 9 22 50.5t22.5 84.5t19 88t10.5 48q60 266 45 296q-6 11 -18.5 17t-20.5 7.5t-27 2.5t-20 1l7 32q18 -8 179 -8t182 8l-7 -31h-11q-11 -1 -14 -1t-13.5 -1t-16 -3.5t-14 -5.5t-16 -8t-13.5 -11q-16 -16 -43 -129t-37 -166 q-3 -11 -18.5 -84.5t-30 -141.5t-13.5 -66h20t44.5 0.5t47.5 1.5q102 8 140 19q92 30 127 123zM703 494q-1 -27 -26.5 -49.5t-52.5 -22.5q-22 0 -37.5 14.5t-14.5 35.5q1 28 26 50t53 22q21 0 37 -14.5t15 -35.5z" />
<glyph unicode="&#x140;" horiz-adv-x="405" d="M296 709q-16 -45 -75 -297t-65 -287q-8 -40 -6 -54.5t25 -16.5q18 -2 38.5 18.5t49.5 65.5l23 -15q-38 -67 -80.5 -103t-101.5 -35q-37 1 -56.5 20t-16.5 53q7 59 63.5 309t52.5 291q-1 18 -40 18l6 29q15 -4 80.5 -4.5t102.5 8.5zM424 454q-1 -27 -26.5 -50t-52.5 -23 q-22 0 -37.5 14.5t-14.5 36.5q1 28 26 50t53 22q21 0 37 -14.5t15 -35.5z" />
<glyph unicode="&#x141;" horiz-adv-x="691" d="M514 387l-186 -39v-2.5t-2 -7.5q-16 -76 -62 -293h20t44.5 0.5t47.5 1.5q102 8 140 19q92 30 127 123l36 1l-61 -190h-614l6 32q64 2 100 34q21 20 70 250l-101 -21v46l111 24q53 243 39 268q-6 11 -18.5 17t-20.5 7.5t-27 2.5t-20 1l7 32q18 -8 179 -8t182 8l-7 -31h-11 q-11 -1 -14 -1t-13.5 -1t-16 -3.5t-14 -5.5t-16 -8t-13.5 -11q-20 -20 -68 -237l176 37v-45z" />
<glyph unicode="&#x142;" horiz-adv-x="386" d="M374 360l-141 -30q-9 -40 -21 -93.5t-17.5 -80t-6.5 -31.5q-8 -40 -6 -54.5t25 -16.5q18 -2 38.5 18.5t49.5 65.5l23 -15q-38 -67 -80.5 -103t-101.5 -35q-37 1 -56.5 20t-16.5 53q8 70 49 244l-98 -21v48l109 23q60 267 56 306q-1 18 -40 18l6 29q15 -4 80.5 -4.5 t102.5 8.5q-16 -43 -83 -329l129 28v-48z" />
<glyph unicode="&#x143;" horiz-adv-x="861" d="M918 693l-2 -7q-1 -8 -2 -15l-2 -7q-63 0 -85 -17q-9 -7 -15 -19t-9 -20t-8.5 -31t-8.5 -33q-16 -61 -36 -157q-3 -15 -24.5 -114.5t-39.5 -183t-20 -98.5h-3h-7h-10h-11.5h-11.5h-9.5h-7.5h-2q-241 398 -333 550q-35 -175 -47 -232q-18 -74 -30 -158q-2 -11 -5 -27 t-5 -25.5t-3 -20.5t1 -18.5t6 -13.5q14 -18 78 -17q0 -2 -1 -5t-2.5 -9.5t-2.5 -10.5v-4q1 0 -14 0h-38t-51 -0.5t-56 -0.5h-51.5t-37.5 1h-15l7 32q74 -3 97 26q13 14 65 246q4 13 30.5 151.5t28.5 157.5q-4 33 -26 42q-5 2 -21 3.5t-30 2.5l-13 1l6 31h229 q27 -54 77 -137.5t122 -197.5t87 -138q13 44 38 171q11 51 27.5 142.5t12.5 104.5q-4 15 -26 21.5t-42 5.5l-20 -1q4 20 6 29h266zM642 880q0 -7 -1.5 -13t-6 -12t-6.5 -9t-9 -10l-9 -9l-95 -96h-44l72 148q19 38 49 38q18 0 34 -9.5t16 -27.5z" />
<glyph unicode="&#x144;" horiz-adv-x="623" d="M605 142q-84 -158 -200 -158q-51 0 -69 45q-18 49 42 242q19 60 21 95.5t-4.5 43.5t-18.5 13q-20 6 -43.5 -2.5t-42.5 -25.5t-35 -35t-25 -31l-9 -13q-26 -101 -63 -317q-12 7 -67.5 7t-70.5 -5q7 16 31 104t36 141q34 152 28 181q-4 19 -53 19l6 32q19 -4 88.5 -4.5 t110.5 9.5q-25 -59 -33 -111q24 44 88 86t139 33q30 -3 48 -16t26 -42t-2.5 -81.5t-40.5 -127.5q-14 -36 -21 -64.5t-7.5 -45.5t3 -28.5t9 -15.5t11.5 -4q28 0 55 34t38 58zM498 691q0 -7 -1.5 -13t-6 -12t-6.5 -9t-9.5 -10.5l-9.5 -9.5l-95 -95h-43l72 148q18 38 47 38 q20 0 36 -10t16 -27z" />
<glyph unicode="&#x145;" horiz-adv-x="861" d="M918 693l-2 -7q-1 -8 -2 -15l-2 -7q-63 0 -85 -17q-9 -7 -15 -19t-9 -20t-8.5 -31t-8.5 -33q-16 -61 -36 -157q-3 -15 -24.5 -114.5t-39.5 -183t-20 -98.5h-3h-7h-10h-11.5h-11.5h-9.5h-7.5h-2q-241 398 -333 550q-35 -175 -47 -232q-18 -74 -30 -158q-2 -11 -5 -27 t-5 -25.5t-3 -20.5t1 -18.5t6 -13.5q14 -18 78 -17q0 -2 -1 -5t-2.5 -9.5t-2.5 -10.5v-4q1 0 -14 0h-38t-51 -0.5t-56 -0.5h-51.5t-37.5 1h-15l7 32q74 -3 97 26q13 14 65 246q4 13 30.5 151.5t28.5 157.5q-4 33 -26 42q-5 2 -21 3.5t-30 2.5l-13 1l6 31h229 q27 -54 77 -137.5t122 -197.5t87 -138q13 44 38 171q11 51 27.5 142.5t12.5 104.5q-4 15 -26 21.5t-42 5.5l-20 -1q4 20 6 29h266zM464 -132q-13 -62 -47.5 -94t-102.5 -34v19q85 12 94 60q3 15 -15 15q-62 3 -50 58q4 21 25 39q20 14 44 14q30 0 44 -21q15 -26 8 -56z" />
<glyph unicode="&#x146;" horiz-adv-x="589" d="M607 142q-86 -158 -202 -158q-50 0 -68 45q-20 49 42 242q19 60 21 95t-4.5 43.5t-18.5 12.5q-20 6 -43.5 -2.5t-42.5 -25.5t-35 -34.5t-25 -31.5l-9 -13q-32 -122 -63 -316q-12 7 -67.5 7t-71.5 -6q7 16 31.5 103.5t36.5 142.5q34 144 27 181q-3 19 -53 19l8 32 q15 -4 87.5 -5t109.5 9q-23 -53 -32 -110q24 44 87.5 86t138.5 33q30 -4 48 -17t26.5 -41.5t-2 -81t-40.5 -127.5q-14 -36 -21 -64.5t-7.5 -45.5t3.5 -28.5t9.5 -15.5t11.5 -4q43 0 92 91zM304 -156q-13 -62 -48 -94t-103 -34v19q85 12 94 60q3 14 -15 15q-63 2 -49 57 q5 24 25 39q22 15 44 15q30 0 43 -21q16 -25 9 -56z" />
<glyph unicode="&#x147;" horiz-adv-x="864" d="M918 693l-2 -7q-1 -8 -2 -15l-2 -7q-63 0 -85 -17q-9 -7 -15 -19t-9 -20t-8.5 -31t-8.5 -33q-16 -61 -36 -157q-3 -15 -24.5 -114.5t-39.5 -183t-20 -98.5h-3h-7h-10h-11.5h-11.5h-9.5h-7.5h-2q-241 398 -333 550q-35 -175 -47 -232q-18 -74 -30 -158q-2 -11 -5 -27 t-5 -25.5t-3 -20.5t1 -18.5t6 -13.5q14 -18 78 -17q0 -2 -1 -5t-2.5 -9.5t-2.5 -10.5v-4q1 0 -14 0h-38t-51 -0.5t-56 -0.5h-51.5t-37.5 1h-15l7 32q74 -3 97 26q13 14 65 246q4 13 30.5 151.5t28.5 157.5q-4 33 -26 42q-5 2 -21 3.5t-30 2.5l-13 1l6 31h229 q27 -54 77 -137.5t122 -197.5t87 -138q13 44 38 171q11 51 27.5 142.5t12.5 104.5q-4 15 -26 21.5t-42 5.5l-20 -1q4 20 6 29h266zM699 897l-150 -166h-89l-81 166q5 0 16 -0.5t19 -0.5h9l96 -96l123 97h57z" />
<glyph unicode="&#x148;" horiz-adv-x="589" d="M607 142q-86 -158 -202 -158q-50 0 -68 45q-20 49 42 242q19 60 21 95t-4.5 43.5t-18.5 12.5q-20 6 -43.5 -2.5t-42.5 -25.5t-35 -34.5t-25 -31.5l-9 -13q-32 -122 -63 -316q-12 7 -67.5 7t-71.5 -6q7 16 31.5 103.5t36.5 142.5q34 144 27 181q-3 19 -53 19l8 32 q15 -4 87.5 -5t109.5 9q-23 -53 -32 -110q24 44 87.5 86t138.5 33q30 -4 48 -17t26.5 -41.5t-2 -81t-40.5 -127.5q-14 -36 -21 -64.5t-7.5 -45.5t3.5 -28.5t9.5 -15.5t11.5 -4q43 0 92 91zM515 709l-150 -167h-88l-82 167q6 0 17 -0.5t20 -0.5h8l96 -96l122 97h57z" />
<glyph unicode="&#x149;" horiz-adv-x="589" d="M607 142q-86 -158 -202 -158q-50 0 -68 45q-19 47 42 242q19 60 21 95t-4.5 43.5t-18.5 12.5q-20 6 -43.5 -2.5t-42.5 -25.5t-35 -34.5t-25 -31.5l-9 -13q-32 -122 -63 -316q-11 7 -67 7t-72 -6q7 16 31.5 103.5t36.5 142.5q34 144 27 181q-3 19 -52 19l7 32q16 -4 88 -5 t109 9q-24 -58 -32 -110q25 44 88 86t138 33q30 -4 48 -17t26.5 -41.5t-2 -81t-39.5 -127.5q-15 -36 -22 -64.5t-7.5 -45.5t3.5 -28.5t9.5 -15.5t11.5 -4q43 0 92 91zM299 703q-12 -56 -49 -92.5t-102 -69.5l-14 30q47 25 70.5 45.5t32.5 44.5q5 14 -14 23q-4 1 -17 -1 t-21 2q-28 10 -16 55q6 25 26.5 39t43.5 14q35 0 52 -24t8 -66z" />
<glyph unicode="&#x14a;" horiz-adv-x="864" d="M272 541q-36 -175 -48 -232q-23 -117 -30 -158q-1 -7 -5 -26.5t-5 -26.5t-2.5 -19.5t0.5 -19.5t6 -13q15 -18 78 -17q0 -2 -1 -5t-2.5 -9.5t-2.5 -10.5v-4h-9h-24t-35 -0.5t-41.5 -0.5h-43.5h-42h-35t-24 1h-9l6 32q75 -3 98 26q14 16 66 246q52 260 59 309q4 28 -26 42 q-6 2 -22 3.5t-30 2.5l-13 1l7 31h229q27 -54 76 -135.5t123.5 -200.5t85.5 -137q5 17 21.5 93t17.5 78q43 232 39 247t-26 21.5t-42 5.5l-20 -1q4 20 6 29h266q1 0 -0.5 -7.5t-3.5 -14.5l-2 -7q-64 0 -84 -17q-7 -6 -12 -13t-9.5 -18.5t-6.5 -18.5t-6.5 -26t-6.5 -27 q-16 -61 -36 -157q-79 -376 -84 -396l-6.5 -26t-9.5 -35t-13 -36t-18 -38.5t-24 -32t-33 -26.5q-26 -14 -64 -18t-61 12q-29 29 -25.5 60t23.5 55t40 28l4 -12q3 -11 10 -25t15 -19q26 -16 52 2t32 44q15 62 15 67q-241 398 -332 550z" />
<glyph unicode="&#x14b;" horiz-adv-x="522" d="M513 235q-7 -30 -22 -97.5t-27.5 -116t-29.5 -92.5q-29 -80 -81 -119t-144 -39q-128 -4 -142 48q-5 18 5 42t43 34q29 10 60 -2t30 -32q-6 -4 -10.5 -15t-2.5 -21q5 -16 33 -12q12 2 22 8.5t18 19.5t14 25t12 31.5t9 32.5t8.5 35t7.5 32q2 6 25.5 117.5t37.5 156.5 q21 71 21 104.5t-23 46.5q-22 7 -43.5 0t-41.5 -25t-35.5 -36t-24.5 -32l-10 -14q-32 -122 -63 -316q-12 7 -67.5 7t-71.5 -6q7 16 31.5 103.5t36.5 142.5q34 144 27 181q-3 19 -53 19l8 32q15 -4 87.5 -5t109.5 9q-23 -53 -32 -110q24 44 87.5 86t138.5 33q41 -5 59 -22.5 t18.5 -73t-25.5 -160.5z" />
<glyph unicode="&#x14c;" horiz-adv-x="824" d="M797 332q-37 -152 -158.5 -248.5t-272.5 -96.5q-161 0 -242 92.5t-46 252.5q26 121 93 207t156 126.5t193 40.5q73 0 131 -20.5t101 -65.5t54.5 -116.5t-9.5 -171.5zM631 344q13 59 14.5 113t-10 101t-43.5 75.5t-82 29.5t-91 -19.5t-67.5 -51t-48 -77.5t-33.5 -87 t-22 -91q-16 -84 -9.5 -152.5t42.5 -111t95 -41.5q83 1 154.5 92.5t100.5 219.5zM665 789l-12 -58h-292l12 58h292z" />
<glyph unicode="&#x14d;" horiz-adv-x="606" d="M566 234q-25 -117 -110.5 -185.5t-205.5 -67.5q-112 1 -169 69.5t-30 195.5q24 108 108.5 176.5t203.5 69.5q113 2 171 -66t32 -192zM410 206q12 53 16 97.5t0 81.5t-21.5 57.5t-47.5 20.5q-48 0 -93 -61t-68 -177q-20 -88 -3 -151t72 -62q37 1 79 46t66 148zM513 599 l-11 -58h-293l13 58h291z" />
<glyph unicode="&#x14e;" horiz-adv-x="824" d="M797 332q-37 -152 -158.5 -248.5t-272.5 -96.5q-161 0 -242 92.5t-46 252.5q26 121 93 207t156 126.5t193 40.5q73 0 131 -20.5t101 -65.5t54.5 -116.5t-9.5 -171.5zM631 344q13 59 14.5 113t-10 101t-43.5 75.5t-82 29.5t-91 -19.5t-67.5 -51t-48 -77.5t-33.5 -87 t-22 -91q-16 -84 -9.5 -152.5t42.5 -111t95 -41.5q83 1 154.5 92.5t100.5 219.5zM459 846l32 -1q4 -39 19.5 -52.5t48.5 -13.5q27 0 52.5 17t41.5 50h9h16h11q-5 -49 -48 -82t-92 -33q-46 1 -73 35t-17 80z" />
<glyph unicode="&#x14f;" horiz-adv-x="606" d="M566 234q-25 -117 -110.5 -185.5t-205.5 -67.5q-112 1 -169 69.5t-30 195.5q24 108 108.5 176.5t203.5 69.5q113 2 171 -66t32 -192zM410 206q12 53 16 97.5t0 81.5t-21.5 57.5t-47.5 20.5q-48 0 -93 -61t-68 -177q-20 -88 -3 -151t72 -62q37 1 79 46t66 148zM285 655h32 q4 -39 20 -53t49 -14q26 0 52 17t42 50h36q-6 -49 -48.5 -82t-92.5 -32q-45 0 -72.5 34t-17.5 80z" />
<glyph unicode="&#x150;" horiz-adv-x="824" d="M797 332q-37 -152 -158.5 -248.5t-272.5 -96.5q-161 0 -242 92.5t-46 252.5q26 121 93 207t156 126.5t193 40.5q73 0 131 -20.5t101 -65.5t54.5 -116.5t-9.5 -171.5zM631 344q13 59 14.5 113t-10 101t-43.5 75.5t-82 29.5t-91 -19.5t-67.5 -51t-48 -77.5t-33.5 -87 t-22 -91q-16 -84 -9.5 -152.5t42.5 -111t95 -41.5q83 1 154.5 92.5t100.5 219.5zM712 845l-113 -114h-44l73 148q25 51 77 31q21 -8 21 -29t-14 -36zM572 845l-113 -114h-44l72 148q26 51 77 31q22 -8 22 -30t-14 -35z" />
<glyph unicode="&#x151;" horiz-adv-x="606" d="M566 234q-25 -117 -110.5 -185.5t-205.5 -67.5q-112 1 -169 69.5t-30 195.5q24 108 108.5 176.5t203.5 69.5q113 2 171 -66t32 -192zM410 206q12 53 16 97.5t0 81.5t-21.5 57.5t-47.5 20.5q-48 0 -93 -61t-68 -177q-20 -88 -3 -151t72 -62q37 1 79 46t66 148zM556 655 l-113 -114h-44l72 148q26 51 77 31q22 -8 22.5 -30t-14.5 -35zM415 655l-113 -114h-43l72 148q25 51 77 31q22 -8 22 -29t-15 -36z" />
<glyph unicode="&#x152;" horiz-adv-x="1116" d="M1108 692q-5 -23 -8 -40t-4 -29t-4 -40.5t-6 -56.5h-35q-6 37 -16 59.5t-15.5 28.5t-22 13t-17.5 8q-72 12 -229 12q-26 -123 -54 -258q172 0 187 14q48 44 64 93h35l-4 -16q-4 -17 -12.5 -49t-14.5 -58q-8 -29 -13.5 -63.5t-8.5 -55.5l-3 -21h-38q0 3 2 15.5t2 19.5 t-2 18t-8.5 21t-17.5 20q-8 7 -52.5 10.5t-85.5 2.5h-41q-13 -63 -29.5 -138t-25 -115t-8.5 -41q45 0 84 1.5t63 3.5t46.5 5t32.5 5t23.5 5t16.5 4q2 1 15 6.5t18.5 9t18 12.5t21 20t20 29.5t21.5 42.5l35 -1q-9 -29 -19.5 -60t-16 -46.5t-11.5 -37t-11 -45.5 q-421 3 -620 -7q-157 -7 -236 87t-46 253q38 178 158.5 274.5t273.5 89.5q223 -7 598 -5zM589 633q-5 9 -13.5 14.5t-18 7.5t-20 3t-19.5 0.5t-17 0.5q-49 1 -89 -19.5t-66 -50.5t-47 -77t-32.5 -85.5t-22.5 -89.5q-15 -82 -9 -148.5t42 -108.5t94 -42q24 1 37 2t30.5 7.5 t31.5 18.5q22 22 74 271q0 3 7.5 37t14.5 69t15 80.5t9.5 70.5t-1.5 39z" />
<glyph unicode="&#x153;" horiz-adv-x="919" d="M880 280h-323q-12 -56 -6.5 -95t16 -63t31.5 -37.5t40 -18.5t40 -5q79 0 164 104l25 -21q-51 -63 -87.5 -94t-89 -48t-128.5 -16q-41 0 -74.5 16.5t-43.5 42.5q-87 -64 -195 -64q-112 1 -168.5 69t-29.5 196q23 108 107.5 176.5t202.5 69.5q115 2 173 -67q87 66 190 64 q84 -1 130 -50t26 -159zM761 323q10 53 -1 91.5t-47 38.5q-92 0 -143 -130h191zM409 206q12 53 16 97.5t0 81.5t-21 57.5t-47 20.5q-48 0 -93.5 -61t-68.5 -177q-20 -88 -2.5 -151t71.5 -62q16 0 34 9.5t39 29.5t40.5 60.5t31.5 94.5z" />
<glyph unicode="&#x154;" horiz-adv-x="734" d="M722 29l-6 -30q-10 5 -92 5.5t-115 -4.5l-159 322l-36 -1q-55 -229 -38 -255q24 -36 84 -38l-5 -30q-8 4 -90.5 7t-109.5 3q-18 0 -80.5 -2.5t-70.5 -5.5l6 28q59 2 100 38q22 21 74 271q60 266 45 296q-16 29 -84 32l4 27h324q37 0 70 -4t67.5 -16.5t57.5 -32.5 t34.5 -54t3.5 -79q-7 -41 -31.5 -73t-52 -49t-57.5 -28t-46 -14t-19 -3l146 -273q22 -36 76 -37zM559 505q7 39 -4 69.5t-32.5 46.5t-43.5 24.5t-40 8.5l-54 -1q-10 -48 -18.5 -88l-42.5 -200q15 2 38.5 -0.5t54.5 4.5t59 19t51 42.5t32 74.5zM579 878q0 -5 -0.5 -9.5 t-3.5 -9t-4 -7t-5.5 -7.5t-5.5 -6t-8 -7l-6 -6l-95 -96h-43l72 147q17 38 48 38q19 0 35 -9.5t16 -27.5z" />
<glyph unicode="&#x155;" horiz-adv-x="466" d="M448 373q-22 -20 -51 -25q-1 14 -11.5 26t-31.5 15.5t-52 -17.5l-81 -73q-40 -189 -59 -300q-10 4 -65.5 5t-73.5 -3q7 16 30.5 103.5t35.5 141.5q13 55 22 113t7 73q-4 19 -46 17l6 29q18 -4 82.5 -5t106.5 9q-3 -8 -12.5 -43.5t-18 -66.5t-9.5 -31q34 42 64 70 q51 51 112 70q37 11 59.5 -4t19 -45.5t-33.5 -58.5zM363 690q0 -7 -1.5 -13t-6 -12t-6.5 -9t-9 -10l-9 -9l-95 -96h-44l72 148q19 38 49 38q19 0 34.5 -9.5t15.5 -27.5z" />
<glyph unicode="&#x156;" horiz-adv-x="734" d="M722 29l-7 -30q-9 5 -90.5 5.5t-115.5 -4.5l-158 322l-37 -1q0 -1 -7.5 -33.5t-13 -60t-12.5 -68.5t-7 -59.5t3 -33.5q24 -36 84 -38l-7 -30q-8 4 -90 7t-109 3q-18 0 -80 -2.5t-71 -5.5l7 28q60 2 99 38q17 16 41.5 119t32.5 152q61 267 46 296q-17 29 -86 32l6 27h323 q48 0 88.5 -7.5t79.5 -26.5t57 -58t8 -94q-7 -41 -31 -73t-52 -49t-57.5 -28t-46 -14t-19.5 -3l146 -273q24 -36 76 -37zM559 505q8 39 -3 69.5t-33 46.5t-44 24.5t-40 8.5l-53 -1q-8 -36 -17.5 -79t-44.5 -209q15 2 39 -0.5t54.5 4.5t58.5 19t51 42.5t32 74.5zM466 -132 q-14 -63 -48.5 -94.5t-102.5 -33.5v19q84 12 95 60q1 7 -3 11t-13 4q-62 3 -50 58q6 23 25 39q20 14 44 14q31 0 44 -21q15 -23 9 -56z" />
<glyph unicode="&#x157;" horiz-adv-x="513" d="M495 373q-22 -20 -51 -25q-1 14 -11.5 26t-31.5 15.5t-52 -17.5l-81 -73q-40 -189 -59 -300q-10 4 -65.5 5t-73.5 -3q7 16 30.5 103.5t35.5 141.5q13 55 22 113t7 73q-4 19 -46 17l6 29q18 -4 82.5 -5t106.5 9q-3 -8 -12.5 -43.5t-18 -66.5t-9.5 -31q34 42 64 70 q51 51 112 70q37 11 59.5 -4t19 -45.5t-33.5 -58.5zM174 -142q-14 -62 -49 -94t-102 -34v19q85 14 94 60q3 15 -15 15q-62 3 -50 58q6 25 26 39q17 14 43 14q31 0 44 -21q15 -23 9 -56z" />
<glyph unicode="&#x158;" horiz-adv-x="734" d="M722 29l-6 -30q-10 5 -92 5.5t-115 -4.5l-159 322l-36 -1q-55 -229 -38 -255q24 -36 84 -38l-5 -30q-8 4 -90.5 7t-109.5 3q-18 0 -80.5 -2.5t-70.5 -5.5l6 28q59 2 100 38q22 21 74 271q60 266 45 296q-16 29 -84 32l4 27h324q37 0 70 -4t67.5 -16.5t57.5 -32.5 t34.5 -54t3.5 -79q-7 -41 -31.5 -73t-52 -49t-57.5 -28t-46 -14t-19 -3l146 -273q22 -36 76 -37zM559 505q7 39 -4 69.5t-32.5 46.5t-43.5 24.5t-40 8.5l-54 -1q-10 -48 -18.5 -88l-42.5 -200q15 2 38.5 -0.5t54.5 4.5t59 19t51 42.5t32 74.5zM607 900l-150 -167h-88 l-82 167h16h20l9 -1l96 -96l122 97h57z" />
<glyph unicode="&#x159;" horiz-adv-x="471" d="M448 373q-22 -20 -51 -25q-1 14 -11.5 26t-31.5 15.5t-52 -17.5l-81 -73q-40 -189 -59 -300q-10 4 -65.5 5t-73.5 -3q7 16 30.5 103.5t35.5 141.5q13 55 22 113t7 73q-4 19 -46 17l6 29q18 -4 82.5 -5t106.5 9q-3 -8 -12.5 -43.5t-18 -66.5t-9.5 -31q34 42 64 70 q51 51 112 70q37 11 59.5 -4t19 -45.5t-33.5 -58.5zM487 710l-151 -167h-88l-82 167h17h19l9 -1l96 -96l123 97h57z" />
<glyph unicode="&#x15a;" horiz-adv-x="649" d="M643 713q-13 -64 -18 -105l-7 -124h-29q-12 98 -66.5 142t-134.5 44q-40 0 -75.5 -32t-42.5 -71q-5 -27 3 -48t28 -36t40.5 -26t49.5 -24t44 -22q78 -47 108 -79q65 -68 46 -160q-11 -52 -47.5 -91t-86.5 -59.5t-103.5 -30t-106.5 -6.5q-44 3 -95 19.5t-63 16.5 q-28 0 -34 -34h-28q11 63 14 104l2 117h29q37 -182 169 -185q62 -1 121.5 37t68.5 82q11 47 -25.5 85t-145.5 97q-77 41 -107 87t-12 118q19 77 91 126.5t166 49.5q42 0 105.5 -16.5t76.5 -16.5q33 0 36 41h29zM507 877q0 -6 -1.5 -11.5t-3 -9t-6 -9t-6.5 -7.5l-8 -8l-7 -7 l-95 -96h-44l72 147q19 38 49 38q19 0 34.5 -9.5t15.5 -27.5z" />
<glyph unicode="&#x15b;" horiz-adv-x="511" d="M487 479l-32 -147h-28q-9 114 -95 114q-28 0 -53.5 -17t-30.5 -40q-6 -28 15 -48.5t53.5 -35.5t64 -33t48 -51t4.5 -79q-20 -81 -79.5 -118.5t-138.5 -37.5q-22 0 -50.5 7t-49.5 14.5t-23 7.5q-20 2 -33 -28h-26l37 168h27q4 -125 117 -129q71 -3 84 61q5 22 -9 40 t-38.5 30t-52.5 28.5t-51 34t-35 46.5t-4 66q14 64 85.5 106.5t145.5 42.5q28 0 57 -11t35 -11q20 0 31 20h25zM438 692q0 -7 -1.5 -13t-6 -12t-6.5 -9t-9 -10l-9 -9l-95 -96h-44l72 148q19 38 49 38q19 0 34.5 -9.5t15.5 -27.5z" />
<glyph unicode="&#x15c;" horiz-adv-x="649" d="M643 713q-13 -64 -18 -105l-7 -124h-29q-12 98 -66.5 142t-134.5 44q-40 0 -75.5 -32t-42.5 -71q-5 -27 3 -48t28 -36t40.5 -26t49.5 -24t44 -22q78 -47 108 -79q65 -68 46 -160q-11 -52 -47.5 -91t-86.5 -59.5t-103.5 -30t-106.5 -6.5q-44 3 -95 19.5t-63 16.5 q-28 0 -34 -34h-28q11 63 14 104l2 117h29q37 -182 169 -185q62 -1 121.5 37t68.5 82q11 47 -25.5 85t-145.5 97q-77 41 -107 87t-12 118q19 77 91 126.5t166 49.5q42 0 105.5 -16.5t76.5 -16.5q33 0 36 41h29zM546 731h-54l-76 96l-138 -96h-52l153 166h88z" />
<glyph unicode="&#x15d;" horiz-adv-x="517" d="M487 479l-32 -147h-28q-9 114 -95 114q-28 0 -53.5 -17t-30.5 -40q-6 -28 15 -48.5t53.5 -35.5t64 -33t48 -51t4.5 -79q-20 -81 -79.5 -118.5t-138.5 -37.5q-22 0 -50.5 7t-49.5 14.5t-23 7.5q-20 2 -33 -28h-26l37 168h27q4 -125 117 -129q71 -3 84 61q5 22 -9 40 t-38.5 30t-52.5 28.5t-51 34t-35 46.5t-4 66q14 64 85.5 106.5t145.5 42.5q28 0 57 -11t35 -11q20 0 31 20h25zM493 541h-54l-76 96l-138 -96h-52l153 166h88z" />
<glyph unicode="&#x15e;" horiz-adv-x="649" d="M643 713q-13 -64 -18 -105l-7 -124h-29q-12 98 -66.5 142t-134.5 44q-40 0 -75.5 -32t-42.5 -71q-5 -27 3 -48t28 -36t40.5 -26t49.5 -24t44 -22q78 -47 108 -79q65 -68 46 -160q-14 -63 -66 -106.5t-115.5 -61.5t-133.5 -19l-22 -52q27 5 40 5q75 0 75 -71 q0 -31 -23.5 -50.5t-50.5 -25t-58 -5.5q-36 0 -83 17l15 35q111 -24 111 27q0 44 -70 30l-10 7l37 84q-40 3 -88 19t-60 16q-28 0 -34 -34h-28q11 63 14 104l2 117h29q37 -182 169 -185q62 -1 121.5 37t68.5 82q11 47 -25.5 85t-145.5 97q-77 41 -107 87t-12 118 q19 77 91 126.5t166 49.5q42 0 105.5 -16.5t76.5 -16.5q33 0 36 41h29z" />
<glyph unicode="&#x15f;" horiz-adv-x="511" d="M487 479l-32 -147h-28q-9 114 -95 114q-28 0 -53.5 -17t-30.5 -40q-6 -28 15 -48.5t53.5 -35.5t64 -33t48 -51t4.5 -79q-20 -80 -79.5 -118t-137.5 -38l-24 -53q27 5 41 5q39 0 57 -20t18 -51t-24 -50.5t-51 -25t-57 -5.5q-37 0 -84 17l16 35q111 -24 111 27q0 44 -71 30 l-9 7l39 88q-18 3 -37.5 9t-33 11t-15.5 5q-20 2 -33 -28h-26l37 168h27q4 -125 117 -129q71 -3 84 61q5 22 -9 40t-38.5 30t-52.5 28.5t-51 34t-35 46.5t-4 66q14 64 85.5 106.5t145.5 42.5q28 0 57 -11t35 -11q20 0 31 20h25z" />
<glyph unicode="&#x160;" horiz-adv-x="649" d="M643 713q-13 -64 -18 -105l-7 -124h-29q-12 98 -66.5 142t-134.5 44q-40 0 -75.5 -32t-42.5 -71q-5 -27 3 -48t28 -36t40.5 -26t49.5 -24t44 -22q78 -47 108 -79q65 -68 46 -160q-11 -52 -47.5 -91t-86.5 -59.5t-103.5 -30t-106.5 -6.5q-44 3 -95 19.5t-63 16.5 q-28 0 -34 -34h-28q11 63 14 104l2 117h29q37 -182 169 -185q62 -1 121.5 37t68.5 82q11 47 -25.5 85t-145.5 97q-77 41 -107 87t-12 118q19 77 91 126.5t166 49.5q42 0 105.5 -16.5t76.5 -16.5q33 0 36 41h29zM585 900l-150 -167h-88l-82 167h16h20l9 -1l95 -96l123 97h57z " />
<glyph unicode="&#x161;" horiz-adv-x="561" d="M487 479l-32 -147h-28q-9 114 -95 114q-28 0 -53.5 -17t-30.5 -40q-6 -28 15 -48.5t53.5 -35.5t64 -33t48 -51t4.5 -79q-20 -81 -79.5 -118.5t-138.5 -37.5q-22 0 -50.5 7t-49.5 14.5t-23 7.5q-20 2 -33 -28h-26l37 168h27q4 -125 117 -129q71 -3 84 61q5 22 -9 40 t-38.5 30t-52.5 28.5t-51 34t-35 46.5t-4 66q14 64 85.5 106.5t145.5 42.5q28 0 57 -11t35 -11q20 0 31 20h25zM537 710l-150 -167h-89l-81 167h16h19l9 -1l96 -96l123 97h57z" />
<glyph unicode="&#x162;" horiz-adv-x="684" d="M744 693q-23 -102 -28 -169h-34q-3 41 -18 72.5t-32 37.5q-14 5 -24 8t-24.5 4.5t-20 2t-29 0t-34.5 -0.5q-59 -275 -64 -297q-58 -255 -43 -287q5 -12 14 -18.5t17 -8t25 -3.5t28 -5l-8 -31q-60 9 -171.5 10t-177.5 -8l7 30q36 1 54.5 7.5t40.5 28.5q7 6 15.5 28.5 t18.5 62t16 66t16.5 73.5t11.5 52l64 301q-11 0 -35 0.5t-31.5 0t-23 -1.5t-27.5 -4t-28 -8q-20 -7 -48.5 -38t-49.5 -72h-33q26 78 43 167h613zM330 -143q-13 -62 -48 -94t-102 -34v19q83 13 94 60q3 14 -15 15q-62 1 -51 57q6 25 25 39q19 15 45 15q31 0 43 -20 q16 -26 9 -57z" />
<glyph unicode="&#x163;" horiz-adv-x="403" d="M391 468l-10 -48h-108q0 -1 -9.5 -41t-23.5 -100t-22 -95q-14 -54 -13.5 -89t25.5 -36q40 -3 100 93l23 -10q-87 -163 -190 -158h-4q-65 4 -80 57q-3 9 -4 20.5t1.5 29.5t4 30.5t8 40t9.5 39t11 46.5l17.5 70t17.5 69.5t9 35.5h-68l15 8q14 8 43 27.5t57 41.5 q23 18 51 43t45.5 41.5t16.5 17.5q-18 -89 -27 -133h105zM196 -150q-14 -62 -48.5 -94.5t-101.5 -33.5v19q83 12 94 59q1 16 -16 16q-62 3 -50 58q6 23 26 39q20 14 43 14q32 0 44 -21q15 -21 9 -56z" />
<glyph unicode="&#x164;" horiz-adv-x="685" d="M745 693q-21 -81 -29 -169h-33q-4 41 -19 72.5t-31 37.5q-14 5 -24 8t-24.5 4.5t-20.5 2t-29.5 0t-34.5 -0.5q-58 -275 -63 -297q-58 -255 -45 -287q7 -15 17 -21t34 -8.5t34 -5.5l-7 -31q-61 9 -172 10t-178 -8l7 30q37 1 55.5 7.5t40.5 28.5q5 5 10.5 18.5t12 35.5 t12.5 43.5t13 51t11.5 49.5t10.5 47.5t8 36.5l64 301q-12 0 -36 0.5t-31.5 0t-23 -1.5t-27.5 -4t-28 -8q-20 -7 -48 -38t-50 -72h-33q27 77 44 167h613zM642 900l-150 -167h-88l-82 167h16h20l9 -1l95 -96l123 97h57z" />
<glyph unicode="&#x165;" horiz-adv-x="623" d="M362 468l-10 -48h-108q0 -1 -9.5 -41t-23.5 -100t-22 -95q-14 -54 -13.5 -89t25.5 -36q40 -3 100 93l23 -10q-87 -163 -190 -158h-4q-65 4 -80 57q-3 9 -4 20.5t1.5 29.5t4 30.5t8 40t9.5 39t11 46.5l17.5 70t17.5 69.5t9 35.5h-68l14 8q15 8 44 27.5t57 41.5 q23 18 51 43t45.5 41.5t16.5 17.5q-18 -89 -27 -133h105zM607 618q-12 -56 -49 -92t-102 -70l-12 30q47 27 70 46.5t32 44.5q5 18 -15 22q-4 2 -15.5 0t-22.5 1q-26 11 -16 55q7 25 27.5 39.5t43.5 14.5q34 0 51 -24.5t8 -66.5z" />
<glyph unicode="&#x166;" horiz-adv-x="684" d="M744 693q-23 -102 -28 -169h-34q-3 41 -18 72.5t-32 37.5q-14 5 -24 8t-24.5 4.5t-20 2t-29 0t-34.5 -0.5l-44 -205h200l-12 -48h-198l-10 -44q-3 -12 -9 -41t-10 -49.5t-9.5 -49.5t-9 -50t-6 -42t-2.5 -35t3 -20q5 -12 14 -18.5t17 -8t25 -3.5t28 -5l-8 -31 q-60 9 -171.5 10t-177.5 -8l7 30q36 1 54.5 7.5t40.5 28.5q23 21 78 282l11 47h-181l12 48h178l44 206q-11 0 -35 0.5t-31.5 0t-23 -1.5t-27.5 -4t-28 -8q-20 -7 -48.5 -38t-49.5 -72h-33q26 78 43 167h613z" />
<glyph unicode="&#x167;" horiz-adv-x="384" d="M372 468l-10 -48h-108q1 -1 -9 -41h108l-11 -47h-108q-24 -99 -35 -148q-14 -54 -13.5 -89t25.5 -36q40 -3 100 93l23 -10q-87 -163 -190 -158h-4q-65 4 -80 57q-3 9 -4 20.5t1.5 29.5t4 30.5t8 40t9.5 39t11 46.5q2 9 9.5 39.5t11.5 45.5h-65l12 47h65q3 12 6.5 26.5 t4.5 16.5h-68l14 8q15 8 44 27.5t57 41.5q23 18 51 43t45.5 41.5t16.5 17.5q-18 -89 -27 -133h105z" />
<glyph unicode="&#x168;" horiz-adv-x="749" d="M831 693l-7 -29q-70 -3 -99 -32q-19 -21 -34 -93l-58 -274q-5 -23 -7 -32.5t-9.5 -36t-15 -41.5t-22 -40.5t-31.5 -40.5t-42.5 -34t-55.5 -29t-70.5 -17.5t-87.5 -7.5q-248 0 -188 258q1 4 1 6q14 50 46 208t22 175q-17 29 -85 32l6 28q15 -7 192 -7q138 0 156 7l-6 -28 q-70 -3 -98 -32q-16 -17 -52 -169.5t-49 -220.5q-1 -4 -2 -12q-4 -21 -5.5 -33.5t-3.5 -36t0.5 -38.5t9 -33.5t18.5 -29.5t33 -18.5t49 -7.5q120 1 184 80q34 41 55 142l60 283q15 73 3 97q-5 9 -12 15t-18 8.5t-17 3.5t-19.5 1h-15.5l6 29q15 -8 134 -8q115 0 135 8z M683 850q-30 -119 -115 -119q-29 0 -77 23q-46 23 -73 23q-17 0 -28.5 -14t-15.5 -32h-38q1 21 11 46.5t37 49t64 23.5q28 0 74 -23q48 -22 70 -22q6 0 11 1t8.5 2.5t7 5t5.5 5t5 7t4 7t4.5 9t4.5 8.5h41z" />
<glyph unicode="&#x169;" d="M606 139q-24 -46 -49.5 -78t-46.5 -46.5t-41.5 -23t-34.5 -7t-26 0.5h-7q-43 0 -59 37q-15 30 -1 94q-39 -50 -104 -87.5t-115 -41.5q-25 -3 -41.5 1.5t-25 18t-10.5 32.5t3 52.5t14 70.5t24 93q8 29 21 91.5t11 77.5q-5 20 -46 18l6 27q16 -3 83.5 -3t96.5 8 q-40 -147 -66 -272q-16 -73 -16 -98.5t18 -32.5q24 -9 63.5 17t66.5 56l28 31q16 64 33.5 159t26.5 137q8 -3 62.5 -3t69.5 6q-1 -4 -12 -52t-26.5 -110.5t-24.5 -97.5q-22 -91 -19.5 -120t29.5 -30q19 -1 49.5 32t38.5 55zM524 661q-28 -120 -115 -120q-25 0 -77 24 q-44 23 -72 23q-32 0 -45 -46h-38q1 21 11 46.5t37.5 49t64.5 23.5q28 0 74 -23q46 -22 70 -22q14 0 24 7t14 14t11 24h41z" />
<glyph unicode="&#x16a;" horiz-adv-x="749" d="M831 693l-7 -29q-70 -3 -99 -32q-19 -21 -34 -93l-58 -274q-5 -23 -7 -32.5t-9.5 -36t-15 -41.5t-22 -40.5t-31.5 -40.5t-42.5 -34t-55.5 -29t-70.5 -17.5t-87.5 -7.5q-248 0 -188 258q1 4 1 6q14 50 46 208t22 175q-17 29 -85 32l6 28q15 -7 192 -7q138 0 156 7l-6 -28 q-70 -3 -98 -32q-16 -17 -52 -169.5t-49 -220.5q-1 -4 -2 -12q-4 -21 -5.5 -33.5t-3.5 -36t0.5 -38.5t9 -33.5t18.5 -29.5t33 -18.5t49 -7.5q120 1 184 80q34 41 55 142l60 283q15 73 3 97q-5 9 -12 15t-18 8.5t-17 3.5t-19.5 1h-15.5l6 29q15 -8 134 -8q115 0 135 8z M650 789l-11 -58h-293l13 58h291z" />
<glyph unicode="&#x16b;" d="M606 139q-24 -46 -49.5 -78t-46.5 -46.5t-41.5 -23t-34.5 -7t-26 0.5h-7q-43 0 -59 37q-15 30 -1 94q-39 -50 -104 -87.5t-115 -41.5q-25 -3 -41.5 1.5t-25 18t-10.5 32.5t3 52.5t14 70.5t24 93q8 29 21 91.5t11 77.5q-5 20 -46 18l6 27q16 -3 83.5 -3t96.5 8 q-40 -147 -66 -272q-16 -73 -16 -98.5t18 -32.5q24 -9 63.5 17t66.5 56l28 31q16 64 33.5 159t26.5 137q8 -3 62.5 -3t69.5 6q-1 -4 -12 -52t-26.5 -110.5t-24.5 -97.5q-22 -91 -19.5 -120t29.5 -30q19 -1 49.5 32t38.5 55zM496 600l-12 -58h-292l12 58h292z" />
<glyph unicode="&#x16c;" horiz-adv-x="749" d="M831 693l-7 -29q-70 -3 -99 -32q-19 -21 -34 -93l-58 -274q-5 -23 -7 -32.5t-9.5 -36t-15 -41.5t-22 -40.5t-31.5 -40.5t-42.5 -34t-55.5 -29t-70.5 -17.5t-87.5 -7.5q-248 0 -188 258q1 4 1 6q14 50 46 208t22 175q-17 29 -85 32l6 28q15 -7 192 -7q138 0 156 7l-6 -28 q-70 -3 -98 -32q-16 -17 -52 -169.5t-49 -220.5q-1 -4 -2 -12q-4 -21 -5.5 -33.5t-3.5 -36t0.5 -38.5t9 -33.5t18.5 -29.5t33 -18.5t49 -7.5q120 1 184 80q34 41 55 142l60 283q15 73 3 97q-5 9 -12 15t-18 8.5t-17 3.5t-19.5 1h-15.5l6 29q15 -8 134 -8q115 0 135 8z M416 846l32 -1q4 -39 19.5 -52.5t48.5 -13.5q27 0 52.5 17t41.5 50h36q-5 -49 -48 -82t-92 -33q-46 1 -73 35t-17 80z" />
<glyph unicode="&#x16d;" horiz-adv-x="620" d="M606 139q-24 -46 -49.5 -78t-46.5 -46.5t-41.5 -23t-34.5 -7t-26 0.5h-7q-43 0 -59 37q-15 30 -1 94q-39 -50 -104 -87.5t-115 -41.5q-25 -3 -41.5 1.5t-25 18t-10.5 32.5t3 52.5t14 70.5t24 93q8 29 21 91.5t11 77.5q-5 20 -46 18l6 27q16 -3 83.5 -3t96.5 8 q-40 -147 -66 -272q-16 -73 -16 -98.5t18 -32.5q24 -9 63.5 17t66.5 56l28 31q16 64 33.5 159t26.5 137q8 -3 62.5 -3t69.5 6q-1 -4 -12 -52t-26.5 -110.5t-24.5 -97.5q-22 -91 -19.5 -120t29.5 -30q19 -1 49.5 32t38.5 55zM249 658l32 -1q4 -39 20 -52.5t48 -13.5 q27 0 52.5 17t41.5 50h37q-6 -49 -48.5 -82.5t-92.5 -32.5q-46 1 -73 35t-17 80z" />
<glyph unicode="&#x16e;" horiz-adv-x="749" d="M831 693l-7 -29q-70 -3 -99 -32q-19 -21 -34 -93l-58 -274q-5 -23 -7 -32.5t-9.5 -36t-15 -41.5t-22 -40.5t-31.5 -40.5t-42.5 -34t-55.5 -29t-70.5 -17.5t-87.5 -7.5q-248 0 -188 258q1 4 1 6q14 50 46 208t22 175q-17 29 -85 32l6 28q15 -7 192 -7q138 0 156 7l-6 -28 q-70 -3 -98 -32q-16 -17 -52 -169.5t-49 -220.5q-1 -4 -2 -12q-4 -21 -5.5 -33.5t-3.5 -36t0.5 -38.5t9 -33.5t18.5 -29.5t33 -18.5t49 -7.5q120 1 184 80q34 41 55 142l60 283q15 73 3 97q-5 9 -12 15t-18 8.5t-17 3.5t-19.5 1h-15.5l6 29q15 -8 134 -8q115 0 135 8z M617 826q-8 -44 -39.5 -69.5t-77.5 -25.5q-37 0 -60.5 31t-16.5 64q9 40 41.5 67.5t75.5 27.5q35 0 59.5 -29.5t17.5 -65.5zM568 826q4 20 -7 33.5t-30 13.5q-20 0 -37 -14t-21 -33q-5 -20 6 -34t31 -14t37 14t21 34z" />
<glyph unicode="&#x16f;" horiz-adv-x="620" d="M606 139q-24 -46 -49.5 -78t-46.5 -46.5t-41.5 -23t-34.5 -7t-26 0.5h-7q-43 0 -59 37q-15 30 -1 94q-39 -50 -104 -87.5t-115 -41.5q-25 -3 -41.5 1.5t-25 18t-10.5 32.5t3 52.5t14 70.5t24 93q8 29 21 91.5t11 77.5q-5 20 -46 18l6 27q16 -3 83.5 -3t96.5 8 q-40 -147 -66 -272q-16 -73 -16 -98.5t18 -32.5q24 -9 63.5 17t66.5 56l28 31q16 64 33.5 159t26.5 137q8 -3 62.5 -3t69.5 6q-1 -4 -12 -52t-26.5 -110.5t-24.5 -97.5q-22 -91 -19.5 -120t29.5 -30q19 -1 49.5 32t38.5 55zM453 638q-8 -44 -39.5 -69.5t-77.5 -25.5 q-37 0 -60.5 31.5t-16.5 63.5q9 40 41 67.5t76 27.5q35 0 59.5 -29.5t17.5 -65.5zM404 638q4 20 -7 34t-30 14q-20 0 -37 -14t-21 -34q-5 -20 6 -33.5t31 -13.5t37 14t21 33z" />
<glyph unicode="&#x170;" horiz-adv-x="749" d="M831 693l-7 -29q-70 -3 -99 -32q-19 -21 -34 -93l-58 -274q-5 -23 -7 -32.5t-9.5 -36t-15 -41.5t-22 -40.5t-31.5 -40.5t-42.5 -34t-55.5 -29t-70.5 -17.5t-87.5 -7.5q-248 0 -188 258q1 4 1 6q14 50 46 208t22 175q-17 29 -85 32l6 28q15 -7 192 -7q138 0 156 7l-6 -28 q-70 -3 -98 -32q-16 -17 -52 -169.5t-49 -220.5q-1 -4 -2 -12q-4 -21 -5.5 -33.5t-3.5 -36t0.5 -38.5t9 -33.5t18.5 -29.5t33 -18.5t49 -7.5q120 1 184 80q34 41 55 142l60 283q15 73 3 97q-5 9 -12 15t-18 8.5t-17 3.5t-19.5 1h-15.5l6 29q15 -8 134 -8q115 0 135 8z M718 845l-113 -114h-44l72 148q26 51 77 31q22 -8 22 -30t-14 -35zM577 845l-113 -114h-44l73 148q25 51 76 31q22 -8 22.5 -30t-14.5 -35z" />
<glyph unicode="&#x171;" horiz-adv-x="620" d="M606 139q-24 -46 -49.5 -78t-46.5 -46.5t-41.5 -23t-34.5 -7t-26 0.5h-7q-43 0 -59 37q-15 30 -1 94q-39 -50 -104 -87.5t-115 -41.5q-25 -3 -41.5 1.5t-25 18t-10.5 32.5t3 52.5t14 70.5t24 93q8 29 21 91.5t11 77.5q-5 20 -46 18l6 27q16 -3 83.5 -3t96.5 8 q-40 -147 -66 -272q-16 -73 -16 -98.5t18 -32.5q24 -9 63.5 17t66.5 56l28 31q16 64 33.5 159t26.5 137q8 -3 62.5 -3t69.5 6q-1 -4 -12 -52t-26.5 -110.5t-24.5 -97.5q-22 -91 -19.5 -120t29.5 -30q19 -1 49.5 32t38.5 55zM542 657l-113 -114h-43l72 148q25 51 77 31 q21 -8 21 -29t-14 -36zM402 657l-113 -114h-44l72 148q26 51 77 31q22 -8 22 -30.5t-14 -34.5z" />
<glyph unicode="&#x172;" horiz-adv-x="749" d="M831 693l-7 -29q-70 -3 -99 -32q-19 -21 -34 -93l-58 -274q-5 -25 -6.5 -31t-9 -34t-14 -40t-20 -38t-28 -39.5t-37.5 -33.5t-49.5 -30.5t-62.5 -19.5t-77 -12q-47 -57 -47 -97q0 -24 14 -38.5t38 -14.5q26 0 44 14q8 -3 8 -15q-33 -46 -86 -46q-39 0 -59 22t-20 52 q0 55 65 122q-241 3 -182 258q1 4 1 6q14 50 46 208t22 175q-17 29 -85 32l6 28q15 -7 192 -7q138 0 156 7l-6 -28q-70 -3 -98 -32q-16 -17 -52 -169.5t-49 -220.5q-1 -4 -2 -12q-4 -21 -5.5 -33.5t-3.5 -36t0.5 -38.5t9 -33.5t18.5 -29.5t33 -18.5t49 -7.5q120 1 184 80 q34 41 55 142l60 283q15 73 3 97q-5 9 -12 15t-18 8.5t-17 3.5t-19.5 1h-15.5l6 29q15 -8 134 -8q115 0 135 8z" />
<glyph unicode="&#x173;" horiz-adv-x="620" d="M606 139q-71 -135 -156 -152q-47 -57 -47 -97q0 -24 14 -38.5t38 -14.5q26 0 44 14q8 -3 8 -15q-33 -46 -86 -46q-39 0 -59 22t-20 52q0 55 64 121h-5q-43 0 -59 37q-15 30 -1 94q-39 -50 -104 -87.5t-115 -41.5q-25 -3 -41.5 1.5t-25 18t-10.5 32.5t3 52.5t14 70.5 t24 93q8 29 21 91.5t11 77.5q-5 20 -46 18l6 27q16 -3 83.5 -3t96.5 8q-40 -147 -66 -272q-16 -73 -16 -98.5t18 -32.5q24 -9 63.5 17t66.5 56l28 31q16 64 33.5 159t26.5 137q8 -3 62.5 -3t69.5 6q-1 -4 -12 -52t-26.5 -110.5t-24.5 -97.5q-22 -91 -19.5 -120t29.5 -30 q19 -1 49.5 32t38.5 55z" />
<glyph unicode="&#x174;" horiz-adv-x="1168" d="M1254 691l-6 -29q-10 0 -25.5 -1t-49 -13t-48.5 -35q-149 -227 -387 -628h-24l-4 15q-3 14 -9 40t-13.5 59.5t-16 74.5l-17 82t-16 85.5t-12.5 82.5q1 0 -69 -109.5t-141 -219.5l-70 -110h-24q1 1 -27.5 144t-62 297t-43.5 177q-12 30 -34 43.5t-70 14.5l7 30 q111 -6 171 -6l172 5l-6 -30q-62 1 -68 -52q-3 -22 6 -82.5t20.5 -116t27.5 -128t19 -86.5l178 310q-11 81 -18 96q-10 24 -15.5 33.5t-20.5 18.5t-41 9l6 30q82 -7 142 -7l194 6l-5 -29q-93 0 -97 -52q-2 -29 12.5 -133.5t30 -197t15.5 -88.5q1 0 56.5 97t112 201.5 t59.5 120.5q5 29 -12 39.5t-69 11.5l6 29q105 -5 153 -5zM844 731h-54l-76 97l-138 -97h-52l153 167h88z" />
<glyph unicode="&#x175;" horiz-adv-x="826" d="M834 423q-4 -19 -21 -47t-33.5 -49t-51 -63t-49.5 -62q-84 -109 -133 -201q-32 4 -66.5 3.5t-43.5 -3.5q-34 287 -35 287q0 1 -35 -58.5t-76.5 -131.5t-55.5 -98q-9 4 -45.5 3.5t-44.5 -3.5q-45 354 -67 408q-7 17 -19.5 25.5t-20 9t-25.5 0.5l6 26q17 -3 102.5 -3.5 t126.5 7.5q0 -229 13 -351l171 348q103 -1 103 0q24 -216 38 -356q10 14 25 38t48.5 93t50.5 132q4 15 4.5 29.5t-2 24t-5.5 16.5t-5 11l-3 3l5 3q5 2 13.5 5.5t19 7.5t23 7t23.5 4q3 2 15.5 0t26 -6t21.5 -19.5t2 -39.5zM628 543h-54l-76 97l-138 -97h-52l153 167h88z" />
<glyph unicode="&#x176;" horiz-adv-x="722" d="M792 693l-7 -32q-55 -2 -91.5 -26.5t-103.5 -102.5q-17 -20 -53.5 -65.5t-65 -82.5t-28.5 -38q-63 -263 -50 -280q24 -38 86 -36l-7 -33q-8 4 -71.5 8t-84.5 4q-170 0 -192 -8l7 30q61 2 100 37q9 8 21.5 49.5t22 84t19 87.5t10.5 48q-72 183 -119 288q-8 17 -20 25.5 t-20 10t-25 1t-20 -0.5l6 32q24 -9 160 -9q20 0 87 2.5t75 5.5l-6 -31q-3 0 -14 0.5t-17 0t-15 -2t-15.5 -6.5t-10.5 -13q-7 -10 14 -72t45 -119l24 -57l37 50q38 51 79 108.5t48 72.5q8 18 -7 29t-43 9l7 30q88 -4 115 -4q51 0 123 6zM637 733h-54l-76 97l-138 -97h-52 l153 167h88z" />
<glyph unicode="&#x177;" horiz-adv-x="561" d="M570 417q-3 -14 -8.5 -28.5t-16.5 -32t-20 -31.5t-26.5 -35.5t-28 -34t-32.5 -38t-32 -37.5q-32 -38 -108.5 -133.5t-91.5 -113.5q-66 -79 -116 -119.5t-95 -37.5q-73 5 -80 48q-5 28 3.5 50.5t23.5 35.5t31 22t27 12l12 3v-11q1 -11 4.5 -26t10.5 -24q15 -19 43.5 -17 t45.5 21q62 69 62 74q-51 387 -68 444q-2 8 -6 14t-8 10t-10 7t-10 4.5t-12 2t-11 0.5h-11.5h-9.5l9 37q15 -4 96.5 -8t120.5 4q0 -31 6.5 -96t16.5 -154.5t14 -137.5q103 150 137 297q4 15 2.5 26.5t-4.5 20.5t-7.5 15t-6.5 9l-3 3l3 3q2 3 7 7t12 8.5t18.5 7.5t24.5 4 q48 3 74 -13.5t18 -61.5zM497 547h-54l-76 97l-138 -97h-52l153 166h88z" />
<glyph unicode="&#x178;" horiz-adv-x="722" d="M792 693l-7 -32q-55 -2 -91.5 -26.5t-103.5 -102.5q-17 -20 -53.5 -65.5t-65 -82.5t-28.5 -38q-63 -263 -50 -280q24 -38 86 -36l-7 -33q-8 4 -71.5 8t-84.5 4q-170 0 -192 -8l7 30q61 2 100 37q9 8 21.5 49.5t22 84t19 87.5t10.5 48q-72 183 -119 288q-8 17 -20 25.5 t-20 10t-25 1t-20 -0.5l6 32q24 -9 160 -9q20 0 87 2.5t75 5.5l-6 -31q-3 0 -14 0.5t-17 0t-15 -2t-15.5 -6.5t-10.5 -13q-7 -10 14 -72t45 -119l24 -57l37 50q38 51 79 108.5t48 72.5q8 18 -7 29t-43 9l7 30q88 -4 115 -4q51 0 123 6zM678 801q-1 -27 -26.5 -49.5 t-52.5 -22.5q-22 0 -37 14.5t-14 36.5q1 27 26 49t53 22q21 0 36.5 -14.5t14.5 -35.5zM420 801q-1 -26 -27 -49t-52 -23q-22 0 -37.5 14.5t-14.5 36.5q1 28 26.5 49.5t53.5 21.5q21 0 36.5 -14.5t14.5 -35.5z" />
<glyph unicode="&#x179;" horiz-adv-x="732" d="M763 693q-192 -218 -303 -351q-48 -57 -107.5 -130.5t-94.5 -119.5l-36 -45q98 -2 181.5 4.5t112.5 14.5q68 21 112 124l35 -1q-11 -37 -24 -73.5t-20.5 -60.5t-14.5 -55v0v0v0v0v0h-1v0v0v0h-1v0v0h-1v0v0h-1v0h-1v0h-1v0h-1v0h-1v0h-1v0h-1h-1v0h-1h-1h-1h-1h-1h-1h-1 h-1h-1h-1h-1h-1h-1h-1h-1h-1h-1h-1h-1h-1h-1h-1h-1h-1h-1h-1h-1h-1h-1h-1h-1h-1h-1h-1h-1h-1h-1h-1h-1h-1h-1h-1h-1h-1h-1h-1h-1h-1h-1h-1h-1h-1h-1h-1h-1h-1h-1h-1h-1h-1h-1h-1h-1h-1h-1h-1h-1h-1h-1h-1h-1h-1h-1h-1h-1h-1h-1h-1h-1h-1h-1h-1h-1h-1h-1h-1h-1h-1h-1h-1h-1 h-1h-1h-1h-1h-1h-1h-1h-1h-1h-1h-1h-1h-1h-2h-1h-1h-1h-1h-1h-1h-1h-1h-1h-2h-1h-1h-1h-1h-1h-1h-1h-2h-1h-1h-1h-1h-1h-2h-1h-1h-1h-1h-1h-2h-1h-1h-1h-1h-2h-1h-1h-1h-1h-2h-1h-1h-1h-2h-1h-1h-1h-2h-1h-1h-1h-2h-1h-1h-1h-2h-1h-1h-1h-2h-1h-1h-2h-1h-1h-2h-1h-1h-1h-2 h-1h-1h-2h-1h-1h-2h-1h-1h-2h-1h-1h-2h-1h-1h-2h-1h-1h-2h-1h-2h-1h-1h-2h-1h-1h-2h-1h-2h-1h-1h-2h-1h-2h-1h-1h-2h-1h-2h-1h-1h-2h-1h-2h-1h-2h-1h-2h-1h-1h-2h-1h-2h-1h-2h-1h-2h-1h-2h-1h-1h-2h-1h-2h-1h-2h-1h-2h-1h-2h-1h-2h-1h-2h-1h-2h-1h-2h-1h-2h-2h-1h-2h-1h-2 h-1h-2h-1h-2h-1h-2h-1h-2h-2h-1h-2h-1h-2h-1h-2h-2h-1h-2h-1h-2h-1h-2h-2h-1h-2h-1h-2h-2h-1h-2h-1h-2h-2h-1h-2h-1h-2h-2h-1h-2h-2h-1h-2h-2h-1h-2h-1h-2h-2h-1h-2h-2h-1h-2h-2h-1h-2h-2h-1h-2h-2h-1h-2h-2h-2h-1h-2h-2h-1h-2h-2h-1h-2h-2h-2h-1h-2h-2h-1h-2h-2h-2h-1h-2 h-2h-1h-2h-2h-2h-1h-2h-2h-2h-1h-2h-2h-2h-2h-1h-2h-2h-2h-1h-2h-2h-2h-2h-1h-2h-2h-2h-2h-1h-2h-2h-2h-2h-1h-2h-2h-2h-2h-1h-2h-2h-2h-2h-2h-1h-2h-2h-2h-2h-2h-2h-1h-2h-2h-2h-2h-2h-2h-2h-1h-2h-2h-2h-2h-2h-2h-2h-2h-1h-2h-2h-2h-10q93 99 295 344l247 301 q-219 1 -261 -10q-19 -6 -32.5 -12.5t-39.5 -32.5t-50 -68h-31l48 171h582zM592 878q0 -6 -1.5 -11.5t-3 -9t-6 -9t-6.5 -7.5l-8 -8l-7 -7l-95 -96h-44l72 147q19 38 49 38q18 0 34 -9.5t16 -27.5z" />
<glyph unicode="&#x17a;" horiz-adv-x="527" d="M516 469l-5 -27l-341 -410q111 -3 150 11q40 13 70 48.5t47 70.5h28l-51 -162h-410l6 26l345 410q-39 0 -57 -1t-46.5 -4t-43 -10t-33.5 -19t-32.5 -31.5t-25.5 -46.5h-26l39 145h386zM471 691q0 -7 -1.5 -13t-6 -12t-7.5 -9l-9.5 -9.5t-8.5 -9.5l-95 -96h-44l72 148 q19 38 49 38q19 0 35 -9.5t16 -27.5z" />
<glyph unicode="&#x17b;" horiz-adv-x="731" d="M763 693q-192 -218 -303 -351q-48 -57 -107.5 -130.5t-94.5 -119.5l-36 -45q98 -2 181.5 4.5t112.5 14.5q68 21 112 124l35 -1q-11 -37 -24 -73.5t-20.5 -60.5t-14.5 -55v0v0v0v0v0h-1v0v0v0h-1v0v0h-1v0v0h-1v0h-1v0h-1v0h-1v0h-1v0h-1v0h-1h-1v0h-1h-1h-1h-1h-1h-1h-1 h-1h-1h-1h-1h-1h-1h-1h-1h-1h-1h-1h-1h-1h-1h-1h-1h-1h-1h-1h-1h-1h-1h-1h-1h-1h-1h-1h-1h-1h-1h-1h-1h-1h-1h-1h-1h-1h-1h-1h-1h-1h-1h-1h-1h-1h-1h-1h-1h-1h-1h-1h-1h-1h-1h-1h-1h-1h-1h-1h-1h-1h-1h-1h-1h-1h-1h-1h-1h-1h-1h-1h-1h-1h-1h-1h-1h-1h-1h-1h-1h-1h-1h-1h-1 h-1h-1h-1h-1h-1h-1h-1h-1h-1h-1h-1h-1h-1h-2h-1h-1h-1h-1h-1h-1h-1h-1h-1h-2h-1h-1h-1h-1h-1h-1h-1h-2h-1h-1h-1h-1h-1h-2h-1h-1h-1h-1h-1h-2h-1h-1h-1h-1h-2h-1h-1h-1h-1h-2h-1h-1h-1h-2h-1h-1h-1h-2h-1h-1h-1h-2h-1h-1h-1h-2h-1h-1h-1h-2h-1h-1h-2h-1h-1h-2h-1h-1h-1h-2 h-1h-1h-2h-1h-1h-2h-1h-1h-2h-1h-1h-2h-1h-1h-2h-1h-1h-2h-1h-2h-1h-1h-2h-1h-1h-2h-1h-2h-1h-1h-2h-1h-2h-1h-1h-2h-1h-2h-1h-1h-2h-1h-2h-1h-2h-1h-2h-1h-1h-2h-1h-2h-1h-2h-1h-2h-1h-2h-1h-1h-2h-1h-2h-1h-2h-1h-2h-1h-2h-1h-2h-1h-2h-1h-2h-1h-2h-1h-2h-2h-1h-2h-1h-2 h-1h-2h-1h-2h-1h-2h-1h-2h-2h-1h-2h-1h-2h-1h-2h-2h-1h-2h-1h-2h-1h-2h-2h-1h-2h-1h-2h-2h-1h-2h-1h-2h-2h-1h-2h-1h-2h-2h-1h-2h-2h-1h-2h-2h-1h-2h-1h-2h-2h-1h-2h-2h-1h-2h-2h-1h-2h-2h-1h-2h-2h-1h-2h-2h-2h-1h-2h-2h-1h-2h-2h-1h-2h-2h-2h-1h-2h-2h-1h-2h-2h-2h-1h-2 h-2h-1h-2h-2h-2h-1h-2h-2h-2h-1h-2h-2h-2h-2h-1h-2h-2h-2h-1h-2h-2h-2h-2h-1h-2h-2h-2h-2h-1h-2h-2h-2h-2h-1h-2h-2h-2h-2h-1h-2h-2h-2h-2h-2h-1h-2h-2h-2h-2h-2h-2h-1h-2h-2h-2h-2h-2h-2h-2h-1h-2h-2h-2h-2h-2h-2h-2h-2h-1h-2h-2h-2h-10q93 99 295 344l247 301 q-219 1 -261 -10q-19 -6 -32.5 -12.5t-39.5 -32.5t-50 -68h-31l48 171h582zM570 807q-1 -27 -26.5 -49.5t-52.5 -22.5q-22 0 -37.5 14.5t-14.5 36.5q1 28 26 50t53 22q21 0 37 -15t15 -36z" />
<glyph unicode="&#x17c;" horiz-adv-x="527" d="M516 469l-6 -27l-341 -410q111 -3 149 11q40 13 71.5 49.5t46.5 69.5h28l-51 -162h-409l5 26l344 410q-39 0 -56.5 -1t-46 -4t-43 -10t-33.5 -19t-32.5 -31.5t-25.5 -46.5h-26l38 145h388zM408 614q-1 -27 -26 -50t-52 -23q-22 0 -38 15t-15 37q1 27 26 49t53 22 q22 0 37.5 -14.5t14.5 -35.5z" />
<glyph unicode="&#x17d;" horiz-adv-x="731" d="M763 693q-192 -218 -303 -351q-48 -57 -107.5 -130.5t-94.5 -119.5l-36 -45q98 -2 181.5 4.5t112.5 14.5q68 21 112 124l35 -1q-11 -37 -24 -73.5t-20.5 -60.5t-14.5 -55v0v0v0v0v0h-1v0v0v0h-1v0v0h-1v0v0h-1v0h-1v0h-1v0h-1v0h-1v0h-1v0h-1h-1v0h-1h-1h-1h-1h-1h-1h-1 h-1h-1h-1h-1h-1h-1h-1h-1h-1h-1h-1h-1h-1h-1h-1h-1h-1h-1h-1h-1h-1h-1h-1h-1h-1h-1h-1h-1h-1h-1h-1h-1h-1h-1h-1h-1h-1h-1h-1h-1h-1h-1h-1h-1h-1h-1h-1h-1h-1h-1h-1h-1h-1h-1h-1h-1h-1h-1h-1h-1h-1h-1h-1h-1h-1h-1h-1h-1h-1h-1h-1h-1h-1h-1h-1h-1h-1h-1h-1h-1h-1h-1h-1h-1 h-1h-1h-1h-1h-1h-1h-1h-1h-1h-1h-1h-1h-1h-2h-1h-1h-1h-1h-1h-1h-1h-1h-1h-2h-1h-1h-1h-1h-1h-1h-1h-2h-1h-1h-1h-1h-1h-2h-1h-1h-1h-1h-1h-2h-1h-1h-1h-1h-2h-1h-1h-1h-1h-2h-1h-1h-1h-2h-1h-1h-1h-2h-1h-1h-1h-2h-1h-1h-1h-2h-1h-1h-1h-2h-1h-1h-2h-1h-1h-2h-1h-1h-1h-2 h-1h-1h-2h-1h-1h-2h-1h-1h-2h-1h-1h-2h-1h-1h-2h-1h-1h-2h-1h-2h-1h-1h-2h-1h-1h-2h-1h-2h-1h-1h-2h-1h-2h-1h-1h-2h-1h-2h-1h-1h-2h-1h-2h-1h-2h-1h-2h-1h-1h-2h-1h-2h-1h-2h-1h-2h-1h-2h-1h-1h-2h-1h-2h-1h-2h-1h-2h-1h-2h-1h-2h-1h-2h-1h-2h-1h-2h-1h-2h-2h-1h-2h-1h-2 h-1h-2h-1h-2h-1h-2h-1h-2h-2h-1h-2h-1h-2h-1h-2h-2h-1h-2h-1h-2h-1h-2h-2h-1h-2h-1h-2h-2h-1h-2h-1h-2h-2h-1h-2h-1h-2h-2h-1h-2h-2h-1h-2h-2h-1h-2h-1h-2h-2h-1h-2h-2h-1h-2h-2h-1h-2h-2h-1h-2h-2h-1h-2h-2h-2h-1h-2h-2h-1h-2h-2h-1h-2h-2h-2h-1h-2h-2h-1h-2h-2h-2h-1h-2 h-2h-1h-2h-2h-2h-1h-2h-2h-2h-1h-2h-2h-2h-2h-1h-2h-2h-2h-1h-2h-2h-2h-2h-1h-2h-2h-2h-2h-1h-2h-2h-2h-2h-1h-2h-2h-2h-2h-1h-2h-2h-2h-2h-2h-1h-2h-2h-2h-2h-2h-2h-1h-2h-2h-2h-2h-2h-2h-2h-1h-2h-2h-2h-2h-2h-2h-2h-2h-1h-2h-2h-2h-10q93 99 295 344l247 301 q-219 1 -261 -10q-19 -6 -32.5 -12.5t-39.5 -32.5t-50 -68h-31l48 171h582zM691 900l-150 -167h-89l-81 167h16h19l9 -1l96 -96l123 97h57z" />
<glyph unicode="&#x17e;" horiz-adv-x="550" d="M516 469l-6 -27l-341 -410q111 -3 149 11q40 13 72 50t45 69h29l-51 -162h-409l5 26l345 410q-39 0 -56.5 -1t-46.5 -4t-43.5 -10t-33.5 -19t-32.5 -31.5t-25.5 -46.5h-26l38 145h388zM539 711l-150 -167h-89l-81 167q5 0 16 -0.5t19 -0.5h9l96 -96l123 97h57z" />
<glyph unicode="&#x17f;" horiz-adv-x="432" d="M522 692q22 -14 25 -46.5t-25 -50.5q-31 -17 -104 -4q4 11 6.5 25t1.5 28.5t-9.5 21.5t-24.5 2q-34 -12 -52 -91l-34 -170l-20 -95q-21 -94 -42 -189.5t-21 -96.5q-1 -4 -3 -14q-7 -35 -13 -56.5t-24 -61t-41.5 -63.5t-66.5 -43t-98 -19q-68 0 -93 14q-22 13 -24.5 45.5 t24.5 51.5q34 18 104 4q-4 -11 -6.5 -25t-1.5 -28.5t10 -21.5t25 -2q37 13 55 92l104 508h-90l9 41h91q19 89 38 130q63 128 208 128q68 0 92 -14z" />
<glyph unicode="&#x192;" horiz-adv-x="642" d="M614 692q22 -14 25 -46.5t-25 -50.5q-31 -17 -104 -4q4 11 6.5 25t1.5 28.5t-9.5 21.5t-24.5 2q-34 -12 -52 -91l-26 -129h136l-10 -41h-134l-20 -95q-21 -94 -41.5 -189.5t-21.5 -96.5q-19 -92 -40 -134q-61 -123 -206 -123q-68 0 -93 14q-22 13 -24.5 45.5t24.5 51.5 q34 18 104 4q-4 -11 -6.5 -25t-1.5 -28.5t10 -21.5t25 -2q37 13 55 92l104 508h-90l9 41h91q19 89 38 130q63 128 208 128q68 0 92 -14z" />
<glyph unicode="&#x1a0;" horiz-adv-x="850" d="M797 332q-37 -152 -158.5 -248.5t-272.5 -96.5q-161 0 -242 92.5t-46 252.5q26 121 93 207t156 126.5t193 40.5q98 0 171 -38t103 -116q64 23 73 46q5 12 -9 24.5t-24 14.5q-17 5 -24 19.5t6 36.5q15 22 63 14q32 -5 52 -29.5t9 -65.5q-17 -65 -135 -92l-3 2 q21 -78 -5 -190zM631 344q13 59 14.5 113t-10 101t-43.5 75.5t-82 29.5t-91 -19.5t-67.5 -51t-48 -77.5t-33.5 -87t-22 -91q-16 -84 -9.5 -152.5t42.5 -111t95 -41.5q83 1 154.5 92.5t100.5 219.5z" />
<glyph unicode="&#x1a1;" horiz-adv-x="650" d="M566 234q-25 -117 -110.5 -185.5t-205.5 -67.5q-112 1 -169 69.5t-30 195.5q24 108 108.5 176.5t203.5 69.5q121 2 178 -75q63 23 72 46q5 12 -8.5 24.5t-24.5 15.5q-17 4 -24 18.5t6 36.5q16 23 63 14q31 -5 51.5 -29.5t9.5 -65.5q-16 -61 -128 -90q28 -66 8 -153z M410 206q12 53 16 97.5t0 81.5t-21.5 57.5t-47.5 20.5q-48 0 -93 -61t-68 -177q-20 -88 -3 -151t72 -62q37 1 79 46t66 148z" />
<glyph unicode="&#x1af;" horiz-adv-x="888" d="M696 685q97 0 117 4q57 10 74 48q2 5 2 10t-1 8.5t-4 7t-5.5 6t-7.5 5.5t-8.5 4.5t-9.5 4t-9 4.5q-21 10 -11 34q12 28 48 28q7 0 15 -2q39 -8 55.5 -36.5t9.5 -60.5q-6 -28 -31 -48.5t-49 -29t-49 -11.5q-2 0 -14.5 -1.5t-20 -2.5t-21 -3.5t-22 -5.5t-18 -7.5 t-14.5 -10.5q-16 -17 -28 -79q-1 -2 -1.5 -3.5t-1 -4t-0.5 -4.5l-58 -274q-5 -23 -7 -32.5t-9.5 -36t-15 -41.5t-22 -40.5t-31.5 -40.5t-42.5 -34t-55.5 -29t-70.5 -17.5t-87.5 -7.5q-248 0 -188 258q1 4 1 6q14 50 46 208t22 175q-17 29 -85 32l6 28q15 -7 192 -7 q138 0 156 7l-6 -28q-70 -3 -98 -32q-16 -17 -52 -169.5t-49 -220.5q-1 -4 -2 -12q-4 -21 -5.5 -33.5t-3.5 -36t0.5 -38.5t9 -33.5t18.5 -29.5t33 -18.5t49 -7.5q120 1 184 80q34 41 55 142l60 283q15 73 3 97q-5 9 -12 15t-18 8.5t-17 3.5t-19.5 1h-15.5l6 29q15 -8 134 -8 z" />
<glyph unicode="&#x1b0;" horiz-adv-x="652" d="M606 139q-24 -46 -49.5 -78t-46.5 -46.5t-41.5 -23t-34.5 -7t-26 0.5h-7q-43 0 -59 37q-15 30 -1 94q-39 -50 -104 -87.5t-115 -41.5q-25 -3 -41.5 1.5t-25 18t-10.5 32.5t3 52.5t14 70.5t24 93q8 29 21 91.5t11 77.5q-5 20 -46 18l6 27q16 -3 83.5 -3t96.5 8 q-40 -147 -66 -272q-16 -73 -16 -98.5t18 -32.5q24 -9 63.5 17t66.5 56l28 31q16 64 33.5 159t26.5 137q27 -3 57 -2.5t54 2t24 0.5q54 23 61 42q4 12 -9 24.5t-24 15.5q-17 5 -24 19t6 36q16 23 63 14q31 -4 51.5 -29t9.5 -66q-18 -65 -143 -94q-9 -31 -29.5 -113 t-27.5 -106q-22 -91 -19.5 -120t29.5 -30q19 -1 49.5 32t38.5 55z" />
<glyph unicode="&#x1f4;" horiz-adv-x="809" d="M789 372l-5 -29q-45 -2 -76 -34q-9 -9 -20 -48.5t-19 -79.5t-15.5 -81.5t-8.5 -44.5q-2 0 -31 -12t-61.5 -24t-80 -22.5t-87.5 -10.5q-85 0 -157.5 27t-112.5 84q-35 50 -43 101t11 158q29 140 151 245.5t281 105.5q62 0 117 -17.5t63 -17.5q12 0 30 8t26 27h23 q-16 -57 -26 -110l-12 -111l-28 -1q-6 36 -14.5 61t-28 55.5t-56 47t-88.5 16.5q-214 0 -272 -328q-26 -146 11.5 -228t143.5 -81q24 0 60.5 22t49.5 38q45 200 35 222q-13 29 -76 32l8 31q7 -3 71 -5.5t82 -2.5q132 0 155 7zM669 879q0 -6 -1.5 -11.5t-3 -9t-6 -9 t-6.5 -7.5l-8.5 -8.5l-7.5 -7.5l-95 -95h-43l72 147q17 38 48 38q19 0 35 -9.5t16 -27.5z" />
<glyph unicode="&#x1f5;" horiz-adv-x="509" d="M576 486q-9 -81 -34 -89q-35 -11 -91 9l5 -6q5 -7 8 -11t7 -13.5t5.5 -18.5t1.5 -23.5t-4 -30.5q-12 -49 -45.5 -86t-87.5 -54q-30 -8 -45 -9.5t-88 -1.5q-18 0 -45.5 -15.5t-32.5 -35.5q-4 -22 13 -27t67 -5h23l65 -1q19 0 37.5 -3t42 -11.5t36 -22.5t19.5 -37t-8 -55 q-32 -83 -114 -124.5t-185 -41.5q-102 0 -148.5 22.5t-33.5 80.5q6 32 47.5 55.5t82.5 29.5q-38 14 -54 31.5t-8 53.5q9 43 54 73t90 42l1 2q-58 23 -81 56.5t-10 99.5q15 72 78 117t164 45q57 0 106 -21q32 -15 87.5 -5.5t74.5 31.5zM338 316q4 20 6.5 32t3.5 34t-3 34.5 t-15.5 22.5t-30.5 10q-22 0 -38.5 -11t-27 -32.5t-17 -41t-12.5 -48.5q-7 -31 -9 -51t0 -40.5t14 -30t34 -9.5q23 0 40 11.5t27.5 33.5t16 40t11.5 46zM349 -105q11 26 -9 39t-62 13h-175q-43 -28 -49 -57q-2 -10 1 -19t8 -14.5t14.5 -10t17 -6.5t19 -3.5t17.5 -2t15 -0.5 l10 -1q54 -1 115.5 13t77.5 49zM461 688q0 -7 -1.5 -13t-6 -12.5t-6.5 -9t-10 -10t-9 -8.5l-95 -95h-43l72 147q18 38 47 38q20 0 36 -10t16 -27z" />
<glyph unicode="&#x1fa;" horiz-adv-x="785" d="M745 28l-7 -28q-118 6 -178 6l-166 -6l7 28q81 0 90 48q3 16 -1.5 49.5t-10.5 58.5l-6 26l-242 1q-67 -104 -76 -147q-4 -18 16.5 -27t51.5 -9l-7 -28q-62 4 -110 4l-144 -4l6 28q8 0 21 0.5t41 10.5t42 29q45 62 144 221.5t176 288.5l76 129h71q0 -2 26.5 -146 t56.5 -301t38 -181q15 -49 85 -51zM466 259l-56 266l-154 -266h210zM622 828q-7 -43 -39 -69t-78 -26q-37 0 -60.5 31.5t-16.5 63.5q10 41 42 68t76 27q34 0 58.5 -29.5t17.5 -65.5zM574 828q4 20 -7 34t-31 14t-36.5 -14t-20.5 -34q-5 -20 6 -33.5t31 -13.5t37 14t21 33z M695 1086q0 -5 -1 -9t-2 -7.5t-3.5 -7.5t-4 -6t-5.5 -6t-5 -5.5t-6 -6t-6 -5.5l-94 -95h-44l72 147q20 38 48 38q19 0 35 -10t16 -27z" />
<glyph unicode="&#x1fb;" horiz-adv-x="566" d="M550 107q-65 -123 -153 -123q-12 0 -24.5 2.5t-29.5 10t-25.5 25.5t-4.5 45q-46 -39 -77 -58t-61 -24q-23 -6 -51.5 -1.5t-53 13.5t-37.5 34.5t-5 62.5q17 78 94.5 126.5t240.5 84.5l14 61q6 28 -11 52t-36 25q-73 4 -87 -51q-4 -11 -3 -19.5t2.5 -10.5t5.5 -5.5t6 -5.5 q-27 -37 -87 -42q-18 -2 -35.5 6.5t-25.5 28.5t13 54q29 48 82 64.5t133 17.5q104 3 139 -36q20 -20 24.5 -53t-0.5 -55l-5 -23l-24 -120q-2 -10 -5.5 -23t-5.5 -22t-4.5 -19.5t-3.5 -17t-1.5 -14t1 -12.5t4 -8.5t7 -5.5t10.5 -2q12 0 24 12.5t18 24.5l6 12zM358 277 q-80 -25 -122 -66.5t-52 -77.5l-1 -2q-11 -38 5.5 -54t44.5 -14q48 4 88 44q6 26 17.5 81t19.5 89zM459 638q-7 -43 -39 -69t-78 -26q-37 0 -60.5 31.5t-16.5 63.5q10 41 42 68t76 27q34 0 58.5 -29.5t17.5 -65.5zM411 638q4 20 -7 34t-31 14t-36.5 -14t-20.5 -34 q-5 -20 6 -33.5t31 -13.5t37 14t21 33zM534 903q0 -5 -1 -9.5t-3 -9t-3.5 -7.5t-6 -8t-5.5 -6l-6.5 -6.5l-6.5 -6.5l-95 -95h-44l72 147q20 38 48 38q20 0 35.5 -9.5t15.5 -27.5z" />
<glyph unicode="&#x1fc;" horiz-adv-x="1085" d="M1104 692q-5 -23 -8 -40t-4.5 -29t-4 -39.5t-5.5 -56.5h-35q-6 37 -16 59.5t-15.5 28.5t-22 13t-17.5 8l-18 3q-18 3 -34 4.5t-63 3t-114 1.5q-25 -123 -54 -258h17q18 -1 44 -0.5t52.5 2t47.5 4.5t26 7q47 43 65 93h33q1 0 -2.5 -16t-12.5 -50t-15 -57q-7 -28 -13 -63 t-9 -55t-4 -21l-36 -1q0 4 1.5 16t1 19.5t-2 18.5t-8 21t-17.5 19q-8 7 -52.5 10.5t-85.5 2.5h-41l-63 -294q54 0 97.5 2t71.5 5t45 6t32 6.5t19 4.5q3 2 15.5 7.5t18.5 8.5t18.5 12.5t21 20.5t20 29.5t21.5 41.5h35q-11 -34 -24.5 -73.5t-20.5 -62.5t-13 -54h-309h-309 l6 31q65 2 102 36q15 15 47 145l-244 -1q-88 -104 -106 -147q-7 -17 11.5 -26t49.5 -10l-7 -27q-63 5 -110 5l-145 -5l6 27q8 0 21.5 0.5t43.5 10.5t48 29q113 120 486 583q-14 7 -69 10l7 31h149h300h150zM588 616l-282 -357h218q3 16 7 35t6 30t3 14q0 1 6.5 30t12.5 60 t13 68.5t11.5 70t4.5 49.5zM833 881q0 -6 -1.5 -11.5t-3 -9t-6 -9t-6.5 -7.5l-8.5 -8.5l-7.5 -7.5l-95 -96h-43l72 148q17 38 48 38q19 0 35 -10t16 -27z" />
<glyph unicode="&#x1fd;" horiz-adv-x="832" d="M807 280h-322q-13 -56 -7.5 -95t16.5 -63t32 -37.5t39.5 -18.5t39.5 -5q80 0 165 104l24 -21q-50 -62 -87 -93.5t-89 -48.5t-128 -16q-113 0 -143 109q-91 -97 -171 -110q-19 -1 -41 -2t-43.5 6.5t-38.5 18.5t-24 33.5t-1 52.5q17 78 95 126.5t241 84.5l13 61 q6 28 -11 52t-36 25q-71 4 -87 -51q-2 -19 -2.5 -23.5t6 -10.5t7.5 -7q-27 -37 -87 -42q-18 -2 -35 6.5t-25 28.5t12 54q29 49 82.5 66t131.5 18q102 3 143 -45q78 54 176 52q84 -1 130 -50t25 -159zM689 323q10 53 -1 91.5t-47 38.5q-93 0 -144 -130h192zM358 277 q-80 -25 -121 -66t-53 -78l-1 -2q-11 -38 5.5 -54t44.5 -14q48 4 89 44q7 34 36 170zM651 692q0 -7 -1.5 -13t-6 -12t-7.5 -9l-9.5 -9.5t-8.5 -9.5l-95 -96h-43l72 148q17 38 48 38q19 0 35 -9.5t16 -27.5z" />
<glyph unicode="&#x1fe;" horiz-adv-x="824" d="M797 332q-36 -152 -157.5 -248.5t-272.5 -96.5h-23l-26 -78h-51l27 83q-127 21 -186.5 110.5t-29.5 229.5q26 121 93 207t156.5 127t193.5 40h6l13 44h51l-14 -47q131 -16 195.5 -108.5t24.5 -262.5zM631 344q15 69 16 129.5t-20 111.5t-65 69l-204 -622h18 q83 1 155 92.5t100 219.5zM513 663h-3q-42 1 -77 -12t-61 -38.5t-46 -55.5t-35 -70t-24.5 -74t-18.5 -76q-21 -98 -4 -178.5t69 -111.5zM610 880q0 -7 -1.5 -13t-6 -12t-6.5 -9t-9 -10l-9 -9l-95 -96h-44l72 148q19 38 49 38q19 0 34.5 -9.5t15.5 -27.5z" />
<glyph unicode="&#x1ff;" horiz-adv-x="606" d="M566 234q-25 -117 -110.5 -185.5t-205.5 -67.5q-13 0 -20 1l-24 -73h-35l26 77q-87 17 -128.5 83.5t-17.5 176.5q23 108 108 176t203 70l20 62h35l-21 -63q98 -9 146.5 -76t23.5 -181zM410 206q48 216 -25 250l-144 -440q9 -4 24 -4q37 1 79 46t66 148zM352 462 q-47 -3 -90 -64t-66 -173q-28 -137 17 -190zM453 689q0 -7 -1.5 -13t-6 -12t-6.5 -9t-9 -10l-9 -9l-95 -95h-44l73 147q17 38 48 38q19 0 34.5 -9.5t15.5 -27.5z" />
<glyph unicode="&#x218;" horiz-adv-x="649" d="M643 713q-13 -64 -18 -105l-7 -124h-29q-12 98 -66.5 142t-134.5 44q-40 0 -75.5 -32t-42.5 -71q-5 -27 3 -48t28 -36t40.5 -26t49.5 -24t44 -22q78 -47 108 -79q65 -68 46 -160q-11 -52 -47.5 -91t-86.5 -59.5t-103.5 -30t-106.5 -6.5q-44 3 -95 19.5t-63 16.5 q-28 0 -34 -34h-28q11 63 14 104l2 117h29q37 -182 169 -185q62 -1 121.5 37t68.5 82q11 47 -25.5 85t-145.5 97q-77 41 -107 87t-12 118q19 77 91 126.5t166 49.5q42 0 105.5 -16.5t76.5 -16.5q33 0 36 41h29zM373 -132q-13 -62 -47.5 -94t-102.5 -34l1 19q82 12 93 60 q4 13 -15 15q-61 1 -49 57q3 23 24 39q23 15 45 15q28 0 43 -21q16 -27 8 -56z" />
<glyph unicode="&#x219;" horiz-adv-x="511" d="M487 479l-32 -147h-28q-9 114 -95 114q-28 0 -53.5 -17t-30.5 -40q-6 -28 15 -48.5t53.5 -35.5t64 -33t48 -51t4.5 -79q-20 -81 -79.5 -118.5t-138.5 -37.5q-22 0 -50.5 7t-49.5 14.5t-23 7.5q-20 2 -33 -28h-26l37 168h27q4 -125 117 -129q71 -3 84 61q5 22 -9 40 t-38.5 30t-52.5 28.5t-51 34t-35 46.5t-4 66q14 64 85.5 106.5t145.5 42.5q28 0 57 -11t35 -11q20 0 31 20h25zM259 -160q-14 -62 -48.5 -94t-102.5 -34v19q84 13 95 60q2 7 -2.5 11t-13.5 4q-62 3 -49 58q5 25 25 38q18 15 44 15q29 0 43 -21q16 -25 9 -56z" />
<glyph unicode="&#x2c6;" horiz-adv-x="344" d="M332 542h-54l-76 97l-137 -97h-53l153 167h89z" />
<glyph unicode="&#x2c7;" horiz-adv-x="344" d="M332 710l-150 -167h-89l-81 167h16h20l8 -1l96 -96l123 97h57z" />
<glyph unicode="&#x2d8;" horiz-adv-x="258" d="M15 654l32 -1q4 -39 20 -53t48 -14q27 0 53 17.5t42 50.5h36q-6 -49 -48.5 -82.5t-92.5 -32.5q-46 1 -73 34.5t-17 80.5z" />
<glyph unicode="&#x2d9;" horiz-adv-x="157" d="M144 615q-1 -27 -26.5 -50t-52.5 -23q-22 0 -37.5 14.5t-14.5 36.5q1 28 26 50t53 22q21 0 37 -14.5t15 -35.5z" />
<glyph unicode="&#x2da;" horiz-adv-x="222" d="M208 638q-8 -44 -39.5 -69.5t-77.5 -25.5q-37 0 -60.5 31.5t-16.5 63.5q9 40 41 67.5t76 27.5q35 0 59.5 -29.5t17.5 -65.5zM159 638q4 20 -7 34t-30 14q-20 0 -37 -14t-21 -34q-5 -20 6 -33.5t31 -13.5t37 14t21 33z" />
<glyph unicode="&#x2db;" horiz-adv-x="190" d="M77 -16q1 0 21 3l26 3q-51 -57 -51 -100q0 -24 14 -38.5t38 -14.5q27 0 44 14q9 -3 9 -15q-33 -46 -87 -46q-39 0 -59 22t-20 52q0 17 16 46.5t31.5 51t17.5 22.5z" />
<glyph unicode="&#x2dc;" horiz-adv-x="371" d="M359 661q-28 -120 -115 -120q-24 0 -76 23.5t-73 23.5q-32 0 -45 -46h-38q1 37 30 78t82 41q26 0 74 -22.5t71 -22.5q14 0 24 7t14 14t11 24h41z" />
<glyph unicode="&#x2dd;" horiz-adv-x="336" d="M309 657l-113 -114h-43l72 148q25 51 77 31q22 -8 22 -29t-15 -36zM169 657l-113 -114h-44l72 148q26 51 77 31q22 -8 22 -30.5t-14 -34.5z" />
<glyph unicode="&#x300;" horiz-adv-x="250" d="M238 540h-51l-157 96q-18 10 -18 38q0 17 12 29t30 12q21 0 33.5 -8t29.5 -27z" />
<glyph unicode="&#x301;" horiz-adv-x="195" d="M183 691q0 -7 -1.5 -13t-6 -12t-6.5 -9t-9 -10l-9 -9l-95 -96h-44l73 148q17 38 48 38q19 0 34.5 -9.5t15.5 -27.5z" />
<glyph unicode="&#x303;" horiz-adv-x="371" d="M359 661q-28 -120 -115 -120q-25 0 -77 24q-44 23 -72 23q-32 0 -45 -46h-38q1 37 30 78t82 41q29 0 75 -23q46 -22 70 -22q14 0 24 7t14 14t11 24h41z" />
<glyph unicode="&#x308;" horiz-adv-x="416" d="M403 617q-1 -27 -26.5 -50t-52.5 -23q-22 0 -37.5 15t-14.5 37q1 27 26.5 49t53.5 22q21 0 36.5 -14.5t14.5 -35.5zM145 617q-1 -27 -26.5 -50t-52.5 -23q-22 0 -38 15t-15 37q1 28 27 49.5t55 21.5q21 0 36 -14.5t14 -35.5z" />
<glyph unicode="&#x309;" horiz-adv-x="177" d="M165 647q0 -27 -43 -70q-22 -22 -22 -27q0 -1 1 -2q5 -10 4 -19q-4 -13 -18 -13q-13 0 -22 12.5t-9 24.5q0 20 29 53q21 23 21 33q0 18 -25 20q-10 -4 -22 -19q-13 -22 -33 -15t-11 38q4 17 21 31t35 18q37 9 65.5 -8.5t28.5 -56.5z" />
<glyph unicode="&#x312;" horiz-adv-x="159" d="M147 708q-75 -12 -84 -54q-3 -15 13 -15q55 -1 46 -50q-6 -21 -23 -35q-19 -13 -40 -13q-27 0 -39 19q-13 19 -5 49q24 112 131 115z" />
<glyph unicode="&#x313;" horiz-adv-x="185" d="M172 660q-3 -51 -53 -86.5t-103 -34.5h-4l13 29q26 4 51.5 19t26.5 38q0 16 -15 16q-6 0 -18.5 -4t-19.5 -4q-14 0 -23.5 8t-8.5 22q1 28 27.5 44t55.5 16q31 0 51.5 -16.5t19.5 -46.5z" />
<glyph unicode="&#x314;" horiz-adv-x="202" d="M189 679q-1 -20 -17.5 -35t-36.5 -15q-6 0 -20 5t-17 5q-11 0 -21.5 -11t-11.5 -23q-1 -14 14.5 -25t47.5 -19l-5 -30q-56 7 -83.5 30t-25.5 63q2 44 37 73q37 29 81 29q30 0 44.5 -12t13.5 -35z" />
<glyph unicode="&#x323;" horiz-adv-x="130" d="M118 -165q0 -22 -15.5 -37.5t-37.5 -15.5t-37.5 15.5t-15.5 37.5t15.5 37.5t37.5 15.5q23 0 38 -15t15 -38z" />
<glyph unicode="&#x326;" horiz-adv-x="142" d="M17 -250l-5 18q77 20 77 57q0 13 -17 15q-59 2 -59 53q0 23 15.5 36.5t39.5 13.5q29 0 45.5 -20t16.5 -51q0 -111 -113 -122z" />
<glyph unicode="&#x327;" horiz-adv-x="268" d="M253 -140q-11 -47 -64 -69q-39 -16 -93 -16q-42 0 -84 18l24 37q38 -9 63 -9q53 0 60 37q1 3 1 10q0 25 -35 25q-17 0 -34 -4l-8 8l64 96h41l-42 -64q27 6 44 6q66 0 66 -54q0 -11 -3 -21z" />
<glyph unicode="&#x328;" horiz-adv-x="218" d="M133 2h25q-68 -54 -68 -99q0 -12 8 -23q11 -14 40 -14q33 0 61 16l7 -19q-56 -51 -117 -51q-30 0 -51 12q-26 15 -26 43q0 33 33 71t88 64z" />
<glyph unicode="&#x342;" horiz-adv-x="388" d="M344 827h32q-5 -43 -35.5 -71.5t-72.5 -28.5q-30 0 -83 10q-51 10 -81 10q-52 0 -62 -34h-30q15 55 43.5 78t83.5 23q27 0 76 -9q53 -8 75 -8q44 0 54 30z" />
<glyph unicode="&#x343;" horiz-adv-x="185" d="M172 660q-3 -51 -53 -86.5t-103 -34.5h-4l13 29q26 4 51.5 19t26.5 38q0 16 -15 16q-6 0 -18.5 -4t-19.5 -4q-14 0 -23.5 8t-8.5 22q1 28 27.5 44t55.5 16q31 0 51.5 -16.5t19.5 -46.5z" />
<glyph unicode="&#x345;" horiz-adv-x="143" d="M124 -195l7 -10q-31 -37 -71 -37q-48 0 -48 50q0 19 8 53q9 39 13 52h72q-4 -17 -12 -49q-8 -34 -8 -50q0 -19 16 -19q10 0 23 10z" />
<glyph unicode="&#x374;" horiz-adv-x="191" d="M179 635q0 -21 -13 -34l-133 -136l-21 4l97 182q10 19 37 19q33 0 33 -35z" />
<glyph unicode="&#x375;" horiz-adv-x="191" d="M12 -185q0 21 13 34l133 136l21 -4l-97 -182q-10 -19 -37 -19q-33 0 -33 35z" />
<glyph unicode="&#x37a;" horiz-adv-x="143" d="M124 -195l7 -10q-31 -37 -71 -37q-48 0 -48 50q0 19 8 53q9 39 13 52h72q-4 -17 -12 -49q-8 -34 -8 -50q0 -19 16 -19q10 0 23 10z" />
<glyph unicode="&#x37e;" horiz-adv-x="273" d="M230 28q-11 -54 -54.5 -99t-100.5 -71l-35 15q26 15 38 23t34.5 25t34.5 34t16 36q3 9 0 17q-19 -8 -26 -8q-22 0 -36 14t-9 36q5 28 31.5 47.5t54.5 19.5q32 0 45.5 -28t6.5 -61zM284 395q-5 -23 -26.5 -40.5t-45.5 -17.5q-23 0 -37 17.5t-9 40.5q5 24 26.5 41.5 t44.5 17.5t37 -17.5t10 -41.5z" />
<glyph unicode="&#x384;" horiz-adv-x="229" d="M202 655l-113 -114h-43l72 148q25 51 77 31q21 -8 21 -29t-14 -36z" />
<glyph unicode="&#x385;" horiz-adv-x="469" d="M456 622q-1 -26 -31 -49t-58 -23q-22 0 -37 15t-14 36q1 28 26 50t53 22q22 0 42 -15t19 -36zM339 692q0 -6 -1.5 -11.5t-3 -9t-6 -9t-6.5 -7.5l-8.5 -8.5l-7.5 -7.5l-95 -96h-43l72 148q17 38 48 38q19 0 35 -9.5t16 -27.5zM179 622q-1 -26 -27 -49t-53 -23 q-22 0 -37.5 15t-14.5 36q1 28 27 50t54 22q21 0 36.5 -15t14.5 -36z" />
<glyph unicode="&#x386;" horiz-adv-x="785" d="M238 631l-113 -114h-43l72 147q8 18 18.5 27t22 10t18.5 -0.5t18 -5.5q21 -8 21 -28.5t-14 -35.5zM745 28l-7 -28q-118 6 -178 6l-166 -6l7 28q81 0 90 48q3 16 -1.5 49.5t-10.5 58.5l-6 26l-242 1q-67 -104 -76 -147q-4 -18 16.5 -27t51.5 -9l-7 -28q-62 4 -110 4 l-144 -4l6 28q8 0 21 0.5t41 10.5t42 29q45 62 144 221.5t176 288.5l76 129h71q0 -2 26.5 -146t56.5 -301t38 -181q15 -49 85 -51zM466 259l-56 266l-154 -266h210z" />
<glyph unicode="&#x387;" horiz-adv-x="239" d="M215 382q0 -26 -17.5 -43.5t-43.5 -17.5q-25 0 -43 18t-18 43t18 42.5t43 17.5q26 0 43.5 -17.5t17.5 -42.5z" />
<glyph unicode="&#x388;" horiz-adv-x="852" d="M844 692q-5 -23 -8.5 -40.5t-4.5 -28.5t-4 -40.5t-6 -56.5h-34q-6 37 -16 59.5t-15.5 28.5t-22.5 13.5t-18 7.5q-69 12 -229 12q-25 -123 -54 -258q172 0 187 14q49 44 65 93h34q1 0 -31 -123q-7 -28 -13 -63t-9 -55.5t-4 -21.5h-36q0 1 2 15t1.5 19.5t-2.5 18t-8.5 22 t-17.5 19.5q-8 7 -52.5 10.5t-85.5 2.5h-40q-13 -63 -29.5 -138t-25 -115t-8.5 -41q45 0 84 1.5t63 3.5t46.5 5t32 5t23.5 5.5t16 3.5q1 1 15 7t19 8.5t18 12.5t21 20.5t19.5 29t21.5 42.5l35 -1q-9 -28 -19.5 -59.5t-15.5 -47t-11 -37t-12 -45.5h-617l7 30q63 2 100 36 q17 16 41.5 119t32.5 152q61 268 45 296q-5 9 -12.5 14.5t-19 8t-18 3.5t-20.5 1h-16l6 32h600zM157 636l-113 -114h-44l72 148q26 51 77 31q22 -8 22.5 -30t-14.5 -35z" />
<glyph unicode="&#x389;" horiz-adv-x="966" d="M1024 692l-6 -28q-53 -5 -69 -10t-31 -24q-10 -12 -23 -53.5t-21.5 -79t-20.5 -92t-14 -63.5q-58 -249 -40 -276q11 -17 20.5 -23t31.5 -8t32 -4l-7 -31q-65 8 -171.5 9.5t-178.5 -8.5l7 31q35 1 54.5 8t41.5 28q27 25 77 278h-288q-61 -251 -42 -282q11 -17 21 -23 t31 -7.5t32 -4.5l-6 -31q-61 9 -172.5 10t-178.5 -8l7 30q34 1 50.5 7.5t46.5 28.5q21 16 77 279q0 2 7 35t13.5 65.5t14 77t8.5 69t-3 41.5q-5 13 -15.5 19.5t-19.5 7.5t-24.5 1t-23.5 1l6 30q31 -6 158 -6.5t196 6.5l-6 -32q-6 0 -17.5 -1t-15.5 -1.5t-12 -1t-10.5 -1 t-8 -1.5t-7.5 -2.5t-6 -3.5t-6.5 -4t-5.5 -5l-7 -7q-26 -31 -71 -238h289q45 212 30 240q-6 13 -17 19.5t-19.5 7.5t-24.5 1t-23 1l6 29q30 -6 157 -6.5t198 6.5zM156 636l-113 -114h-43l72 148q25 51 77 31q21 -8 21 -29t-14 -36z" />
<glyph unicode="&#x38a;" horiz-adv-x="534" d="M592 693l-7 -30q-52 -5 -67 -9t-31 -22q-22 -26 -79 -291q-58 -250 -41 -277q11 -17 21 -23t31 -7.5t32 -4.5l-6 -31q-61 9 -172.5 10t-178.5 -8l7 30q34 1 50.5 7.5t46.5 28.5q24 19 77 282q0 3 7.5 35t14 65t14 76.5t8 68t-3.5 40.5q-6 12 -16.5 18.5t-19.5 7.5 t-24.5 1.5t-22.5 1.5l7 31q30 -6 156.5 -6.5t196.5 6.5zM157 634l-113 -114h-44l72 147q9 18 19 27t21.5 10t18.5 -0.5t18 -5.5q22 -8 22.5 -30t-14.5 -34z" />
<glyph unicode="&#x38c;" horiz-adv-x="926" d="M899 332q-37 -152 -158.5 -248.5t-272.5 -96.5q-161 0 -242 92.5t-46 252.5q26 121 93 207t156 126.5t193 40.5q73 0 131 -20.5t101 -65.5t54.5 -116.5t-9.5 -171.5zM733 344q13 59 14.5 113t-10 101t-43.5 75.5t-82 29.5t-91 -19.5t-67.5 -51t-48 -77.5t-33.5 -87 t-22 -91q-16 -84 -9.5 -152.5t42.5 -111t95 -41.5q83 1 154.5 92.5t100.5 219.5zM157 636l-113 -114h-44l72 148q26 51 77 31q22 -8 22.5 -30t-14.5 -35z" />
<glyph unicode="&#x38e;" horiz-adv-x="841" d="M157 636l-113 -114h-44l72 148q26 51 77 31q22 -8 22.5 -30t-14.5 -35zM911 693l-7 -32q-55 -2 -91.5 -26.5t-103.5 -102.5q-17 -20 -53.5 -65.5t-65 -82.5t-28.5 -38q-63 -263 -50 -280q24 -38 86 -36l-7 -33q-8 4 -71.5 8t-84.5 4q-170 0 -192 -8l7 30q61 2 100 37 q9 8 21.5 49.5t22 84t19 87.5t10.5 48q-72 183 -119 288q-8 17 -20 25.5t-20 10t-25 1t-20 -0.5l6 32q24 -9 160 -9q20 0 87 2.5t75 5.5l-6 -31q-3 0 -14 0.5t-17 0t-15 -2t-15.5 -6.5t-10.5 -13q-7 -10 14 -72t45 -119l24 -57l38 50q37 51 78 108.5t48 72.5q8 18 -7 29 t-43 9l7 30q88 -4 115 -4q51 0 123 6z" />
<glyph unicode="&#x38f;" horiz-adv-x="941" d="M156 636l-113 -114h-43l72 148q25 51 77 31q21 -8 21 -29t-14 -36zM916 424q-16 -74 -68.5 -131.5t-118.5 -85t-132 -27.5l-14 -60q1 1 32.5 0.5t71 1.5t54.5 7q22 8 33 18.5t22 32.5l39 -2q-33 -81 -58 -178q1 0 -14 0h-38h-52h-57h-52h-38h-15q35 148 42 201 q56 8 116.5 69.5t78.5 146.5q24 109 -12 176.5t-133 67.5t-161 -67.5t-87 -176.5q-18 -85 16.5 -146.5t86.5 -69.5q-26 -94 -42 -201h-267q17 98 18 178l40 2q1 -22 7.5 -32.5t25.5 -18.5q13 -5 51 -7t70.5 -1.5t32.5 -0.5l13 63q-49 0 -92.5 14.5t-77 42.5t-47 76t-0.5 108 q16 74 58.5 130t101.5 88.5t125.5 48.5t137.5 16q77 0 136.5 -14t105 -45.5t62 -88.5t-0.5 -135z" />
<glyph unicode="&#x390;" horiz-adv-x="385" d="M446 617q-1 -26 -31 -49t-58 -23q-22 0 -37.5 15t-14.5 37q1 27 26 49t53 22q23 0 43 -15t19 -36zM328 687q0 -7 -1.5 -13t-6 -12t-6.5 -9t-9 -10l-9 -9l-95 -95h-44l72 147q20 38 49 38q19 0 34.5 -10t15.5 -27zM169 617q-1 -26 -27 -49t-53 -23q-22 0 -37.5 15 t-14.5 37q1 28 26.5 49.5t53.5 21.5q21 0 37 -15t15 -36zM360 146q-26 -50 -51.5 -84t-48.5 -48.5t-35.5 -19.5t-28.5 -8q-27 -7 -64.5 7t-41.5 51q-9 68 28 204q6 21 20.5 69.5t20.5 74t2 34.5q-9 20 -53 20l7 37q14 -3 87 -5.5t112 2.5q-46 -122 -87 -282q-8 -30 -12 -52 t-4.5 -42.5t7.5 -31.5t25 -10t42 27t49 69z" />
<glyph unicode="&#x391;" horiz-adv-x="785" d="M745 28l-7 -28q-118 6 -178 6l-166 -6l7 28q81 0 90 48q3 16 -1.5 49.5t-10.5 58.5l-6 26l-242 1q-67 -104 -76 -147q-4 -18 16.5 -27t51.5 -9l-7 -28q-62 4 -110 4l-144 -4l6 28q8 0 21 0.5t41 10.5t42 29q45 62 144 221.5t176 288.5l76 129h71q0 -2 26.5 -146 t56.5 -301t38 -181q15 -49 85 -51zM466 259l-56 266l-154 -266h210z" />
<glyph unicode="&#x392;" horiz-adv-x="759" d="M737 524q-13 -62 -87.5 -105.5t-180.5 -41.5q31 -1 55 -3t66 -13t67 -29t40 -54t4 -86q-13 -58 -54.5 -100t-96.5 -61.5t-104.5 -27.5t-93.5 -6q-33 1 -173 2t-172 0l7 31q61 2 99 36q22 21 74 271q61 268 45 296q-17 29 -85 32l6 28q7 -1 112.5 -1.5t207.5 -1.5t105 -2 q89 -9 131.5 -51t27.5 -113zM584 519q13 57 -15 90t-77 37q-19 2 -46 2.5t-43 0.5h-16l-13 -65q-14 -64 -28 -129.5t-15 -65.5q47 0 92 8q68 10 110 45.5t51 76.5zM537 194q10 33 4.5 57t-13 41t-25 28t-31 17.5t-32 9.5t-27 3.5t-16.5 0.5l-74 -2l-65 -306q61 -6 112 4 q139 21 167 147z" />
<glyph unicode="&#x393;" horiz-adv-x="670" d="M714 692q-19 -87 -27 -168h-33q-4 41 -19 72.5t-32 37.5q-13 5 -32 8.5t-47 4.5t-44 1.5t-53 0t-43 -0.5q-58 -275 -64 -297q-3 -17 -10.5 -50.5t-12.5 -57.5t-12 -58.5t-9 -54t-3.5 -42.5t3.5 -24q11 -17 21 -23t31 -7.5t33 -4.5l-6 -32q-61 9 -172.5 10.5t-178.5 -7.5 l6 32q35 1 51.5 7t45.5 27q5 4 11 17t12.5 35.5t12.5 43.5t12.5 52t10.5 49.5t10.5 48.5t7.5 36q59 258 42 285t-77 27l7 33h52.5h88.5t107.5 -0.5t112 -0.5h98.5h71h28z" />
<glyph unicode="&#x394;" horiz-adv-x="660" d="M567 0l-449 -1h149h-1h-1h-1h-1h-1h-1h-1h-1h-1h-1h-1h-1h-1h-1h-1h-1h-1h-1h-1h-1h-1h-1h-1h-1h-1h-1h-1h-1h-1h-1h-1h-1h-1h-1h-1h-1h-1h-1h-1h-1h-1h-1h-1h-1h-1h-1h-1h-1h-1h-1h-1h-1h-1h-1h-1h-1h-1h-1h-1h-1h-1h-1h-1h-1h-1h-1h-1h-1h-1h-1h-1h-1h-1h-1h-1h-1h-1 h-1h-1h-1h-1h-1h-1h-1h-1h-1h-1h-1h-1h-1h-1h-1h-1h-1h-1h-1h-1h-1h-1h-1h-1h-1h-1h-1h-1h-1h-1h-1h-1h-1h-1h-1h-1h-1h-1h-1h-1h-1h-1h-1h-1h-1h-1h-1h-1h-1h-1h-1h-1h-1h-1h-1h-1h-1h-1h-1h-1h-1h-1h-1h-1h-1h-1h-1h-1h-1h-1h-1h-1h-1h-1h-1h-1h-1h-1h-1h-1h-1h-1h-1h-1 h-1h-1h-1h-1h-1h-1h-1h-1h-1h-1h-1h-1h-1h-1h-1h-1h-1h-1h-1h-1h-1h-1h-1h-1h-1h-1h-1h-1h-1h-1h-1h-1h-1h-1h-1h-1h-1h-1h-1h-1h-1h-1h-1h-1h-1h-1h-1h-1h-1h-1h-1h-1h-1h-1h-1h-1h-1h-1h-1h-1h-1h-1h-1h-1h-1h-1h-1h-1h-1h-1h-1h-1h-1h-1h-1h-1h-1h-1h-1h-1h-1h-1h-1h-1 h-1h-1h-1h-1h-1h-1h-1h-1h-1h-1h-1h-1h-1h-1h-1h-1h-1h-1h-1h-1h-1h-1h-1h-1h-1h-1h-1h-1h-1h-1h-1h-1h-1h-1h-1h-1h-1h-1h-1h-1h-1h-1h-1h-1h-1h-1h-1h-1h-1h-1h-1h-1h-1h-1h-1h-1h-1h-1h-1h-1h-1h-1h-1h-1h-1l412 673h68q2 -22 57.5 -313t72.5 -359zM399 55q0 1 -18 103.5 t-38 214t-23 128.5l-260 -446v0v0v0h1v0v0h1v0h1v0h1v0h1v0h1h1v0h1h1h1h1h1h1h1h1h1h1h1h1h1h1h1h1h1h1h1h1h1h1h1h1h1h1h1h1h1h1h1h1h1h1h1h1h1h1h1h1h1h1h1h1h1h1h1h1h1h1h1h2h1h1h1h1h1h1h1h1h1h1h1h2h1h1h1h1h1h1h2h1h1h1h1h1h2h1h1h1h2h1h1h1h1h2h1h1h1h2h1h1h2h1h1h1 h2h1h1h2h1h1h2h1h1h2h1h2h1h1h2h1h1h2h1h2h1h1h2h1h2h1h2h1h1h2h1h2h1h2h1h2h1h2h1h2h1h2h1h2h1h2h1h2h1h2h1h2h1h2h2h1h2h1h2h1h2h2h1h2h1h2h2h1h2h1h2h2h1h2h2h1h2h2h1h2h2h1h2h2h1h2h2h1h2h2h1h2h2h2h1h2h2h2h1h2h2h2h1h2h2h2h1h2h2h2h2h1h2h2h2h2h1h2h2h2h2h2h1h2h2h2h2 h2h1h2h2h2h2h2h2h2h8z" />
<glyph unicode="&#x395;" horiz-adv-x="758" d="M750 692q-5 -23 -8.5 -40.5t-4.5 -28.5t-4 -40.5t-6 -56.5h-34q-6 37 -16 59.5t-15.5 28.5t-22.5 13.5t-18 7.5q-69 12 -229 12q-25 -123 -54 -258q172 0 187 14q49 44 65 93h34q1 0 -31 -123q-7 -28 -13 -63t-9 -55.5t-4 -21.5h-36q0 1 2 15t1.5 19.5t-2.5 18t-8.5 22 t-17.5 19.5q-8 7 -52.5 10.5t-85.5 2.5h-40q-13 -63 -29.5 -138t-25 -115t-8.5 -41q45 0 84 1.5t63 3.5t46.5 5t32 5t23.5 5.5t16 3.5q1 1 15 7t19 8.5t18 12.5t21 20.5t19.5 29t21.5 42.5l35 -1q-9 -28 -19.5 -59.5t-15.5 -47t-11 -37t-12 -45.5h-617l7 30q63 2 100 36 q17 16 41.5 119t32.5 152q61 268 45 296q-5 9 -12.5 14.5t-19 8t-18 3.5t-20.5 1h-16l6 32h600z" />
<glyph unicode="&#x396;" horiz-adv-x="731" d="M763 693q-192 -218 -303 -351q-48 -57 -107.5 -130.5t-94.5 -119.5l-36 -45q98 -2 181.5 4.5t112.5 14.5q68 21 112 124l35 -1q-11 -37 -24 -73.5t-20.5 -60.5t-14.5 -55v0v0v0v0v0h-1v0v0v0h-1v0v0h-1v0v0h-1v0h-1v0h-1v0h-1v0h-1v0h-1v0h-1h-1v0h-1h-1h-1h-1h-1h-1h-1 h-1h-1h-1h-1h-1h-1h-1h-1h-1h-1h-1h-1h-1h-1h-1h-1h-1h-1h-1h-1h-1h-1h-1h-1h-1h-1h-1h-1h-1h-1h-1h-1h-1h-1h-1h-1h-1h-1h-1h-1h-1h-1h-1h-1h-1h-1h-1h-1h-1h-1h-1h-1h-1h-1h-1h-1h-1h-1h-1h-1h-1h-1h-1h-1h-1h-1h-1h-1h-1h-1h-1h-1h-1h-1h-1h-1h-1h-1h-1h-1h-1h-1h-1h-1 h-1h-1h-1h-1h-1h-1h-1h-1h-1h-1h-1h-1h-1h-2h-1h-1h-1h-1h-1h-1h-1h-1h-1h-2h-1h-1h-1h-1h-1h-1h-1h-2h-1h-1h-1h-1h-1h-2h-1h-1h-1h-1h-1h-2h-1h-1h-1h-1h-2h-1h-1h-1h-1h-2h-1h-1h-1h-2h-1h-1h-1h-2h-1h-1h-1h-2h-1h-1h-1h-2h-1h-1h-1h-2h-1h-1h-2h-1h-1h-2h-1h-1h-1h-2 h-1h-1h-2h-1h-1h-2h-1h-1h-2h-1h-1h-2h-1h-1h-2h-1h-1h-2h-1h-2h-1h-1h-2h-1h-1h-2h-1h-2h-1h-1h-2h-1h-2h-1h-1h-2h-1h-2h-1h-1h-2h-1h-2h-1h-2h-1h-2h-1h-1h-2h-1h-2h-1h-2h-1h-2h-1h-2h-1h-1h-2h-1h-2h-1h-2h-1h-2h-1h-2h-1h-2h-1h-2h-1h-2h-1h-2h-1h-2h-2h-1h-2h-1h-2 h-1h-2h-1h-2h-1h-2h-1h-2h-2h-1h-2h-1h-2h-1h-2h-2h-1h-2h-1h-2h-1h-2h-2h-1h-2h-1h-2h-2h-1h-2h-1h-2h-2h-1h-2h-1h-2h-2h-1h-2h-2h-1h-2h-2h-1h-2h-1h-2h-2h-1h-2h-2h-1h-2h-2h-1h-2h-2h-1h-2h-2h-1h-2h-2h-2h-1h-2h-2h-1h-2h-2h-1h-2h-2h-2h-1h-2h-2h-1h-2h-2h-2h-1h-2 h-2h-1h-2h-2h-2h-1h-2h-2h-2h-1h-2h-2h-2h-2h-1h-2h-2h-2h-1h-2h-2h-2h-2h-1h-2h-2h-2h-2h-1h-2h-2h-2h-2h-1h-2h-2h-2h-2h-1h-2h-2h-2h-2h-2h-1h-2h-2h-2h-2h-2h-2h-1h-2h-2h-2h-2h-2h-2h-2h-1h-2h-2h-2h-2h-2h-2h-2h-2h-1h-2h-2h-2h-10q93 99 295 344l247 301 q-219 1 -261 -10q-19 -6 -32.5 -12.5t-39.5 -32.5t-50 -68h-31l48 171h582z" />
<glyph unicode="&#x397;" horiz-adv-x="870" d="M928 692l-6 -28q-53 -5 -69 -10t-31 -24q-10 -12 -23 -53.5t-21.5 -79t-20.5 -92t-14 -63.5q-58 -249 -40 -276q11 -17 20.5 -23t31.5 -8t32 -4l-7 -31q-65 8 -171.5 9.5t-178.5 -8.5l7 31q35 1 54.5 8t41.5 28q27 25 77 278h-288q-61 -251 -42 -282q11 -17 21 -23 t31 -7.5t32 -4.5l-6 -31q-61 9 -172.5 10t-178.5 -8l7 30q34 1 50.5 7.5t46.5 28.5q21 16 77 279q0 2 7 35t13.5 65.5t14 77t8.5 69t-3 41.5q-5 13 -15.5 19.5t-19.5 7.5t-24.5 1t-23.5 1l6 30q31 -6 158 -6.5t196 6.5l-6 -32q-6 0 -17.5 -1t-15.5 -1.5t-12 -1t-10.5 -1 t-8 -1.5t-7.5 -2.5t-6 -3.5t-6.5 -4t-5.5 -5l-7 -7q-26 -31 -71 -238h289q45 212 30 240q-6 13 -17 19.5t-19.5 7.5t-24.5 1t-23 1l6 29q30 -6 157 -6.5t198 6.5z" />
<glyph unicode="&#x398;" horiz-adv-x="824" d="M797 332q-36 -152 -157.5 -248.5t-273.5 -96.5q-161 0 -241.5 92.5t-46.5 252.5q39 181 161 277.5t282 96.5q73 0 131 -20.5t101 -65.5t54 -116.5t-10 -171.5zM636 341q18 84 16.5 155.5t-38 118.5t-103.5 48q-50 1 -91.5 -19.5t-69.5 -52t-50 -77.5t-34.5 -87.5 t-22.5 -91.5q-27 -127 9 -215.5t125 -87.5q82 1 154.5 91t104.5 218zM606 484q-20 -60 -33 -119l-21 -135h-35q5 45 -11 62q-5 5 -13 7t-15 2t-21 -1t-23 -1q-4 0 -19.5 0.5t-20.5 0t-15 -3t-19 -7.5q-5 -3 -9 -6t-6.5 -6t-5.5 -7.5t-4.5 -7t-3.5 -9t-3 -8.5t-3 -9t-3 -9 h-36q24 81 35 133l19 121h34q-3 -17 -1.5 -33t14.5 -25q16 -13 68 -13q55 0 78 16t37 58h36z" />
<glyph unicode="&#x399;" horiz-adv-x="444" d="M502 693l-7 -30q-52 -5 -67 -9t-31 -22q-22 -26 -79 -291q-58 -250 -41 -277q11 -17 21 -23t31 -7.5t32 -4.5l-6 -31q-61 9 -172.5 10t-178.5 -8l7 30q34 1 50.5 7.5t46.5 28.5q24 19 77 282q0 3 7.5 35t14 65t14 76.5t8 68t-3.5 40.5q-6 12 -16.5 18.5t-19.5 7.5 t-24.5 1.5t-22.5 1.5l7 31q30 -6 156.5 -6.5t196.5 6.5z" />
<glyph unicode="&#x39a;" horiz-adv-x="897" d="M949 692l-6 -32q-5 -1 -21 -1.5t-22.5 -2t-22 -4.5t-29.5 -9.5t-35.5 -17t-48.5 -27t-61 -38.5q-18 -12 -61 -44.5t-76 -59.5l-34 -26q207 -344 220 -356q36 -34 93 -44l-6 -30q-15 5 -182 5q-183 0 -197 -4l7 31h19t25 1t20 4t19.5 9t8.5 16q3 16 -58.5 125t-91.5 155 l-102 -73q-9 -46 -18.5 -94t-15.5 -77t-6 -31q22 -37 93 -39l-7 -30q-18 9 -178 9q-147 0 -171 -7l6 28q56 1 99 39q9 9 22 50.5t22.5 84t19 87.5t10.5 48q11 48 31.5 162.5t14.5 131.5q-4 10 -11.5 16t-18.5 8.5t-18 3.5t-21 1h-16l7 33q15 -7 194 -7q139 0 159 7l-7 -30 q-74 -3 -102 -32q-18 -19 -76 -301q260 193 348 276q29 29 11 43q-15 12 -78 12l6 31q119 -6 177 -6q107 0 166 6z" />
<glyph unicode="&#x39b;" horiz-adv-x="785" d="M745 28l-7 -28q-118 6 -178 6l-166 -6l7 28q37 0 63 11.5t27 36.5q1 19 -37.5 222.5t-43.5 220.5l-38 -65q-38 -64 -82.5 -141t-85.5 -152t-49 -97q-6 -17 15 -26.5t53 -9.5l-7 -28q-62 4 -110 4l-144 -4l5 28q8 0 21.5 0.5t41.5 10.5t42 29q45 62 144 221.5t176 288.5 l76 129h70q0 -1 26.5 -145.5t57 -301.5t38.5 -181q15 -49 85 -51z" />
<glyph unicode="&#x39c;" horiz-adv-x="1007" d="M226 613q1 15 -7.5 27.5t-19.5 16.5q-15 6 -50 6l5 30q255 -2 256 0l101 -474l313 472l241 1l-5 -30q-63 0 -94 -29q-8 -8 -18 -32.5t-18 -53.5t-16.5 -65.5t-14 -63t-11 -52.5t-5.5 -27q-52 -251 -40 -272q12 -20 32 -26.5t54 -7.5l-8 -35q-8 4 -89 7t-113 3 q-18 0 -79.5 -3.5t-70.5 -6.5l6 32q63 2 101 36q7 4 15.5 25t16 48t15 61.5t12.5 60.5t10 50.5t5 26.5l46 231q-4 -6 -100.5 -148t-179.5 -266.5t-99 -153.5q-5 35 -38 169t-67 263.5t-35 134.5q0 -7 -53 -259q-28 -142 -31 -158q-2 -12 -6 -33t-5.5 -31t-0.5 -22t7 -19 q14 -18 78 -17q0 -2 -1 -5t-2.5 -9.5t-2.5 -10.5v-4q1 0 -14 0h-38t-51 -0.5t-56 -0.5h-51.5t-37.5 1h-15l6 30q71 -3 96 29q17 22 67 245q60 298 60 309z" />
<glyph unicode="&#x39d;" horiz-adv-x="861" d="M918 693l-2 -7q-1 -8 -2 -15l-2 -7q-63 0 -85 -17q-9 -7 -15 -19t-9 -20t-8.5 -31t-8.5 -33q-16 -61 -36 -157q-3 -15 -24.5 -114.5t-39.5 -183t-20 -98.5h-3h-7h-10h-11.5h-11.5h-9.5h-7.5h-2q-241 398 -333 550q-35 -175 -47 -232q-18 -74 -30 -158q-2 -11 -5 -27 t-5 -25.5t-3 -20.5t1 -18.5t6 -13.5q14 -18 78 -17q0 -2 -1 -5t-2.5 -9.5t-2.5 -10.5v-4q1 0 -14 0h-38t-51 -0.5t-56 -0.5h-51.5t-37.5 1h-15l7 32q74 -3 97 26q13 14 65 246q4 13 30.5 151.5t28.5 157.5q-4 33 -26 42q-5 2 -21 3.5t-30 2.5l-13 1l6 31h229 q27 -54 77 -137.5t122 -197.5t87 -138q13 44 38 171q11 51 27.5 142.5t12.5 104.5q-4 15 -26 21.5t-42 5.5l-20 -1q4 20 6 29h266z" />
<glyph unicode="&#x39e;" horiz-adv-x="711" d="M709 692q-4 -31 -12 -78t-12 -78t-5 -62h-37q5 51 -24 77q-4 4 -13.5 6.5t-29.5 3.5t-36 1t-51 -0.5t-58 -0.5h-43.5h-41.5h-35t-32 -0.5t-25 -1.5t-21.5 -3t-13.5 -5q-23 -11 -40 -33t-24 -44h-33q14 37 64 218q523 -1 523 0zM564 479q-20 -61 -33 -119l-21 -135h-35 q5 46 -11 62q-4 4 -9.5 6.5t-15.5 3.5t-14.5 1h-19.5h-19q-100 0 -120 -11q-6 -3 -10.5 -8t-7.5 -8.5t-6.5 -10.5t-5 -10.5t-4.5 -12.5l-4 -12h-35q24 81 34 133l19 121h35q-3 -17 -1.5 -33t14.5 -25q16 -12 115 -12q65 0 82 12q24 17 37 58h36zM654 236q-27 -82 -70 -236 q-551 -1 -552 0q4 33 10.5 82.5t10.5 85.5t7 68h32q0 -2 0.5 -11.5t0.5 -13t1 -12.5t2 -13.5t3 -12t5 -12t7.5 -9t9.5 -7.5q16 -8 42 -11.5t47 -4t67.5 0t72.5 0.5h91.5t64 3.5t43.5 11.5q12 5 21.5 13t17 20t11.5 18t11 22t8 18h36z" />
<glyph unicode="&#x39f;" horiz-adv-x="824" d="M797 332q-37 -152 -158.5 -248.5t-272.5 -96.5q-161 0 -242 92.5t-46 252.5q26 121 93 207t156 126.5t193 40.5q73 0 131 -20.5t101 -65.5t54.5 -116.5t-9.5 -171.5zM631 344q13 59 14.5 113t-10 101t-43.5 75.5t-82 29.5t-91 -19.5t-67.5 -51t-48 -77.5t-33.5 -87 t-22 -91q-16 -84 -9.5 -152.5t42.5 -111t95 -41.5q83 1 154.5 92.5t100.5 219.5z" />
<glyph unicode="&#x3a0;" horiz-adv-x="865" d="M923 691l-7 -29q-47 0 -66.5 -5.5t-35.5 -25.5q-13 -16 -27 -68.5t-31.5 -135t-17.5 -84.5q-55 -252 -38 -277q11 -17 20 -23t31.5 -8t32.5 -4l-7 -31q-62 7 -172 7.5t-178 -8.5l7 33q33 1 49.5 7.5t46.5 28.5q23 17 87 327l51 241h-48.5t-94 -0.5t-105.5 0t-41 0.5 q0 1 -8 -39t-21 -102.5t-21 -100.5q-69 -303 -52 -330q8 -13 18 -19.5t17.5 -7.5t22.5 -2t27 -4l-6 -32q-62 8 -173 9t-179 -8l7 30q34 1 50.5 7.5t46.5 28.5q7 5 15.5 28t17 58.5t15.5 66.5t15.5 70.5t11.5 52.5q59 260 42 291q-8 16 -22.5 23t-29 6.5t-31.5 -0.5l6 30h194 q193 -1 387 -1h194z" />
<glyph unicode="&#x3a1;" horiz-adv-x="721" d="M704 495q-18 -94 -89.5 -143.5t-172.5 -55.5l-134 -2l-10 -52q-11 -51 -19.5 -108t-1.5 -68q24 -36 84 -38l-6 -30q-16 8 -172.5 8.5t-178.5 -6.5l8 29q62 3 98 37q17 16 41.5 119t32.5 152q61 267 46 296q-8 14 -26.5 21t-26.5 7h-32l5 30v0v0v0v0h1v0v0h1v0h1v0h1v0h1 v0h1h1v0h1h1h1h1h1h1h1h1h1h1h1h1h1h1h1h1h1h1h1h1h1h1h1h1h1h1h1h1h1h1h1h1h1h1h1h1h1h1h1h1h1h1h1h1h1h1h1h1h1h1h1h1h1h1h1h1h1h1h1h1h1h1h1h1h1h1h1h1h1h1h1h1h1h1h1h1h1h1h1h1h1h1h1h1h1h1h1h1h1h1h1h1h1h1h1h1h1h1h1h1h1h1h1h1h1h1h1h1h1h1h1h1h1h1h1h1h1h1h1h1h1h1h1 h1h1h1h1h1h1h9q197 2 265 -5q77 -8 118.5 -61t25.5 -130zM555 493q21 119 -69 150q-9 3 -14.5 5t-14.5 3t-14.5 1t-23.5 0.5t-34 1.5q1 0 -16 -80.5t-34.5 -161.5t-17.5 -80h26.5t16 -0.5t10.5 0t12.5 1.5t20.5 4q63 12 103.5 58t48.5 98z" />
<glyph unicode="&#x3a3;" horiz-adv-x="727" d="M736 692q-1 0 -6 -42.5t-10 -85.5l-4 -42h-37q-5 33 -12 54.5t-19 32t-18 13.5t-20 8q-64 20 -271 17q41 -89 132 -254q-28 -26 -152 -139t-141 -127q17 0 74.5 0.5t115.5 -0.5q180 -2 218 16q33 15 68 90h42l-26 -58q-27 -58 -53 -117l-26 -58h-623q20 19 178 160 t177 159q-151 271 -202 373v0v0v0v0h1v0v0v0h1v0v0h1v0h1v0h1v0h1v0h1v0h1v0h1h1v0h1h1v0h1h1h1h1h1h1h1h1h1h1h1h1h1h1h1h1h1h1h1h1h1h1h1h1h1h1h1h1h1h1h1h1h1h1h1h1h1h1h1h1h1h1h1h1h1h1h1h1h1h1h1h1h1h1h1h1h1h1h1h1h1h1h1h1h1h1h1h1h1h1h1h1h1h1h1h1h1h1h1h1h1h1h1h1h1 h1h1h1h1h1h1h1h1h1h1h1h1h1h1h1h1h1h1h1h2h1h1h1h1h1h1h1h1h1h2h1h1h1h1h1h1h1h2h1h1h1h1h1h1h2h1h1h1h1h1h2h1h1h1h1h2h1h1h1h1h2h1h1h1h2h1h1h1h1h2h1h1h1h2h1h1h1h2h1h1h2h1h1h1h2h1h1h2h1h1h1h2h1h1h2h1h1h2h1h1h2h1h1h2h1h1h2h1h1h2h1h1h2h1h2h1h1h2h1h1h2h1h2h1h1h2h1 h2h1h1h2h1h2h1h2h1h1h2h1h2h1h2h1h1h2h1h2h1h2h1h2h1h2h1h1h2h1h2h1h2h1h2h1h2h1h2h1h2h1h2h1h2h1h2h1h2h2h1h2h1h2h1h2h1h2h1h2h1h2h2h1h2h1h2h1h2h2h1h2h1h2h1h2h2h1h2h1h2h2h1h2h1h2h2h1h2h2h1h2h1h2h2h1h2h2h1h2h2h1h2h1h2h2h1h2h2h1h2h2h1h2h2h1h2h2h2h1h2h2h1h2h2h1h2 h2h2h1h2h2h1h2h2h2h1h2h2h2h1h2h2h1h2h2h2h1h2h2h2h1h2h2h2h2h1h2h2h2h1h2h2h2h2h1h2h2h2h2h1h2h2h2h2h1h2h2h2h2h2h1h2h2h2h2h2h2h1h2h2h2h2h2h2h1h2h2h2h2h2h2h2h1h2h2h2h2h2h2h2h2h1h2h9z" />
<glyph unicode="&#x3a4;" horiz-adv-x="684" d="M744 693q-23 -102 -28 -169h-34q-3 41 -18 72.5t-32 37.5q-14 5 -24 8t-24.5 4.5t-20 2t-29 0t-34.5 -0.5q-59 -275 -64 -297q-58 -255 -43 -287q5 -12 14 -18.5t17 -8t25 -3.5t28 -5l-8 -31q-60 9 -171.5 10t-177.5 -8l7 30q36 1 54.5 7.5t40.5 28.5q7 6 15.5 28.5 t18.5 62t16 66t16.5 73.5t11.5 52l64 301q-11 0 -35 0.5t-31.5 0t-23 -1.5t-27.5 -4t-28 -8q-20 -7 -48.5 -38t-49.5 -72h-33q26 78 43 167h613z" />
<glyph unicode="&#x3a5;" horiz-adv-x="722" d="M792 693l-7 -32q-55 -2 -91.5 -26.5t-103.5 -102.5q-17 -20 -53.5 -65.5t-65 -82.5t-28.5 -38q-63 -263 -50 -280q24 -38 86 -36l-7 -33q-8 4 -71.5 8t-84.5 4q-170 0 -192 -8l7 30q61 2 100 37q9 8 21.5 49.5t22 84t19 87.5t10.5 48q-72 183 -119 288q-8 17 -20 25.5 t-20 10t-25 1t-20 -0.5l6 32q24 -9 160 -9q20 0 87 2.5t75 5.5l-6 -31q-3 0 -14 0.5t-17 0t-15 -2t-15.5 -6.5t-10.5 -13q-7 -10 14 -72t45 -119l24 -57l37 50q38 51 79 108.5t48 72.5q8 18 -7 29t-43 9l7 30q88 -4 115 -4q51 0 123 6z" />
<glyph unicode="&#x3a6;" horiz-adv-x="895" d="M889 359q-17 -81 -83 -137.5t-148 -78.5t-169 -18q-10 -48 0 -62q26 -33 81 -34l-7 -31q-7 4 -75.5 7.5t-90.5 3.5q-18 0 -89 -3t-79 -6l7 30q52 1 93 31q13 8 30 63q-57 0 -111.5 13t-100 40.5t-67.5 76t-9 110.5q47 214 384 214q1 14 1 33t-1 24q-4 7 -11 12.5 t-13.5 8.5t-16.5 4.5t-16 2t-16.5 0.5h-12.5l6 30q14 -6 170 -6q150 0 167 6l-7 -32q-3 0 -20 0.5t-26 -0.5t-23.5 -7t-24.5 -18q-6 -4 -21 -57q47 0 89 -4.5t87.5 -19t75.5 -37.5t44 -64t3 -95zM724 362q10 47 -0.5 83t-36 56.5t-51.5 31.5t-56 16q-40 -171 -48 -215 q-1 -3 -36 -184q78 6 143 62.5t85 149.5zM450 550q-29 -4 -58 -14t-64 -29.5t-61.5 -56.5t-36.5 -86q-19 -89 28.5 -146.5t112.5 -63.5q26 116 38 183q0 2 6 28t12 53.5t13 65.5t10 66z" />
<glyph unicode="&#x3a7;" horiz-adv-x="799" d="M856 693l-6 -26q-55 -3 -91.5 -21t-90.5 -67q-33 -29 -82.5 -75t-82.5 -78l-33 -31q0 -1 22 -43t47 -91t30 -58q6 -11 16.5 -30.5t15 -28.5t13 -23t17.5 -25.5t21 -24.5q33 -37 99 -42l-7 -30q-195 15 -398 0l8 30q83 0 92 39q-1 10 0.5 12.5t-2.5 14.5l-5.5 16.5 t-7.5 17.5t-8 17.5t-8.5 17t-8.5 16.5q-50 94 -54 105l-3 -3q-3 -3 -8.5 -9t-12.5 -13.5t-16.5 -17t-19 -19.5t-20 -20.5l-20.5 -20.5q-24 -22 -52 -60.5t-27 -57.5q1 -17 20.5 -25t49.5 -6l-7 -33q-127 5 -164 6q-73 2 -139 -7l8 31q51 2 88 17.5t77 53.5q69 64 224 224 q0 -1 -6 10.5t-16 31t-21 40.5t-22 43t-17 36q-3 6 -11.5 26t-11.5 26t-10 21t-11.5 22.5t-11.5 17.5t-14 19q-12 15 -28.5 24t-25 11.5t-29 4.5t-21.5 2l7 32q15 -5 179 -4.5t202 5.5l-6 -29q-38 -1 -56.5 -6t-28.5 -22l-3 -16.5t5 -21.5t9.5 -24.5t12 -25t11.5 -23.5 q8 -18 23 -50l22 -45q14 15 65 66t81 84.5t34 49.5q7 20 -14 27.5t-50 6.5l6 28q72 -5 145 -5q14 0 29.5 0.5t28.5 1t25.5 1t22.5 1t17 1t11 0.5z" />
<glyph unicode="&#x3a8;" horiz-adv-x="885" d="M985 685l-7 -28q-43 3 -62 -12q-24 -20 -35 -64q-32 -167 -54 -219q-16 -34 -29.5 -55t-47.5 -48.5t-84 -47.5q-75 -31 -177 -31q-22 -97 -10 -118q18 -30 83 -32l-7 -32q-8 4 -70.5 7t-84.5 3q-21 0 -98.5 -2.5t-86.5 -5.5l7 31q61 2 96 33q15 13 41 116 q-42 0 -93.5 10.5t-83.5 31.5q-81 51 -77 145q1 47 44 219q9 46 -5 65q-5 7 -18 10t-24 3l-10 -1l6 27q70 11 134 1q65 -13 61 -85q-2 -27 -21 -126.5t-21 -109.5q-16 -87 31 -122q14 -11 41 -20.5t46 -9.5l22 99q60 289 52 313q-9 29 -79 32l6 31q17 -7 171 -7q133 0 153 7 l-6 -31h-7.5t-12 -1t-14 -2t-16 -4t-15.5 -6.5t-15.5 -10.5t-13.5 -15t-36.5 -130.5t-40.5 -175.5l-23 -103q54 -3 111 30q53 31 79 123q4 16 26 108t31 116q32 87 102 99q63 8 142 -5z" />
<glyph unicode="&#x3a9;" horiz-adv-x="781" d="M756 403q-22 -105 -113 -168.5t-190 -63.5l-13 -57q1 1 31 0.5t67.5 1.5t51.5 7q21 7 31.5 17t20.5 31l37 -2q-33 -83 -55 -169h-8h-23.5h-33.5h-40h-42h-39.5h-33.5h-24h-8q35 158 40 191q53 7 110.5 65.5t74.5 139.5q22 103 -12 167.5t-126 64.5t-153 -64t-83 -168 q-17 -81 15.5 -139.5t82.5 -65.5q-25 -94 -40 -191h-253q16 95 17 169l38 2q1 -21 7 -31t24 -17q12 -5 48.5 -7t67.5 -1.5t31 -0.5l12 60q-101 0 -165.5 59t-40.5 170q20 92 84.5 155t145 88.5t172.5 25.5q58 0 105 -8t88.5 -27t65 -50t33.5 -77t-5 -107z" />
</font>
</defs>
</svg>
