<?xml version="1.0" standalone="no"?>
<!DOCTYPE svg PUBLIC "-//W3C//DTD SVG 20010904//EN"
 "http://www.w3.org/TR/2001/REC-SVG-20010904/DTD/svg10.dtd">
<svg version="1.0" xmlns="http://www.w3.org/2000/svg"
 width="550.000000pt" height="550.000000pt" viewBox="0 0 550.000000 550.000000"
 preserveAspectRatio="xMidYMid meet">
<metadata>
Created by potrace 1.13, written by Peter Selinger 2001-2015
</metadata>
<g transform="translate(0.000000,550.000000) scale(0.100000,-0.100000)"
fill="#000000" stroke="none">
<path d="M2540 5354 c-14 -2 -68 -12 -120 -20 -128 -22 -303 -80 -430 -144
-260 -130 -474 -319 -640 -566 l-52 -75 -41 8 c-133 26 -252 -13 -349 -115
-183 -192 -200 -511 -38 -696 25 -28 134 -96 154 -96 3 0 6 35 6 78 1 175 49
414 122 600 38 98 58 132 79 132 13 0 13 -3 -35 -123 -75 -188 -107 -343 -121
-583 l-7 -111 45 -12 c78 -19 75 -24 76 102 10 736 526 1362 1251 1518 90 20
134 23 310 23 174 0 220 -3 302 -21 352 -79 670 -271 888 -538 223 -273 347
-598 366 -962 4 -73 11 -133 16 -133 5 0 30 5 55 12 l46 11 -7 127 c-10 211
-48 389 -118 560 -53 128 -53 130 -34 130 12 0 28 -24 51 -72 82 -181 132
-392 142 -601 7 -155 3 -151 89 -102 239 137 250 555 21 775 -90 87 -198 119
-333 97 -49 -8 -51 -8 -63 20 -7 15 -36 60 -64 98 -205 281 -494 494 -812 601
-188 63 -276 76 -515 79 -118 2 -226 1 -240 -1z"/>
<path d="M2490 5174 c-329 -59 -658 -251 -862 -501 -234 -286 -338 -585 -338
-968 l0 -163 -262 -4 c-293 -5 -329 -12 -473 -86 -99 -51 -218 -172 -268 -272
-171 -342 5 -733 391 -867 74 -26 87 -27 342 -33 l265 -5 2 -810 c2 -550 6
-829 14 -870 38 -205 222 -391 435 -441 56 -12 113 -15 294 -12 203 4 231 7
287 27 135 49 255 152 318 273 61 116 67 144 72 366 l5 202 33 0 33 0 5 -202
c3 -143 9 -216 19 -248 65 -192 180 -315 364 -387 66 -26 78 -27 294 -31 259
-4 317 4 434 65 92 48 193 147 236 233 70 139 64 59 70 990 l5 845 265 5 c256
6 268 7 343 33 101 35 141 56 208 108 254 198 322 524 164 795 -16 27 -62 83
-104 125 -62 62 -94 85 -171 122 -138 66 -204 77 -478 77 l-230 0 -5 213 c-6
232 -18 304 -77 472 -147 414 -479 745 -890 887 -166 58 -238 70 -455 74 -150
2 -221 -1 -285 -12z m847 -749 c315 -60 525 -360 469 -672 -40 -225 -207 -408
-420 -463 -75 -19 -111 -20 -644 -20 -482 0 -573 2 -626 16 -199 51 -369 218
-421 414 -19 71 -19 229 0 300 56 212 243 386 456 425 113 20 1078 21 1186 0z"/>
<path d="M2201 4035 c-81 -25 -131 -95 -131 -184 0 -112 79 -191 192 -191 99
0 179 76 186 179 10 137 -115 237 -247 196z"/>
<path d="M3186 4039 c-108 -25 -174 -152 -135 -256 14 -38 67 -92 106 -109 74
-32 178 -5 226 58 26 33 51 115 43 140 -2 7 -7 25 -10 41 -11 47 -72 105 -129
122 -28 8 -53 15 -56 14 -3 -1 -24 -5 -45 -10z"/>
</g>
</svg>
